<svg xmlns="http://www.w3.org/2000/svg" width="42" height="50" viewBox="0 0 42 50"><path fill="#3c4a54" d="M27.63 30H13.81a.8.8 0 0 0-.81.81v5.18a7.72 7.72 0 0 0 15.44 0v-5.18a.8.8 0 0 0-.81-.81zm-6.91 12.1a6.11 6.11 0 0 1-6.1-6.11v-.55c.57-.1.95-.29 1.28-.45.4-.2.69-.35 1.37-.35.67 0 .96.15 1.36.35.46.23 1.04.52 2.09.52 1.06 0 1.63-.29 2.09-.52.4-.2.69-.35 1.37-.35.67 0 .96.15 1.36.35.33.16.71.35 1.28.45v.55a6.1 6.1 0 0 1-6.1 6.11zm5.55-8.56c-.46-.23-1.04-.52-2.09-.52-1.06 0-1.63.29-2.09.52-.41.2-.7.35-1.37.35-.67 0-.96-.15-1.37-.35-.46-.23-1.03-.52-2.09-.52-1.05 0-1.62.29-2.09.52-.19.1-.35.18-.55.24v-2.16h12.2v2.16a3.28 3.28 0 0 1-.55-.24z"/><path fill="#3c4a54" d="M40.55 15.55a4.27 4.27 0 0 0-4.26 4.27v2.59a2.65 2.65 0 0 1-2.65 2.64 5.24 5.24 0 0 1-5.24-5.23V12.9a1.7 1.7 0 0 0-.86-1.46V6.86a6.87 6.87 0 0 0-13.72 0v4.58a1.7 1.7 0 0 0-.86 1.46v6.92a5.24 5.24 0 0 1-5.24 5.23 2.64 2.64 0 0 1-2.64-2.64v-2.59a4.27 4.27 0 0 0-4.27-4.27.8.8 0 0 0-.81.81c0 .45.36.81.81.81a2.65 2.65 0 0 1 2.65 2.65v2.59a4.28 4.28 0 0 0 3.45 4.19v9.63C6.91 43.82 13.09 50 20.68 50s13.77-6.18 13.77-13.77V26.6a4.27 4.27 0 0 0 3.45-4.19v-2.59a2.65 2.65 0 0 1 2.65-2.65.8.8 0 0 0 .81-.81.8.8 0 0 0-.81-.81zM15.44 6.86a5.25 5.25 0 0 1 10.48 0v4.37H15.44zm-.81 5.99h12.1c.03 0 .05.03.05.05v2.11a3.77 3.77 0 0 1-.56-.24c-.46-.23-1.03-.52-2.09-.52-1.05 0-1.62.29-2.09.52-.4.2-.69.35-1.36.35-.67 0-.96-.15-1.37-.35-.46-.23-1.03-.52-2.09-.52-1.05 0-1.63.29-2.09.52-.19.1-.36.18-.55.24V12.9c0-.02.02-.05.05-.05zm6.05 35.53c-6.7 0-12.15-5.45-12.15-12.15v-9.6a6.88 6.88 0 0 0 6.05-6.81v-3.15c.57-.09.95-.29 1.28-.45.4-.2.69-.35 1.36-.35.68 0 .97.15 1.37.35.46.23 1.03.52 2.09.52 1.05 0 1.63-.29 2.09-.52.4-.2.69-.35 1.37-.35.67 0 .96.15 1.36.35.33.16.71.36 1.28.45v3.15c0 3.5 2.65 6.4 6.05 6.81v9.6c0 6.7-5.45 12.15-12.15 12.15z"/></svg>