<svg width="179" height="179" viewBox="0 0 179 179" fill="none" xmlns="http://www.w3.org/2000/svg">
<g clip-path="url(#clip0)">
<path fill-rule="evenodd" clip-rule="evenodd" d="M89.2 0C138.5 0 178.4 40 178.4 89.2C178.4 138.4 138.4 178.4 89.2 178.4C40 178.4 0 138.5 0 89.2C0 39.9 40 0 89.2 0Z" fill="#F7F7F7"/>
<path fill-rule="evenodd" clip-rule="evenodd" d="M87.3997 21.6C87.1997 25.7 88.2997 31.1 100.7 30.5C113.8 29.8 131.3 41 140.5 55.7C144.7 62.4 141.3 68.5 145.9 71.9C151.3 75.9 162.7 79.3 163.6 64.1C163.9 59 175.7 54.4 157.7 39.3C153.6 35.9 146.4 33.3 145.8 29.5C144.9 23.7 141.9 18.5 135 16.2C122.3 12 130 28.9 116 16.8C108.8 10.6 87.9997 10.1 87.3997 21.6Z" fill="#3EB5F1"/>
<path d="M60.8 97.2C60.6 96.9 60.7 96.6 61 96.4C61.3 96.2 61.6 96.3 61.8 96.6C62.6 97.9 63.3 100.6 63.3 102.5C63.3 103.2 63.2 103.8 63 104.3C62.7 104.9 62.3 105.2 61.6 105.3C61 105.3 60.3 105.1 59.3 104.4C58.7 104 58 103.3 57.2 102.6C56.4 101.8 55.6 100.9 54.7 99.8C54.5 99.6 54.5 99.2 54.8 99C55.1 98.8 55.4 98.8 55.6 99.1C56.5 100.1 57.3 101 58.1 101.8C58.8 102.5 59.5 103.1 60.1 103.5C60.8 104 61.3 104.2 61.7 104.2C61.9 104.2 62.1 104.1 62.2 103.9C62.4 103.6 62.4 103.1 62.4 102.6C62.2 100.8 61.5 98.4 60.8 97.2ZM90.9 66.4C94.2 65.6 97 63.8 98.8 61.3C100.4 59 101.1 56 100.5 52.5C100.4 52 100.3 51.4 100.2 50.9C97 48.9 91.4 47.6 85.6 47.8C83 47.9 80.4 48.3 77.9 49.2C77.5 50.4 77.2 51.6 77 53C76.8 54.1 76.8 55.3 76.8 56.5C76.8 57.4 76.9 58.2 77.1 59C77.7 61.3 79 63.3 80.9 64.7C82.8 66.1 85.1 66.9 87.8 66.9C88.7 66.8 89.8 66.7 90.9 66.4ZM99.7 49.4C99.1 47.5 98.3 45.8 97.1 44.4C95.6 42.7 93.6 41.4 90.8 41C90 40.9 89.3 40.8 88.6 40.9C85.2 40.9 82.5 42.2 80.6 44.4C79.7 45.4 78.9 46.6 78.3 47.9C80.6 47.2 83 46.9 85.4 46.8C91 46.5 96.3 47.6 99.7 49.4ZM99.7 61.9C97.8 64.7 94.8 66.6 91.2 67.5C90 67.8 88.9 67.9 87.8 67.9C84.9 67.9 82.3 67 80.2 65.5C78.1 63.9 76.7 61.7 76 59.2C75.8 58.3 75.7 57.4 75.7 56.4C75.7 55.2 75.8 53.9 75.9 52.8C76 51.7 76.3 50.7 76.6 49.7C75.1 50.3 73.6 51.1 72.3 52.1C72.1 52.3 71.7 52.2 71.5 52C71.3 51.8 71.4 51.4 71.6 51.2C73.2 50 75 49 77 48.3C77.7 46.5 78.7 44.9 79.9 43.6C82.1 41.2 85 39.8 88.8 39.7C89.6 39.7 90.3 39.7 91.1 39.9C94.1 40.3 96.4 41.7 98.1 43.7C100 46 101.1 49.1 101.6 52.4C102.2 56.2 101.4 59.4 99.7 61.9ZM108.8 48.8C107.8 49.9 107 51 106.4 52.3C109.2 51.4 114.8 50.9 120.6 52.5C123 53.2 125.4 54.2 127.6 55.7C127.3 54.4 126.8 53.1 126.3 52C125.7 50.7 124.8 49.5 123.8 48.5C122.3 47.1 120.4 46.1 118.3 45.7C116.3 45.3 114.1 45.4 112.2 46.3C111 46.8 109.9 47.6 108.8 48.8ZM105.9 53.6C105.6 54.3 105.4 55.1 105.3 55.8C104.9 58.1 105 60.4 105.7 62.5C106.4 64.6 107.6 66.6 109.3 68.1C111 69.7 113.3 70.9 115.9 71.4C118.6 71.9 121.1 71.5 123.1 70.3C125.1 69.1 126.6 67 127.6 64.1C128.2 62.3 128.4 60.3 128.2 58.3C128.2 57.9 128.1 57.5 128.1 57.2C125.7 55.4 123.1 54.2 120.5 53.5C114.4 51.8 108.6 52.6 106.3 53.5C106.1 53.6 106 53.6 105.9 53.6ZM104.1 55.6C104.6 52.9 105.9 50.3 108 48C109.2 46.7 110.4 45.8 111.8 45.2C114 44.2 116.4 44 118.6 44.5C120.8 45 122.9 46.1 124.6 47.6C125.8 48.7 126.7 50 127.4 51.4C128.1 53 128.7 54.8 129 56.6C130.2 57.6 131.4 58.7 132.4 59.9C132.6 60.1 132.6 60.5 132.3 60.7C132 60.9 131.7 60.9 131.5 60.6C130.8 59.7 130 58.9 129.2 58.2C129.4 60.3 129.2 62.4 128.6 64.4C127.5 67.5 125.8 69.8 123.6 71.2C121.3 72.6 118.6 73 115.6 72.5C112.7 71.9 110.3 70.7 108.4 69C106.6 67.3 105.2 65.2 104.5 62.9C103.8 60.6 103.6 58.1 104.1 55.6ZM90.4 78.4C90.2 78.1 90.3 77.8 90.5 77.6C90.7 77.4 91.1 77.5 91.3 77.7C91.7 78.3 92.4 78.8 93.2 79.2C94.2 79.7 95.5 79.9 96.7 79.8C98 79.7 99.2 79.3 100.3 78.5C101.3 77.8 102.2 76.7 102.8 75.3C102.9 75 103.3 74.9 103.5 75C103.6 75.1 103.7 75.2 103.8 75.3C104.8 77.4 105.8 78.9 106.8 79.8C107.6 80.5 108.5 80.9 109.2 81C110 81.1 110.7 81 111.3 80.7C111.9 80.4 112.5 80 112.9 79.5C113.1 79.3 113.5 79.2 113.7 79.4C113.9 79.6 114 80 113.8 80.2C113.3 80.8 112.6 81.3 111.8 81.7C111 82.1 110.1 82.2 109.1 82.1C108.1 82 107.1 81.5 106.1 80.7C105.1 79.9 104.2 78.6 103.3 76.9C102.7 78 101.9 78.8 101 79.5C99.7 80.4 98.2 80.9 96.8 81.1C95.4 81.2 93.9 81 92.7 80.4C91.8 79.8 91 79.2 90.4 78.4ZM86.1 73.1C86.4 73.2 86.6 73.5 86.5 73.8C86.4 74.1 86.1 74.3 85.8 74.2C76.2 72.3 62.4 66.2 53.6 54.7C51.5 51.9 49.7 48.9 48.2 45.5C47.7 45.7 47.3 45.9 46.8 46.1C41.7 48.1 36.9 48 33.9 46.9C33.6 46.8 33.4 46.5 33.6 46.2C33.7 45.9 34 45.7 34.3 45.9C37 46.9 41.5 47 46.4 45.1C46.8 44.9 47.3 44.7 47.7 44.5C45.2 38.1 44.2 30.5 45.5 21.7C45.5 21.4 45.8 21.2 46.1 21.2C46.4 21.2 46.6 21.5 46.6 21.8C45.4 30.3 46.3 37.7 48.7 43.9C50.9 42.7 53.2 41.1 55.4 38.9C55.3 38.8 55.2 38.7 55.2 38.5C54.9 35.6 55 31.9 55.3 28.2C55.7 23.1 56.5 17.9 57.1 14.7C57.2 14.2 57.3 13.8 57.3 13.3C57.5 11.9 57.7 10.9 58.1 10.3C58.9 9.10001 60.3 9.40001 63.6 11.6C66.8 13.8 70.9 17.4 74.5 21C76.1 22.6 77.6 24.1 78.8 25.5C79.6 25 81.1 24.6 82.7 24.4C84.4 24.2 86.3 24.1 87.3 24.3C87.6 24.4 87.8 24.6 87.8 25C87.7 25.3 87.5 25.5 87.1 25.5C86.2 25.3 84.5 25.4 82.8 25.6C81.5 25.8 80.2 26.1 79.5 26.4C81 28.2 82.1 29.6 82.4 30.4C82.5 30.7 82.4 31 82.1 31.1C81.8 31.2 81.5 31.1 81.4 30.8C80.8 29.4 77.6 25.7 73.6 21.8C70 18.3 65.9 14.6 62.8 12.5C60.2 10.7 59.3 10.4 58.9 10.9C58.6 11.3 58.5 12.2 58.3 13.4C58.2 13.8 58.2 14.3 58.1 14.8C57.5 18 56.7 23.1 56.3 28.2C56 31.6 55.9 35 56.1 37.8C56.5 37.4 56.8 37 57.1 36.6C57.3 36.4 57.7 36.3 57.9 36.5C58.1 36.7 58.2 37.1 58 37.3C55.1 40.8 52 43.3 48.9 44.9C50.3 48.2 52.1 51.3 54.1 54C63.2 65.3 76.8 71.3 86.1 73.1ZM58.8 68.8C58.6 68.5 58.7 68.2 58.9 68C59.2 67.8 59.5 67.9 59.7 68.1C61.4 70.5 64.9 72.4 69 73.7C74.5 75.5 81 76.3 85.2 76.3C85.5 76.3 85.8 76.6 85.8 76.9C85.8 77.2 85.5 77.5 85.2 77.5C80.9 77.5 74.3 76.7 68.7 74.8C64.4 73.4 60.7 71.4 58.8 68.8ZM65.2 32C64.9 32 64.7 31.7 64.7 31.4C64.7 31.1 65 30.9 65.3 30.9C65.6 30.9 66.5 30.9 67.4 30.6C68 30.4 68.5 30 68.8 29.5C69.1 28.9 69.2 28.1 68.9 27C68.5 25.3 67.1 22.9 64.2 19.7C64 19.5 64 19.1 64.3 18.9C64.5 18.7 64.9 18.7 65.1 19C68.1 22.4 69.5 24.9 70 26.8C70.4 28.2 70.2 29.3 69.8 30.1C69.3 30.9 68.6 31.4 67.8 31.7C66.8 32 65.6 32 65.2 32ZM29.9 51.3C29.6 51.2 29.5 50.8 29.6 50.6C29.7 50.3 30.1 50.2 30.3 50.3C30.9 50.6 36.2 51.1 40.9 50.6C43.5 50.3 45.9 49.8 47 48.7C47.2 48.5 47.6 48.5 47.8 48.7C48 48.9 48 49.3 47.8 49.5C46.5 50.8 43.9 51.4 41 51.7C36.2 52.2 30.6 51.6 29.9 51.3ZM40.4 53.5C40.7 53.5 41 53.8 41 54.1C41 54.4 40.7 54.7 40.4 54.7C40 54.7 36.9 55.9 35 57.2C34.5 57.5 34.1 57.9 33.9 58.2C33.8 58.4 33.8 58.5 33.8 58.6C34 58.9 34.6 59.1 35.8 59.4C37 59.6 41.4 60.5 43.9 61.4C44.6 61.7 45.2 62 45.5 62.2C46.1 62.7 46.1 63.3 45.4 63.8C45 64.1 44.1 64.3 42.6 64.5H42.4C39.4 64.9 37 65.1 36.8 65.6C36.7 65.8 37.4 66.2 39.3 67.1C48.3 71.3 54.5 76.6 58.6 82.1C63.9 89.3 65.8 96.8 65.6 102.6C65.6 102.9 65.3 103.2 65 103.2C64.7 103.2 64.4 102.9 64.4 102.6C64.5 97 62.8 89.8 57.6 82.8C53.6 77.4 47.6 72.2 38.8 68.1C36.2 66.9 35.4 66 35.8 65.1C36.3 64.1 39 63.7 42.3 63.3H42.5C43.6 63.2 44.3 63 44.6 62.9C44.4 62.7 44 62.6 43.5 62.4C41.1 61.5 36.8 60.7 35.6 60.4C34.1 60.1 33.3 59.7 32.9 59.2C32.5 58.7 32.5 58.1 32.9 57.5C33.2 57.1 33.7 56.6 34.3 56.2C36.3 54.7 39.8 53.5 40.4 53.5ZM120.2 105.9C120.1 106.2 119.8 106.4 119.5 106.3C119.2 106.2 119 105.9 119.1 105.6C120.7 99.8 123.9 96.2 127.9 94.1C132.6 91.7 138.6 91.5 144.8 92.5C146.6 92.8 147.6 92.8 148 92.6C148 92.6 148 92.5 148 92.4C147.8 92 147.3 91.6 146.7 91.1C144.4 89.2 140.2 87.1 138.4 87.2C138.1 87.2 137.8 87 137.8 86.7C137.8 86.4 138 86.1 138.3 86.1C140.3 86 144.9 88.3 147.3 90.3C148 90.9 148.6 91.5 148.8 92C149.2 92.7 149.1 93.4 148.4 93.8C147.8 94.1 146.6 94.2 144.5 93.8C138.5 92.8 132.8 93 128.3 95.3C124.6 97.1 121.7 100.5 120.2 105.9ZM141 85.5C140.7 85.5 140.4 85.3 140.4 84.9C140.4 84.5 140.6 84.3 141 84.3C141.8 84.3 143.6 85.3 145.7 86.5C148.4 88 151.6 89.8 152.2 89.5C152.3 89.4 152.1 89 151.6 88C151.2 87.3 150.6 86.5 149.7 85.5C148.9 84.6 147.8 83.4 146.5 82.2C146.3 82 146.3 81.6 146.5 81.4C146.7 81.2 147.1 81.2 147.3 81.4C148.7 82.7 149.8 83.8 150.6 84.8C151.5 85.9 152.2 86.8 152.6 87.5C153.6 89.2 153.5 90.2 152.8 90.6C151.6 91.3 148.2 89.3 145.2 87.6C143.2 86.5 141.5 85.5 141 85.5ZM153.4 84.4C153.6 84.7 153.5 85 153.3 85.2C153 85.4 152.7 85.3 152.5 85.1C152.5 85.1 152.5 85.1 152.4 85.1C152 84.8 151 83.8 149.9 82.5C148 80.1 146.1 76.9 148.2 74.6C148 74.3 147.7 73.9 147.5 73.5C146.9 74.1 146.3 74.6 145.6 75.1C140.5 79.1 133.8 81.5 126.2 80.6C124.8 80.4 123.4 80.2 122 79.8C121.7 79.7 121.5 79.4 121.6 79.1C121.7 78.8 122 78.6 122.3 78.7C123.7 79.1 125.1 79.3 126.4 79.5C133.7 80.4 140 78.1 144.9 74.3C145.6 73.7 146.3 73.1 147 72.5C146.8 72 146.6 71.4 146.4 70.8L146.2 70.3C142.3 59 136 48.8 127.1 41.4C119.2 34.8 109.2 30.4 97 29.3C96.7 29.3 96.5 29 96.5 28.7C96.5 28.4 96.8 28.2 97.1 28.2C109.5 29.3 119.7 33.8 127.8 40.6C136.8 48.2 143.3 58.5 147.2 70L147.4 70.5C147.5 70.9 147.7 71.3 147.8 71.7C151.2 68.2 153.6 63.8 154.8 59.4C155.1 58.2 155.4 57 155.5 55.8C155.5 55.5 155.8 55.3 156.1 55.3C156.4 55.3 156.6 55.6 156.6 55.9C156.5 57.1 156.2 58.4 155.9 59.6C154.6 64.4 152 69 148.3 72.8C148.6 73.4 148.8 73.9 149.1 74.3C150.6 76.2 153.5 75.8 161.2 69.6C163.7 67.6 165.4 65.4 166.3 63.3C167.4 60.7 167.4 58.1 166.6 55.5C165.8 52.8 164.3 50.2 162.3 47.7C157.2 41.3 149 35.6 142.2 32.1C141.4 32.6 140.6 32.9 139.7 33.1C137.6 33.4 135.7 32.3 134.7 31.2C134.3 30.7 134 30.2 134 29.8C133.9 29.2 134.1 28.7 134.7 28.4C135.3 28.2 136.2 28.2 137.6 28.8C139 29.4 140.5 30.1 142.1 30.9C142.2 30.8 142.4 30.7 142.5 30.5C143 29.9 143.4 29.2 143.4 28.4C143.5 27.6 143.2 26.6 142.5 25.6C141.2 23.7 138.5 21.6 133.4 19.4C132.2 18.9 131.4 18.8 130.7 19C130.2 19.1 129.9 19.4 129.6 19.8C129.3 20.2 129.2 20.8 129.2 21.4C129.1 22.7 129.5 24.1 130 24.8C130.2 25.1 130.1 25.4 129.9 25.6C129.6 25.8 129.3 25.7 129.1 25.5C128.5 24.6 128 22.9 128.1 21.4C128.1 20.6 128.3 19.9 128.7 19.3C129.1 18.7 129.7 18.2 130.5 18C131.4 17.8 132.5 17.9 133.9 18.5C139.1 20.7 142.1 23 143.5 25.1C144.3 26.3 144.6 27.5 144.6 28.6C144.5 29.7 144.1 30.6 143.4 31.4C143.3 31.5 143.3 31.5 143.2 31.6C150 35.2 158.1 40.9 163.2 47.3C165.3 50 166.9 52.7 167.7 55.5C168.5 58.4 168.5 61.2 167.3 64.1C166.3 66.4 164.6 68.7 161.9 70.9C154.3 77 150.9 77.7 148.8 76.1C147.3 77.8 148.9 80.5 150.6 82.5C151.6 83.7 152.6 84.7 153 85C153.3 84.3 153.4 84.4 153.4 84.4ZM141.1 31.1C139.7 30.4 138.5 29.8 137.3 29.3C136.2 28.8 135.5 28.8 135.3 28.9C135.3 28.9 135.2 29 135.3 29.1C135.3 29.4 135.5 29.7 135.8 30C136.6 30.9 138.1 31.8 139.7 31.6C140.2 31.5 140.7 31.3 141.1 31.1ZM125 20.6C125.3 20.8 125.3 21.1 125.1 21.4C124.9 21.7 124.6 21.7 124.3 21.5C120.5 18.9 116.1 17 111.8 15.8C107.3 14.6 102.8 14.3 99.1 14.8C95.4 15.4 92.4 16.7 90.6 18.3C89.7 19.1 89.1 20 88.9 20.9C88.7 21.8 88.8 22.7 89.4 23.6C90.2 24.9 91.9 26.2 94.5 27.4C94.8 27.5 94.9 27.9 94.8 28.1C94.7 28.3 94.3 28.5 94.1 28.4C91.2 27.1 89.4 25.7 88.5 24.2C87.8 23 87.6 21.8 87.9 20.6C88.2 19.5 88.9 18.4 89.9 17.4C91.8 15.6 95 14.2 99 13.6C102.8 13 107.5 13.4 112.2 14.6C116.6 16 121.1 17.9 125 20.6ZM106.5 133.4C106.5 133.7 106.3 134 106 134C105.7 134 105.4 133.8 105.4 133.5C105.4 133.2 105.4 132.6 105.5 131.9C105.6 130.6 105.7 128.6 105.7 126.7C104.8 126.2 103.9 125.4 103.3 124.4C102.4 123 102.2 121.9 102.4 121.2C102.5 120.7 102.8 120.4 103.2 120.3C103.5 120.2 103.9 120.2 104.3 120.4C105.1 120.7 106 121.7 106.4 123.3C106.6 124.1 106.7 125.1 106.8 126C107.4 126.2 108 126.4 108.5 126.4C109 126.4 109.5 126.3 109.8 126.1C110.1 125.9 110.4 125.6 110.6 125.2C111 124.3 110.8 122.7 109.6 120.5C109.1 120.3 108.6 120.1 108.1 119.9C106.4 119.1 105.5 117.9 105.2 117C105.1 116.5 105.1 116 105.4 115.7C105.7 115.3 106.2 115.2 106.8 115.4C107.6 115.7 108.7 116.6 109.9 118.7C110.1 119 110.3 119.3 110.4 119.6C111.2 119.8 111.8 119.9 112.4 119.8C113 119.7 113.4 119.5 113.8 119.2C114.1 118.9 114.3 118.4 114.3 117.8C114.4 116.8 114.1 115.7 113.4 114.4C111.9 111.5 108.8 108.8 105.5 107C101.9 105 98.1 103.9 95.5 104.4C95.2 104.5 94.9 104.3 94.8 103.9C94.7 103.6 94.9 103.3 95.3 103.2C98.1 102.7 102.3 103.8 106 105.9C109.5 107.8 112.7 110.6 114.3 113.8C115.1 115.3 115.4 116.7 115.3 117.8C115.2 118.6 115 119.3 114.5 119.9C114 120.4 113.3 120.8 112.4 120.9C112 121 111.5 120.9 110.9 120.9C111.8 123 111.9 124.5 111.5 125.6C111.2 126.3 110.8 126.8 110.2 127.1C109.6 127.4 109 127.5 108.3 127.5C107.8 127.5 107.2 127.4 106.7 127.2C106.7 129 106.6 130.7 106.5 131.9C106.5 132.7 106.5 133.2 106.5 133.4ZM105.6 125.3C105.5 124.7 105.4 124.1 105.3 123.6C105 122.4 104.4 121.7 103.9 121.4C103.8 121.3 103.7 121.3 103.6 121.4C103.6 121.4 103.5 121.5 103.5 121.6C103.4 122 103.6 122.8 104.3 123.9C104.5 124.4 105 124.9 105.6 125.3ZM108.7 119C107.7 117.4 106.9 116.7 106.4 116.5C106.3 116.5 106.3 116.4 106.3 116.4C106.3 116.4 106.3 116.6 106.3 116.7C106.5 117.3 107.2 118.2 108.6 118.9L108.7 119ZM124.9 99.2C125.1 98.9 125.4 98.8 125.7 99C126 99.2 126.1 99.5 125.9 99.8C124.8 101.7 124.3 103.3 124.2 104.6C124.1 105.9 124.5 106.9 125.2 107.6C126 108.4 127.2 108.9 128.6 109.1C131.3 109.6 134.9 109.3 138.8 108.3C139.1 108.2 139.4 108.4 139.5 108.7C139.6 109 139.4 109.3 139.1 109.4C135 110.4 131.3 110.7 128.4 110.2C126.7 109.9 125.3 109.3 124.4 108.4C123.4 107.4 122.9 106.2 123 104.5C123.1 102.9 123.7 101.2 124.9 99.2ZM131.6 112.5C131.3 112.3 131.3 112 131.4 111.7C131.6 111.4 131.9 111.4 132.2 111.5C132.6 111.7 133.6 111.8 134.8 112C137.8 112.3 142 112.7 143.4 116.2C143.5 116.5 143.4 116.8 143.1 116.9C142.8 117 142.5 116.9 142.4 116.6C141.2 113.7 137.4 113.4 134.7 113.1C133.4 113 132.3 112.9 131.6 112.5ZM132.5 115C132.2 114.9 132.1 114.6 132.2 114.3C132.3 114 132.6 113.9 132.9 114C133.8 114.4 134.7 114.9 135.5 115.4C140.3 118.8 144.1 125.5 146.2 132.6C148.3 139.7 148.7 147.3 146.7 152.3C146.4 153.1 146 153.9 145.5 154.5C145.2 155 144.8 155.4 144.4 155.8C141.3 159.1 135.6 161.6 128.8 162.1C122.1 162.5 114.3 160.8 107 155.7C105.4 154.6 103.9 153.3 102.3 151.9C102.1 151.7 102.1 151.3 102.3 151.1C102.5 150.9 102.9 150.9 103.1 151.1C104.6 152.5 106.1 153.7 107.7 154.8C114.8 159.7 122.3 161.4 128.8 161C135.3 160.6 140.7 158.2 143.6 155.1C144 154.7 144.3 154.3 144.6 153.9C145 153.3 145.4 152.6 145.7 151.9C147.6 147.2 147.2 139.9 145.2 133C143.2 126.1 139.5 119.6 134.9 116.4C134.1 115.8 133.3 115.4 132.5 115ZM125.9 137.6C126.1 136.4 125.5 134.9 124.9 133.5C124.6 132.7 124.3 131.9 124.1 131.3C123.6 129.2 124 128.3 124.7 128.2C125.6 128 127.1 129.4 128.4 130.6C129.4 131.5 130.3 132.4 130.4 132.4C130.4 132.4 130.2 132 129.9 131C129.4 129.4 128.9 128.1 128.1 127C127.4 125.9 126.4 124.9 125 123.9C124.5 123.5 124.3 123.1 124.2 122.8C124.2 122.5 124.2 122.2 124.4 122C124.5 121.8 124.7 121.7 125 121.6C125.5 121.4 126.2 121.4 126.8 121.7C127.7 122.1 128.3 122.2 128.5 122.1C128.6 122.1 128.4 122.1 128.4 122C128.3 121.7 128 121.3 127.6 120.8C126.1 119.2 123.3 117.4 120.9 117.7C120.6 117.7 120.3 117.5 120.3 117.2C120.3 116.9 120.5 116.6 120.8 116.6C123.6 116.3 126.8 118.3 128.4 120.1C128.9 120.7 129.3 121.2 129.5 121.7C129.8 122.4 129.6 123 128.9 123.2C128.4 123.4 127.6 123.3 126.4 122.8C126 122.7 125.6 122.6 125.4 122.7C125.4 122.8 125.6 122.9 125.7 123C127.2 124.1 128.2 125.2 129.1 126.4C129.9 127.6 130.5 129 131 130.7C131.6 132.5 131.4 133.3 130.8 133.5C130.1 133.7 128.9 132.6 127.7 131.5C126.6 130.4 125.3 129.3 125 129.3C124.9 129.3 125 129.8 125.3 131.1C125.4 131.7 125.7 132.4 126 133.2C126.6 134.7 127.3 136.4 127 138C130.7 139.1 134.2 141.4 137.1 146.2C137.3 146.5 137.2 146.8 136.9 147C136.6 147.2 136.3 147.1 136.1 146.8C130.6 137.8 123 138.1 115.4 138.3C114.5 138.3 113.5 138.4 112.6 138.4C111.5 138.4 109.7 138.2 107.9 137.8C106.2 137.5 104.6 137 103.6 136.5C101.3 135.4 98.5 133.3 95.4 131.1C88.7 126.1 80.6 120.1 74.9 122.5C74.6 122.6 74.3 122.5 74.2 122.2C74.1 121.9 74.2 121.6 74.5 121.5C80.8 118.9 89.1 125.1 96.1 130.3C99.1 132.6 101.9 134.6 104.1 135.6C105.1 136 106.6 136.5 108.2 136.8C109.9 137.2 111.7 137.4 112.7 137.4C113.6 137.4 114.6 137.3 115.5 137.3C119 137 122.5 136.9 125.9 137.6ZM102.1 146.5C102.3 146.3 102.7 146.2 102.9 146.4C103.1 146.6 103.2 147 103 147.2C101.4 149.2 99.8 149.7 98.2 149.8C101.4 152.4 105.9 156.7 108 159.5C108.7 160.4 109.2 161.3 109.3 161.9C109.5 162.9 109.2 163.4 108.2 163.5C107.6 163.5 106.7 163.4 105.5 162.9C106.1 163.5 106.6 164 107.2 164.5C110.9 168.2 112.4 169.8 111.8 170.4C111.3 170.9 109.7 170 107 168.6C106.6 168.4 106.2 168.2 105.4 167.7C99.3 164.5 89.8 159.5 82.1 153.1C77.8 154.7 75 154.7 73.4 153.7C72 152.9 71.4 151.6 71.4 150.1C71.4 149.6 71.5 149 71.6 148.5C68.5 148.6 66.4 148 64.9 147.1C64.2 146.6 63.7 146 63.3 145.4C62.9 144.7 62.7 144 62.7 143.3C62.7 142.5 62.8 141.6 63.1 140.8C60.8 140.3 59.5 138.9 59.1 137.1C58.8 135.9 58.9 134.6 59.4 133.2C59.8 131.9 60.6 130.5 61.7 129.2C65 125.4 71.1 122.6 79.4 124.6C79.7 124.7 79.9 125 79.8 125.3C79.7 125.6 79.4 125.8 79.1 125.7C71.4 123.8 65.6 126.4 62.6 129.9C61.6 131.1 60.9 132.3 60.5 133.5C60.1 134.7 60 135.8 60.2 136.8C60.5 138.3 61.6 139.4 63.6 139.7C63.7 139.4 63.9 139.2 64.1 138.9C65.3 137.1 67.3 135.5 69.6 134.5C71.8 133.5 74.1 133 76.2 133.4C76.5 133.5 76.7 133.7 76.7 134.1C76.6 134.4 76.4 134.6 76 134.6C74.2 134.3 72 134.7 70.1 135.6C68 136.5 66.2 138 65.1 139.6C64.3 140.8 63.8 142.1 63.9 143.3C63.9 143.9 64.1 144.4 64.4 144.9C64.7 145.4 65.1 145.8 65.7 146.2C67 147.1 69.1 147.6 72.1 147.4C72.3 146.9 72.6 146.4 73 146C74.4 144.2 76.7 143 79.2 143.8C79.5 143.9 79.7 144.2 79.6 144.5C79.5 144.8 79.2 145 78.9 144.9C76.9 144.2 75.1 145.2 73.9 146.7C73.1 147.7 72.6 149 72.6 150.2C72.6 151.3 73 152.3 74 152.8C75.5 153.7 78.5 153.6 83.2 151.5C84.5 150.9 86 150.5 87.5 150C89.4 149.5 91.3 149 92.9 148.7C94.3 148.4 95.5 148.5 96.6 148.6C98.4 148.8 100.2 148.9 102.1 146.5ZM96.2 149.8C95.1 149.7 94 149.7 92.7 149.9C92.1 150 91.5 150.1 90.8 150.3C92.8 151.8 95.7 154.3 98.7 156.9C100.3 158.3 102 159.8 103.6 161.3C103.8 161.2 104 161.1 104.2 161.2C106.2 162.1 107.4 162.5 108 162.4C108.1 162.4 108.2 162.3 108.1 162.2C108 161.7 107.6 161.1 107 160.2C104.7 157.1 99.4 152.2 96.2 149.8ZM89.5 150.6C88.8 150.8 88.2 150.9 87.5 151.1C86 151.5 84.6 152 83.4 152.5L83.1 152.6C90.7 158.7 99.8 163.6 105.8 166.7C106.2 166.9 106.8 167.3 107.5 167.6C109.8 168.8 110.9 169.7 111 169.6C111.1 169.5 109.5 168.4 106.4 165.3C104 162.9 101 160.2 98.1 157.7C94.6 154.8 91.4 152.1 89.5 150.6ZM47.7 124.3C48 124.2 48.3 124.3 48.5 124.5C48.6 124.8 48.5 125.1 48.3 125.3C47.2 125.9 45.8 127 44.6 128.3C43.2 129.7 42 131.3 41.4 132.6C41.2 132.9 41.1 133 41.1 133C41.3 133.1 42.1 132.9 42.8 132.8C43.9 132.6 45.1 132.3 45.7 132.8C45.7 132.8 45.7 132.8 45.8 132.8C46.5 133.4 46.2 134.7 44 137.6C43 138.9 42.1 139.7 41.2 140.6C41 140.8 40.8 141 40.7 141.1C40.5 141.3 40.1 141.3 39.9 141.1C39.7 140.9 39.7 140.5 39.9 140.3C40.1 140.1 40.3 139.9 40.5 139.8C41.4 139 42.3 138.2 43.2 137C44.9 134.8 45.3 134 45.1 133.8C44.9 133.6 44 133.8 43.1 134C42.2 134.2 41.2 134.4 40.7 134.1C40.7 134.1 40.7 134.1 40.6 134.1C40 133.8 39.8 133.2 40.4 132.2C41.1 130.9 42.4 129.2 43.8 127.7C45 126.2 46.5 124.9 47.7 124.3ZM41.1 144.9C40.9 145.1 40.5 145.2 40.3 145C40.1 144.8 40 144.4 40.2 144.2C43.1 140.5 45.2 138.5 46.4 137.7C46.9 137.4 47.4 137.3 47.7 137.4C48.2 137.5 48.4 137.9 48.4 138.5C48.4 139.2 48 140.3 47.1 141.8C46.4 143 45.9 144.4 45.6 146C45 148.8 45 151.9 45.9 154.8C46.8 157.6 48.6 160.1 51.6 161.7C52.7 162.3 54 162.8 55.4 163.1C60.1 164.2 65 164.6 70.4 164.4C75.8 164.2 81.7 163.2 88.5 161.4C88.8 161.3 89.1 161.5 89.2 161.8C89.3 162.1 89.1 162.4 88.8 162.5C81.9 164.3 75.9 165.3 70.5 165.5C65 165.7 60.1 165.3 55.2 164.2C53.7 163.9 52.3 163.3 51.1 162.7C47.8 160.9 45.9 158.2 44.9 155.1C43.9 152.1 43.9 148.7 44.6 145.7C45 144.1 45.5 142.6 46.2 141.3C46.9 140 47.3 139.1 47.3 138.6C47.2 138.6 47.1 138.7 47 138.8C45.9 139.3 44 141.3 41.1 144.9ZM26 96.2C26 95.9 26.2 95.6 26.5 95.6C26.8 95.5 27.1 95.7 27.2 96C27.8 99.1 33 105.8 39.1 112.5C46.5 120.6 55.3 128.8 59.5 131.3C59.8 131.5 59.9 131.8 59.7 132.1C59.5 132.4 59.2 132.5 58.9 132.3C54.6 129.7 45.7 121.5 38.3 113.3C32.7 107.1 27.9 101 26.5 97.4C9.20004 96.3 8.30004 87 7.60004 79.6C7.30004 76.9 7.10004 74.5 6.10004 73C4.60004 70.8 4.50004 69.7 5.10004 69.3C5.70004 68.9 6.90004 69.3 7.80004 69.7C8.10004 69.8 8.40004 69.9 8.50004 70C9.00004 70.1 9.40004 70.3 9.90004 70.4C9.60004 69.4 9.10004 68.6 8.40004 68.2C8.10004 68 8.00004 67.7 8.20004 67.4C8.40004 67.1 8.70004 67 9.00004 67.2C10.3 67.9 10.9 69.2 11.2 70.8C15.7 72.4 19.9 74.6 23.2 77.8C27.1 81.6 29.6 86.9 29.1 94.1C29.1 94.4 28.8 94.6 28.5 94.6C28.2 94.6 28 94.3 28 94C28.4 87.2 26.1 82.2 22.4 78.6C20.2 76.5 17.6 74.8 14.7 73.5C14.8 73.8 14.9 74.1 15 74.4C15.8 77.3 16.5 80 20.9 83.2C21.2 83.4 21.2 83.7 21 84C20.8 84.3 20.5 84.3 20.2 84.1C15.4 80.6 14.7 77.8 13.8 74.7C13.6 74.1 13.5 73.5 13.3 72.9C12.7 72.6 12 72.4 11.4 72.1C11.5 72.8 11.6 73.5 11.7 74.3C12.3 79.7 13.1 86.7 23 89.5C23.3 89.6 23.5 89.9 23.4 90.2C23.3 90.5 23 90.7 22.7 90.6C12.1 87.6 11.2 80.1 10.6 74.4C10.5 73.4 10.4 72.5 10.2 71.7C9.50004 71.5 8.90004 71.3 8.20004 71.1C8.00004 71 7.70004 70.9 7.40004 70.8C6.70004 70.5 5.80004 70.2 5.70004 70.3C5.60004 70.4 5.90004 70.9 7.00004 72.4C8.20004 74.1 8.40004 76.7 8.70004 79.5C9.40004 86.4 10.2 95.1 26 96.2ZM28.5 96C28.2 96 28 95.7 28 95.4C28 95.1 28.3 94.9 28.6 94.9C33.5 95.4 40.2 100.2 46.4 105.8C46 105.1 45.6 104.4 45.3 103.7C44.3 101.6 43.6 99.4 43.2 97.3C43.1 97 43.3 96.7 43.6 96.6C43.9 96.5 44.2 96.7 44.3 97C44.8 99 45.4 101.2 46.4 103.1C47.2 104.8 48.1 106.3 49.3 107.6C49.5 107.8 49.5 108.1 49.3 108.3C55.4 114 60.8 120.1 63.5 123.1C64.4 124.1 65 124.7 65.2 125C65.4 125.2 65.4 125.6 65.2 125.8C65 126 64.6 126 64.4 125.8C64.2 125.6 63.5 124.9 62.6 123.9C56.8 117.4 38.6 97.1 28.5 96ZM73.7 123C73.9 123.3 73.8 123.6 73.5 123.8C73.2 124 72.9 123.9 72.7 123.6C72 122.5 66.2 115.2 59.7 108.3C55.9 104.2 51.9 100.3 48.7 97.9C48.1 97.4 46.8 96.6 45.7 96.2C45.1 96 44.6 95.9 44.3 96.1C44.1 96.3 43.7 96.2 43.5 96C43.3 95.8 43.4 95.4 43.6 95.2C44.2 94.7 45.1 94.8 46.1 95.1C47.3 95.5 48.7 96.4 49.4 96.9C52.7 99.3 56.7 103.3 60.6 107.4C67.1 114.4 73 121.8 73.7 123ZM51.7 109.1C51.5 109.4 51.2 109.5 50.9 109.3C50.6 109.1 50.5 108.8 50.7 108.5C51.4 107.3 52.2 106.5 53 105.9C54.1 105.1 55.1 104.9 55.9 104.9C56.2 104.9 56.5 105.1 56.5 105.4C56.5 105.7 56.3 106 56 106C55.4 106 54.6 106.2 53.7 106.8C53 107.3 52.3 108 51.7 109.1ZM42.5 114.5C42.5 114.8 42.2 115 41.9 115C41.6 115 41.4 114.7 41.4 114.4C41.5 112.9 42.2 111.7 43 110.8C44.4 109.3 46.3 108.6 46.9 108.4C47.2 108.3 47.5 108.5 47.6 108.8C47.7 109.1 47.5 109.4 47.2 109.5C46.7 109.6 45.1 110.3 43.9 111.5C43.1 112.3 42.6 113.3 42.5 114.5ZM42.6 95.6C42.9 95.7 43.1 96 43.1 96.3C43 96.6 42.7 96.8 42.4 96.8C40.9 96.5 38.1 94.4 35.7 92.2C33.5 90.1 31.7 87.8 31.7 86.4C31.7 85.5 32.6 84.2 34.2 83C35.4 82.1 37.2 81.2 39.2 80.7C39.3 80.7 39.3 80.7 39.4 80.7C40.6 80.6 42 82.6 43.2 85.1C44.3 87.5 45.3 90.3 45.8 92.3C46 93 46.1 93.6 46.2 94.1C46.2 94.4 46 94.7 45.7 94.7C45.4 94.7 45 94.2 45 93.9C45 93.6 44.9 93 44.7 92.3C44.2 90.4 43.2 87.6 42.2 85.3C41.2 83.2 40.2 81.5 39.5 81.5C39.2 81.6 39 81.7 38.7 81.7C39 82.6 39.3 83.5 39.6 84.2C40.5 86.7 41 88.3 42.7 90.4C42.9 90.6 42.9 91 42.6 91.2C42.4 91.4 42 91.4 41.8 91.1C40 88.9 39.4 87.2 38.5 84.6C38.2 83.9 38 83 37.6 82.1C36.5 82.5 35.6 83.1 34.8 83.6C34.6 83.7 34.4 83.9 34.3 84C35 84.3 35.8 84.9 36.5 85.6C37.5 86.6 38.4 87.9 38.7 88.8C38.8 89.1 38.6 89.4 38.3 89.5C38 89.6 37.7 89.4 37.6 89.1C37.4 88.4 36.6 87.3 35.7 86.4C35 85.6 34.2 85 33.6 85C33.5 85 33.4 85 33.4 84.9C33 85.4 32.8 85.8 32.8 86.1C32.8 87.2 34.5 89.2 36.5 91.1C38.7 93.4 41.3 95.4 42.6 95.6ZM121 83.3C120.7 83.1 120.7 82.8 120.8 82.5C121 82.2 121.3 82.2 121.6 82.3C123.6 83.6 126.4 84.2 129.2 84.4C132.3 84.6 135.5 84.2 137.8 83.2C138.1 83.1 138.4 83.2 138.5 83.5C138.6 83.8 138.5 84.1 138.2 84.2C135.8 85.2 132.4 85.6 129.1 85.4C126.1 85.4 123.1 84.7 121 83.3Z" fill="black"/>
<path fill-rule="evenodd" clip-rule="evenodd" d="M81.5996 37.1C85.9996 34.4 92.3996 34.8 95.1996 34C101.2 32.2 88.8996 26.3 81.5996 37.1ZM116.4 54.1C118.2 54.1 119.7 55.6 119.7 57.4C119.7 59.2 118.2 60.7 116.4 60.7C114.6 60.7 113.1 59.2 113.1 57.4C113 55.6 114.5 54.1 116.4 54.1ZM88.9996 49.3C90.7996 49.3 92.2996 50.8 92.2996 52.6C92.2996 54.4 90.7996 55.9 88.9996 55.9C87.1996 55.9 85.6996 54.4 85.6996 52.6C85.6996 50.8 87.1996 49.3 88.9996 49.3ZM128 47C124.7 43 118.6 41.3 116.2 39.7C111.1 36.1 124.6 34.4 128 47Z" fill="black"/>
</g>
<defs>
<clipPath id="clip0">
<rect width="178.5" height="178.5" fill="white"/>
</clipPath>
</defs>
</svg>
