<svg width="179" height="179" viewBox="0 0 179 179" fill="none" xmlns="http://www.w3.org/2000/svg">
<g clip-path="url(#clip0)">
<path fill-rule="evenodd" clip-rule="evenodd" d="M89.3 0.0999756C138.6 0.0999756 178.5 40.1 178.5 89.3C178.5 138.6 138.5 178.5 89.3 178.5C40 178.5 0 138.5 0 89.3C0.1 40.1 40 0.0999756 89.3 0.0999756Z" fill="#F7F7F7"/>
<path fill-rule="evenodd" clip-rule="evenodd" d="M114.1 102.2C117.3 98.8999 115.8 87.5999 106 85.5999C98.2997 83.9999 90.6997 80.3999 83.1997 91.2999C80.0997 95.8999 89.0997 103.7 97.4997 105.3C98.9997 105.6 100.7 105.8 102.3 105.9C103.9 105.8 113.3 102.9 114.1 102.2Z" fill="#FFF343"/>
<path fill-rule="evenodd" clip-rule="evenodd" d="M77.1003 57.4C76.3003 59.1 76.3003 60.7 76.9003 63.1C78.7003 70.1 83.0003 59.4 83.2003 70.7C83.3003 76.1 89.2003 66.4 91.5003 72.9C91.9003 74.1 95.9003 73.9 98.2003 72.1C99.6003 71 102.8 68 100.7 67.1C96.6003 65.4 97.8003 63 97.2003 61.1C95.8003 56.3 89.2003 51.9 87.2003 57.4C85.3003 62.1 79.7003 51.5 77.1003 57.4Z" fill="#DC7D43"/>
<path fill-rule="evenodd" clip-rule="evenodd" d="M69.0997 91.3C60.4997 94.1 75.3997 100.1 73.8997 93.3C73.5997 91.6 70.1997 91 69.0997 91.3ZM77.6997 71.2C71.1997 64 59.6997 72.1 70.5997 78.9C74.4997 81.4 67.2997 87.8 72.3997 90C77.0997 92.1 77.0997 89.8 78.3997 86.4C78.9997 84.7 79.8998 83.1 81.2998 83C83.8997 82.9 84.2997 94.5 88.8997 94.7C91.1997 94.8 92.6997 90.1 91.3997 83.9C90.2997 78.8 81.8997 74.6 78.0997 71.7L77.6997 71.2Z" fill="#3EB5F1"/>
<path fill-rule="evenodd" clip-rule="evenodd" d="M91.8002 103.6C87.0002 108.2 96.8002 106.9 93.5002 111.4C91.8002 113.6 101.2 123.3 104.5 113.3C105.3 110.8 108 110.5 110.1 110C115.7 108.6 112.8 100.9 108 100.4C106 100.2 104 100.3 102.4 96.2C101 92.5 96.1002 93.2 96.2002 97.6C96.3002 102.2 93.9002 101.6 91.8002 103.6ZM110.2 120.3C109.8 118.9 105 114.3 103.3 122C102.7 125.1 112.1 126.2 110.2 120.3Z" fill="#8F589E"/>
<path fill-rule="evenodd" clip-rule="evenodd" d="M75.9004 71.8C79.3004 73.5 80.9004 72.4 80.8004 76.7C80.5004 82.9 89.2004 76.6 90.8004 85.6C91.6004 90.5 97.0004 82.8 98.3004 78.7C100.7 70.9 92.4004 73 94.2004 70.4C97.0004 66.5 94.0004 60.2 85.5004 66.9C81.0004 70.4 83.2004 66.9 79.3004 66.2C73.8004 65.2 72.4004 70 75.9004 71.8Z" fill="#ABCB56"/>
<path fill-rule="evenodd" clip-rule="evenodd" d="M119 80.6C120.8 78.6 121.8 75.2 116.7 75.2C111 75.3 114.9 85.1 119 80.6ZM112.5 94.6C116.1 94.5 116.8 89.5 115.1 84.9C114.6 83.7 111 73 108.2 75.6C107.2 76.6 108 82 105.5 77.9C103.8 75.3 99.1001 71.3 99.7001 75.6C100.2 79.1 100 80.6 98.1001 76.6C94.8001 69.6 91.6001 72.7 93.1001 78.5C93.8001 81 95.1001 83.9 96.7001 86.3C99.7001 90.9 103.3 93.7 103.3 88.8C103.3 87.3 105 89.2 106.8 91.2C108.6 93.3 110.9 94.6 112.5 94.6Z" fill="#D24A43"/>
<path d="M160.2 95.7C160.1 95.4 160.2 95.1 160.5 94.9C160.8 94.8 161.1 94.9 161.3 95.2C162.5 97.6 165.5 99.3 167.8 99.8C168.6 99.9 169.2 99.9 169.7 99.8C170 99.7 170.3 99.4 170.3 99C170.3 98 169.5 96.4 167.3 93.9C166.3 92.7 165.3 91.5 164.5 90C163.7 88.6 163.1 87 163 85.2C163 84.9 163.2 84.6 163.5 84.6C163.8 84.6 164.1 84.8 164.1 85.1C164.3 86.7 164.8 88.1 165.5 89.4C166.2 90.7 167.2 91.9 168.2 93.1C170.6 95.8 171.5 97.8 171.5 99C171.5 99.9 171 100.5 170.2 100.8C169.5 101.1 168.7 101.1 167.7 100.9C165.9 100.5 163.6 99.4 162 97.8C161.5 98.5 160.9 98.8 160.1 98.8C159.5 98.8 159 98.5 158.4 98.1C157.9 97.7 157.4 97.2 156.9 96.6C156.3 95.8 155.8 94.9 155.5 93.9C154.7 94.1 153.9 93.8 153.2 93C152.8 92.6 152.4 92 152.1 91.4C151.8 90.8 151.6 90 151.4 89.2C151.1 87 151.6 84.5 153.8 82.5C151.6 82.5 149.6 81.8 148.3 80.3C148.4 81.6 148.3 82.7 147.9 83.8C147.4 85.2 146.6 85.9 145.9 86.4C145.1 86.9 144.4 87 143.7 87C142.5 87.1 141.5 86.9 140.9 86.4C140.6 86.2 140.4 86 140.3 85.7C140.1 85.4 140.1 85.1 140 84.8C140 84.5 140 84.3 140.1 84C139 84 138.1 83.8 137.5 83.5C137 83.2 136.6 82.8 136.5 82.3C136.3 81.8 136.3 81.3 136.5 80.8C136.7 80.1 137.2 79.5 137.8 78.9C137.5 78.7 137.2 78.5 136.9 78.3C135.1 76.9 133.8 74.9 133 72.5C132.9 72.2 133.1 71.9 133.4 71.8C133.7 71.7 134 71.9 134.1 72.2C134.8 74.3 135.9 76.1 137.6 77.4C139.1 78.6 141.1 79.4 143.4 79.5C143.7 79.5 143.9 79.8 143.9 80.1C143.9 80.4 143.6 80.6 143.3 80.6C141.6 80.5 140.1 80.1 138.8 79.5C138.1 80 137.6 80.6 137.5 81.2C137.4 81.5 137.4 81.7 137.5 82C137.6 82.2 137.8 82.4 138 82.6C138.6 82.9 139.5 83.1 140.9 82.9C141.2 82.9 141.5 83.1 141.5 83.4C141.5 83.6 141.5 83.7 141.4 83.8C141.2 84.1 141.1 84.4 141.1 84.7C141.1 84.8 141.2 85 141.2 85.1C141.3 85.2 141.4 85.4 141.5 85.5C141.9 85.8 142.6 86 143.5 85.9C144 85.8 144.6 85.8 145.2 85.4C145.8 85.1 146.3 84.5 146.8 83.4C147.4 81.9 147.2 79.8 146.9 77.6C146.5 74 146.1 70.2 148.7 67.2C148.9 67 149.3 66.9 149.5 67.2C149.7 67.4 149.8 67.8 149.5 68C147.3 70.5 147.6 74.2 148 77.5L148.1 78C148.2 78.1 148.3 78.2 148.3 78.3C149.2 80.7 151.7 81.7 154.5 81.5C155.8 81.4 157.1 81.1 158.4 80.5C159.7 80 160.9 79.2 162 78.2C164.9 75.6 166.6 71.5 164.6 66.4C164.5 66.1 164.6 65.8 164.9 65.7C165.2 65.6 165.5 65.7 165.6 66C167.8 71.6 165.9 76.1 162.7 79C161.5 80 160.2 80.9 158.8 81.5C157.9 81.9 156.9 82.2 156 82.4C156 82.5 155.9 82.5 155.8 82.6C152.8 84.4 152.2 87 152.5 89.2C152.6 89.9 152.8 90.5 153.1 91.1C153.4 91.6 153.7 92.1 154 92.4C154.4 92.9 154.9 93.1 155.2 93C154.9 91.6 155 90.1 155.6 88.7C155.7 88.4 156.1 88.3 156.3 88.4C156.6 88.5 156.7 88.9 156.6 89.1C155.6 91.4 156.5 94.2 157.8 96C158.2 96.5 158.6 96.9 159 97.2C159.4 97.5 159.8 97.6 160.1 97.7C160.5 97.7 160.8 97.5 161.1 97C160.7 96.5 160.4 96.1 160.2 95.7ZM95.2004 25.5C95.2004 25.5 95.3004 25.5 95.2004 25.5C95.3004 24.4 95.3004 23.2 95.3004 21.8C95.4004 20 95.5004 18.2 95.7004 16.6C96.0004 14.7 96.5004 13.5 96.9004 13C97.2004 12.7 97.5004 12.5 97.9004 12.5C98.3004 12.5 98.6004 12.7 98.8004 13.1C99.2004 13.7 99.5004 15 99.5004 16.8C99.5004 18.3 99.5004 20.7 99.3004 23C99.2004 23.8 99.2004 24.6 99.1004 25.3C101.7 26 102.5 26.9 103.1 27.6C103.3 27.9 103.5 28 103.7 28.1C104 28.2 104.6 28 106.2 27.4C106.7 27.2 107.3 27 108.1 26.7C121.3 21.9 129.1 30.7 131.5 33.6C133.4 33.3 135.5 32.7 137.4 32.2C142.5 30.8 147.3 29.6 149.7 32.2C149.9 32.4 149.9 32.8 149.7 33C149.5 33.2 149.1 33.2 148.9 33C147 30.9 142.5 32.1 137.7 33.3C135.6 33.8 133.5 34.4 131.4 34.7H131.3C128.9 35.1 126.5 35.1 124.5 34.5C124.2 34.4 124 34.1 124.1 33.8C124.2 33.5 124.5 33.3 124.8 33.4C126.3 33.9 128.1 34 130.1 33.7C127.3 30.6 120.1 23.4 108.4 27.7C107.7 28 107.1 28.2 106.5 28.4C104.7 29.1 104 29.3 103.4 29.2C102.8 29.1 102.5 28.8 102.2 28.3C101.8 27.8 101.1 27 99.0004 26.4C98.9004 26.8 98.9004 27.2 98.8004 27.5C98.5004 28.6 98.2004 29.3 97.8004 29.7C97.5004 30 97.2004 30.1 96.9004 30C96.6004 30 96.3004 29.8 96.1004 29.5C95.7004 29 95.4004 28.2 95.3004 27.2C95.3004 27 95.3004 26.8 95.2004 26.5C94.6004 26.9 94.1004 27.3 93.7004 27.8C92.7004 28.8 92.4004 29.8 92.4004 30.7C92.4004 31.6 92.7004 32.3 93.1004 32.9C93.3004 33.3 93.6004 33.6 93.8004 33.7C94.0004 33.9 94.0004 34.3 93.8004 34.5C93.6004 34.7 93.2004 34.7 93.0004 34.5C92.8004 34.3 92.5004 33.9 92.2004 33.5C92.1004 33.4 92.0004 33.2 92.0004 33.1C91.8004 33.3 91.7004 33.6 91.6004 34C91.4004 34.4 91.3004 34.9 91.3004 35.4C91.3004 35.8 91.4004 36.3 91.8004 36.7C92.1004 37 92.5004 37.3 93.1004 37.5C93.4004 37.6 93.5004 37.9 93.4004 38.2C93.3004 38.4 93.3004 38.8 93.3004 39.2C93.3004 39.6 93.5004 40 93.7004 40.4C93.9004 40.8 94.3004 41.1 94.8004 41.2C95.2004 41.4 95.8004 41.4 96.5004 41.3C98.7004 41.1 99.8004 40.5 100.2 39.8C100.3 39.6 100.3 39.5 100.3 39.4C100.3 39.3 100.3 39.2 100.2 39C100 38.8 99.8004 38.6 99.4004 38.7C99.4004 38.7 99.4004 38.7 99.3004 38.7C98.3004 39.3 97.1004 39.6 96.2004 39.6C95.7004 39.6 95.2004 39.4 94.8004 39.1C94.4004 38.8 94.2004 38.3 94.2004 37.7C94.2004 36.6 95.2004 34.8 97.6004 32.3C97.8004 32.1 98.2004 32.1 98.4004 32.3C98.6004 32.5 98.6004 32.9 98.4004 33.1C96.2004 35.3 95.3004 36.8 95.3004 37.7C95.3004 37.9 95.4004 38.1 95.5004 38.2C95.7004 38.3 95.9004 38.4 96.2004 38.4C97.2004 38.5 98.6004 37.9 99.6004 36.9C100.6 35.9 101 36.1 101.5 36.4C101.6 36.5 101.8 36.6 102.2 36.3C102.5 36.1 102.8 36.2 103 36.5C103.2 36.8 103.1 37.1 102.8 37.3C101.8 38 101.3 37.7 100.9 37.5C100.8 37.5 100.7 37.4 100.3 37.8C100.6 37.9 100.8 38.1 100.9 38.4C101 38.5 101 38.6 101 38.7C110.7 34.6 112.3 38.2 113 39.8C114.7 39.5 116.6 39.4 119.5 40.7C119.8 40.8 119.9 41.2 119.8 41.4C119.7 41.7 119.3 41.8 119.1 41.7C115.6 40.2 113.6 40.7 111.7 41.3C110.1 41.8 108.5 42.2 106.3 41.6C106 41.5 105.8 41.2 105.9 40.9C106 40.6 106.3 40.4 106.6 40.5C108.5 41 109.9 40.7 111.4 40.2C111.6 40.2 111.8 40.1 111.9 40.1C111.3 38.7 109.7 36.1 101.2 39.8C101.1 39.8 101.1 39.8 101 39.8C101 40 100.9 40.2 100.8 40.3C100.4 41 99.5004 41.7 97.8004 42C100.5 46.8 99.3004 49 98.4004 50.9C97.8004 52 97.3004 53 98.3004 54.5C98.4004 54.6 98.4004 54.8 98.4004 54.9C98.3004 55.2 98.0004 55.4 97.7004 55.3C97.7004 55.3 97.6004 55.3 97.5004 55.3C95.9004 54.9 94.7004 54.2 94.0004 53.1C93.3004 52 93.0004 50.6 93.3004 48.9C93.3004 48.9 93.3004 48.8 93.4004 48.7C93.6004 47.7 94.1004 46.8 94.5004 46C95.1004 44.9 95.7004 43.8 95.7004 42.3C95.1004 42.3 94.5004 42.2 94.1004 42.1C93.3004 41.8 92.8004 41.4 92.4004 40.8C92.1004 40.3 91.9004 39.7 91.8004 39.1C91.8004 38.8 91.8004 38.4 91.8004 38.2C91.3004 37.9 90.9004 37.6 90.6004 37.3C90.1004 36.7 89.9004 36 89.9004 35.3C89.9004 34.6 90.0004 34 90.3004 33.4C90.6004 32.7 91.0004 32 91.3004 31.7C91.2004 31.3 91.2004 30.9 91.2004 30.5C91.2004 29.4 91.6004 28.1 92.8004 26.8C93.6004 26.7 94.3004 26.1 95.2004 25.5ZM97.1004 43C97.0004 44.7 96.4004 45.9 95.7004 47.1C95.3004 47.9 94.9004 48.7 94.7004 49.5V49.7C94.4004 51.1 94.6004 52.2 95.2004 53C95.6004 53.6 96.2004 54.1 97.0004 54.4C96.5004 53 97.1004 52 97.7004 50.8C98.5004 49.2 99.6004 47.3 97.1004 43ZM96.4004 21.9C96.3004 24.2 96.4004 26.3 96.5004 27.3C96.6004 28.1 96.8004 28.7 97.0004 28.9C97.0004 29 97.1004 29 97.1004 29C97.3004 28.8 97.5004 28.3 97.8004 27.4C98.1004 26.2 98.2004 24.6 98.4004 23C98.6004 20.7 98.6004 18.4 98.6004 16.9C98.6004 15.3 98.4004 14.2 98.0004 13.8C98.0004 13.7 98.0004 13.7 97.9004 13.7C97.9004 13.7 97.9004 13.7 97.8004 13.8C97.4004 14.2 97.1004 15.2 96.8004 16.8C96.6004 18.3 96.5004 20.2 96.4004 21.9ZM103.5 43C103.2 43 102.9 42.7 102.9 42.4C102.9 42.1 103.2 41.8 103.5 41.8C107.1 41.8 108.4 43.8 109.2 45.2L109.3 45.3C109.5 45.6 109.4 45.9 109.1 46.1C108.8 46.3 108.5 46.2 108.3 45.9L108.2 45.8C107.6 44.8 106.5 43.1 103.5 43ZM125.8 46.9C125.5 46.9 125.2 46.6 125.3 46.3C125.3 46 125.6 45.7 125.9 45.8C126.7 45.8 127.4 46 128.1 46.3C130.2 47.1 132.1 48.9 133.3 51.1C134.6 53.3 135.3 56 135.1 58.6C135 59.8 134.8 61.1 134.3 62.2C134.2 62.5 133.9 62.6 133.6 62.5C133.3 62.4 133.2 62.1 133.3 61.8C133.7 60.7 133.9 59.6 134 58.5C134.1 56.1 133.5 53.6 132.3 51.6C131.2 49.6 129.5 48 127.7 47.3C127.1 47.1 126.5 47 125.8 46.9ZM106.7 46.2C106.8 45.9 107.2 45.8 107.5 45.9C107.8 46 107.9 46.4 107.8 46.7C107.5 47.3 106.5 48.6 105.2 50.3C103.4 52.6 101.2 55.5 100 57.7C99.5004 58.6 99.4004 59.1 99.6004 59.3C99.9004 59.6 100.8 59.6 102.2 59.4C103.9 59.2 106.8 58.9 109 59.4C111.4 60 112.9 61.6 111.2 65.3C110.6 66.6 109.8 67.8 109.1 69C108.1 70.5 107.3 71.9 107.3 72.5C107.4 73.1 108.4 73.2 111.2 72.8C114.2 72.4 118.3 72 121.5 72.4C125 72.9 127.6 74.3 127.2 77.7C127.2 78 126.9 78.2 126.6 78.2C126.3 78.2 126.1 77.9 126.1 77.6C126.4 75 124.2 73.9 121.3 73.5C118.2 73.1 114.2 73.5 111.3 73.9C107.7 74.4 106.3 73.8 106.1 72.6C105.9 71.5 106.9 70 108 68.3C108.7 67.2 109.5 66 110.1 64.7C111.4 61.9 110.3 60.8 108.7 60.3C106.7 59.8 104 60.1 102.4 60.3C100.6 60.5 99.5004 60.4 98.9004 59.9C98.2004 59.3 98.3004 58.3 99.1004 56.9C100.3 54.7 102.6 51.7 104.4 49.4C105.5 48 106.5 46.7 106.7 46.2ZM128.7 77.4C128.6 77.7 128.3 77.9 128 77.8C127.7 77.7 127.5 77.4 127.6 77.1C128 75.8 127.9 74.9 127.8 73.8C127.8 73.4 127.7 73 127.7 72.7C127.6 71.8 127.8 71.2 128.1 70.8C128.4 70.4 128.9 70.3 129.4 70.6C129.8 70.8 130.1 71.1 130.5 71.5C131.9 72.9 133.5 75.8 133.9 77.8C134 78.1 133.7 78.4 133.4 78.5C133.1 78.6 132.8 78.3 132.7 78C132.4 76.1 130.9 73.5 129.6 72.3C129.3 72 129 71.8 128.8 71.7V71.6C128.7 71.7 128.7 72 128.7 72.7C128.7 73.1 128.8 73.5 128.8 73.8C129.1 74.8 129.2 75.9 128.7 77.4ZM142.6 36.7C142.3 36.8 142 36.7 141.9 36.4C141.8 36.1 141.9 35.8 142.2 35.7C144.8 34.6 147.4 33.7 149.9 33.7C152.5 33.6 154.9 34.4 157.2 36.3C157.4 36.5 157.5 36.9 157.3 37.1C157.1 37.3 156.7 37.4 156.5 37.2C154.4 35.4 152.2 34.8 149.9 34.9C147.5 34.8 145.1 35.6 142.6 36.7ZM152.2 38C151.9 38 151.6 37.8 151.6 37.5C151.6 37.2 151.8 36.9 152.1 36.9C155.5 36.7 160.1 38.6 163.8 42.6C166.7 45.8 169.2 50.3 170.1 56.2C170.7 59.6 170.4 63 170.3 65.9C170.1 68.8 170 71.2 170.6 72.6C171.9 75.7 172.4 78.1 172.3 79.5C172.3 80 172.1 80.5 171.9 80.8C171.6 81.2 171.2 81.4 170.7 81.3C170.2 81.2 169.7 80.9 169.1 80.2C168 79.1 167.7 78.5 167.7 78.6C167.6 78.7 168.4 80.8 169.3 83.3C169.8 84.7 170.4 86.1 170.8 87.5C171.4 89.4 171.5 90.6 171.2 91.3C171 91.8 170.6 92.1 170.1 92.1C169.7 92.1 169.3 92 168.8 91.7C167.5 91 166 89.2 165.3 87.3C165.2 87 165.3 86.7 165.6 86.6C165.9 86.5 166.2 86.6 166.3 86.9C166.9 88.6 168.3 90.1 169.3 90.8C169.6 91 169.8 91 170 91C170.1 91 170.1 91 170.2 90.9C170.4 90.5 170.3 89.5 169.8 87.9C169.4 86.6 168.8 85.2 168.3 83.8C167.2 81 166.3 78.5 167 77.9C167.5 77.4 168.4 77.9 170 79.6C170.4 80.1 170.8 80.3 171 80.3H171.1C171.2 80.2 171.3 79.9 171.3 79.6C171.4 78.3 170.9 76.1 169.7 73.2C169 71.5 169.1 69 169.3 66C169.5 63.1 169.7 59.8 169.1 56.5C168.2 50.8 165.8 46.5 163 43.4C159.5 39.6 155.3 37.9 152.2 38Z" fill="black"/>
<path d="M131.8 92.6999C132.1 91.8999 132.5 90.9999 132.9 90.1999C133.4 89.2999 133.9 88.4999 134.5 87.7999C134.7 87.5999 135.1 87.4999 135.3 87.7999C135.5 88.0999 135.6 88.3999 135.3 88.5999C134.8 89.1999 134.3 89.8999 133.8 90.7999C133.4 91.5999 133 92.3999 132.7 93.1999H132.8C133.7 93.6999 134.4 93.9999 134.6 93.9999C137.2 94.4999 139.7 94.7999 142.1 94.9999C147.7 95.4999 153.1 95.9999 159 99.7999C160.4 100.7 161.6 101.8 162.7 103.1C165.8 106.8 167.6 111.9 167.9 117.1C168.2 122.3 167.1 127.7 164.3 132C163.3 133.6 162.1 135 160.6 136.2L160.3 136.4C159.5 137 159.2 137.3 159.1 137.5C159 137.6 158.9 137.8 158.8 138.1C158.7 138.5 158.5 138.9 158.2 139.7C158 140.1 157.9 140.5 157.7 140.8C154.9 146.6 149.4 150.7 143.4 152.8C137.3 154.9 130.6 154.9 125.2 152.7C124.8 152.5 124.5 152.4 124.1 152.2C121.4 150.9 119.9 149 119.3 147.1C119 146 119 145 119.2 144C119.5 143 120 142.1 120.8 141.4C122.2 140.2 124.3 139.5 127.1 139.8C128.3 139.9 129.5 140.1 130.7 140.4C134.8 141.1 139.2 141.9 141.8 139.2C139.8 139.5 137.6 139.6 135.6 139.2C133.2 138.8 131.6 137.7 130.6 136.4C130 135.6 129.6 134.8 129.4 134C129.2 133.2 129.2 132.4 129.3 131.7C129.4 131.2 129.6 130.7 129.8 130.3C126.2 128.2 124.6 126.5 123.8 125C122.9 125.8 122.3 127 121.9 128.3C121.3 130.3 121.2 132.5 121.4 133.7C121.5 134 121.3 134.3 120.9 134.4C120.6 134.5 120.3 134.3 120.2 133.9C119.9 132.5 120 130.1 120.7 127.9C121.2 126.4 122 124.9 123.1 123.9C123 123.7 122.9 123.5 122.9 123.4C122.7 122.9 122.5 122.5 122.2 122.1C121.1 123 120.1 124 119.4 125C118.5 126.3 118 127.5 117.7 128.8C117.6 129.1 117.3 129.3 117 129.2C116.7 129.1 116.5 128.8 116.6 128.5C116.9 127.1 117.5 125.7 118.5 124.3C119.3 123.2 120.3 122.2 121.5 121.2C120.3 119.9 117.9 118.8 112 117.4C111.3 117.2 110.9 117 110.6 116.8C110.1 116.3 110.2 115.7 110.8 115.1C111.2 114.7 111.8 114.3 112.6 113.8C115.4 112.3 120.3 110.7 121.2 110.4C121.5 110.3 121.8 110.5 121.9 110.8C122 111.1 121.8 111.4 121.5 111.5C120.6 111.7 115.9 113.3 113.2 114.8C112.5 115.2 112 115.5 111.7 115.8L112 116C112.1 116.1 112.4 116.2 112.8 116.3C119.4 117.8 121.9 119.2 123.2 120.7C123.3 120.7 123.4 120.8 123.4 120.9C123.5 121 123.5 121.1 123.5 121.2C123.9 121.8 124.2 122.3 124.4 123C125.2 124.8 126.2 126.8 131.3 129.7C131.6 129.8 131.7 130.2 131.5 130.5C131.5 130.6 131.4 130.6 131.3 130.7C131 130.9 130.8 131.4 130.7 132C130.6 132.6 130.6 133.2 130.8 133.9C131 134.6 131.3 135.3 131.8 135.9C132.6 137 134 137.9 136.1 138.3C138.2 138.7 140.6 138.5 142.8 138.1C145.1 137.6 147.1 136.8 148.3 135.9C148.5 135.7 148.9 135.7 149.1 136C149.3 136.2 149.3 136.6 149 136.8C147.8 137.8 145.8 138.6 143.6 139.1C143.6 139.2 143.6 139.4 143.5 139.5C140.5 143.4 135.5 142.5 130.8 141.7C129.6 141.5 128.4 141.3 127.3 141.2C124.8 140.9 123 141.5 121.8 142.5C121.2 143.1 120.7 143.8 120.5 144.6C120.3 145.4 120.3 146.2 120.6 147.1C121.1 148.8 122.5 150.4 124.8 151.6C125.1 151.8 125.5 151.9 125.8 152.1C131 154.3 137.4 154.2 143.2 152.2C149 150.2 154.2 146.3 156.9 140.8C157.1 140.5 157.2 140.1 157.4 139.8C157.7 139.1 157.9 138.6 158 138.3C158.1 137.9 158.2 137.7 158.4 137.4C158.6 137 159 136.8 159.8 136L160.1 135.8C161.5 134.7 162.6 133.3 163.6 131.8C166.2 127.7 167.3 122.6 167 117.6C166.7 112.6 165 107.7 162 104.2C161 103 159.8 102 158.5 101.1C152.8 97.3999 147.5 96.8999 142.1 96.3999C139.6 96.1999 137.1 95.8999 134.4 95.3999C134.1 95.2999 133.4 94.9999 132.3 94.4999C130 93.3999 126.3 91.5999 123.2 90.8999C121.4 90.4999 120.7 90.4999 120.6 90.8999C120.5 91.3999 121.1 92.4999 121.8 93.6999C122.9 95.5999 124.1 97.5999 123.4 99.1999C123.3 99.2999 123.2 99.5999 123 99.8999C121.9 101.7 119.1 106.3 119.1 110.8C119.1 111.1 118.8 111.4 118.5 111.4C118.2 111.4 117.9 111.1 117.9 110.8C117.9 106 120.8 101.1 121.9 99.2999C122.1 98.9999 122.2 98.7999 122.3 98.6999C122.8 97.6999 121.7 95.8999 120.8 94.2999C120 92.8999 119.2 91.5999 119.4 90.6999C119.6 89.6999 120.7 89.2999 123.3 89.8999C126.3 90.0999 129.5 91.5999 131.8 92.6999ZM139 110.4C138.7 110.2 138.6 109.9 138.8 109.6C139 109.3 139.3 109.2 139.6 109.4C141.2 110.3 143.5 110.9 145.9 111.5C153.4 113.3 162.4 115.5 161 130.3C161 130.6 160.7 130.8 160.4 130.8C160.1 130.8 159.9 130.5 159.9 130.2C161.2 116.4 152.7 114.3 145.6 112.6C143.2 112 140.8 111.4 139 110.4Z" fill="black"/>
<path d="M51.8003 29.3C51.6003 29.6 51.3003 29.6 51.0003 29.5C50.7003 29.3 50.7003 29 50.8003 28.7C52.2003 26.5 54.3003 24.2 57.1003 22.6C59.4003 21.3 62.0003 20.4 65.1003 20.3C65.4003 20.3 65.7003 20.5 65.7003 20.9C65.7003 21.2 65.5003 21.5 65.1003 21.5C62.3003 21.6 59.8003 22.4 57.7003 23.6C55.0003 25.1 53.0003 27.2 51.8003 29.3ZM63.2003 16.8C62.9003 16.9 62.6003 16.8 62.4003 16.6C62.3003 16.3 62.4003 16 62.6003 15.8C64.1003 15 66.3003 14.8 68.5003 15C71.1003 15.3 73.7003 16.1 75.5003 17C78.9003 18.8 81.0003 21.4 82.2003 24.2C83.5003 27 84.0003 30.2 84.1003 33.3C84.2003 35.2 84.2003 37.1 84.0003 39C85.3003 39 86.5003 39 87.6003 38.9C88.5003 38.9 89.3003 38.8 90.1003 38.8C90.4003 38.8 90.7003 39.1 90.7003 39.4C90.7003 39.7 90.4003 40 90.1003 40C89.4003 40 88.5003 40 87.7003 40.1C86.6003 40.2 85.3003 40.2 84.0003 40.2C83.9003 41.4 83.7003 42.5 83.5003 43.6C83.6003 43.6 85.1003 44 86.6003 44.3C87.7003 44.6 88.9003 44.8 89.6003 45C89.9003 45.1 90.1003 45.4 90.0003 45.7C89.9003 46 89.6003 46.2 89.3003 46.1C88.4003 45.9 87.3003 45.7 86.3003 45.4C84.9003 45.1 83.7003 44.8 83.2003 44.7C82.7003 47.4 82.0003 49.6 81.5003 51.2C81.2003 52 81.0003 52.6 80.8003 53C80.5003 53.7 80.1003 54 79.8003 53.9C79.6003 53.9 79.5003 53.8 79.5003 53.7C77.6003 51.2 75.4003 50 73.4003 49.7C72.3003 49.5 71.2003 49.6 70.3003 50C69.4003 50.3 68.7003 50.9 68.2003 51.7C67.5003 52.7 67.3003 54.1 67.6003 55.7C67.7003 56.3 68.1003 57.1 68.4003 57.8C68.7003 58.4 68.9003 58.9 69.0003 59.3C69.1003 59.9 69.0003 60.3 68.4003 60.4C67.0003 60.7 65.4003 60.3 63.8003 59.7C62.3003 59.1 61.0003 58.2 60.1003 57.6C59.6003 58.3 58.8003 60 58.3003 61.4C58.1003 62 57.9003 62.4 57.7003 62.8C57.6003 63.1 57.2003 63.2 56.9003 63.1C56.6003 63 56.5003 62.6 56.6003 62.3C56.7003 62 56.9003 61.5 57.2003 60.9C57.8003 59.5 58.5003 57.8 59.1003 56.9C58.1003 56.2 57.2003 55.5 56.2003 54.8C55.5003 55.5 54.6003 56.4 53.6003 57.2C52.7003 58 51.7003 58.8 51.1003 59.2C50.8003 59.4 50.5003 59.3 50.3003 59.1C50.1003 58.8 50.2003 58.5 50.4003 58.3C51.0003 57.9 51.9003 57.2 52.8003 56.4C53.7003 55.6 54.6003 54.8 55.2003 54.1C54.0003 53.2 52.9003 52.4 51.9003 51.6C51.3003 51.1 50.7003 50.6 50.1003 50.1C45.3003 45.8 42.1003 40.7 41.3003 35.4C40.4003 30 41.8003 24.5 45.9003 19.2C46.3003 18.7 46.7003 18.2 47.1003 17.8C48.1003 16.6 48.9003 15.6 49.6003 14.5C50.9003 12.6 52.1003 10.8 54.9003 8.7C57.4003 6.8 60.6003 6 63.9003 6C67.9003 6 71.9003 7 74.9003 8.4C76.0003 9 77.0003 9.5 77.9003 10C81.1003 11.8 83.9003 13.4 88.5003 12.2C88.7003 12.1 89.0003 12.1 89.2003 12C90.5003 11.7 91.8003 11.3 92.7003 11.7C93.8003 12.1 94.2003 13.4 93.1003 16.4C92.4003 18.4 90.8003 20.5 88.5003 21.7C86.7003 22.6 84.5003 22.9 82.0003 22C81.7003 21.9 81.5003 21.6 81.6003 21.3C81.7003 21 82.0003 20.8 82.3003 20.9C84.5003 21.6 86.4003 21.4 88.0003 20.6C90.0003 19.6 91.3003 17.7 92.0003 16C92.8003 13.8 92.8003 12.9 92.3003 12.8C91.8003 12.6 90.6003 12.9 89.5003 13.2C89.3003 13.3 89.0003 13.3 88.8003 13.4C83.7003 14.7 80.8003 13 77.3003 11.1C76.4003 10.6 75.4003 10 74.4003 9.5C71.5003 8.1 67.7003 7.2 64.1003 7.3C61.0003 7.3 58.0003 8 55.8003 9.7C53.1003 11.7 52.0003 13.4 50.7003 15.2C50.0003 16.3 49.2003 17.3 48.1003 18.6C47.7003 19.1 47.3003 19.5 47.0003 20C43.1003 25 41.8003 30.3 42.6003 35.3C43.4003 40.4 46.4003 45.2 51.1003 49.3C51.7003 49.8 52.2003 50.3 52.9003 50.8C54.1003 51.8 55.6003 52.9 57.1003 54C58.4003 54.9 59.7003 55.9 60.9003 56.7C61.8003 57.3 63.1003 58.1 64.4003 58.7C65.6003 59.2 66.8003 59.6 67.9003 59.4C67.8003 59.1 67.6003 58.7 67.4003 58.3C67.0003 57.5 66.6003 56.7 66.5003 55.9C66.1003 54 66.5003 52.3 67.3003 51.1C67.9003 50.1 68.9003 49.4 70.0003 49C71.1003 48.6 72.3003 48.4 73.7003 48.7C75.8003 49 78.0003 50.2 80.0003 52.5C80.2003 52.1 80.4003 51.6 80.6003 51C81.8003 47.5 83.6003 40.5 83.2003 33.6C83.0003 30.6 82.6003 27.6 81.4003 24.9C80.2003 22.2 78.3003 19.9 75.2003 18.2C73.5003 17.3 71.1003 16.5 68.6003 16.3C66.5003 16 64.6003 16.1 63.2003 16.8ZM56.8003 42.6C56.8003 42.9 56.5003 43.2 56.2003 43.1C55.9003 43.1 55.6003 42.8 55.7003 42.5C55.7003 41.8 55.9003 40.9 56.3003 40.1C57.2003 37.7 59.2003 34.9 62.0003 32.7C64.8003 30.5 68.5003 29 72.9003 29.2C74.7003 29.3 76.6003 29.7 78.6003 30.4C78.9003 30.5 79.0003 30.8 78.9003 31.1C78.8003 31.4 78.5003 31.5 78.2003 31.4C76.3003 30.7 74.5003 30.3 72.8003 30.2C68.7003 30 65.3003 31.4 62.7003 33.5C60.1003 35.5 58.2003 38.2 57.4003 40.4C57.0003 41.3 56.8003 42 56.8003 42.6ZM54.2003 35.3C54.1003 35.6 53.7003 35.7 53.4003 35.6C53.1003 35.5 53.0003 35.1 53.1003 34.8C54.5003 31.9 57.3003 28.7 61.1003 26.7C64.1003 25.2 67.7003 24.4 71.8003 25.2C72.1003 25.3 72.3003 25.6 72.2003 25.9C72.1003 26.2 71.8003 26.4 71.5003 26.3C67.7003 25.5 64.3003 26.2 61.6003 27.6C58.1003 29.5 55.5003 32.6 54.2003 35.3Z" fill="black"/>
<path d="M68.6002 110.1C68.9002 110.1 69.2002 110.3 69.2002 110.6C69.2002 110.9 69.0002 111.2 68.7002 111.2C68.1002 111.3 67.3002 111.5 66.3002 111.7C61.3002 112.8 53.0002 114.5 50.4002 109.2C50.3002 108.9 50.4002 108.6 50.7002 108.4C51.0002 108.3 51.3002 108.4 51.5002 108.7C53.8002 113.3 61.5002 111.6 66.2002 110.6C67.1002 110.4 68.0002 110.2 68.6002 110.1ZM17.5002 75.1999C17.4002 74.9 17.5002 74.6 17.7002 74.4C18.0002 74.3 18.3002 74.4 18.5002 74.6C19.1002 75.8 20.3002 76.9 21.7002 77.8C23.2002 78.7 24.9002 79.3 26.4002 79.4C27.4002 79.5 27.8002 79.5 27.8002 79.4C27.8002 79.1 26.9002 78.2 25.9002 77.2C24.9002 76.2 23.9002 75.2 23.5002 74.4C22.6002 72.7 22.8002 71.8 23.6002 71.4C24.6002 70.9 26.4002 71.5999 28.1002 72.1999C28.6002 72.3999 29.0002 72.4999 29.5002 72.6999C30.2002 72.8999 30.8002 73.1 30.8002 73C30.9002 72.8 30.6002 72.2 29.6002 70.8C29.4002 70.6 29.3002 70.2999 29.3002 70.1C29.3002 69.6999 29.4002 69.3999 29.7002 69.1999C29.9002 68.9999 30.2002 68.9 30.5002 68.9C31.2002 68.8 32.2002 68.7999 33.2002 69.1C34.0002 69.2999 34.9002 69.6 35.8002 69.9C37.8002 70.6 40.0002 71.3999 42.1002 71.1999C43.9002 71.0999 46.2002 70.5 48.6002 69.9C51.7002 69.2 55.0002 68.2999 58.4002 68.1C59.5002 68 60.5002 68.1 61.2002 68.3C61.7002 68.4 62.0002 68.7 62.3002 69C62.5002 69.4 62.6002 69.8 62.5002 70.3C62.4002 70.8 62.0002 71.3 61.5002 72C61.5002 72 61.0002 72.6 60.5002 73.3C59.9002 74 59.2002 75 58.8002 75.6C58.7002 75.7 58.7002 75.9 58.7002 76.1C58.7002 76.8 59.1002 77.7999 59.6002 78.7C60.1002 79.6 60.7002 80.5 61.3002 80.9C61.5002 81 61.6002 81.1 61.7002 81.1C66.5002 81 68.9002 81.6 69.7002 82.6C70.7002 83.8 69.8002 85.2 68.2002 86.8C67.6002 87.3 67.0002 87.9 66.3002 88.5C65.4002 89.2 64.5002 90.1 63.6002 90.9C61.3002 93.1 59.7002 95.6 61.9002 97.9C62.1002 98.1 62.1002 98.5 61.9002 98.7C61.7002 98.9 61.3002 98.9 61.1002 98.7C58.2002 95.7 60.1002 92.7 62.8002 90.1C63.7002 89.2 64.7002 88.4 65.6002 87.7C66.3002 87.1 67.0002 86.6 67.5002 86.1C68.7002 85 69.4002 84 68.9002 83.5C68.3002 82.8 66.2002 82.4 61.8002 82.4C61.4002 82.4 61.1002 82.2 60.7002 82C60.0002 81.5 59.3002 80.5 58.7002 79.4C58.1002 78.3 57.7002 77.1 57.7002 76.2C57.7002 75.7 57.8002 75.3 58.0002 75C58.3002 74.5 59.1002 73.4999 59.7002 72.6999C60.3002 71.9999 60.7002 71.4 60.7002 71.3C61.1002 70.8 61.4002 70.4 61.5002 70C61.5002 69.8 61.5002 69.6999 61.5002 69.6C61.4002 69.5 61.3002 69.4 61.0002 69.3C60.4002 69.1 59.6002 69.0999 58.6002 69.1999C55.3002 69.3999 52.0002 70.2 49.0002 71C46.5002 71.6 44.2002 72.2 42.3002 72.3C40.0002 72.5 37.7002 71.7 35.6002 70.9C34.7002 70.6 33.8002 70.2999 33.0002 70.1C32.1002 69.9 31.3002 69.8 30.7002 69.9C30.6002 69.9 30.5002 69.9 30.4002 70C31.7002 71.8 32.0002 72.8 31.7002 73.4C31.7002 73.4 31.7002 73.4 31.7002 73.5C31.3002 74.2 30.3002 74.0999 29.1002 73.6999C28.7002 73.5999 28.2002 73.3999 27.7002 73.1999C26.2002 72.6999 24.6002 72.1 24.1002 72.4C23.9002 72.6 24.0002 73 24.5002 74C24.8002 74.7 25.8002 75.6 26.7002 76.5C27.9002 77.7 29.0002 78.7 28.9002 79.6C28.8002 80.4 28.1002 80.8 26.3002 80.6C24.6002 80.5 22.7002 79.8 21.1002 78.8C19.6002 77.9 18.2002 76.5999 17.5002 75.1999ZM57.4002 99.3C57.2002 99.1 57.2002 98.7 57.4002 98.5C57.6002 98.3 58.0002 98.3 58.2002 98.5C61.4002 101.8 64.5002 101.4 68.8002 100.7C69.3002 100.6 69.8002 100.6 70.5002 100.5C73.2002 100.1 73.6002 99.2 73.9002 98.4C74.0002 98.1 74.1002 97.8 74.3002 97.6C74.4002 97.5 74.5002 97.4 74.5002 97.3C75.0002 96.7 75.6002 96.4 76.2002 96.3C76.6002 96.2 77.1002 96.3 77.5002 96.5C77.7002 95.2 78.2002 92.4 78.7002 89.9C79.3002 87.1 79.9002 85.4 80.4002 84.7C80.7002 84.2 81.1002 84 81.5002 84.1C81.9002 84.2 82.1002 84.5 82.3002 85.1C82.6002 86.1 82.6002 88 82.3002 90.9C82.1002 92.4 81.9002 93.8 81.6002 95.1C81.4002 96.2 81.1002 97.2 80.8002 98.3C81.5002 98.3 82.3002 98.4 82.8002 98.8C83.8002 99.4 84.3002 100.5 83.3002 102.6C83.6002 102.8 83.9002 103 84.1002 103.2C84.4002 103.5 84.6002 104 84.7002 104.4C84.8002 104.9 84.7002 105.4 84.4002 105.9C84.1002 106.6 83.4002 107.2 82.2002 107.8C82.3002 108.1 82.4002 108.4 82.4002 108.7C82.4002 109.5 82.0002 110 81.3002 110.4C80.7002 110.7 80.0002 110.9 79.1002 111C77.1002 111.2 74.4002 110.9 72.7002 110.4C72.4002 110.3 72.2002 110 72.3002 109.7C72.4002 109.4 72.7002 109.2 73.0002 109.3C74.6002 109.8 77.1002 110.1 79.0002 109.9C79.7002 109.8 80.3002 109.7 80.7002 109.4C81.0002 109.2 81.2002 109 81.2002 108.7C81.2002 108.5 81.1002 108.2 80.9002 107.8C80.9002 107.8 80.9002 107.8 80.9002 107.7C80.8002 107.4 80.9002 107.1 81.2002 107C82.4002 106.5 83.0002 105.9 83.3002 105.4C83.5002 105.1 83.5002 104.8 83.5002 104.6C83.5002 104.3 83.3002 104.1 83.2002 103.9C83.0002 103.6 82.7002 103.5 82.4002 103.4C82.3002 103.4 82.2002 103.4 82.1002 103.3C81.8002 103.1 81.7002 102.8 81.9002 102.5C82.9002 100.8 82.8002 100 82.2002 99.6C81.7002 99.3 80.9002 99.2 80.2002 99.3C80.1002 99.4 79.9002 99.4 79.8002 99.3C79.4002 99.3 79.1002 99.4 79.0002 99.4C79.0002 99.4 79.0002 99.4 78.9002 99.4C78.3002 99.4 78.0002 99 77.7002 98.4C77.5002 98.1 77.4002 97.8 77.1002 97.6C77.1002 97.6 77.0002 97.6 77.0002 97.5C76.8002 97.3 76.5002 97.3 76.1002 97.3C75.8002 97.3 75.4002 97.5 75.1002 97.9C75.0002 98 75.0002 98 74.9002 98.1C74.8002 98.3 74.7002 98.5 74.6002 98.7C74.2002 99.8 73.7002 101 70.3002 101.5C69.8002 101.6 69.2002 101.7 68.7002 101.7C64.4002 102.6 61.1002 103.1 57.4002 99.3ZM78.4002 97.2C78.6002 97.4 78.7002 97.7 78.8002 97.9C78.9002 98.1 78.9002 98.3 78.9002 98.3C79.0002 98.3 79.3002 98.2 79.6002 98.2C79.9002 97.1 80.2002 95.9 80.5002 94.8C80.8002 93.5 81.0002 92.1 81.1002 90.7C81.4002 88 81.4002 86.2 81.1002 85.4C80.7002 86.1 80.1002 87.6 79.6002 90.1C79.0002 93 78.5002 96.2 78.3002 97.1L78.4002 97.2ZM81.3002 85.1C81.2002 85.1 81.2002 85.1 81.3002 85.1V85.1ZM48.6002 107.6C48.6002 107.3 48.9002 107 49.2002 107C49.5002 107 49.8002 107.3 49.8002 107.6C49.8002 109.7 50.6002 111.6 51.1002 113.1L51.3002 113.5C51.6002 114.3 51.7002 114.9 51.6002 115.4C51.5002 115.9 51.3002 116.2 51.0002 116.4C50.7002 116.6 50.4002 116.7 50.0002 116.7C49.4002 116.7 48.8002 116.5 48.2002 116.1C47.7002 115.8 47.3002 115.5 46.9002 115.2C46.4002 114.9 46.1002 114.6 46.1002 114.6C46.0002 114.6 46.4002 114.7 46.5002 115.3C46.6002 115.7 46.9002 116.3 47.2002 116.9C47.7002 117.9 48.2002 118.9 48.0002 119.6C47.8002 120.3 47.1002 120.7 45.5002 120.2C44.5002 119.9 43.7002 119.4 43.2002 119C43.2002 119.2 43.2002 119.5 43.2002 119.7C43.2002 120.2 43.5002 121.1 43.8002 122.1C44.2002 123.1 44.6002 124.2 45.1002 125.1C45.3002 125.5 45.3002 126 45.0002 126.3C44.8002 126.5 44.6002 126.7 44.2002 126.8C43.9002 126.9 43.6002 126.9 43.2002 126.9C42.0002 126.8 40.3002 125.9 38.7002 123.5C38.2002 122.8 37.9002 122.3 37.9002 122.3C37.8002 122.3 38.1002 122.7 38.2002 123.9C38.3002 124.4 38.4002 125.1 38.5002 125.8C38.8002 127.5 39.2002 129.3 38.6002 130.2C38.1002 130.9 37.2002 130.9 35.6002 129.7C34.7002 129 33.9002 128.1 33.2002 127.4C32.7002 126.8 32.2002 126.3 32.2002 126.3C32.1002 126.3 32.4002 126.7 32.4002 127.6C32.5002 129.8 32.0002 131 31.1002 131.7C30.4002 132.2 29.6002 132.2 28.7002 132C27.9002 131.8 27.0002 131.3 26.1002 130.6C23.4002 128.5 20.8002 124.4 21.2002 120.9C21.2002 120.6 21.5002 120.4 21.8002 120.4C22.1002 120.4 22.3002 120.7 22.3002 121C21.9002 124.1 24.3002 127.7 26.7002 129.7C27.5002 130.3 28.2002 130.7 28.9002 130.9C29.5002 131.1 30.0002 131 30.4002 130.8C31.0002 130.4 31.3002 129.4 31.2002 127.7C31.1002 125.9 31.4002 125.2 32.0002 125.2C32.6002 125.2 33.1002 125.8 33.9002 126.6C34.5002 127.3 35.3002 128.1 36.1002 128.8C37.0002 129.5 37.4002 129.7 37.5002 129.6C37.8002 129.2 37.5002 127.6 37.2002 126.2C37.1002 125.5 36.9002 124.8 36.9002 124.2C36.7002 122.2 37.0002 121.4 37.6002 121.4C38.1002 121.4 38.7002 122.1 39.4002 123C40.8002 125.1 42.2002 125.8 43.1002 125.9C43.3002 125.9 43.5002 125.9 43.7002 125.9C43.8002 125.9 43.9002 125.8 43.9002 125.8C43.9002 125.8 43.9002 125.8 43.9002 125.7C43.4002 124.7 42.9002 123.6 42.5002 122.5C42.1002 121.4 41.9002 120.4 41.8002 119.7C41.8002 118.7 41.7002 118.1 41.7002 117.8C41.6002 117 41.6002 116.7 42.2002 116.7C42.5002 116.7 42.6002 116.9 42.8002 117.1C43.1002 117.5 43.8002 118.6 45.5002 119.1C46.3002 119.3 46.6002 119.3 46.6002 119.3C46.7002 119 46.3002 118.2 45.9002 117.4C45.6002 116.8 45.3002 116.1 45.2002 115.6C44.9002 114.3 45.1002 113.7 45.6002 113.6C46.1002 113.5 46.7002 113.9 47.3002 114.4C47.7002 114.7 48.1002 115 48.5002 115.2C49.0002 115.5 49.4002 115.6 49.8002 115.6C49.9002 115.6 50.1002 115.6 50.1002 115.5C50.1002 115.5 50.2002 115.4 50.2002 115.3C50.2002 115 50.2002 114.6 49.9002 114L49.7002 113.6C49.5002 111.9 48.6002 109.9 48.6002 107.6ZM22.5002 114.9C22.7002 114.7 23.1002 114.7 23.3002 114.9C23.5002 115.1 23.5002 115.5 23.3002 115.7C21.8002 117.1 21.0002 119.2 20.7002 121.6C20.5002 124.1 20.9002 126.9 22.0002 129.4C22.1002 129.7 22.0002 130 21.7002 130.1C21.4002 130.2 21.1002 130.1 21.0002 129.8C19.8002 127.1 19.3002 124.1 19.6002 121.4C19.8002 118.9 20.8002 116.5 22.5002 114.9ZM18.5002 126.2C18.8002 126.2 19.1002 126.4 19.1002 126.7C19.1002 127 18.9002 127.3 18.6002 127.3C16.1002 127.4 15.0002 126 14.5002 124.2C14.1002 122.6 14.2002 120.5 14.4002 119C14.5002 118 14.5002 117.2 14.4002 116.8C14.1002 117 13.6002 117.6 12.9002 118.7C12.3002 119.7 11.6002 120.2 10.9002 120.3C10.3002 120.4 9.80017 120.2 9.30017 119.7C8.90017 119.3 8.50017 118.7 8.30017 118C7.50017 115.8 7.40017 112.1 9.00017 108C9.20017 107.6 9.20017 107.3 9.10017 107.2C9.10017 107.2 9.10017 107.2 9.00017 107.2C8.90017 107.2 8.70017 107.2 8.40017 107.3C7.50017 107.5 6.50017 108.2 6.10017 108.6C5.70017 109.1 5.30017 109.3 4.80017 109.3C4.40017 109.3 4.20017 109.1 4.00017 108.7C3.80017 108.5 3.70017 108.1 3.70017 107.7C3.60017 106.4 4.10017 104.1 6.00017 101.7C6.10017 101.6 6.10017 101.5 6.20017 101.4C6.20017 101.4 6.10017 101.4 6.10017 101.3C5.80017 101.2 5.30017 101.2 4.40017 101.4C3.80017 101.5 3.20017 101.5 2.80017 101.4C2.40017 101.2 2.10017 100.9 2.00017 100.5C1.90017 100.1 2.00017 99.7 2.20017 99.2C2.60017 98.1 3.90017 96.5 6.30017 94.2C7.00017 93.5 6.20017 92.6 5.20017 91.6C3.30017 89.6 0.900168 87.1 3.90017 83.2C4.00017 82.9 4.30017 82.8 4.60017 83C4.80017 83.2 4.90017 83.5 4.70017 83.8C2.30017 86.9 4.30017 89 5.90017 90.7C7.40017 92.2 8.50017 93.5 7.00017 94.9C4.80017 97 3.60017 98.5 3.20017 99.5C3.10017 99.8 3.00017 100 3.10017 100.1L3.20017 100.2C3.40017 100.3 3.80017 100.3 4.20017 100.2C5.20017 100 5.90017 100 6.40017 100.1C6.80017 100.2 7.00017 100.4 7.20017 100.6C7.40017 100.9 7.40017 101.1 7.40017 101.4C7.40017 101.7 7.20017 102 7.00017 102.3C5.30017 104.5 4.80017 106.4 4.90017 107.5C4.90017 107.7 5.00017 107.9 5.00017 108C5.00017 108 5.10017 107.9 5.30017 107.7C5.80017 107.1 7.10017 106.3 8.20017 106C8.60017 105.9 8.90017 105.9 9.30017 105.9C9.70017 106 10.0002 106.2 10.2002 106.6C10.4002 107 10.3002 107.5 10.1002 108.2C8.60017 112.1 8.70017 115.5 9.40017 117.5C9.60017 118.1 9.90017 118.5 10.1002 118.7C10.3002 118.9 10.5002 119 10.8002 119C11.2002 119 11.6002 118.6 12.0002 117.9C12.8002 116.7 13.4002 116 13.9002 115.7C14.3002 115.5 14.6002 115.4 15.0002 115.6C15.3002 115.7 15.5002 116 15.6002 116.4C15.8002 117 15.8002 117.9 15.7002 119.1C15.5002 120.6 15.4002 122.4 15.8002 123.9C15.9002 125.3 16.7002 126.3 18.5002 126.2ZM11.9002 79.5C11.8002 79.2 11.9002 78.9 12.2002 78.7C12.5002 78.6 12.8002 78.7 13.0002 79C13.6002 80.4 15.4002 81.1 17.3002 81.5C20.2002 82 23.7002 81.6 25.2002 81C25.5002 80.9 25.8002 81 25.9002 81.3C26.0002 81.6 25.9002 81.9 25.6002 82C23.9002 82.6 20.2002 83.1 17.1002 82.5C14.7002 82.2 12.7002 81.3 11.9002 79.5ZM33.8002 117.4C33.9002 117.7 33.7002 118 33.4002 118.1C33.1002 118.2 32.8002 118 32.7002 117.7C32.4002 116.7 32.3002 115.1 32.4002 113.5C32.5002 111.5 32.8002 109.4 33.2002 107.8C33.8002 105.4 34.4002 104.6 35.0002 104.7C35.6002 104.9 35.9002 106 36.2002 107.2C36.4002 107.9 36.5002 108.5 36.7002 109.1C37.1002 110.3 37.8002 111.7 38.3002 112.4C38.3002 112.5 38.4002 112.5 38.4002 112.5C38.6002 112 38.7002 110.9 38.7002 108.8C38.7002 106.5 39.1002 105.7 39.8002 105.7C40.4002 105.7 41.0002 106.5 41.6002 107.5C43.1002 109.8 43.7002 110.6 43.8002 110.5C44.0002 110.4 43.9002 108.7 43.7002 106.9C43.7002 106.5 43.6002 106.2 43.6002 105.7C43.5002 104.7 43.5002 103.6 43.8002 102.5C44.1002 101.4 44.6002 100.3 45.5002 99.4C45.7002 99.2 46.1002 99.2 46.3002 99.4C46.5002 99.6 46.5002 100 46.3002 100.2C45.5002 100.9 45.1002 101.8 44.9002 102.7C44.7002 103.6 44.7002 104.6 44.7002 105.6C44.7002 105.9 44.8002 106.4 44.8002 106.8C45.0002 109 45.2002 111 44.4002 111.5C43.7002 112 42.6002 111.1 40.6002 108.1C40.2002 107.4 39.8002 106.9 39.7002 106.9C39.7002 106.9 39.7002 107.4 39.7002 108.9C39.7002 111.1 39.5002 112.4 39.2002 113C38.9002 113.6 38.6002 113.8 38.1002 113.7C37.8002 113.7 37.4002 113.4 37.1002 113C36.5002 112.2 35.8002 110.7 35.3002 109.4C35.1002 108.8 34.9002 108.1 34.7002 107.4C34.5002 106.5 34.4002 105.8 34.3002 105.8C34.2002 105.8 34.3002 106.4 33.9002 108C33.5002 109.6 33.2002 111.7 33.1002 113.5C33.4002 115.1 33.5002 116.5 33.8002 117.4ZM38.5002 112.6C38.6002 112.6 38.5002 112.6 38.5002 112.6V112.6ZM13.2002 87.6C13.0002 87.4 12.9002 87 13.2002 86.8C13.4002 86.6 13.8002 86.5 14.0002 86.8C16.3002 88.9 18.9002 89.5 21.4002 89.4C23.9002 89.3 26.1002 88.6 27.7002 88C28.0002 87.9 28.3002 88 28.4002 88.3C28.5002 88.6 28.4002 88.9 28.1002 89C26.5002 89.6 24.1002 90.4 21.5002 90.4C18.6002 90.6 15.7002 89.9 13.2002 87.6ZM32.3002 86.6C32.6002 86.6 32.9002 86.9 32.8002 87.2C32.7002 87.5 32.5002 87.8 32.2002 87.7C30.5002 87.6 27.9002 86.7 26.5002 85.8C26.1002 85.5 25.8002 85.3 25.6002 85C25.3002 84.5 25.3002 84.1 25.7002 83.8C26.0002 83.5 26.5002 83.4 27.4002 83.3C28.2002 83.3 29.2002 83.3 30.2002 83.4C31.1002 83.5 32.0002 83.5 32.6002 83.5C32.3002 83.3 32.0002 83.1 31.6002 82.9C30.8002 82.4 30.0002 82 29.9002 81.4C29.8002 80.7 30.6002 80 33.4002 79.6C35.8002 79.2 37.3002 79.8 38.9002 80.5C40.3002 81.1 41.7002 81.7 44.0002 81.6C44.3002 81.6 44.6002 81.8 44.6002 82.1C44.6002 82.4 44.4002 82.7 44.1002 82.7C41.6002 82.8 40.0002 82.1 38.6002 81.5C37.2002 80.9 35.8002 80.4 33.7002 80.7C31.7002 81 31.1002 81.1 31.1002 81.2C31.1002 81.3 31.6002 81.6 32.2002 81.9C33.1002 82.4 34.0002 82.9 34.1002 83.7C34.2002 84.2 33.8002 84.5 33.1002 84.6C32.4002 84.7 31.3002 84.6 30.2002 84.5C29.2002 84.4 28.2002 84.4 27.5002 84.4C27.1002 84.4 26.9002 84.4 26.7002 84.5C26.8002 84.6 27.0002 84.7 27.2002 84.9C28.4002 85.7 30.8002 86.5 32.3002 86.6ZM9.20017 88.5C9.40017 88.7 9.40017 89.1 9.10017 89.3C8.90017 89.5 8.50017 89.5 8.30017 89.2C6.90017 87.6 5.90017 85.6 5.50017 83.2C5.10017 80.8 5.20017 77.9 6.20017 74.5C6.80017 72.3 7.70017 71.6 8.60017 71.8C9.40017 71.9 10.1002 72.7999 10.7002 73.6999C11.1002 74.2999 11.1002 74.6999 11.1002 74.6999C11.2002 74.5999 11.1002 73.0999 10.9002 71.1999C10.7002 68.6999 10.4002 65.6 10.9002 63.5C11.3002 61.9 12.0002 60.2999 12.8002 59.2999C13.2002 58.8999 13.5002 58.6 13.9002 58.4C14.4002 58.2 14.9002 58.2999 15.3002 58.5999C15.7002 58.8999 16.0002 59.3999 16.3002 60.0999C16.6002 60.7999 16.7002 61.3999 16.9002 62.0999C17.1002 62.7999 17.2002 63.4999 17.5002 64.0999C17.9002 65 18.4002 65.9 18.8002 66.3L18.9002 66.4C19.0002 66.1 19.1002 65.5 19.0002 64.5V64.3C18.8002 61.2 18.5002 56.5 21.0002 53.7C21.4002 53.3 21.8002 52.9999 22.2002 52.7999C22.7002 52.5999 23.1002 52.7 23.6002 52.9C24.0002 53.1 24.3002 53.4999 24.6002 54.0999C25.1002 55.0999 25.3002 56.6 25.3002 58.9C25.3002 59.2 25.0002 59.5 24.7002 59.5C24.4002 59.5 24.1002 59.2 24.1002 58.9C24.1002 56.8 23.9002 55.3999 23.5002 54.5999C23.3002 54.1999 23.1002 54 23.0002 53.9C22.9002 53.8 22.7002 53.8 22.5002 53.9C22.3002 54 22.0002 54.1999 21.8002 54.4999C19.6002 57 19.9002 61.4 20.1002 64.3V64.5C20.2002 65.8 20.1002 66.6999 19.9002 67.0999C19.7002 67.5 19.4002 67.6999 19.0002 67.6999C18.7002 67.6999 18.4002 67.5 18.1002 67.3C17.5002 66.8 16.9002 65.6999 16.5002 64.6999C16.2002 63.9999 16.0002 63.3 15.9002 62.5C15.7002 61.9 15.6002 61.1999 15.4002 60.5999C15.2002 60.0999 15.0002 59.6999 14.8002 59.5999C14.7002 59.4999 14.6002 59.5 14.4002 59.5C14.2002 59.6 14.0002 59.7999 13.7002 60.0999C13.0002 60.8999 12.4002 62.4 12.1002 63.7999C11.6002 65.7 11.9002 68.6999 12.1002 71.1C12.3002 73.4 12.4002 75.1999 11.8002 75.6999C11.3002 76 10.6002 75.7 9.80017 74.4C9.40017 73.8 8.90017 73.1 8.50017 73C8.20017 72.9 7.80017 73.4 7.40017 74.9C6.50017 78.2 6.30017 80.9 6.70017 83.1C7.00017 85.2 7.90017 87 9.20017 88.5ZM27.2002 57.4C27.2002 57.7 26.9002 57.9 26.6002 57.9C26.3002 57.9 26.1002 57.5999 26.1002 57.2999C26.3002 54.5999 27.9002 54.1 29.7002 53.7C31.7002 53.2 33.9002 52.5999 33.8002 46.9999V46.6999C33.8002 45.5999 33.8002 44.9 34.1002 44.4C34.6002 43.7 35.4002 43.8999 37.1002 45.0999C37.9002 45.5999 38.5002 46.1999 38.9002 46.6999C39.4002 47.2999 39.8002 47.8999 40.1002 48.4999C40.3002 48.8999 40.5002 50 40.7002 50.9C40.7002 50.6 40.8002 50.1999 40.8002 49.7999C41.0002 47.8999 41.1002 45.8999 42.0002 45.2999C42.6002 44.8999 43.4002 45.1999 44.3002 46.5999C45.5002 48.4999 46.3002 50.1999 46.4002 51.9999C46.5002 53.7999 46.0002 55.4999 44.7002 57.5999C44.5002 57.8999 44.2002 57.9999 43.9002 57.7999C43.6002 57.5999 43.5002 57.2999 43.7002 57C44.8002 55.0999 45.3002 53.4999 45.2002 51.9999C45.1002 50.4999 44.4002 48.9 43.3002 47.1999C42.8002 46.3999 42.6002 46.1999 42.5002 46.1999C42.1002 46.3999 42.0002 48.1999 41.8002 49.7999C41.7002 51.2999 41.6002 52.5999 41.1002 53.0999C40.7002 53.3999 40.4002 53.4 39.9002 52.9999C39.8002 52.9 39.7002 52.8 39.7002 52.7V52.4999C39.6002 51.8999 39.2002 49.5 38.9002 48.9C38.6002 48.4 38.3002 47.9 37.9002 47.4C37.5002 46.9 36.9002 46.3999 36.3002 45.9999C35.3002 45.2999 34.9002 44.9999 34.9002 44.9999C34.8002 45.0999 34.8002 45.6999 34.8002 46.5999V46.9C34.9002 53.3 32.2002 54.1 29.8002 54.7C28.6002 55.2 27.4002 55.5 27.2002 57.4ZM40.0002 64.8C39.7002 64.9 39.4002 64.7 39.3002 64.4C39.2002 64.1 39.4002 63.8 39.7002 63.7C39.9002 63.7 40.0002 63.6 40.2002 63.5C41.6002 62.9 43.5002 61.6999 44.8002 60.0999C46.1002 58.5999 46.9002 56.9 46.4002 55.2C46.4002 55.1 46.3002 55 46.3002 54.9C46.2002 54.6 46.3002 54.3 46.6002 54.2C46.9002 54.1 47.2002 54.1999 47.3002 54.4999C47.4002 54.5999 47.4002 54.8 47.4002 54.9C48.0002 57 47.1002 59.0999 45.6002 60.7999C44.2002 62.5 42.2002 63.8 40.6002 64.5C40.4002 64.7 40.2002 64.8 40.0002 64.8ZM36.7002 69.9C36.4002 69.9 36.1002 69.6 36.1002 69.3C36.1002 69 36.4002 68.6999 36.7002 68.6999H37.1002C39.4002 68.6999 41.5002 68.2999 42.9002 67.1999C44.3002 66.1999 45.2002 64.6 45.3002 62.2V62C45.3002 61.7 45.6002 61.4 45.9002 61.4C46.2002 61.4 46.5002 61.7 46.5002 62V62.2C46.4002 65 45.4002 66.9 43.7002 68.1C42.0002 69.2999 39.7002 69.8 37.2002 69.8C37.0002 69.9 36.9002 69.9 36.7002 69.9Z" fill="black"/>
<path d="M59.3003 124.3C59.0003 124.3 58.8003 124 58.8003 123.7C58.8003 123.4 59.1003 123.2 59.4003 123.2C60.1003 123.3 60.8003 123.4 61.6003 123.6C62.2003 123.8 62.8003 123.9 63.5003 124.2C65.1003 121.7 66.6003 119.5 67.8003 117.5C68.3003 116.7 68.7003 115.9 69.1003 115.1C70.0003 113.4 70.7003 112 71.6003 111.7C72.4003 111.4 73.1003 111.9 73.8003 113.7C74.3003 115.1 75.0003 116.3 75.8003 117.2C76.7003 118.1 77.7003 118.7 79.1003 119C82.9003 119.7 84.4003 116.3 85.4003 114.2C85.5003 113.9 85.7003 113.7 85.8003 113.4C86.9003 111.3 87.9003 111.2 89.0003 112.5C89.8003 113.4 90.5003 115.2 91.2003 117.4C91.6003 118.5 91.9003 119.7 92.3003 120.9C92.6003 121.8 92.8003 122.6 93.1003 123.4C94.0003 123 94.8003 122.7 95.6003 122.5C96.7003 122.2 97.7003 122.1 98.6003 122.1C98.9003 122.1 99.2003 122.3 99.2003 122.6C99.2003 122.9 99.0003 123.2 98.7003 123.2C97.8003 123.2 96.9003 123.4 95.9003 123.6C95.1003 123.8 94.3003 124.1 93.4003 124.5C93.7003 125.3 93.9003 126 94.2003 126.6C95.1003 126.2 96.0003 126 96.9003 125.9C98.0003 125.8 99.1003 126 100 126.3C100.3 126.4 100.4 126.7 100.3 127C100.2 127.3 99.9003 127.4 99.6003 127.3C98.8003 127 97.9003 126.9 97.0003 126.9C96.2003 127 95.4003 127.2 94.6003 127.5C94.9003 128.1 95.2003 128.7 95.5003 129.1C96.7003 130.6 97.9003 132.2 98.9003 133.7C99.2003 132.6 99.7003 131.7 100.3 131.1C100.7 130.7 101.1 130.4 101.6 130.3C102.1 130.1 102.6 130.1 103.1 130.2C104 130.3 105 130.8 105.9 131.7C106.4 131.2 106.8 130.7 107.2 130.3C108.7 128.8 110.1 127.6 111.2 126.9C112.1 126.3 112.9 125.9 113.4 125.9C113.8 125.9 114.1 126 114.3 126.2C114.5 126.4 114.6 126.7 114.5 127.1C114.4 127.6 113.9 128.4 113.1 129.4C112.1 130.6 110.5 132.3 108.8 133.8C108.5 134 108.3 134.3 108 134.5C108.9 135.5 109.7 136.8 110.3 138.3C110.9 139.8 111.3 141.4 111.4 143.2C111.5 144.1 111.5 145 111.4 145.8C111.2 149 110.2 151.3 108.9 153C107.6 154.6 106.1 155.5 104.9 155.7C105.1 158.6 104.5 161.4 103.2 163.9C101.7 166.9 99.1003 169.5 95.9003 171.3C92.2003 173.3 87.6003 174.4 82.3003 173.9C82.0003 173.9 81.8003 173.6 81.8003 173.3C81.8003 173 82.1003 172.8 82.4003 172.8C87.5003 173.2 91.9003 172.2 95.4003 170.3C98.5003 168.6 100.8 166.2 102.3 163.3C103.7 160.5 104.3 157.2 103.7 153.8C103.1 150.3 101.3 146.7 98.0003 143.3C97.8003 143.1 97.8003 142.7 98.0003 142.5C98.2003 142.3 98.6003 142.3 98.8003 142.5C102.2 146.1 104.1 149.9 104.8 153.6C104.9 153.9 104.9 154.2 104.9 154.4C105.8 154.3 107.1 153.5 108.2 152.2C109.4 150.7 110.3 148.6 110.5 145.7C110.5 144.9 110.5 144.1 110.5 143.3C110.4 141.7 110 140.1 109.4 138.8C108.8 137.4 108.1 136.2 107.3 135.3C106.6 135.8 105.9 136.3 105.2 136.6C104.7 136.9 104.1 137.1 103.7 137.1C103.4 137.1 103.2 137.1 103 136.9C102.8 136.7 102.7 136.5 102.7 136.1C102.7 135.8 102.9 135.5 103.3 135C104 134.1 104.6 133.3 105.3 132.6C104.6 131.9 103.8 131.5 103.1 131.4C102.7 131.4 102.4 131.4 102.1 131.5C101.8 131.6 101.5 131.8 101.2 132.1C100.6 132.7 100.1 133.8 99.9003 135.2C100.2 135.7 100.5 136.2 100.8 136.7C102.3 139.2 103.3 141.5 103.5 142.9C103.6 143.2 103.3 143.5 103 143.6C102.7 143.7 102.4 143.4 102.3 143.1C102.1 141.8 101.1 139.7 99.7003 137.3C98.3003 135 96.6003 132.4 94.6003 130C94.2003 129.5 93.8003 128.7 93.4003 127.9C93.3003 127.8 93.3003 127.8 93.3003 127.7C93.3003 127.6 93.2003 127.5 93.2003 127.4C92.5003 125.6 91.8003 123.4 91.1003 121.2C90.7003 120 90.4003 118.9 90.0003 117.7C89.3003 115.7 88.7003 114 88.0003 113.2C87.6003 112.8 87.2003 112.9 86.7003 113.9C86.6003 114.1 86.5003 114.4 86.3003 114.7C85.1003 117.1 83.3003 120.9 78.7003 120.1C77.1003 119.8 75.8003 119.1 74.8003 118C73.8003 117 73.1003 115.6 72.5003 114.1C72.1003 113.1 71.9003 112.8 71.8003 112.8C71.3003 113 70.7003 114.2 69.9003 115.7C69.5003 116.5 69.0003 117.4 68.6003 118.2C67.3003 120.4 65.4003 123.2 63.5003 126.1C57.9003 134.4 51.2003 144.6 50.5003 150.9C50.1003 154.5 50.6003 159.1 53.1003 162.9C54.9003 165.6 57.7003 167.8 62.1003 169.2C61.7003 168.4 61.4003 167.4 61.3003 166.5C61.0003 164.4 61.5003 161.9 63.1003 159.4C64.5003 157.1 66.5003 155.4 68.3003 153.8C71.2003 151.3 73.8003 149 73.7003 144.8C73.6003 141.9 73.2003 139.7 72.2003 138C71.2003 136.4 69.6003 135.3 67.2003 134.5C66.9003 134.4 66.7003 134.1 66.8003 133.8C66.9003 133.5 67.2003 133.3 67.5003 133.4C70.2003 134.2 72.0003 135.5 73.1003 137.4C74.2003 139.2 74.7003 141.7 74.8003 144.7C74.9003 149.4 72.0003 151.9 69.0003 154.6C67.2003 156.2 65.3003 157.8 64.0003 160C62.6003 162.3 62.1003 164.5 62.4003 166.4C62.6003 168.1 63.4003 169.6 64.6003 170.8C65.8003 172 67.4003 172.9 69.1003 173.4C71.6003 174.1 74.4003 174 76.9003 172.9C77.2003 172.8 77.5003 172.9 77.6003 173.2C77.7003 173.5 77.6003 173.8 77.3003 173.9C74.5003 175.1 71.4003 175.2 68.7003 174.5C66.8003 173.9 65.0003 172.9 63.7003 171.6C63.4003 171.3 63.1003 170.9 62.8003 170.6C62.7003 170.6 62.6003 170.6 62.5003 170.6C57.4003 169.2 54.1003 166.7 52.1003 163.6C49.3003 159.5 48.9003 154.6 49.3003 150.9C50.0003 144.4 56.8003 134.1 62.4003 125.6L62.5003 125.4C62.0003 125.2 61.5003 125.1 61.0003 124.9C60.6003 124.5 59.9003 124.3 59.3003 124.3ZM108.2 131C107 132.2 105.6 133.8 104.3 135.5C104.4 135.4 104.6 135.4 104.7 135.3C105.8 134.8 107 133.8 108.2 132.8C109.8 131.4 111.3 129.7 112.4 128.5C113 127.8 113.4 127.2 113.5 126.9C113.2 127 112.7 127.3 112.1 127.7C111 128.4 109.7 129.5 108.2 131ZM75.5003 133.8C75.7003 134 75.6003 134.4 75.4003 134.6C75.2003 134.8 74.8003 134.7 74.6003 134.5C73.7003 133.3 72.2003 132.3 70.7003 131.7C69.1003 131 67.4003 130.8 66.3003 131C66.0003 131.1 65.7003 130.9 65.6003 130.6C65.5003 130.3 65.7003 130 66.0003 129.9C67.3003 129.6 69.2003 129.9 71.1003 130.6C72.8003 131.4 74.4003 132.5 75.5003 133.8ZM71.6003 129.5C71.3003 129.4 71.1003 129.1 71.1003 128.8C71.2003 128.5 71.5003 128.3 71.8003 128.3C75.8003 129 79.1003 130.2 81.7003 131.6C84.5003 133.1 86.5003 135 87.3003 136.8C88.7003 139.9 87.7003 143 86.5003 144.7C86.1003 145.3 85.7003 145.7 85.3003 146C84.8003 146.3 84.2003 146.4 83.8003 146.1C83.5003 145.8 83.3003 145.4 83.3003 144.6C83.3003 144.3 83.6003 144 83.9003 144.1C84.2003 144.1 84.5003 144.4 84.4003 144.7C84.4003 145 84.4003 145.2 84.5003 145.2L84.7003 145.1C85.0003 144.9 85.3003 144.6 85.6003 144.1C86.6003 142.6 87.4003 140 86.3003 137.3C85.6003 135.7 83.8003 134 81.2003 132.6C78.7003 131.3 75.4003 130.2 71.6003 129.5ZM78.8003 170C79.1003 170.1 79.3003 170.4 79.2003 170.7C79.1003 171 78.8003 171.2 78.5003 171.1C76.0003 170.5 74.2003 169.6 73.0003 168.4C71.9003 167.2 71.4003 165.9 71.4003 164.4C71.5003 163 72.0003 161.5 73.0003 160C74.8003 157.4 77.9003 154.8 81.7003 152.9C82.3003 152.6 83.0003 152.3 83.8003 152C86.2003 151 89.3003 149.8 90.3003 147.8C90.4003 147.5 90.8003 147.4 91.1003 147.5C91.4003 147.6 91.5003 148 91.4003 148.3C90.2003 150.7 86.9003 152 84.3003 153.1C83.5003 153.4 82.8003 153.7 82.3003 154C78.7003 155.8 75.7003 158.2 74.0003 160.7C73.1003 162 72.6003 163.3 72.6003 164.5C72.6003 165.7 72.9003 166.7 73.9003 167.7C74.9003 168.6 76.5003 169.4 78.8003 170ZM82.0003 150.2C81.7003 150.2 81.4003 150 81.4003 149.7C81.4003 149.4 81.6003 149.1 81.9003 149.1C82.2003 149.1 82.6003 149 82.9003 148.9C84.7003 148.4 86.7003 147.1 88.1003 145.5C89.5003 143.9 90.4003 142 90.3003 140.3C90.3003 140.1 90.3003 139.9 90.2003 139.7C90.1003 139.4 90.3003 139.1 90.6003 139C90.9003 138.9 91.2003 139.1 91.3003 139.4C91.4003 139.7 91.4003 139.9 91.4003 140.2C91.5003 142.2 90.5003 144.4 88.9003 146.2C87.3003 148 85.2003 149.5 83.1003 150C82.8003 150.1 82.4003 150.2 82.0003 150.2Z" fill="black"/>
</g>
<defs>
<clipPath id="clip0">
<rect width="178.5" height="178.5" fill="white"/>
</clipPath>
</defs>
</svg>
