<svg width="179" height="179" viewBox="0 0 179 179" fill="none" xmlns="http://www.w3.org/2000/svg">
<g clip-path="url(#clip0)">
<path fill-rule="evenodd" clip-rule="evenodd" d="M89.2004 0C138.5 0 178.4 40 178.4 89.2C178.4 138.5 138.4 178.4 89.2004 178.4C39.9004 178.4 -0.0996094 138.4 -0.0996094 89.2C0.000390626 40 39.9004 0 89.2004 0Z" fill="#F7F7F7"/>
<path fill-rule="evenodd" clip-rule="evenodd" d="M110.8 38.0999C109.1 36.8999 107.9 34.5999 105.7 33.5999C102 31.8999 97.1004 32.4 96.0004 37.2C95.2004 40.6 95.1004 44.4999 97.0004 46.2999C101.5 50.3999 108.9 49.9 107.1 52.5C104.7 55.9 116.9 65.1 120.4 54.9C120.8 53.8 127.7 53.0999 127 49.7999C130.7 46.2999 135.1 39.8999 129.2 34.7999C125.7 31.7999 119.7 33.1999 117.4 34.2999C115 35.2999 113.3 39.8999 110.8 38.0999Z" fill="#CC5E41"/>
<path d="M44.9006 96.7C44.6006 96.6 44.4006 96.3 44.5006 96C44.6006 95.7 44.9006 95.5 45.2006 95.6C48.4006 96.2 50.8006 94.9 52.7006 93C54.7006 91 56.0006 88.3 57.0006 86.3C58.1006 84 58.6006 81 59.2006 78.1C59.6006 75.7999 60.0006 73.6 60.7006 71.6C60.8006 71.2999 60.9006 71.1 61.0006 70.7C61.4006 69.4 61.9006 67.5999 62.8006 67C63.8006 66.2999 65.0006 66.6 66.7006 68.9C67.2006 69.6 67.7006 70.4 68.2006 71.1C69.9006 73.7 71.4006 76 74.5006 78.4C74.9006 78.7 76.1006 78.4 77.8006 78.1C79.1006 77.7999 80.6006 77.5 82.4006 77.3C85.5006 76.9 89.2006 76.8 93.0006 76.9C96.3006 77 99.7006 77.4 102.801 78C104.101 78.3 105.501 77.8 107.001 76.5C108.601 75.2 110.301 72.9999 112.201 70.1999C113.801 67.8999 114.801 67.5 115.701 68.0999C116.401 68.5999 116.801 69.9 117.301 71.4C117.401 71.7 117.501 72.1 117.601 72.3C118.301 74.5 118.601 76.7 118.901 79C119.301 82.5 119.801 86 121.901 89.4C123.901 92.6 127.301 95 129.801 96.8C131.601 98.1 133.101 99.1 133.401 100C133.401 100.1 133.501 100.3 133.501 100.4C133.901 100.4 134.301 100.4 134.701 100.3L134.501 94.2C133.201 93.8999 132.001 93.5 130.801 92.9C128.301 91.6 126.501 89.6 125.601 87.3C125.201 86.3 125.001 85.2 125.001 84.1C125.001 83 125.301 82 125.801 81C126.701 79.4 128.201 77.9 130.601 77C130.901 76.9 131.201 77 131.301 77.3C131.401 77.6 131.301 77.9 131.001 78C128.901 78.8 127.501 80.1 126.801 81.5C126.401 82.3 126.201 83.2 126.101 84.1C126.101 85 126.301 86 126.601 86.9C127.401 88.9 129.001 90.7 131.301 91.9C132.501 92.5 133.701 92.8999 134.901 93.2C136.501 93.5 138.001 93.4 139.301 93C140.401 92.6 141.401 91.9 142.101 90.9C142.001 90.1 142.001 89.2 142.101 88.3C142.201 87.9 142.501 87.2 142.801 86.8C143.001 86.6 143.201 86.5 143.401 86.5C143.701 86.5 144.001 86.6 144.201 87C144.301 87.3 144.301 87.9 144.101 88.8C144.001 89.6 143.701 90.4 143.401 91V91.1C143.701 92.2999 144.201 93.5 145.001 94.5C145.901 95.6 147.001 96.5 148.201 97.1C149.401 97.7 150.701 97.8999 152.001 97.7C153.501 97.5 155.001 96.7 156.301 95L156.401 94.9C157.601 93.2 157.901 91.3999 157.601 89.7C157.301 88 156.401 86.5 154.901 85.4L154.801 85.3C154.601 85.2 154.501 84.8999 154.601 84.7C154.701 84.3999 155.001 84.2 155.301 84.3C158.101 85.2 160.101 85.1 161.701 84.5C163.701 83.8 164.801 82.2 165.401 80.6C165.901 79.2999 165.901 78 165.701 76.8C165.501 75.9 165.201 75.1 164.701 74.4C164.301 73.9 163.901 73.5 163.401 73.2C162.901 73.5 162.301 73.7999 161.601 74.1C160.401 74.5 159.601 74.6 159.201 74.4C158.901 74.3 158.701 74 158.601 73.7C158.501 73.3999 158.601 73.2 158.701 72.9C158.901 72.4 159.601 71.8999 160.401 71.7C161.401 71.5 162.301 71.6 163.101 71.9C165.001 70.4 165.301 68.3 164.501 66.3C164.001 65 163.101 63.6999 162.001 62.5999C160.901 61.5 159.501 60.5999 158.101 60C155.101 58.7999 151.801 59.1999 150.201 63.0999C150.101 63.3999 149.801 63.5 149.501 63.4C149.201 63.3 149.101 63 149.201 62.7C151.101 58 155.001 57.5 158.601 59C160.101 59.5999 161.601 60.6 162.901 61.9C164.101 63.1 165.101 64.5999 165.701 66C166.601 68.4 166.401 70.7999 164.301 72.6C164.801 72.9 165.201 73.3 165.501 73.8C166.101 74.6 166.501 75.6 166.701 76.6C167.001 78 166.901 79.6 166.401 81.1C165.701 83 164.301 84.7999 162.001 85.6C160.701 86.1 159.001 86.3 157.001 85.9C157.801 86.9 158.401 88.2 158.601 89.5C158.901 91.5 158.501 93.6 157.201 95.5L157.101 95.6C155.701 97.5 153.901 98.5 152.101 98.8C150.601 99 149.101 98.7 147.701 98.1C146.301 97.5 145.101 96.3999 144.101 95.2C143.401 94.2999 142.901 93.4 142.601 92.3C142.301 92.6 142.001 92.9 141.701 93.1L141.801 100.8C143.601 101 145.401 101.3 147.301 101.7C152.801 102.8 158.201 104.5 160.901 106.5C161.101 106.7 161.201 107 161.001 107.3C160.801 107.5 160.501 107.6 160.201 107.4C157.601 105.5 152.401 103.8 147.001 102.8C145.201 102.5 143.501 102.2 141.801 102L141.901 106.5C145.601 107.2 149.301 108.2 152.701 109.7C157.401 111.9 161.301 115.1 163.001 119.7C163.101 120 163.001 120.3 162.701 120.4C162.401 120.5 162.101 120.4 162.001 120.1C160.401 115.9 156.801 112.8 152.301 110.8C149.101 109.3 145.601 108.3 142.001 107.7L142.301 124.3C142.301 124.6 142.101 124.9 141.701 124.9C141.401 124.9 141.101 124.7 141.101 124.3L140.801 107.5C139.201 107.2 137.701 107.1 136.101 107L136.501 119.4C136.501 119.7 136.301 120 136.001 120C135.701 120 135.401 119.8 135.401 119.5L135.001 107C134.401 107 133.901 106.9 133.301 106.9C133.001 107.2 132.501 107.5 131.801 107.8C130.901 108.2 129.701 108.7 128.501 109.1C126.401 109.9 124.301 110.6 124.201 110.6C123.901 110.6 123.601 110.4 123.601 110.1C123.601 109.8 123.801 109.5 124.101 109.5C124.101 109.5 126.001 108.8 128.001 108C129.101 107.6 130.301 107.1 131.201 106.7C131.601 106.5 131.901 106.4 132.101 106.3C132.101 106.2 132.201 106 132.301 105.9C131.901 105.7 131.101 105.5 130.401 105.4C129.101 105.1 127.701 104.8 127.501 104C127.201 103.2 128.101 102.4 131.201 101.2C131.301 101.1 131.401 101 131.501 100.9C131.701 100.8 132.001 100.8 132.201 100.7C132.301 100.6 132.301 100.6 132.301 100.5C132.101 99.9 130.801 99 129.101 97.9C126.501 96 122.901 93.6 120.801 90.2C118.601 86.6 118.101 82.9 117.701 79.3C117.401 77.1 117.201 74.9 116.501 72.8C116.401 72.4 116.301 72.2 116.201 71.9C115.801 70.6 115.401 69.4999 115.001 69.1999C114.701 68.9999 114.101 69.4 113.001 71C111.001 73.9 109.201 76.1 107.601 77.5C105.801 79 104.201 79.6 102.501 79.2C99.5006 78.5 96.2006 78.2 92.9006 78.1C89.1006 78 85.5006 78.1 82.5006 78.5C80.8006 78.7 79.3006 79 78.1006 79.3C76.1006 79.8 74.6006 80.1 73.8006 79.4C70.6006 76.8 69.1006 74.5 67.3006 71.8C66.8006 71.1 66.4006 70.3999 65.8006 69.6999C64.6006 67.9999 63.9006 67.7 63.5006 68C62.9006 68.5 62.4006 70 62.1006 71.1C62.0006 71.4 61.9006 71.8 61.8006 72C61.2006 74 60.8006 76.2 60.4006 78.4C59.8006 81.4 59.3006 84.5 58.1006 86.9C57.1006 89 55.7006 91.8 53.6006 94C51.3006 95.9 48.5006 97.3999 44.9006 96.7ZM132.301 101.4C132.101 101.5 131.901 101.6 131.601 101.7C128.901 102.6 128.101 103 128.101 103.2C128.201 103.4 129.201 103.6 130.201 103.9C131.501 104.2 132.801 104.5 133.201 105.2C133.201 105.2 133.201 105.3 133.301 105.3C133.701 105.3 134.101 105.3 134.501 105.4L134.401 101.3C133.601 101.2 132.901 101.3 132.301 101.4ZM127.101 142.6C126.801 142.5 126.601 142.2 126.701 141.9C126.801 141.6 127.101 141.4 127.401 141.5C128.801 141.9 130.401 143.1 131.601 144.6C132.901 146.2 133.901 148 134.001 149.5C134.001 149.8 133.801 150.1 133.501 150.1C133.201 150.1 132.901 149.9 132.901 149.6C132.801 148.4 131.901 146.7 130.801 145.3C129.601 144 128.301 142.9 127.101 142.6ZM125.601 139.3C125.301 139.2 125.101 138.9 125.201 138.6C125.301 138.3 125.601 138.1 125.901 138.2C127.701 138.6 130.101 139.5 132.101 140.8C133.601 141.8 134.901 143.1 135.601 144.6C135.701 144.9 135.601 145.2 135.301 145.3C135.001 145.4 134.701 145.3 134.601 145C134.101 143.7 132.901 142.6 131.601 141.7C129.601 140.5 127.201 139.7 125.601 139.3ZM46.5006 143.1C46.2006 143.3 45.9006 143.2 45.7006 142.9C45.5006 142.6 45.6006 142.3 45.9006 142.1C48.0006 140.9 50.3006 139.9 51.7006 139.7C52.2006 139.6 52.5006 139.6 52.8006 139.7C53.3006 139.9 53.5006 140.2 53.4006 140.7C53.3006 141 53.0006 141.5 52.5006 142C52.0006 142.5 51.5006 143 51.1006 143.4C49.7006 144.7 48.7006 145.6 47.9006 148.3C47.8006 148.6 47.5006 148.8 47.2006 148.7C46.9006 148.6 46.7006 148.3 46.8006 148C47.7006 145 48.8006 144 50.3006 142.5C50.7006 142.1 51.2006 141.7 51.7006 141.1C51.9006 140.9 52.1006 140.7 52.1006 140.6C52.0006 140.6 51.9006 140.6 51.8006 140.6C50.7006 141.1 48.6006 142 46.5006 143.1ZM135.701 105.4C137.201 105.5 138.801 105.7 140.401 105.9L140.301 101.5C138.601 101.3 137.001 101.2 135.601 101.2L135.701 105.4ZM135.501 100.1C136.901 100.1 138.501 100.2 140.201 100.4L140.101 93.5C139.901 93.6 139.601 93.7 139.401 93.8C138.201 94.2 136.801 94.3999 135.301 94.2L135.501 100.1ZM120.801 126.2L139.801 126.3L139.401 125.7C137.801 123.3 136.201 120.8 134.601 120.7C132.401 120.5 129.701 120.5 126.901 120.4C124.301 120.4 121.701 120.4 119.501 120.5C119.601 122.2 120.001 124.2 120.801 126.2ZM140.901 127.4L121.301 127.3C121.801 128.3 122.301 129.3 122.901 130.2C124.901 133.3 127.501 135.8 130.301 136.8C130.601 136.9 130.701 137.2 130.601 137.5C130.501 137.8 130.201 137.9 129.901 137.8C126.901 136.8 124.101 134 122.001 130.8C119.801 127.4 118.401 123.4 118.501 120.2C118.601 118.2 119.201 116.2 120.801 114.3C122.301 112.5 124.701 110.8 128.201 109.2C128.501 109.1 128.801 109.2 128.901 109.5C129.001 109.8 128.901 110.1 128.601 110.2C125.301 111.7 123.101 113.3 121.601 115C120.501 116.3 119.901 117.7 119.701 119.2C121.801 119.2 124.401 119.1 127.001 119.1C129.801 119.1 132.601 119.2 134.801 119.4C136.901 119.6 138.701 122.3 140.401 125C140.701 125.5 141.001 126 141.401 126.5C141.501 126.6 141.501 126.7 141.501 126.8C141.501 127.1 141.201 127.4 140.901 127.4ZM32.3006 124.5C32.1006 124.8 31.8006 124.8 31.5006 124.6C31.2006 124.4 31.2006 124.1 31.4006 123.8C31.7006 123.4 32.3006 122.6 32.9006 121.8C34.0006 120.4 35.4006 118.7 36.2006 117.4C36.1006 115.5 36.1006 112 36.1006 107.7C34.6006 108.1 33.1006 108.5 31.6006 109L31.4006 122.5C31.4006 122.8 31.1006 123.1 30.8006 123.1C30.5006 123.1 30.2006 122.8 30.2006 122.5L30.4006 109.5C29.9006 109.7 29.3006 109.9 28.8006 110.2C24.2006 112.3 20.3006 115.4 18.7006 119.7C18.6006 120 18.3006 120.1 18.0006 120C17.7006 119.9 17.6006 119.6 17.7006 119.3C19.4006 114.6 23.5006 111.4 28.4006 109.2C29.1006 108.9 29.8006 108.6 30.5006 108.3L30.6006 101.7C27.0006 102.2 23.7006 103 21.9006 104.4C21.7006 104.6 21.3006 104.5 21.1006 104.3C20.9006 104.1 21.0006 103.7 21.2006 103.5C23.2006 102 26.7006 101.1 30.6006 100.6L31.4006 47.2999C31.4006 47.0999 31.5006 46.8999 31.6006 46.7999C31.9006 46.5999 32.2006 46.7 32.4006 46.9C34.5006 49.9 35.7006 51.1 36.4006 51.9C37.0006 52.5 37.3006 52.8 37.5006 53.4C37.7006 54 37.6006 54.7 37.5006 56.2C37.4006 57.9 37.3006 60.5999 37.3006 65.1999C37.3006 65.7999 37.3006 68.7 37.3006 72.7C37.3006 79.7999 37.2006 90.7 37.2006 100.1C42.9006 100 48.3006 100.5 50.6006 101.2C50.6006 101.2 50.6006 101.2 50.7006 101.2C51.1006 101 51.5006 100.8 51.7006 100.5C52.1006 99.9 51.4006 99.5 50.4006 99.1C49.0006 98.7 47.2006 98.5 46.1006 98.4C45.8006 98.4 45.6006 98.1 45.6006 97.8C45.6006 97.5 45.9006 97.3 46.2006 97.3C47.3006 97.4 49.3006 97.6 50.7006 98.1C52.5006 98.7 53.7006 99.6 52.5006 101.2C51.8006 102.1 50.4006 102.5 49.0006 102.9C48.0006 103.2 47.2006 103.4 47.0006 103.7C46.9006 104 47.7006 104.6 50.6006 105.9C52.4006 106.7 53.9006 107.5 55.2006 108.4C56.5006 109.3 57.7006 110.4 58.9006 112C59.1006 112.3 59.0006 112.6 58.8006 112.8C58.6006 113 58.2006 112.9 58.0006 112.7C56.9006 111.2 55.8006 110.2 54.6006 109.3C53.4006 108.4 52.0006 107.8 50.2006 106.9C49.7006 106.7 49.3006 106.5 48.9006 106.3C48.9006 106.3 48.8006 106.3 48.7006 106.3C45.2006 106.3 41.1006 106.7 37.1006 107.5C37.1006 112 37.1006 115.7 37.2006 117.6C37.2006 117.7 37.2006 117.8 37.1006 117.9C36.2006 119.2 34.8006 121 33.6006 122.5C33.1006 123.4 32.6006 124.1 32.3006 124.5ZM36.1006 106.6C36.1006 104.9 36.1006 103.1 36.1006 101.3C35.2006 101.3 34.3006 101.4 33.4006 101.4C32.8006 101.4 32.3006 101.5 31.7006 101.6L31.6006 107.9C33.1006 107.4 34.6006 107 36.1006 106.6ZM36.1006 100.1C36.1006 90.7 36.2006 79.7999 36.2006 72.7C36.2006 69.1 36.2006 66.4999 36.2006 65.1999C36.2006 60.5999 36.4006 57.7999 36.4006 56.0999C36.5006 54.6999 36.5006 54.0999 36.4006 53.5999C36.3006 53.2999 36.1006 53.0999 35.6006 52.5999C35.0006 52 34.0006 51 32.4006 48.9L31.6006 100.4C32.1006 100.3 32.6006 100.3 33.2006 100.3C34.2006 100.2 35.2006 100.2 36.1006 100.1ZM37.2006 101.2C37.2006 103 37.2006 104.7 37.2006 106.3C40.6006 105.6 44.1006 105.2 47.2006 105.1C46.1006 104.3 45.8006 103.7 46.1006 103.1C46.4006 102.4 47.4006 102.1 48.5006 101.8C45.9006 101.5 41.6006 101.2 37.2006 101.2ZM32.5006 126.1C32.2006 126.2 31.9006 126.1 31.8006 125.8C31.7006 125.5 31.8006 125.2 32.1006 125.1C32.5006 124.9 33.2006 124.8 34.0006 124.7C34.7006 124.6 35.6006 124.6 36.6006 124.6L57.2006 124.9C57.4006 123.8 57.5006 122.7 57.5006 121.7C57.5006 121 57.5006 120.4 57.4006 119.8C55.5006 119.6 53.0006 119.7 50.5006 119.8C46.0006 119.9 41.1006 120 37.9006 119C37.6006 118.9 37.4006 118.6 37.5006 118.3C37.6006 118 37.9006 117.8 38.2006 117.9C41.2006 118.8 46.0006 118.7 50.4006 118.6C52.9006 118.5 55.2006 118.5 57.2006 118.6C57.1006 118 56.9006 117.4 56.6006 116.9C56.0006 115.6 55.1006 114.7 53.8006 114.2C53.1006 113.9 52.3006 113.8 51.4006 113.8C51.1006 113.8 50.8006 113.5 50.8006 113.2C50.8006 112.9 51.1006 112.6 51.4006 112.6C52.5006 112.6 53.4006 112.8 54.3006 113.1C55.9006 113.7 57.0006 114.9 57.7006 116.4C58.4006 117.9 58.7006 119.7 58.7006 121.6C58.7006 122.8 58.6006 124.1 58.4006 125.4C58.4006 125.5 58.4006 125.6 58.4006 125.6C58.1006 127.5 57.5006 129.4 56.8006 131.2C55.8006 133.6 55.1006 135.1 53.8006 136.4C52.6006 137.7 50.9006 138.8 48.0006 140.6C47.7006 140.8 47.4006 140.7 47.2006 140.4C47.0006 140.1 47.1006 139.8 47.4006 139.6C50.2006 137.9 51.8006 136.8 53.0006 135.6C54.1006 134.4 54.8006 133.1 55.8006 130.8C56.4006 129.2 56.9006 127.6 57.3006 126L36.9006 125.7C36.0006 125.7 35.1006 125.7 34.5006 125.8C33.4006 125.8 32.9006 125.9 32.5006 126.1ZM38.9006 53.5999C38.6006 53.5999 38.4006 53.2999 38.4006 53C38.4006 52.7 38.7006 52.5 39.0006 52.5C41.6006 52.9 48.9006 53.1 56.6006 53.2C64.7006 53.2999 73.4006 53.2999 77.4006 53.0999C77.1006 52 77.0006 50.7999 77.1006 49.5999V49.5C77.2006 49 77.3006 48.4 77.5006 47.9L33.9006 47.2999C33.6006 47.2999 33.3006 47 33.3006 46.7C33.3006 46.4 33.6006 46.0999 33.9006 46.0999L78.0006 46.7C78.2006 46.2 78.5006 45.7999 78.9006 45.2999C77.5006 44.7 76.2006 43.8999 75.2006 43.0999C73.6006 41.7999 72.4006 40.2999 72.0006 38.2999C72.0006 38.1999 72.0006 38.1 71.9006 38C71.5006 35.7999 72.0006 33.4 73.2006 31.2999C74.4006 29.1999 76.2006 27.6 78.5006 27.1C78.6006 27.1 78.7006 27.1 78.7006 27.1C79.0006 27 79.3006 27.2 79.4006 27.6C79.5006 27.9 79.3006 28.1999 78.9006 28.2999C78.8006 28.2999 78.8006 28.2999 78.7006 28.2999C76.8006 28.6999 75.2006 30.2 74.2006 32C73.2006 33.7999 72.7006 36 73.0006 37.9C73.0006 38 73.0006 38.0999 73.0006 38.0999C73.4006 39.7999 74.4006 41.1 75.8006 42.2C76.9006 43.1 78.2006 43.8 79.6006 44.4C80.0006 44 80.5006 43.5999 81.0006 43.0999C82.0006 42.2999 83.1006 42.4 83.9006 42.9C84.5006 43.3 85.0006 43.9 85.2006 44.5C85.4006 45.2 85.2006 46 84.5006 46.4C83.8006 46.8 82.6006 46.7999 80.7006 46C80.5006 45.9 80.3006 45.7999 80.0006 45.7C79.6006 46.2 79.3006 46.7 79.0006 47.2C79.0006 47.4 78.9006 47.5 78.8006 47.5999C78.5006 48.1999 78.4006 48.8 78.3006 49.4C78.1006 50.6 78.3006 51.8999 78.8006 53.0999C79.1006 54 79.6006 54.8999 80.3006 55.7999C80.9006 56.5999 81.7006 57.2999 82.7006 57.7999C84.5006 58.7 86.8006 59.0999 88.8006 59C89.7006 59 90.5006 58.9 91.2006 58.7C91.4006 58.2999 91.5006 58 91.7006 57.7C92.2006 56.9 93.0006 56.5 93.6006 56.4C93.8006 56.4 94.0006 56.4 94.2006 56.5C94.4006 56.5999 94.6006 56.7 94.7006 56.9C94.9006 57.2 94.9006 57.5999 94.7006 58C94.6006 58.2999 94.3006 58.5 94.0006 58.7C93.5006 59 92.8006 59.3999 92.0006 59.5999C91.6006 60.7999 91.3006 62.4 91.5006 64C91.7006 65.7 92.4006 67.4999 93.8006 69.1999C95.2006 70.7999 98.0006 72.2 100.801 72.7C103.301 73.2 106.001 73 107.801 71.8C108.101 71.6 108.401 71.7 108.601 72C108.801 72.3 108.701 72.6 108.401 72.8C106.301 74.2 103.401 74.4 100.601 73.9C97.5006 73.4 94.5006 71.8999 92.9006 70.0999C91.3006 68.1999 90.5006 66.2 90.3006 64.3C90.1006 62.7 90.3006 61.2 90.6006 60C90.0006 60.0999 89.3006 60.2 88.7006 60.2C86.5006 60.2999 84.0006 59.9 82.0006 58.9C80.9006 58.3 80.0006 57.5999 79.2006 56.5999C78.6006 55.7999 78.1006 54.9 77.7006 54C73.8006 54.2 64.9006 54.2999 56.5006 54.0999C48.8006 54.1999 41.5006 54 38.9006 53.5999ZM160.701 72.7C160.901 72.6 161.201 72.5 161.401 72.4C161.001 72.4 160.601 72.4 160.201 72.5C159.801 72.6 159.401 72.8 159.301 73C159.601 73.1 160.001 73 160.701 72.7ZM117.501 15.7C117.501 15.7 117.501 15.8 117.501 15.7L117.401 15.9C117.501 16.7 117.501 17.6 117.501 18.5C117.501 18.8 117.201 19.1 116.901 19.1C116.601 19.1 116.301 18.8 116.301 18.5C116.301 17.6 116.301 16.8 116.201 16.1C115.801 12.7 114.701 10.4 113.101 9.09995C111.501 7.79995 109.501 7.19995 107.501 7.19995C107.001 7.19995 106.501 7.19995 106.001 7.29995C105.001 7.39995 104.001 7.69995 103.201 8.19995C101.701 8.99995 100.501 10.2 99.7006 11.5C99.1006 12.4 98.8006 13.4 98.6006 14.3C99.0006 14.7 99.4006 15 99.8006 15.4C100.901 16.5 101.301 17.4 101.301 17.9C101.301 18.3 101.201 18.7 100.801 18.8C100.601 18.9 100.201 19 99.9006 18.9C99.3006 18.8 98.4006 18.2 97.9006 17.3C97.6006 16.8 97.4006 16.2 97.4006 15.6C97.4006 15.3 97.4006 15 97.4006 14.8C93.1006 11.2 88.5006 10.8 84.8006 12.2C82.7006 13 80.9006 14.3 79.6006 15.8C78.3006 17.4 77.6006 19.2 77.6006 21C77.6006 23.7 79.2006 26.3 83.1006 28.1C83.4006 28.2 83.5006 28.5999 83.4006 28.7999C83.3006 29.0999 82.9006 29.2 82.7006 29.1C78.3006 27.1 76.5006 24 76.5006 21C76.5006 18.9 77.4006 16.8 78.8006 15.1C80.2006 13.4 82.2006 11.9 84.5006 11.1C88.4006 9.69995 93.2006 9.99995 97.7006 13.5C97.9006 12.6 98.3006 11.8 98.8006 11C99.7006 9.49995 101.101 8.19995 102.701 7.29995C103.701 6.79995 104.801 6.39995 106.001 6.29995C106.501 6.19995 107.101 6.19995 107.601 6.19995C109.901 6.19995 112.201 6.79995 114.001 8.29995C115.501 9.59995 116.701 11.6 117.201 14.4C120.101 10.8 124.101 10.1 127.701 11C129.601 11.5 131.301 12.4 132.701 13.5C134.101 14.7 135.201 16.1 135.601 17.5C135.901 18.4 135.901 19.2 135.701 20.1C136.501 20.1 137.401 20.2 138.201 20.4C140.101 20.9 142.101 21.9 144.001 23.9C145.401 25.4 146.101 27.4 146.201 29.2999C146.301 30.5 146.101 31.7 145.701 32.7C148.301 32.6 150.501 33.7 152.301 35.4C154.101 37.1 155.401 39.5 155.901 41.7999C156.101 42.3999 156.201 43 156.201 43.5999C156.201 43.7999 156.201 44 156.201 44.2C156.201 46.6 155.301 49 153.401 50.9C151.901 52.4 149.901 53.5 147.201 54.0999C147.401 54.2999 147.601 54.5999 147.701 54.7999C147.801 54.8999 147.801 55.1 147.901 55.2C148.701 57.1 148.901 59.2999 148.201 61.2999C147.601 63.2999 146.201 65.2 144.201 66.3C144.001 66.4 143.901 66.5 143.701 66.5C141.601 67.5 139.001 67.7999 136.701 67.5999C135.501 67.5 134.301 67.0999 133.401 66.5999C134.401 70.0999 133.801 72.7 132.401 74.5C131.601 75.5 130.501 76.2 129.201 76.6C128.001 77 126.601 77.1 125.301 77C122.201 76.6 119.201 74.8 118.201 71.4C118.101 71.1 118.301 70.7999 118.601 70.7C118.901 70.6 119.201 70.7999 119.301 71.1C120.101 74 122.701 75.6 125.401 75.9C126.601 76 127.701 75.9 128.801 75.6C129.801 75.2 130.801 74.7 131.501 73.8C133.001 72 133.401 69.0999 131.601 65C131.501 64.7999 131.601 64.5 131.801 64.3C132.101 64.1 132.401 64.2 132.601 64.5C133.401 65.7 135.001 66.3999 136.901 66.5999C139.001 66.7999 141.301 66.5 143.301 65.5999C143.401 65.5 143.601 65.5 143.701 65.4C145.501 64.4 146.701 62.8999 147.201 61.0999C147.701 59.2999 147.601 57.3999 146.901 55.7999C146.801 55.7 146.801 55.6 146.701 55.4C146.501 55.1 146.301 54.7 145.901 54.4C145.601 54.4 145.301 54.5 145.001 54.5C144.601 54.5 144.201 54.5 143.801 54.5999C143.301 54.5999 142.901 54.4 142.701 54.2C142.501 54 142.501 53.7999 142.401 53.5999C142.401 53.3999 142.401 53.2 142.501 53C142.601 52.7 142.901 52.4 143.301 52.2C144.101 51.9 144.901 52.2 145.701 52.7C145.901 52.9 146.201 53 146.401 53.2C149.201 52.7999 151.301 51.7 152.701 50.2C154.401 48.5 155.201 46.3999 155.101 44.2999C155.101 44.2 155.101 44 155.101 43.7999C155.101 43.2999 155.001 42.6999 154.801 42.0999C154.301 40 153.101 37.9 151.501 36.2999C149.901 34.7999 147.801 33.8 145.401 33.9C145.301 33.9 145.201 33.9 145.201 33.9C145.001 34.2 144.801 34.5 144.601 34.7C143.801 35.7 142.801 36 142.101 36C141.701 36 141.301 35.7999 141.101 35.5C140.801 35.2 140.801 34.6999 141.101 34.2999C141.401 33.7999 142.301 33.3 143.801 32.9C144.001 32.8 144.201 32.7999 144.401 32.7999C144.901 31.7999 145.101 30.5 145.001 29.2999C144.901 27.5999 144.201 25.8 143.101 24.6C141.401 22.8 139.601 21.8 137.901 21.4C137.001 21.2 136.001 21.1 135.201 21.2C134.801 21.9 134.201 22.5 133.401 23.1C131.401 24.5 129.601 25.1 128.601 25.1C128.101 25.1 127.701 24.9 127.401 24.6C127.101 24.2 127.101 23.7999 127.501 23.2999C127.901 22.6999 129.201 21.8 131.401 20.9C132.301 20.5 133.301 20.3 134.401 20.1C134.701 19.3 134.701 18.5 134.401 17.8C134.001 16.6 133.101 15.3 131.901 14.3C130.601 13.3 129.001 12.4 127.301 12C124.001 11.1 120.101 11.8 117.501 15.7ZM132.801 22.1C133.101 21.9 133.401 21.6 133.701 21.3C133.101 21.4 132.501 21.6 131.901 21.8C129.901 22.6 128.901 23.2999 128.501 23.7999C128.501 23.7999 128.601 23.7999 128.701 23.7999C129.601 23.9 131.101 23.4 132.801 22.1ZM128.401 23.7999C128.501 23.9 128.501 23.9 128.401 23.7999V23.7999ZM142.201 34.9C142.601 34.9 143.101 34.7 143.601 34.2C142.901 34.4 142.401 34.7 142.201 34.9ZM144.001 53.2999C144.301 53.2999 144.501 53.2999 144.801 53.2999C144.401 53.0999 144.101 53 143.801 53.0999C143.801 53.0999 143.701 53.1 143.701 53.2C143.801 53.2999 143.801 53.2999 144.001 53.2999ZM99.1006 16.1C99.0006 16 98.9006 15.9 98.8006 15.8C98.9006 16.1 99.0006 16.4 99.1006 16.7C99.4006 17.3 99.9006 17.6 100.301 17.7C100.201 17.4 99.8006 16.9 99.1006 16.1ZM92.5006 58.5C92.8006 58.4 93.0006 58.2999 93.2006 58.0999C93.3006 58 93.4006 57.8999 93.5006 57.7999C93.5006 57.7999 93.5006 57.7999 93.4006 57.7999C93.2006 57.7999 92.8006 58 92.5006 58.5ZM93.7006 57.7999C93.6006 57.7999 93.7006 57.7999 93.7006 57.7999V57.7999ZM81.7006 44.2C81.4006 44.5 81.0006 44.7999 80.7006 45L81.0006 45.0999C82.6006 45.6999 83.4006 45.7999 83.9006 45.5C84.1006 45.4 84.1006 45.2 84.1006 44.9C84.0006 44.5 83.7006 44.2 83.3006 43.9C82.8006 43.7 82.2006 43.7 81.7006 44.2ZM129.201 157.1C129.301 157.1 129.501 157.2 129.601 157.4C130.101 158.4 130.901 159.3 131.601 160.1C132.501 161.2 133.301 162.2 133.801 163.4C134.201 164.3 134.001 164.8 133.401 165C132.901 165.2 132.301 165 131.601 164.7C131.201 164.6 130.801 164.4 130.601 164.4C130.701 165 131.601 166 132.801 167.2C132.501 167.4 132.101 167.6 131.801 167.8C130.601 166.6 129.601 165.5 129.501 164.7C129.301 163.9 129.701 163.5 130.301 163.4C130.801 163.3 131.401 163.5 132.001 163.7C132.401 163.8 132.701 163.9 132.901 164C132.901 163.9 132.801 163.9 132.801 163.8C132.401 162.8 131.601 161.8 130.801 160.8C130.201 160 129.501 159.3 129.001 158.4C128.701 159.3 128.401 160.2 128.101 161C126.701 164.7 124.701 168.4 122.201 172.2C121.601 172.4 121.001 172.7 120.401 172.9C123.301 168.7 125.601 164.6 127.101 160.6C129.001 155.6 129.601 150.8 128.901 146C128.901 145.7 129.101 145.4 129.401 145.4C129.701 145.4 130.001 145.6 130.001 145.9C130.401 149.5 130.201 153.3 129.201 157.1ZM130.401 164.4C130.301 164.5 130.401 164.4 130.401 164.4V164.4ZM52.0006 160.4C52.0006 160.2 52.2006 160 52.5006 159.9C50.3006 154.8 49.4006 149.4 50.7006 144.7C50.8006 144.4 51.1006 144.2 51.4006 144.3C51.7006 144.4 51.9006 144.7 51.8006 145C50.5006 150 51.7006 155.7 54.3006 161.1C57.0006 166.8 61.2006 172 65.5006 175.3C64.6006 175 63.7006 174.8 62.8006 174.5C59.1006 171.1 55.6006 166.6 53.3006 161.6C53.2006 161.4 53.1006 161.3 53.1006 161.1C52.6006 163.1 51.4006 165.8 49.9006 167.7C49.6006 168.1 49.3006 168.5 49.0006 168.8C48.6006 168.6 48.3006 168.4 47.9006 168.3C48.3006 167.9 48.6006 167.5 49.0006 167.1C50.5006 165.1 51.7006 162.3 52.0006 160.4ZM79.9006 126.2C79.6006 126.4 79.3006 126.3 79.1006 126C78.9006 125.7 79.0006 125.4 79.3006 125.2C82.0006 123.6 87.7006 122.5 93.3006 122.8C97.8006 123 102.201 124.1 105.001 126.4C105.201 126.6 105.301 127 105.101 127.2C104.901 127.4 104.501 127.5 104.301 127.3C101.701 125.1 97.5006 124.1 93.2006 123.9C87.9006 123.6 82.5006 124.7 79.9006 126.2ZM86.2006 132.5C85.9006 132.6 85.6006 132.5 85.4006 132.2C85.2006 131.9 85.4006 131.6 85.7006 131.4C86.8006 130.8 90.2006 130.4 93.6006 130.6C96.1006 130.8 98.7006 131.2 100.501 132.3C100.801 132.5 100.901 132.8 100.701 133.1C100.501 133.4 100.201 133.5 99.9006 133.3C98.3006 132.4 95.9006 131.9 93.5006 131.8C90.3006 131.6 87.2006 132 86.2006 132.5ZM91.4006 175.4C91.3006 175.4 91.2006 175.3 91.1006 175.2C88.1006 173.1 85.2006 170.4 82.6006 167.5C78.2006 162.5 75.8006 156.5 75.3006 151.3C75.3006 151 75.5006 150.7 75.8006 150.7C76.1006 150.7 76.4006 150.9 76.4006 151.2C76.9006 156.2 79.1006 161.9 83.4006 166.8C85.9006 169.7 88.7006 172.3 91.6006 174.2L92.1006 173.9C97.6006 169.9 106.301 161.9 106.401 150C106.401 149.7 106.701 149.4 107.001 149.4C107.301 149.4 107.601 149.7 107.601 150C107.501 162.4 98.5006 170.7 92.8006 174.8L92.7006 174.9C94.8006 176.3 96.8006 177.3 98.7006 177.8C98.9006 177.8 99.0006 177.9 99.0006 178.1C98.2006 178.2 97.4006 178.3 96.7006 178.3C95.0006 177.5 93.2006 176.6 91.4006 175.4ZM49.7006 109.9C49.4006 109.9 49.1006 109.6 49.1006 109.3C49.1006 109 49.4006 108.7 49.7006 108.7C51.3006 108.7 53.1006 109.2 54.8006 110.3C56.3006 111.3 57.7006 112.7 58.9006 114.6C59.1006 114.9 59.0006 115.2 58.7006 115.4C58.4006 115.6 58.1006 115.5 57.9006 115.2C56.9006 113.5 55.6006 112.2 54.2006 111.3C52.7006 110.4 51.1006 109.9 49.7006 109.9ZM113.301 57.5C112.201 58.2 109.901 57 107.201 54.7C104.701 52.6 101.801 49.5 99.4006 46.2999C99.0006 45.7999 98.7006 45.2999 98.3006 44.7C96.4006 41.9 95.2006 39.1 95.0006 36.7C94.9006 35.8 95.0006 34.8999 95.3006 34.0999C95.6006 33.2999 96.1006 32.6999 96.9006 32.0999C97.8006 31.4999 98.9006 31.2 100.401 31C107.801 30.4 110.001 35.2999 111.301 38C111.601 38.7 111.901 39.2 112.001 39.2999C112.001 39.2999 112.201 38.9 112.601 37.9C113.201 36.7 113.901 35.5999 114.601 34.7999C115.501 33.9 116.401 33.2 117.501 32.7C117.801 32.5 118.201 32.4 118.501 32.2999C118.801 32.1999 119.201 32.1 119.601 32C122.401 31.2999 125.401 31.7999 127.801 33C129.201 33.7 130.501 34.6999 131.401 35.7999C132.301 37 132.801 38.2999 132.701 39.7999C132.601 41.2 132.001 42.6999 130.701 44.0999C130.201 44.5999 128.801 45.4 127.001 46.4C124.901 47.5 122.101 49 119.701 50.7C119.501 50.7999 119.301 51 119.201 51C119.001 51.0999 118.901 51.2 118.801 51.2999L113.501 57.4C113.401 57.4 113.401 57.4 113.301 57.5ZM108.001 53.7999C110.201 55.7 112.101 56.8999 112.701 56.5999L118.001 50.5L118.101 50.4C118.301 50.2 118.501 50.0999 118.601 50C118.801 49.7999 119.001 49.6999 119.101 49.5999C121.601 47.8999 124.401 46.4 126.501 45.2C128.201 44.2999 129.601 43.6 129.901 43.2C131.001 42 131.501 40.7999 131.601 39.5999C131.701 38.3999 131.201 37.3 130.501 36.4C129.701 35.4 128.601 34.5 127.401 33.9C125.201 32.8 122.501 32.4 120.001 33C119.701 33.1 119.401 33.1999 119.101 33.2999C118.801 33.4 118.501 33.5 118.201 33.7C117.301 34.2 116.401 34.7999 115.701 35.5999C115.001 36.3999 114.401 37.3 113.901 38.4C113.101 40.2 112.501 40.7 111.801 40.4C111.301 40.2 111.001 39.5 110.501 38.5C109.401 36.1 107.301 31.7 100.701 32.2C99.4006 32.3 98.5006 32.5999 97.8006 33.0999C97.2006 33.4999 96.9006 34 96.6006 34.5C96.4006 35.1 96.3006 35.7999 96.3006 36.5999C96.5006 38.6999 97.7006 41.4 99.4006 44C99.7006 44.5 100.101 45 100.501 45.5C102.701 48.7 105.501 51.7 108.001 53.7999Z" fill="black"/>
</g>
<defs>
<clipPath id="clip0">
<rect width="178.5" height="178.5" fill="white"/>
</clipPath>
</defs>
</svg>
