<svg width="179" height="179" viewBox="0 0 179 179" fill="none" xmlns="http://www.w3.org/2000/svg">
<g clip-path="url(#clip0)">
<path fill-rule="evenodd" clip-rule="evenodd" d="M89.2 0C138.5 0 178.4 40 178.4 89.2C178.4 138.5 138.4 178.4 89.2 178.4C40 178.4 0 138.5 0 89.2C0 40 40 0 89.2 0Z" fill="#F7F7F7"/>
<path fill-rule="evenodd" clip-rule="evenodd" d="M111.2 26C110.6 29 118.2 30.1 115.5 25.3C113.8 22.2 111.6 24 111.2 26ZM124.5 14.1C114.1 15.9 116.5 25.9 120.4 27C121.8 27.4 119.6 31.1 123.5 34.4C130.3 40.1 123 39.4 134.8 43.5C139 44.9 146.8 45.3 146.1 41.2C145.5 37.8 148.2 35.4 148.3 33.2C148.3 29.6 142.5 26.9 140.7 23.2C139.7 21 136.8 19.4 132.9 19.1C127.4 18.5 131.6 12.8 124.5 14.1Z" fill="#DC7D43"/>
<path fill-rule="evenodd" clip-rule="evenodd" d="M97.8 128.5C98.9 128.5 99.8 129.4 99.8 130.5C99.8 131.6 98.9 132.5 97.8 132.5C96.7 132.5 95.8 131.6 95.8 130.5C95.8 129.5 96.7 128.5 97.8 128.5ZM103.6 139.4C100.8 141.1 96.8 140.9 95.1 141.4C91.3 142.4 99 146.1 103.6 139.4ZM76 139.4C78.8 141.1 82.8 140.9 84.5 141.4C88.3 142.4 80.5 146.1 76 139.4ZM82.3 128.5C83.4 128.5 84.3 129.4 84.3 130.5C84.3 131.6 83.4 132.5 82.3 132.5C81.2 132.5 80.3 131.6 80.3 130.5C80.3 129.5 81.2 128.5 82.3 128.5Z" fill="black"/>
<path d="M131.9 75.2C131.9 75 132.1 74.9 132.2 74.8L131.9 75.2ZM121.5 27.1C121.6 27.1 121.6 27.2 121.7 27.3L121.5 27.1ZM77.3997 155C77.4997 154.7 77.8997 154.6 78.0997 154.7C78.3997 154.8 78.4997 155.2 78.3997 155.4C78.1997 155.9 77.9998 156.6 77.7998 157.4C77.6998 158.1 77.5997 158.9 77.6997 159.6C77.7997 161.4 78.6997 162.6 79.4997 163.7C80.5997 165.1 81.4997 166.4 80.6997 168.3C80.3997 169.1 79.7997 169.7 79.1997 170.1C78.7997 170.4 78.2998 170.5 77.7998 170.6C77.2998 170.6 76.7998 170.6 76.2998 170.3C75.6998 170.1 75.1997 169.7 74.6997 169.1C74.0997 170 73.1997 170.7 72.1997 171.1C71.4997 171.4 70.6997 171.5 69.8997 171.4C69.0998 171.3 68.3997 171 67.6997 170.5C66.8997 169.8 66.2997 168.8 65.9997 167.3C64.6997 167.9 63.3997 167.8 62.4997 167.3C61.9997 167 61.5997 166.6 61.2997 166.1C60.9997 165.6 60.8997 165 60.8997 164.4C60.8997 162.9 61.8998 161.1 64.2998 159.7C65.2998 159.2 66.1998 158.5 66.7998 157.4C67.3998 156.3 67.6997 154.7 67.4997 152.4C66.6997 142.1 63.1997 134.6 59.9997 128.1L42.5997 134.1C42.2997 134.2 41.9997 134 41.8997 133.7C41.7997 133.4 41.9997 133.1 42.2997 133L59.5997 127.1C58.7997 125.5 57.9997 123.9 57.2997 122.3L42.9997 124.6C42.6997 124.6 42.3997 124.4 42.3997 124.1C42.3997 123.8 42.5997 123.5 42.8997 123.5L56.8997 121.3C54.0997 114.8 52.7997 108.6 56.5997 100.4C56.6997 100.1 57.0997 100 57.2997 100.1C57.5997 100.2 57.6997 100.6 57.5997 100.8C53.9997 108.6 55.2997 114.7 58.0997 121L66.7998 119.6C67.0998 119.6 67.3997 119.8 67.3997 120.1C67.3997 120.4 67.1997 120.7 66.8997 120.7L58.4997 122C59.1997 123.5 59.8997 125 60.6997 126.6L72.3997 122.6C72.6997 122.5 72.9997 122.7 73.0997 123C73.1997 123.3 72.9997 123.6 72.6997 123.7L60.9997 127.5C64.1997 134.1 67.7997 141.6 68.5997 152.1C68.7997 154.7 68.3997 156.4 67.6997 157.7C66.9997 159 65.8998 159.8 64.7998 160.5C62.7998 161.6 61.9998 163 61.8997 164.2C61.8997 164.6 61.9997 165 62.1997 165.4C62.3997 165.7 62.6997 166 62.9997 166.2C63.7997 166.6 64.8997 166.6 66.0997 165.8C66.1997 165.7 66.2997 165.7 66.3997 165.7C66.6997 165.7 66.9997 165.9 66.9997 166.2C67.0997 167.8 67.5998 168.8 68.2998 169.5C68.7998 169.9 69.2997 170.1 69.8997 170.2C70.4998 170.3 71.0997 170.2 71.6997 170C72.6997 169.6 73.5997 168.9 73.9997 167.8C73.9997 167.7 74.0997 167.6 74.1997 167.5C74.4997 167.3 74.7997 167.4 74.9997 167.7C75.4997 168.5 76.0997 169 76.6997 169.3C76.9997 169.4 77.3997 169.5 77.6997 169.5C77.9997 169.5 78.2997 169.4 78.5997 169.2C78.9997 168.9 79.3997 168.5 79.5997 168C80.0997 166.7 79.3997 165.7 78.5997 164.5C77.6997 163.3 76.6997 161.9 76.5997 159.8C76.5997 159 76.5997 158.1 76.6997 157.3C76.8997 156.4 77.0998 155.6 77.3997 155ZM79.0997 123.7C78.1997 123.9 77.4997 124.2 76.8997 124.5C75.8997 125.1 75.1998 126 74.7998 126.9C74.3997 127.9 74.2997 129 74.5997 130.2C74.7997 131 75.0997 131.8 75.5997 132.6C76.3997 134 77.6997 135.3 79.0997 136C80.3997 136.7 81.8997 137 83.3997 136.8C86.4997 136.3 88.2998 134.3 88.8997 132.1C89.0998 131.1 89.1997 130.1 88.9997 129.1C88.7997 128.1 88.3997 127.1 87.7998 126.3C86.0998 124.2 83.1997 122.9 79.0997 123.7ZM76.2998 123.6C76.9998 123.2 77.8997 122.8 78.8997 122.6C83.4997 121.6 86.7997 123.2 88.5997 125.6C89.2997 126.6 89.7997 127.7 89.9997 128.9C90.1997 130.1 90.1997 131.3 89.8997 132.4C89.1997 135.1 87.0997 137.4 83.4997 138C81.6997 138.3 79.9997 137.9 78.4997 137.1C76.8997 136.2 75.4997 134.8 74.4997 133.2C73.9997 132.3 73.5998 131.4 73.3997 130.4C73.0998 129 73.1997 127.7 73.6997 126.5C74.1997 125.3 74.9998 124.3 76.2998 123.6ZM91.9997 126.9C91.6997 127.4 91.5997 128 91.4997 128.6C91.1997 130.1 91.3997 131.7 92.0997 133C92.6997 134.3 93.7997 135.4 95.0997 136.1C95.4997 136.3 95.9997 136.5 96.4997 136.6C98.3997 137 100.1 136.5 101.5 135.5C102.3 134.9 103 134.2 103.5 133.4C104 132.6 104.4 131.7 104.6 130.7C104.9 129.1 104.6 127.4 103.6 125.9C102.8 124.8 101.8 124 100.7 123.5C99.6997 123 98.5997 122.8 97.5997 122.9C96.4997 123 95.4997 123.3 94.4997 124C93.4997 124.5 92.5997 125.5 91.9997 126.9ZM90.2998 128.4C90.3997 127.7 90.5998 127.1 90.8997 126.5C91.5998 124.9 92.5997 123.8 93.6997 123C94.7997 122.2 96.0998 121.8 97.2998 121.7C98.5998 121.6 99.7997 121.9 101 122.5C102.3 123.1 103.5 124.1 104.3 125.3C105.5 127 105.8 129 105.5 130.9C105.3 132 104.9 133 104.3 134C103.7 134.9 102.9 135.8 102 136.4C100.4 137.5 98.3997 138.1 96.1997 137.7C95.5997 137.6 94.9997 137.4 94.4997 137.1C92.8997 136.4 91.6997 135 90.8997 133.5C90.2998 131.9 89.9998 130.1 90.2998 128.4ZM69.4997 138C69.4997 137.7 69.7997 137.4 70.0997 137.4C70.3997 137.4 70.6997 137.7 70.6997 138C70.5997 140.6 71.8997 143.9 73.8997 147.1C75.9997 150.6 78.9997 153.8 81.6997 155.7C83.8997 157.2 84.6997 157.7 84.6997 157.6C84.6997 157.5 84.6997 157.1 84.5997 156.5C84.4997 156.1 84.4997 155.8 84.3997 155.3C84.3997 155 84.2998 154.7 84.3997 154.3C84.3997 152.9 84.6997 151.4 85.4997 150.1C86.2997 148.8 87.3997 147.7 89.0997 147.6C89.2997 147.6 89.4997 147.6 89.6997 147.6C91.4997 147.6 92.7997 148.5 93.5997 149.8C94.5997 151.4 94.9997 153.7 94.9997 155.6C94.9997 155.8 94.9997 155.9 94.9997 156.1C94.9997 156.7 94.9997 157.2 95.0997 157.4C95.2997 157.7 96.1997 157.4 98.9997 155.5C101.7 153.7 103.9 151.4 105.5 148.6C107.2 145.7 108.3 142.4 108.8 139C108.8 138.7 109.1 138.5 109.4 138.5C109.7 138.5 109.9 138.8 109.9 139.1C109.4 142.7 108.3 146.1 106.5 149.1C104.8 152 102.5 154.5 99.6997 156.4C96.0997 158.7 94.7997 158.9 94.1997 158C93.8997 157.5 93.8997 156.9 93.8997 156.1C93.8997 156 93.8997 155.8 93.8997 155.7C93.8997 154 93.5997 152 92.6997 150.5C92.0997 149.5 91.0997 148.8 89.6997 148.8C89.4997 148.8 89.3997 148.8 89.1997 148.8C87.9997 148.9 87.0997 149.7 86.4997 150.8C85.8997 151.9 85.5997 153.3 85.5997 154.4C85.5997 154.7 85.5997 155 85.5997 155.2C85.5997 155.6 85.6998 156 85.7998 156.3C85.8997 157.1 86.0998 157.8 85.7998 158.2C85.2998 158.9 84.0997 158.6 81.1997 156.6C78.2997 154.6 75.2997 151.3 73.0997 147.7C70.7997 144.3 69.3997 140.8 69.4997 138ZM79.6997 119C79.5997 119.3 79.1997 119.4 78.9997 119.3C78.7997 119.2 78.5997 118.8 78.6997 118.6C79.3997 117.2 80.2997 116.2 81.4997 115.8C82.2997 115.5 83.1997 115.3 84.0997 115.4C84.9997 115.5 85.8997 115.7 86.6997 116.1C88.0997 116.7 89.2997 117.8 90.1997 119.1C90.6997 118.1 91.3997 117.3 92.1997 116.7C93.0997 116.1 94.0997 115.8 95.0997 115.7C96.0997 115.6 97.1997 115.8 98.0997 116.3C99.2997 116.9 100.2 118 100.7 119.5C100.8 119.8 100.6 120.1 100.3 120.2C99.9998 120.3 99.6997 120.1 99.5997 119.8C99.1997 118.5 98.3997 117.7 97.4997 117.2C96.7997 116.8 95.9997 116.7 95.0997 116.7C94.2997 116.8 93.4998 117 92.7998 117.5C91.7998 118.2 91.0998 119.2 90.7998 120.5C90.7998 120.7 90.5997 120.8 90.4997 120.9C90.1997 121 89.8997 120.9 89.7998 120.6C89.0998 119 87.6997 117.7 86.1997 117C85.4997 116.7 84.6997 116.5 83.9997 116.4C83.2997 116.4 82.5998 116.5 81.8997 116.7C80.9997 117.1 80.2997 117.8 79.6997 119ZM106.6 123.5C106.3 123.4 106.1 123.1 106.2 122.8C106.3 122.5 106.6 122.3 106.9 122.4L119.2 126.6L119.3 126.3C120.1 124.8 120.8 123.3 121.5 121.8L112.4 120.3C112.1 120.3 111.9 120 111.9 119.7C111.9 119.4 112.2 119.2 112.5 119.2L121.9 120.7C124.7 114.3 126 108.2 122.4 100.3C122.3 100 122.4 99.7 122.7 99.5C123 99.4 123.3 99.5 123.5 99.8C127.3 108.1 126 114.3 123.2 120.8L136.5 122.9C136.8 122.9 137 123.2 137 123.5C137 123.8 136.7 124 136.4 124L122.8 121.8C122.1 123.4 121.3 125 120.5 126.6L120.4 126.7L137 132.4C137.3 132.5 137.5 132.8 137.4 133.1C137.3 133.4 137 133.6 136.7 133.5L120 127.8C116.8 134.3 113.4 141.7 112.6 151.9C112.4 154.2 112.7 155.8 113.3 156.9C113.9 158 114.8 158.7 115.8 159.2C118.2 160.5 119.2 162.3 119.2 163.9C119.2 164.5 119.1 165.1 118.8 165.6C118.5 166.1 118.1 166.5 117.6 166.8C116.7 167.3 115.4 167.4 114.1 166.8C113.9 168.3 113.3 169.3 112.4 170C111.8 170.5 111 170.8 110.2 170.9C109.4 171 108.6 170.9 107.9 170.6C106.9 170.2 106.1 169.6 105.5 168.8C104.8 169.7 103.9 170.1 102.9 170.2C102.1 170.2 101.4 170 100.7 169.6C100.1 169.2 99.4998 168.5 99.2998 167.8C98.8997 166.5 99.1997 164.7 101.1 162.9C101.8 162.2 102.1 161.2 102.2 160.1C102.3 158.6 102 156.9 101.6 155.7C101.5 155.4 101.7 155.1 102 155C102.3 154.9 102.6 155.1 102.7 155.4C103.1 156.8 103.5 158.6 103.3 160.3C103.2 161.7 102.8 162.9 101.9 163.8C100.4 165.3 100.1 166.6 100.4 167.6C100.6 168.1 100.9 168.5 101.4 168.8C101.8 169.1 102.4 169.3 102.9 169.2C103.8 169.2 104.6 168.7 105 167.6C105.1 167.3 105.4 167.2 105.7 167.3C105.9 167.4 106 167.5 106 167.7C106.4 168.7 107.2 169.5 108.3 169.9C108.9 170.1 109.5 170.2 110.1 170.1C110.7 170 111.2 169.8 111.7 169.4C112.4 168.8 113 167.7 113 166.1C113 165.8 113.3 165.5 113.6 165.6C113.7 165.6 113.8 165.6 113.9 165.7C115.1 166.5 116.3 166.5 117 166.1C117.3 165.9 117.6 165.6 117.8 165.3C118 165 118.1 164.6 118.1 164.1C118.1 162.9 117.3 161.5 115.2 160.4C114.1 159.8 113 159 112.3 157.6C111.6 156.3 111.2 154.5 111.4 152C112.2 141.6 115.7 134.1 118.9 127.6L106.6 123.5ZM111.1 82.1C110.8 82.3 110.5 82.2 110.3 82C110.1 81.7 110.2 81.4 110.4 81.2C110.5 81.1 110.8 80.9 111 80.7C112.9 79.4 114.7 78.1 113.9 75.4C113.8 75.1 114 74.8 114.3 74.7C114.6 74.6 114.9 74.8 115 75.1C116 78.6 113.9 80.1 111.6 81.6C111.6 81.8 111.4 81.9 111.1 82.1ZM110.3 75.7C110.1 75.4 110.2 75.1 110.5 74.9C110.8 74.7 111.1 74.8 111.3 75.1C112 76.3 112 77.7 111.5 79C111.2 79.7 110.9 80.3 110.4 80.8C109.9 81.3 109.4 81.7001 108.8 81.9C108.1 82.1 107.5 82 106.8 81.6C102.8 78.7 100.6 78.6 97.9997 78.5C97.6997 78.5 97.3997 78.5 97.0997 78.5C95.5997 78.4 94.6998 78 94.2998 77.4C93.9998 76.9 93.9998 76.4 94.2998 75.8C94.4998 75.3 94.8997 74.8 95.3997 74.3C96.9997 72.7001 99.9997 71.3 102 71.6C102.3 71.6 102.5 71.9 102.5 72.2C102.5 72.5 102.2 72.7 101.9 72.7C100.2 72.4 97.6998 73.7 96.2998 75.1C95.8997 75.5 95.5997 75.8 95.4997 76.2C95.3997 76.4 95.3997 76.6 95.4997 76.8C95.6997 77.1 96.2998 77.3 97.3997 77.4C97.6997 77.4 97.9998 77.4 98.2998 77.4C101 77.5 103.4 77.6 107.7 80.8C108 81 108.3 81.1 108.7 81C109.1 80.9 109.4 80.6001 109.7 80.3C110 79.9 110.3 79.4 110.5 78.9C110.7 77.6 110.8 76.5 110.3 75.7ZM95.3997 74C95.2998 74.3 94.9997 74.5 94.6997 74.4C94.3997 74.3 94.1998 74 94.2998 73.7C94.7998 71.9 96.1997 70.8 97.8997 70C100.2 69 103.2 68.8 105.4 68.8C105.8 68.8 106.1 68.8 106.4 68.8C105.4 68.2001 103.7 67.6 103 67.5C102.2 67.3 101.8 67.1 101.6 66.8C101.3 66.3 101.4 65.9 101.9 65.5C102.2 65.3 102.6 65 103.1 64.8C104.9 64.1 108.2 63.5 109.7 64.1C110 64.2 110.1 64.5 110 64.8C109.9 65.1 109.6 65.2 109.3 65.1C108 64.6 105.1 65.1 103.5 65.8C103.2 65.9 102.9 66.1 102.7 66.2C102.8 66.2 103 66.3 103.2 66.3C104 66.5 106 67.1 107 67.8C107.3 68 107.6 68.2 107.7 68.4C108 68.9 107.9 69.3 107.4 69.6C107.1 69.8 106.4 69.9 105.4 69.9C103.3 69.9 100.5 70.1 98.2998 71C96.8997 71.7 95.6997 72.6 95.3997 74ZM70.3997 82.3C70.1997 82.5 69.7997 82.5 69.5997 82.2C69.3997 82 69.3997 81.6 69.6997 81.4C71.1997 80.2001 72.7998 79.4 74.3997 78.9C76.2998 78.3 78.0998 78 79.7998 78.1C80.9998 78.1 81.6997 77.8 82.0997 77.4C82.2997 77.1 82.3997 76.8 82.3997 76.4C82.3997 76 82.1997 75.5 81.8997 75C81.0998 73.5 79.1998 72 76.7998 71.4C76.4998 71.3 76.2998 71 76.3997 70.7C76.4997 70.4 76.7997 70.2001 77.0997 70.3C79.7997 70.9 81.8997 72.6 82.8997 74.4C83.2998 75.1 83.4997 75.7001 83.4997 76.3C83.4997 77 83.3997 77.6 82.9997 78.1C82.3997 78.8 81.3997 79.3 79.7998 79.3C78.2998 79.3 76.4998 79.5 74.7998 80.1C73.2998 80.4 71.7998 81.2001 70.3997 82.3ZM83.5997 72.6C83.5997 72.9 83.3997 73.2 83.0997 73.2C82.7997 73.2 82.4997 73 82.4997 72.7C82.3997 71.8 81.0997 69.9 79.6997 68.5C78.5997 67.4 77.3997 66.5 76.3997 66.5C76.0998 66.5 75.7998 66.2 75.7998 65.9C75.7998 65.6 76.0998 65.3 76.3997 65.3C77.6997 65.3 79.1997 66.3 80.4997 67.6C82.0997 69.3 83.3997 71.5 83.5997 72.6ZM78.1997 63C77.9997 62.7 78.0998 62.4 78.2998 62.2C78.4998 62 78.8997 62.1 79.0997 62.3C79.1997 62.5 79.3997 62.8 79.5997 63.1C80.5997 64.7 82.4997 67.6 83.0997 67.5C83.4997 67.4 83.4997 65.7 82.4997 60.8C82.2997 60 82.2997 59.3 82.4997 58.9C82.5997 58.6 82.7997 58.4 82.9997 58.3C83.2997 58.2 83.4998 58.2 83.7998 58.4C84.0998 58.6 84.4997 59.1 84.9997 60C85.4997 60.9 86.0998 62.1 86.2998 62C86.7998 61.7 87.0998 59.7 86.8997 53.6C86.8997 53.3 87.0998 53 87.3997 53C87.6997 53 87.9997 53.2 87.9997 53.5C88.1997 60.1 87.6998 62.5 86.7998 62.9C85.6998 63.5 84.6997 61.8 83.8997 60.4C83.6997 60 83.5998 59.8 83.3997 59.6C83.3997 59.8 83.3997 60.1 83.4997 60.4C84.5997 66.2 84.1997 68.2 83.1997 68.4C81.7997 68.7 79.6997 65.3 78.5997 63.5C78.4997 63.5 78.2997 63.2 78.1997 63ZM85.2998 82.9C85.0998 82.7001 85.0998 82.3 85.2998 82.1C85.4998 81.9 85.8997 81.9 86.0997 82.1C86.5997 82.6 87.3997 83.4 88.2998 84.3L88.5997 84.1C89.4997 83.5 90.3997 82.8 91.0997 82.3C91.3997 82.1001 91.6997 82.2001 91.8997 82.4C92.0998 82.7001 91.9998 83 91.7998 83.2C91.0998 83.7 90.1998 84.3 89.2998 84.9C90.0998 85.6 90.8997 86.3 91.4997 86.7C91.7997 86.9 91.7997 87.2 91.5997 87.5C91.3997 87.8 91.0998 87.8 90.7998 87.6C90.0998 87.1 89.1998 86.3 88.2998 85.6C87.2998 86.3 86.3997 86.9 85.8997 87.2C85.5998 87.4 85.2997 87.3 85.0997 87C84.8997 86.7 84.9998 86.4 85.2998 86.2C85.7998 85.9 86.4997 85.4 87.3997 84.7C86.4997 84.1 85.6998 83.4 85.2998 82.9ZM64.4997 77.4C64.3997 77.1 64.5998 76.8 64.8997 76.7C65.1997 76.6 65.4997 76.8 65.5997 77.1C65.9997 78.3 66.6997 79.2 67.4997 79.6C67.7997 79.8 68.1997 79.9 68.4997 79.9C68.7997 79.9 68.9998 79.8 69.2998 79.6C69.6998 79.2 69.9997 78.5 70.0997 77.3C70.0997 77 70.3997 76.8 70.6997 76.8C70.9997 76.8 71.1997 77.1 71.1997 77.4C71.0997 78.9 70.5997 79.9 69.9997 80.5C69.5997 80.9 68.9997 81.1 68.4997 81.1C67.9997 81.1 67.4998 81 66.8997 80.7C65.8997 80 64.9997 78.9 64.4997 77.4ZM88.0997 27.7C88.3997 27.6 88.6998 27.7 88.7998 28C88.7998 28.1 88.8997 28.2 88.7998 28.3C90.5998 26.8 92.4998 26.3 94.2998 26.3C96.9998 26.3 99.4998 27.5 101.3 28.9C103.2 30.3 104.4 31.4 105.4 32.3C107.6 34.2 108.7 35.2 114.1 37.2C115.7 37.8 116.6 38.4 116.9 38.9C117.2 39.4 117.1 39.9 116.7 40.3C116.4 40.6 115.9 40.8 115.3 40.9C113.4 41.3 109.9 41.1 106.8 39.8C106.5 39.7 106.4 39.3 106.5 39.1C106.6 38.8 107 38.7 107.2 38.8C110 40.1 113.2 40.3 115 39.9C115.4 39.8 115.7 39.7 115.9 39.5C115.7 39.2 115 38.8 113.7 38.3C108 36.3 106.9 35.2 104.6 33.2C103.6 32.3 102.4 31.3 100.5 29.9C98.7997 28.7 96.4997 27.6 94.1997 27.5C92.3997 27.5 90.5998 28.1 88.8997 29.7C88.6997 29.9 88.2997 29.9 88.0997 29.7C87.8997 29.5 87.8997 29.1 88.0997 28.9C87.3997 29.2 86.6997 29.7 85.8997 30.3C84.6997 31.3 83.6997 32.6 83.0997 34.3C82.4997 35.9 82.4997 37.9 83.3997 40.1C83.8997 41.3 84.6997 42.6 85.8997 43.9C86.6997 44.9 87.5997 45.8 88.4997 46.7C91.3997 49.7 94.2997 52.7 94.1997 56.4C94.1997 56.7 93.8997 57 93.5997 57C93.2997 57 92.9997 56.7 92.9997 56.4C93.0997 54.2 91.8997 52.3 90.2998 50.4C90.2998 50.5 90.1997 50.5 90.1997 50.6H90.0997C87.5997 52.5 84.8997 54.7 82.1997 56.3C77.4997 59.2 73.1997 60.6 70.8997 56.9C68.9998 53.8 70.8997 51.4 73.9997 49.5C76.5997 47.9 79.9997 46.7 82.4997 45.8C83.2997 45.5 83.9997 45.2 84.4997 45.1C84.7997 45 85.0997 45.1 85.1997 45.4C85.2997 45.7 85.1997 46 84.8997 46.1C84.2998 46.3 83.5998 46.6 82.7998 46.9C80.2998 47.8 76.9997 49 74.4997 50.5C71.9997 52.1 70.2998 54 71.7998 56.4C73.5998 59.3 77.3997 58 81.4997 55.4C84.0997 53.8 86.7998 51.7 89.2998 49.7H89.3997L89.4997 49.6C88.8997 48.9 88.1997 48.2 87.4997 47.5C86.5997 46.6 85.6998 45.6 84.7998 44.6C83.5998 43.2 82.6997 41.8 82.1997 40.5C81.1997 38 81.1998 35.8 81.7998 33.9C82.3997 32 83.5998 30.5 84.8997 29.4C86.2998 28.6 87.2997 28 88.0997 27.7ZM92.1997 48.2C91.8997 48 91.8997 47.7 92.0997 47.4C92.2997 47.1 92.5998 47.1 92.8997 47.3C94.4997 48.5 95.6997 50.3 96.3997 52.3C97.2998 54.9 97.5997 57.8 97.5997 60.3C97.5997 60.6 97.2997 60.9 96.9997 60.9C96.6997 60.9 96.3997 60.6 96.3997 60.3C96.3997 57.9 96.0997 55.1 95.1997 52.7C94.6997 50.8 93.6997 49.2 92.1997 48.2ZM97.3997 53.7C97.3997 53.4 97.6997 53.1 97.9997 53.1C98.2997 53.1 98.5997 53.4 98.5997 53.7C98.5997 56.2 100.1 58.1 102.2 59.6C105.3 61.8 109.8 63 113.2 63.5C116.2 64 117.2 64.2 117.2 64.2C117.2 64 116 63.3 114.7 62.5C113.3 61.7 112.3 60.9 111.6 60C110.8 59 110.3 58 110 57.1C109.9 56.8 110.1 56.5 110.4 56.4C110.7 56.3 111 56.5 111.1 56.8C111.3 57.6 111.7 58.4 112.4 59.2C113.1 60 114 60.7 115.2 61.4C116.8 62.3 118.2 63.3 118.2 64C118.3 64.9 116.9 65.2 112.9 64.5C109.5 63.9 104.8 62.6 101.5 60.4C99.0997 58.8 97.3997 56.6 97.3997 53.7ZM113.5 59.6C113.3 59.3 113.4 59 113.6 58.8C113.9 58.6 114.2 58.7 114.4 58.9C115.2 60 120.7 61.5 124.2 62C125 62.1 125.7 62.2 126.2 62.1C125.8 61.8 125 61.3 123.7 60.7C123 60.3 122.5 60 122.3 59.7C121.9 59.2 122.1 58.7 122.6 58.4C122.9 58.3 123.3 58.2 123.8 58.1C125.4 57.9 128.4 58.1 130.5 58.4C131.2 58.5 131.9 58.6 132.4 58.6C134.6 58.9 136.5 59.1 136.8 58.8C137.1 58.5 135.9 57.2 132.3 54.3C129.9 52.3 125.6 49.8 121.2 47.7C117.5 46 113.8 44.7 110.9 44.5C110.6 44.5 110.4 44.2 110.4 43.9C110.4 43.6 110.7 43.4 111 43.4C113.9 43.6 117.8 45 121.6 46.7C126.1 48.8 130.5 51.4 133 53.4C137.3 56.9 138.4 58.6 137.6 59.5C136.9 60.3 134.8 60.1 132.2 59.7C131.5 59.6 130.9 59.5 130.3 59.5C128.2 59.3 125.3 59.1 123.8 59.2C123.7 59.2 123.6 59.2 123.5 59.2C123.6 59.3 123.8 59.4 124.1 59.5C125.9 60.4 126.9 61 127.2 61.5C127.9 62.4 127.5 62.9 126.4 63C125.8 63.1 125 63 123.9 62.9C120.3 62.6 114.4 60.9 113.5 59.6ZM104.9 40.1C104.6 39.9 104.6 39.6 104.7 39.3C104.9 39 105.2 39 105.5 39.1C107.7 40.6 110.3 41.7 113.1 42.3C115.9 43 118.9 43.2 121.9 42.9C122.2 42.9 122.5 43.1 122.5 43.4C122.5 43.7 122.3 44 122 44C118.9 44.3 115.8 44 112.8 43.3C109.9 42.8 107.2 41.6 104.9 40.1ZM110.6 34.5C110.5 34.8 110.1 34.9 109.9 34.8C109.6 34.7 109.5 34.3 109.6 34.1C109.7 34 109.8 33.8 109.9 33.7C110.6 33 113.1 31.2 115.5 29.7C118 28.2 120.5 26.9 121.4 27.1C121.2 26.9 121.2 26.7 121.3 26.4C121.6 25.8 123.2 23.6 125.1 21.5C126.4 20 127.8 18.5 129 17.4C131.7 15 132.1 15.5 133.6 17.2C133.9 17.6 134.4 18.1 134.9 18.6L135.6 19.3C138 21.5 140.2 23.5 139.5 26C139.2 27.3 137.9 28.6 136.4 29.7C134.2 31.2 131.5 32.5 129.8 33.1C128.7 33.5 128 33.6 127.6 33.4C127.2 33.2 127 32.9 127 32.5C127 32.3 127.1 32 127.2 31.7C127.6 31 128.5 30.1 128.6 30.1C128.9 30 129.2 30.2 129.3 30.5C129.4 30.8 129.2 31.1 128.9 31.2C128.9 31.2 128.5 31.7 128.2 32.2V32.3C128.4 32.3 128.8 32.2 129.5 32C131.1 31.4 133.7 30.2 135.8 28.8C137.1 27.8 138.2 26.8 138.5 25.8C139 23.9 137 22.2 134.9 20.2C134.8 20.1 134.7 20 134.2 19.5C133.6 18.9 133.2 18.4 132.8 18C131.9 17 131.7 16.7 129.8 18.3C128.6 19.3 127.2 20.8 126 22.3C124.2 24.4 122.6 26.5 122.3 27.1C122.2 27.3 121.9 27.4 121.7 27.4C122.9 28.5 125.2 32 126.8 34.9C127.5 36.3 128 37.6 128.2 38.6C128.3 38.5 128.4 38.5 128.6 38.5C130.2 38.5 131.8 38.5 133.2 38.4C136.3 38.3 139.1 38.3 140.6 38.6C140.7 38.6 140.8 38.6 140.8 38.6C141 38.5 141.1 38.3 141.2 38C141.3 37.6 141.4 37 141.4 36.4C141.4 35.1 141.1 33.8 140.8 33.2C140.6 32.9 140.7 32.6 141 32.4C141.3 32.2 141.6 32.3 141.8 32.6C142.2 33.3 142.5 34.9 142.6 36.3C142.6 37 142.5 37.7 142.4 38.2C142.2 38.9 141.8 39.3 141.3 39.5C141.1 39.6 140.8 39.6 140.5 39.5C139.1 39.2 136.4 39.3 133.4 39.3C131.9 39.3 130.2 39.4 128.7 39.4C128.6 39.4 128.5 39.4 128.4 39.3C128.4 39.6 128.3 39.8 128.2 40C128.1 40.1 128 40.2 127.8 40.2C127.1 40.6 125.7 41.3 123.9 41.8C122.6 42.2 121.1 42.5 119.4 42.7C119.1 42.7 118.8 42.5 118.8 42.2C118.8 41.9 119 41.6 119.3 41.6C120.9 41.4 122.3 41.1 123.5 40.7C125.8 40 127.2 39.3 127.2 39.3C127.5 38.8 126.9 37.1 125.9 35.1C124.4 32.2 122.2 29 121.1 27.9C120.6 27.8 118.5 29 116.2 30.4C113.7 32.1 111.4 33.8 110.6 34.5C110.7 34.5 110.6 34.5 110.6 34.5ZM132.3 34C132 34.1 131.7 33.9 131.6 33.6C131.5 33.3 131.7 33 132 32.9C133.5 32.4 135.7 31.3 137.6 30C139.2 28.9 140.6 27.7 141 26.8C141.1 26.5 141.5 26.4 141.8 26.5C142.1 26.6 142.2 27 142.1 27.3C141.6 28.4 140.1 29.7 138.3 31C136.2 32.3 133.9 33.5 132.3 34ZM142 30.7C142.3 30.7 142.6 31 142.6 31.3C142.6 31.6 142.3 31.9 142 31.9C141.9 31.9 142 32 141.8 32.1C140.5 32.9 136.7 35.1 131 35.8C130.7 35.8 130.4 35.6 130.4 35.3C130.4 35 130.6 34.7 130.9 34.7C136.4 34.1 140 31.9 141.2 31.1C141.6 30.8 141.8 30.7 142 30.7ZM54.1997 100.2C53.8997 100.3 53.5997 100.1 53.4997 99.8C53.3997 99.5 53.5997 99.2 53.8997 99.1C55.4997 98.6 57.1997 97.6 57.9997 96.7C58.1997 96.5 58.2997 96.3 58.2997 96.1C58.2997 96.1 58.1997 96 58.0997 95.9C57.3997 95.6 55.7997 95.6 52.8997 96C52.5997 96 52.2997 95.8 52.2997 95.5C52.2997 95.2 52.4997 94.9 52.7997 94.9C55.8997 94.4 57.7997 94.5 58.5997 94.8C59.1997 95.1001 59.4997 95.5 59.4997 96C59.4997 96.4 59.2997 96.9 58.8997 97.3C57.8997 98.5 55.9997 99.7 54.1997 100.2ZM126.4 99.3C126.7 99.3 126.9 99.6 126.9 99.9C126.9 100.2 126.6 100.4 126.3 100.4C124.3 100.1 122.2 99 121.2 98C120.8 97.6 120.6 97.1 120.5 96.7C120.5 96.2 120.7 95.7001 121.3 95.4C122.2 94.9 124.2 94.7 127.7 95.2C128 95.2 128.2 95.5 128.2 95.8C128.2 96.1001 127.9 96.3 127.6 96.3C124.4 95.9 122.6 96 121.9 96.4C121.7 96.5 121.7 96.6 121.7 96.6C121.7 96.7 121.8 96.9 122 97.2C122.7 98.1 124.6 99 126.4 99.3ZM59.0997 94C59.1997 94.3 58.9997 94.6 58.6997 94.7C58.3997 94.8 58.0997 94.6001 57.9997 94.3C57.3997 92.1001 55.5997 90 53.6997 88.5C51.2997 86.5 48.5997 85.3 47.2997 85.6C45.1997 86 43.6997 86 42.5997 85.8C41.3997 85.5 40.6997 84.9 40.1997 84C39.6997 83 39.5997 81.8 39.9997 80.5C40.2997 79.6 40.7997 78.7 41.6997 78C41.0997 77.4 40.6997 76.5 40.4997 75.6C40.2997 74.6 40.3997 73.5 40.8997 72.6C40.9997 72.5 41.0997 72.3 41.1997 72.2C41.2997 72.1 41.3997 72 41.4997 71.9C42.1997 71.2 43.1997 70.7 44.2997 70.6C45.1997 70.5 46.0997 70.7001 46.9997 71.3C47.0997 70.6 47.3997 69.9 47.7997 69.3C48.2997 68.6 48.9997 68.1 49.6997 67.8C50.3997 67.5 51.2997 67.3 52.0997 67.4C53.0997 67.5 54.0997 68 54.7997 69C55.8997 70.4 55.9997 71.6 56.0997 72.9C56.1997 74.2 56.2997 75.6 57.7997 77.5C58.7997 78.8 60.1997 80 61.6997 81C62.9997 81.8 64.3998 82.3 65.7998 82.4C66.0998 82.4 66.2998 82.7 66.2998 83C66.2998 83.3 65.9997 83.5 65.6997 83.5C64.0997 83.4 62.5997 82.8 61.0997 81.9C59.4997 80.9 57.9998 79.6 56.8997 78.2C55.1997 76 55.0997 74.4 54.9997 73C54.8997 71.9 54.7997 70.9 53.8997 69.7C53.2997 69 52.5997 68.6 51.8997 68.5C51.2997 68.4 50.6997 68.5 50.0997 68.8C49.4997 69.1 48.9997 69.5 48.5997 70C48.0997 70.7 47.7997 71.5 47.9997 72.4C47.9997 72.6 47.9997 72.8 47.7997 72.9C47.5997 73.1 47.1997 73.1 46.9997 72.9C46.8997 72.8 46.7997 72.7 46.6997 72.6C45.8997 71.9 44.9997 71.7001 44.1997 71.8C43.3997 71.9 42.5997 72.3 42.0997 72.8C41.9997 72.9 41.8997 73 41.8997 73C41.7997 73.1 41.7997 73.2001 41.6997 73.3C41.2997 73.9 41.1997 74.7 41.3997 75.5C41.5997 76.3 41.8997 77 42.4997 77.5C42.5997 77.6 42.6997 77.6 42.6997 77.7C42.7997 77.7 42.7997 77.8 42.8997 77.9C43.0997 78.2 42.9997 78.5 42.7997 78.7C41.7997 79.4 41.2997 80.3 40.9997 81.1C40.6997 82 40.7997 83 41.0997 83.7C41.3997 84.3 41.8997 84.7001 42.7997 84.9C43.7997 85.1 45.0997 85.1 47.0997 84.7C48.5997 84.4 51.6997 85.7001 54.3997 87.8C56.4997 89.3 58.3997 91.6 59.0997 94ZM68.0997 81.4C68.3997 81.4 68.5997 81.7 68.5997 82C68.5997 82.3 68.2997 82.5 67.9997 82.5C67.5997 82.5 67.1997 82.4 66.6997 82.3C65.4997 82 64.0997 81.4 63.1997 80.5C62.1997 79.5 61.5997 78.2 61.7997 76.4C61.7997 76.1 61.8997 75.8 61.9997 75.5C62.0997 75.2 62.3997 75 62.6997 75.1C62.9997 75.2 63.1997 75.5 63.0997 75.8C62.9997 76.1 62.9997 76.3 62.9997 76.5C62.8997 77.9 63.2997 78.9 64.0997 79.7C64.8997 80.5 65.9997 81 67.0997 81.2C67.3997 81.3 67.7997 81.4 68.0997 81.4ZM52.9997 77.3C53.0997 77.6 52.9997 77.9 52.6997 78C52.3997 78.1 52.0997 78 51.9997 77.7C51.8997 77.4 51.5997 77.1 51.2997 76.9C51.0997 76.8 50.9997 76.7 50.7997 76.6C50.6997 76.6 50.6997 76.6 50.5997 76.6C50.4997 76.6 50.4997 76.6 50.3997 76.6C50.4997 76.8 50.6997 77 50.7997 77.1C51.0997 77.4 51.4997 77.5 51.8997 77.6H51.9997C52.2997 77.6 52.4997 77.9 52.4997 78.2C52.4997 78.5 52.1997 78.7 51.8997 78.7H51.7997C51.3997 78.7 50.9997 78.5 50.6997 78.4C50.6997 78.7 50.7997 79.1 50.9997 79.3C51.1997 79.5 51.4997 79.7001 51.7997 79.8H51.8997C52.1997 79.8 52.5997 79.7 52.7997 79.5C52.9997 79.3 53.1997 79 53.2997 78.7V78.6C53.2997 78.5 53.2997 78.4 53.2997 78.3C53.2997 78.2001 53.1997 78.1 53.1997 78C53.0997 77.7 53.1997 77.5 53.3997 77.3C53.5997 77.2001 53.7997 77 53.8997 76.8C53.9997 76.6 54.0997 76.4 54.1997 76.1C54.2997 75.8 54.4997 75.6 54.7997 75.7C54.7997 75.7 54.7997 75.7 54.8997 75.7C55.1997 75.7 55.5997 75.6 55.7997 75.4C55.9997 75.2 56.1997 74.9 56.2997 74.6V74.5C56.2997 74.2 56.1997 73.8 55.9997 73.6C55.7997 73.4 55.4997 73.2 55.1997 73.1H55.0997C54.8997 73.1 54.6997 73.1 54.4997 73.2H54.3997C52.4997 76.6 52.7997 76.9 52.9997 77.3ZM50.0997 75.5C50.1997 75.5 50.2997 75.5 50.3997 75.5C50.4997 75.5 50.4997 75.5 50.5997 75.6C50.7997 75.4 50.9997 75.3 51.1997 75.2C51.5997 75 51.9997 75 52.3997 75C53.0997 75.1 53.5997 75.4 53.9997 75.9C54.3997 76.4 54.5997 77 54.4997 77.6C54.3997 78.3 54.0997 78.8 53.5997 79.2C53.1997 79.5 52.6997 79.7 52.1997 79.7C52.0997 79.9 51.9997 80.1001 51.8997 80.3C51.7997 80.5 51.5997 80.7001 51.4997 80.8C51.4997 80.9 51.4997 80.9 51.4997 81C51.4997 81.2 51.4997 81.4 51.4997 81.7C51.3997 82.4 51.0997 82.9 50.5997 83.3C50.0997 83.7001 49.4997 83.9 48.8997 83.8C48.1997 83.7001 47.6997 83.4 47.2997 82.9C46.8997 82.4 46.6997 81.8 46.7997 81.1C46.7997 80.9 46.8997 80.7 46.8997 80.6V80.5C46.7997 80.4 46.6997 80.3 46.6997 80.2V80.1V80V79.9V79.8V79.7L50.0997 75.5ZM51.5997 70.2C51.2997 70.2 50.9997 70.3 50.7997 70.5C50.5997 70.7 50.3997 71 50.3997 71.3C50.3997 71.6 50.4997 71.9 50.6997 72.1C50.8997 72.3 51.0997 72.5 51.3997 72.5H51.4997C51.7997 72.5 52.0997 72.4 52.2997 72.2C52.4997 72 52.6997 71.8 52.6997 71.5V71.4C52.6997 71.1 52.5997 70.8 52.3997 70.6C52.1997 70.3 51.8997 70.2 51.5997 70.2ZM49.9997 69.5C50.4997 69.1 50.9997 68.9 51.6997 69C52.2997 69.1 52.8997 69.4 53.1997 69.8C53.5997 70.2001 53.7997 70.8 53.6997 71.4C53.5997 72 53.2997 72.6 52.8997 72.9C52.4997 73.3 51.8997 73.5 51.2997 73.4C50.6997 73.3 50.0997 73 49.7997 72.6C49.3997 72.1 49.1997 71.6 49.2997 70.9C49.2997 70.5 49.5997 69.9 49.9997 69.5ZM44.4997 73.6C44.1997 73.6 43.8997 73.7 43.6997 73.9C43.4997 74.1 43.2997 74.4 43.2997 74.7C43.2997 75 43.3997 75.3 43.5997 75.5C43.7997 75.7 43.9997 75.9 44.2997 75.9H44.3997C44.6997 75.9 44.9997 75.8 45.1997 75.6C45.3997 75.4 45.5997 75.2 45.5997 74.9V74.8C45.5997 74.5 45.4997 74.2 45.2997 74C45.0997 73.8 44.8997 73.7 44.4997 73.6ZM42.9997 73C43.4997 72.6 43.9997 72.4 44.6997 72.5C45.2997 72.6 45.8997 72.9 46.1997 73.3C46.5997 73.7001 46.7997 74.3 46.6997 74.9C46.5997 75.5 46.2997 76.1 45.8997 76.4C45.4997 76.8 44.8997 77 44.2997 76.9C43.6997 76.8 43.0997 76.5 42.7997 76.1C42.3997 75.6 42.1997 75.1 42.2997 74.4C42.1997 73.9 42.4997 73.4 42.9997 73ZM43.7997 81C43.4997 81 43.1997 81.1001 42.9997 81.3C42.7997 81.5 42.5997 81.7 42.5997 82V82.1C42.5997 82.4 42.6997 82.7001 42.8997 82.9C43.0997 83.1 43.2997 83.3 43.5997 83.3H43.6997C43.9997 83.3 44.2997 83.2 44.4997 83C44.6997 82.8 44.8997 82.5 44.8997 82.2C44.8997 81.9 44.7997 81.6 44.5997 81.4C44.3997 81.2001 44.0997 81 43.7997 81ZM42.1997 80.4C42.6997 80 43.1997 79.8 43.8997 79.9C44.4997 80 45.0997 80.3 45.3997 80.7C45.7997 81.2 45.9997 81.7001 45.8997 82.4C45.7997 83 45.4997 83.6 45.0997 83.9C44.6997 84.3 44.0997 84.5 43.4997 84.4C42.8997 84.3 42.2997 84 41.9997 83.6C41.5997 83.2 41.3997 82.6 41.4997 82C41.4997 81.3 41.7997 80.7001 42.1997 80.4ZM121.7 94.7C121.6 95 121.2 95.1 120.9 94.9C120.6 94.8 120.5 94.4 120.7 94.1C121.9 91.9 123 90.3 124.1 89.2C125.3 88 126.6 87.4 128 87.2C130.1 86.9 130.9 87.3 131.7 87.9C132.1 88.1 132.5 88.4 133.1 88.6C134.4 89 135.5 88.9 136.2 88.5C136.7 88.2 137 87.9 137.2 87.4C137.4 86.9 137.5 86.4 137.5 85.8C137.4 84.7001 136.8 83.6 135.8 82.7C135.6 82.5 135.5 82.1 135.7 81.9C135.8 81.8 135.9 81.8 136 81.7C136.1 81.7 136.3 81.6 136.4 81.5C137 81.1 137.6 80.5 137.9 79.7C138.2 78.9 138.3 78.1 138.1 77.4C138.1 77.3 138 77.1 137.9 77C137.5 76.3 136.8 75.8 135.9 75.6C135 75.4 133.9 75.5 132.8 75.9C132.5 76 132.2 75.9 132.1 75.6C132.1 75.5 132 75.4 132.1 75.2C132.3 74 132.2 73 131.9 72.2C131.6 71.6 131.2 71.1 130.7 70.8C130.2 70.5 129.6 70.3 129 70.4C128.3 70.4 127.6 70.7001 126.9 71.3C125.8 72.3 125.3 73.7 124.8 75C124.4 76.2 124 77.3 123.2 78.2C121.8 79.6 120.2 80.9 118.4 81.7C116.8 82.4 115.1 82.7 113.3 82.5C113 82.5 112.8 82.2001 112.8 81.9C112.8 81.6 113.1 81.4 113.4 81.4C115 81.6 116.5 81.3 117.9 80.7C119.5 80 121 78.8 122.3 77.5C122.9 76.8 123.3 75.8 123.6 74.7C124.1 73.2 124.6 71.7 126 70.5C126.9 69.8 127.8 69.4 128.8 69.3C129.6 69.2001 130.4 69.5 131.1 69.9C131.8 70.3 132.3 71 132.7 71.8C133 72.6 133.2 73.5 133.1 74.5C134.1 74.2 135.1 74.2 136 74.4C137.2 74.7 138.2 75.4 138.8 76.4C138.9 76.6 139 76.8 139.1 77C139.4 78 139.3 79.1 138.9 80.1C138.5 81 137.9 81.9 137.1 82.4C138 83.4 138.5 84.6 138.6 85.7C138.7 86.5 138.5 87.2001 138.2 87.9C137.9 88.6 137.4 89.1 136.7 89.5C135.7 90 134.4 90.2 132.8 89.7C132 89.5 131.6 89.2001 131.1 88.9C130.5 88.5 129.9 88.1 128.2 88.4C127 88.6 126 89.1 125 90.1C123.9 91.1 122.8 92.6 121.7 94.7ZM127.1 79.7C126.9 80 126.6 80 126.3 79.8C126 79.6 126 79.3 126.2 79C126.5 78.6 126.8 78.3 127.1 78.1C127.1 78.1 127 78.1 127 78C126.8 77.9 126.6 77.8 126.4 77.8C126 77.8 125.7 77.9 125.5 78.1C125.2 78.3 125.1 78.6 125 79C125 79.4 125.1 79.7 125.3 79.9C125.5 80.1 125.8 80.3 126.1 80.4H126.2C126.5 80.4 126.7 80.7001 126.7 80.9C126.7 81.1 126.8 81.4 126.9 81.6C127 81.8 127.1 82 127.3 82.2C127.5 82.4 127.5 82.7001 127.4 82.9C127.3 83 127.3 83.1 127.2 83.2C127.2 83.3 127.1 83.4 127.1 83.5C127.1 83.9 127.2 84.2001 127.4 84.4C127.6 84.7001 127.9 84.8 128.3 84.9C128.7 84.9 129 84.8 129.2 84.6C129.4 84.4 129.6 84.1001 129.7 83.8C129.3 83.9 128.9 83.9 128.5 83.9H128.4C128.1 83.9 127.9 83.6001 127.9 83.3C127.9 83 128.2 82.8 128.5 82.8H128.6C129 82.8 129.5 82.7 129.8 82.5C130.1 82.3 130.3 82.1001 130.5 81.8C130.6 81.7001 130.6 81.5 130.7 81.4V81.3C130.8 80.7001 130.6 80.2001 130.3 79.8C130.1 79.8 130 79.8 129.8 79.9C129.7 79.9 129.7 79.9 129.6 80C127.6 79.2 127.3 79.5 127.1 79.7ZM129.1 71.2C129.7 71.3 130.3 71.6 130.6 72C131 72.5 131.2 73 131.1 73.7C131 74.3 130.7 74.9 130.3 75.2C129.9 75.6 129.3 75.8 128.7 75.7H128.6C128 75.6 127.5 75.3 127.1 74.9C126.7 74.5 126.5 73.9 126.6 73.3V73.2C126.7 72.6 127 72.1 127.4 71.7C127.8 71.3 128.4 71.2 129.1 71.2ZM129.7 72.8C129.5 72.6 129.2 72.4 128.9 72.4C128.6 72.4 128.3 72.5 128.1 72.7C127.9 72.9 127.7 73.2 127.7 73.5C127.7 73.8 127.8 74.1 128 74.3C128.2 74.5 128.5 74.7 128.8 74.7C129.1 74.7 129.4 74.6 129.6 74.4C129.8 74.2 130 73.9 130 73.6C130 73.3 129.9 73 129.7 72.8ZM129.1 77.8H129.2C129.7 78.4 130 79.2 129.9 80.1C129.8 80.6 129.7 81 129.4 81.4C129.2 81.7001 129 82 128.7 82.2V82.3C128.7 82.5 128.7 82.7001 128.7 82.9C128.6 83.6 128.3 84.1 127.8 84.5C127.3 84.9 126.7 85.1 126 85C125.3 84.9 124.8 84.6 124.4 84.1C124 83.6 123.8 83 123.9 82.3C123.9 82.1001 124 81.9 124 81.7C124 81.6 124 81.6 124.1 81.5C124 81.3 123.9 81.1 123.8 80.9C123.7 80.7001 123.7 80.5 123.6 80.3C123.1 80.2001 122.7 79.9 122.4 79.5C122 79 121.8 78.4 121.9 77.7C122 77 122.3 76.5 122.8 76.1C123.3 75.7 123.9 75.5 124.6 75.6C125 75.6 125.4 75.8 125.8 76.1C126 76.3 126.2 76.5 126.4 76.7C126.5 76.7 126.5 76.7 126.6 76.7H126.7H126.8H126.9H127L129.1 77.8ZM135.3 76C135.9 76.1 136.5 76.4 136.8 76.8C137.2 77.3 137.4 77.8 137.3 78.5C137.2 79.1 136.9 79.7 136.5 80C136 80.4 135.5 80.6 134.8 80.5C134.2 80.4 133.6 80.1 133.3 79.7C132.9 79.2 132.7 78.7 132.8 78C132.9 77.4 133.2 76.8 133.6 76.5C134.1 76.1 134.7 75.9 135.3 76ZM136 77.6C135.8 77.4 135.5 77.2 135.2 77.2C134.9 77.2 134.6 77.3 134.4 77.5C134.2 77.7 134 78 134 78.3C134 78.6 134.1 78.9 134.3 79.1C134.5 79.3 134.8 79.5 135.1 79.5C135.4 79.5 135.7 79.4 135.9 79.2C136.1 79 136.3 78.7 136.3 78.4C136.3 78.1 136.2 77.8 136 77.6ZM134.6 83.4C135.2 83.5 135.8 83.8 136.1 84.2C136.5 84.7 136.7 85.2001 136.6 85.9C136.5 86.5 136.2 87.1 135.8 87.4C135.3 87.8 134.8 88 134.1 87.9C133.5 87.8 132.9 87.5 132.6 87.1C132.2 86.6 132 86.1 132.1 85.4C132.2 84.8 132.5 84.2001 132.9 83.9C133.4 83.5 134 83.3 134.6 83.4ZM135.3 84.9C135.1 84.7001 134.8 84.5 134.5 84.5C134.2 84.5 133.9 84.6001 133.7 84.8C133.5 85 133.3 85.3 133.3 85.6C133.3 85.9 133.4 86.2001 133.6 86.4C133.8 86.6 134.1 86.8 134.4 86.8C134.7 86.8 135 86.7 135.2 86.5C135.4 86.3 135.6 86 135.6 85.7C135.6 85.4 135.5 85.1 135.3 84.9Z" fill="black"/>
</g>
<defs>
<clipPath id="clip0">
<rect width="178.5" height="178.5" fill="white"/>
</clipPath>
</defs>
</svg>
