<svg width="179" height="179" viewBox="0 0 179 179" fill="none" xmlns="http://www.w3.org/2000/svg">
<g clip-path="url(#clip0)">
<path fill-rule="evenodd" clip-rule="evenodd" d="M89.2996 0C138.6 0 178.6 40 178.6 89.2C178.6 138.5 138.6 178.4 89.2996 178.4C39.9996 178.4 0.0996094 138.4 0.0996094 89.2C0.0996094 40 39.9996 0 89.2996 0Z" fill="#F7F7F7"/>
<path fill-rule="evenodd" clip-rule="evenodd" d="M120.7 16.3C119.8 17.4 122.8 19.7 122.8 23.1C122.8 27.6 122.3 35.9 128.9 34.9C130.9 34.6 128.2 25.5 135.1 30.4C139.2 33.3 138.7 25.9 135.8 21.7C133.6 18.6 122.2 14.5 120.7 16.3Z" fill="#3EB5F1"/>
<path fill-rule="evenodd" clip-rule="evenodd" d="M140.3 85C135.3 86.5 132.3 92.1 141.2 93.3C147.1 94.1 127 102.3 140 107.6C145.1 109.7 146.4 103.9 150.6 113.7C152.8 118.9 173.1 113.3 169.5 104.4C167.9 100.5 161.8 100.2 159.7 98.9C157 97.2 163.7 95.8 159.4 92.7C158 91.7 151.9 91.1 149.9 89.7C148.6 88.7 152.1 81.5 140.3 85ZM157.7 120.3C154.5 120.9 152.3 126.1 159.1 125C160.2 124.8 161.8 123.7 163.3 123.3C164.5 122.9 166.3 124.6 167.8 124C169.6 123.2 168.6 119.7 166.7 118.2C165.4 117.2 163.7 116.4 162.3 116.7C158.9 117.2 161.8 119.5 157.7 120.3Z" fill="#FFF343"/>
<path fill-rule="evenodd" clip-rule="evenodd" d="M89.0994 111.3C85.2994 112.8 85.1994 115.1 87.0994 116.6C89.3994 118.4 94.8994 118.1 95.1994 121.3C95.3994 123.5 95.6994 126.6 97.6994 128C99.2994 129.1 101.399 126.9 103.999 128.6C106.499 130.4 108.199 124.4 109.799 114.9C110.199 112.4 112.699 101.6 103.099 106.8C100.999 107.9 98.6994 109.8 96.6994 110.4C93.6994 111.2 91.8994 110.2 89.0994 111.3ZM75.1994 154.5C73.4994 156.7 77.8994 157.3 80.2994 156.8C82.9994 156.2 82.5994 154.2 80.5994 154.2C79.6994 154.2 78.9994 153.4 78.4994 153.2C76.6994 152.5 76.3994 153 75.1994 154.5ZM85.8994 148.6C83.6994 151.6 84.0994 153.2 85.6994 153.9C89.5994 155.5 89.9994 151.5 91.9994 152C96.4994 153.2 98.8994 148.9 94.2994 146.8C90.4994 144.9 87.9994 145.7 85.8994 148.6Z" fill="#ABCB56"/>
<path fill-rule="evenodd" clip-rule="evenodd" d="M45.9 67.8C49.2 67.1 47 71.5 49.7 71.8C55.6 72.4 55.8 68.4 59.1 67.7C61 67.3 61.4 64.5 60.9 61.9C60 57.3 56.7 58 56.8 52.9C56.9 50 55.3 48.2 52.3 49.6C51.2 50.1 42.5 55.5 44.3 57C45.5 58 49.6 57.8 50 59C50.4 60.3 45.7 62.2 44.7 64.1C44.1 65.1 43.7 68.3 45.9 67.8Z" fill="#DC7D43"/>
<path fill-rule="evenodd" clip-rule="evenodd" d="M94.7994 124.1C93.4994 120.9 89.8994 118.6 88.7994 117C86.1994 113.8 95.1994 115.4 94.7994 124.1ZM128.099 71.2C124.799 70 120.699 71.0001 118.799 70.9001C114.599 70.6001 121.899 65.1 128.099 71.2ZM100.599 83.2001C101.599 79.9001 104.999 77.3 106.099 75.7001C108.299 72.2001 99.4994 74.6001 100.599 83.2001ZM86.0994 126.7C87.4994 126.7 88.6994 127.8 88.6994 129.2C88.6994 130.6 87.5994 131.8 86.0994 131.8C84.6994 131.8 83.4994 130.7 83.4994 129.2C83.4994 127.8 84.5994 126.7 86.0994 126.7ZM121.799 79.8001C123.199 79.8001 124.399 80.9001 124.399 82.4001C124.399 83.8001 123.299 85.0001 121.799 85.0001C120.299 85.0001 119.299 83.9001 119.299 82.4001C119.299 80.9001 120.399 79.8001 121.799 79.8001ZM110.599 84.8001C111.999 84.8001 113.199 85.9001 113.199 87.4001C113.199 88.9001 112.099 90.0001 110.599 90.0001C109.099 90.0001 108.099 88.9001 108.099 87.4001C108.099 85.9001 109.199 84.8001 110.599 84.8001ZM83.0994 52.4001C84.4994 52.4001 85.6994 53.5001 85.6994 55.0001C85.6994 56.4001 84.5994 57.6 83.0994 57.6C81.5994 57.6 80.4994 56.5001 80.4994 55.0001C80.4994 53.6001 81.5994 52.4001 83.0994 52.4001ZM66.8994 51.5001C68.2994 51.5001 69.4994 52.6 69.4994 54.1C69.4994 55.6 68.3994 56.7001 66.8994 56.7001C65.4994 56.7001 64.2994 55.6 64.2994 54.1C64.2994 52.6 65.3994 51.5001 66.8994 51.5001ZM70.2994 120.8C71.6994 120.8 72.8994 121.9 72.8994 123.4C72.8994 124.9 71.7994 126 70.2994 126C68.8994 126 67.6994 124.9 67.6994 123.4C67.6994 121.9 68.8994 120.8 70.2994 120.8ZM90.9994 46.4001C88.4994 43.9001 84.3994 43.2001 82.6994 42.3001C78.9994 40.2001 87.9994 38.3001 90.9994 46.4001ZM60.3994 45.0001C63.1994 42.9001 67.3994 42.8001 69.1994 42.2001C73.1994 40.6001 64.6994 37.4001 60.3994 45.0001ZM66.0994 113.1C69.1994 111.6 73.3994 112.4 75.2994 112C79.4994 111.3 71.7994 106.4 66.0994 113.1Z" fill="black"/>
<path d="M9.49958 109.6C9.29958 109.4 9.19958 109 9.39958 108.8C9.59958 108.6 9.99958 108.5 10.1996 108.7C11.9996 110.2 14.3996 110.8 17.0996 110.9C20.6996 111.1 24.4996 110.3 27.0996 109.4C27.3996 109.3 27.6996 109.5 27.7996 109.7C27.8996 110 27.6996 110.3 27.4996 110.4C24.7996 111.3 20.8996 112.1 17.0996 111.9C14.1996 111.9 11.4996 111.2 9.49958 109.6ZM77.4996 106.2C80.3996 106.3 82.7996 106.7 84.7996 107.3C85.5996 106.5 86.8996 105.8 88.2996 105.1C90.8996 103.8 94.0996 102.1 95.2996 99C95.3996 98.7 95.6996 98.6 95.9996 98.7C96.2996 98.8 96.3996 99.1 96.2996 99.4C94.9996 102.9 91.4996 104.7 88.6996 106.1C87.5996 106.7 86.5996 107.2 85.8996 107.7C87.0996 108.1 88.1996 108.6 89.1996 109C90.3996 108.4 91.6996 107.6 92.7996 106.7C93.8996 105.8 94.7996 104.7 95.3996 103.3C95.4996 103 95.7996 102.9 96.0996 103C96.3996 103.1 96.4996 103.4 96.3996 103.7C95.7996 105.3 94.6996 106.6 93.4996 107.6C92.5996 108.4 91.4996 109 90.4996 109.6C91.9996 110.3 93.3996 110.9 94.8996 111.3C96.0996 111.6 97.6996 111.1 99.5996 110.2C101.6 109.2 103.7 107.9 105.8 106.6C107.7 105.4 108.8 105.3 109.4 106C109.9 106.6 109.9 107.8 109.6 109.4C109.1 111.5 108.6 113.3 108.2 114.9C107 119.1 106.1 122.6 106.2 128.3C106.2 130.1 106.3 131.9 106.5 133.7C107.9 133.5 109.3 133.4 110.7 133.3C113.2 133.1 115.4 132.9 116.7 132.4C117 132.3 117.3 132.4 117.4 132.7C117.5 133 117.4 133.3 117.1 133.4C115.7 134 113.4 134.2 110.8 134.4C109.5 134.5 108.1 134.6 106.7 134.8C106.9 136.5 107.2 138.1 107.6 139.7C110.1 139.8 112.3 139.7 113.7 139.2C114 139.1 114.3 139.2 114.4 139.5C114.5 139.8 114.4 140.1 114.1 140.2C112.7 140.8 110.4 140.8 107.9 140.8C108.2 141.8 108.5 142.9 108.8 143.9C110.2 147.9 112.1 151.4 114.7 153.5C114.9 153.7 115 154.1 114.8 154.3C114.6 154.5 114.2 154.6 114 154.4C111.2 152.1 109.1 148.5 107.7 144.2C107.3 143.1 107 141.9 106.7 140.7C105.8 140.7 104.8 140.6 103.9 140.6C101.3 140.5 98.8996 140.3 97.0996 140.5C96.7996 140.5 96.4996 140.3 96.4996 140C96.4996 139.7 96.6996 139.4 96.9996 139.4C98.7996 139.2 101.3 139.3 103.9 139.5C104.7 139.5 105.6 139.6 106.4 139.6C106.1 138 105.8 136.4 105.6 134.8C102.6 135.2 99.5996 136 97.0996 137.5C96.7996 137.7 96.4996 137.6 96.2996 137.3C96.0996 137 96.1996 136.7 96.4996 136.5C99.1996 134.9 102.4 134.1 105.5 133.6C105.3 131.7 105.2 129.9 105.2 128.1C105.1 122.2 106.1 118.7 107.2 114.4C107.7 112.7 108.1 111 108.6 108.9C108.9 107.7 109 106.8 108.7 106.5C108.5 106.3 107.9 106.5 106.6 107.3C104.5 108.6 102.3 110 100.3 111C98.1996 112 96.2996 112.6 94.7996 112.2C93.1996 111.8 91.7996 111.1 90.1996 110.4C87.1996 109 83.6996 107.4 77.7996 107.1C77.9996 107.8 78.1996 108.3 78.2996 108.5C78.4996 108.7 78.3996 109.1 78.1996 109.3C77.9996 109.5 77.5996 109.4 77.3996 109.2C76.5996 108.2 75.6996 102.6 74.9996 98.3C74.6996 96.4 74.3996 94.8 74.1996 94C73.5996 91.5 73.1996 90.4 72.7996 90.4C72.1996 90.4 71.1996 91.7001 69.4996 93.9C68.2996 95.5 67.0996 97.3 65.6996 99.3C61.9996 104.7 57.5996 111.1 52.4996 116.2C52.3996 116.3 52.1996 116.5 52.0996 116.6L52.4996 117C55.2996 120.3 57.5996 123.5 57.9996 124.7C58.0996 125 57.8996 125.3 57.5996 125.4C57.2996 125.5 56.9996 125.3 56.8996 125C56.5996 124 54.2996 121 51.6996 117.8L51.3996 117.4C50.7996 118 50.0996 118.5 49.4996 119.1C52.7996 121.9 55.5996 124.9 56.5996 127.4C56.6996 127.7 56.5996 128 56.2996 128.1C55.9996 128.2 55.6996 128.1 55.5996 127.8C54.5996 125.5 51.8996 122.5 48.5996 119.8C47.1996 120.9 45.6996 121.8 44.1996 122.6C41.0996 124.3 37.7996 125.3 34.0996 125.7C32.7996 125.8 31.6996 126.1 31.0996 126.5C30.8996 126.6 30.7996 126.7 30.7996 126.8C30.7996 126.9 30.7996 126.9 30.7996 127C30.9996 127.3 31.3996 127.5 31.9996 127.9C33.3996 128.6 35.0996 129 36.7996 129.3C38.7996 129.6 40.8996 129.7 42.7996 129.6C43.0996 129.6 43.3996 129.8 43.3996 130.1C43.3996 130.4 43.1996 130.7 42.8996 130.7C40.9996 130.8 38.7996 130.7 36.6996 130.3C34.8996 130 33.0996 129.5 31.5996 128.8C30.6996 128.4 30.1996 128 29.8996 127.5C29.5996 127.1 29.5996 126.7 29.6996 126.3C29.7996 126 30.0996 125.7 30.4996 125.4C31.1996 124.9 32.4996 124.6 33.9996 124.4C37.4996 124.1 40.7996 123 43.6996 121.4C45.0996 120.6 46.3996 119.8 47.6996 118.8C43.5996 115.5 39.0996 112.7 36.1996 111.9C35.8996 111.8 35.6996 111.5 35.7996 111.2C35.8996 110.9 36.1996 110.7 36.4996 110.8C39.4996 111.7 44.2996 114.6 48.4996 118L48.5996 118.1C49.2996 117.5 49.9996 116.9 50.6996 116.3C47.5996 112.6 44.1996 109 42.7996 107.9C42.5996 107.7 42.4996 107.3 42.6996 107.1C42.8996 106.9 43.2996 106.8 43.4996 107C44.8996 108.1 48.2996 111.8 51.4996 115.5L51.7996 115.2C56.8996 110.2 61.1996 103.8 64.8996 98.4C66.2996 96.4 67.4996 94.5 68.6996 92.9C70.4996 90.4 71.6996 89 72.7996 88.9C73.9996 88.8 74.6996 90.2001 75.3996 93.4C75.5996 94.2001 75.8996 95.9 76.1996 97.8C76.4996 101 76.9996 104.1 77.4996 106.2ZM19.1996 138.5C18.9996 138.2 19.0996 137.9 19.3996 137.7C19.6996 137.5 19.9996 137.6 20.1996 137.9C22.3996 141.3 29.4996 141.2 34.4996 140.2C36.0996 139.9 37.4996 139.4 38.3996 138.9C38.9996 138.6 39.2996 138.4 39.2996 138.3C39.1996 138.1 38.7996 138 37.9996 137.8L37.2996 137.7C34.0996 137.1 32.2996 136.7 29.2996 134.3C29.0996 134.1 28.9996 133.7 29.1996 133.5C29.3996 133.3 29.7996 133.2 29.9996 133.4C32.6996 135.6 34.4996 135.9 37.4996 136.5L38.1996 136.6C39.2996 136.8 39.9996 137.2 40.2996 137.6C40.7996 138.4 40.2996 139.2 38.9996 139.8C37.9996 140.3 36.4996 140.8 34.7996 141.2C29.3996 142.4 21.7996 142.4 19.1996 138.5ZM25.7996 129C25.5996 128.8 25.6996 128.4 25.8996 128.2C26.0996 128 26.4996 128.1 26.6996 128.3C28.0996 130.1 30.3996 131.3 32.9996 131.9C36.4996 132.8 40.2996 132.9 42.9996 132.5C43.2996 132.5 43.5996 132.7 43.5996 133C43.5996 133.3 43.3996 133.6 43.0996 133.6C40.2996 134 36.1996 133.9 32.5996 132.9C29.8996 132.3 27.2996 131 25.7996 129ZM106.7 150.1C106.6 149.8 106.7 149.5 107 149.4C107.3 149.3 107.6 149.4 107.7 149.7C108.1 150.7 108.7 151.7 109.5 152.8C110.3 153.9 111.1 154.9 111.9 155.8C113 157.1 113.6 158.1 113.8 158.9C113.9 159.4 113.9 159.8 113.7 160.1C113.5 160.4 113.1 160.7 112.7 160.7C112.1 160.8 111.1 160.6 109.8 160.2C108.7 159.8 107.3 159.2 106.2 158.7C105.1 158.2 104.2 157.6 103.6 157.1C103.7 157.4 103.8 157.8 103.9 158.2C104.9 160.8 107.5 164.9 111.9 167C112.2 167.1 112.3 167.5 112.2 167.8C112.1 168.1 111.7 168.2 111.4 168.1C106.7 165.8 103.9 161.4 102.9 158.6C102.6 157.9 102.5 157.3 102.5 156.9C102.4 156.2 102.7 155.7 103.2 155.6C103.5 155.6 103.8 155.7 104.2 156C104.7 156.4 105.6 157 106.7 157.6C107.8 158.2 109 158.7 110.1 159.1C111.2 159.5 112 159.6 112.4 159.5C112.5 159.5 112.6 159.5 112.6 159.4C112.6 159.3 112.6 159.2 112.6 159.1C112.4 158.5 111.9 157.6 110.9 156.4C110.1 155.5 109.3 154.4 108.5 153.3C107.8 152.3 107.1 151.2 106.7 150.1ZM103.3 156.8C103.2 156.8 103.3 156.8 103.3 156.8V156.8ZM111.6 148C111.3 148.1 111 148 110.8 147.7C110.7 147.4 110.8 147.1 111.1 146.9C113.4 145.8 115.2 144.2 116.7 142.3C118.3 140.2 119.5 137.8 120.3 135.2C120.6 133.9 120.3 132.7 119.9 131.4C119.6 130.4 119.3 129.5 119.3 128.4C119.3 126.8 119.8 125.3 120.2 123.8C120.8 122 121.3 120.4 120.6 119.3C118.8 116.8 118.5 114.7 119.1 113.2C119.5 112.2 120.3 111.5 121.3 111.3C122.3 111 123.4 111.2 124.5 111.7C126.5 112.7 128.4 115.2 129 119.4C129.2 119.2 129.5 119 129.7 118.8C130.5 118.2 131.4 117.6 132.4 117.1C133.7 116.5 135.6 116 137.2 116C138.5 116 139.7 116.4 140.5 117.3C141.1 118 141.3 118.7 141.4 119.3C141.5 119.8 141.6 120.2 142 120.4C142.2 120.5 142.6 120.5 142.9 120.5C143.7 120.4 144.6 120.3 145.5 121.5C145.9 122.1 146 123 146 123.8C146 124.4 146.1 125.1 146.2 125.4C146.4 125.7 146.7 125.8 146.9 125.9C147.3 126 147.6 126.1 148 126.5C148.6 127.1 148.8 128.3 148.9 129.5C149 131.1 148.7 133 148.5 133.9C148.2 135.1 147.7 136.3 147.1 137.3C146.4 138.4 145.6 139.4 144.7 140.2C143.2 141.5 141.6 142.3 140 142.6C138.7 142.8 137.5 142.7 136.5 142.4C135.4 142 134.6 141.3 134 140.3C133.6 139.6 133.4 138.8 133.4 137.8H133.3C132.3 137.8 131.4 137.6 130.6 137C129.3 136.1 128.4 134.4 128.5 131.6C128.1 131.5 127.8 131.2 127.4 131C126.7 130.4 126.1 129.6 125.8 128.6C125 126.3 125.4 123.1 127.5 120.7C127.6 120.6 127.6 120.5 127.7 120.4C127.3 116 125.5 113.6 123.7 112.6C122.8 112.2 122 112.1 121.3 112.3C120.6 112.5 120.1 112.9 119.8 113.6C119.3 114.7 119.6 116.4 121.2 118.6C122.3 120.1 121.7 122 121 124.1C120.6 125.5 120.1 126.9 120.1 128.3C120.1 129.2 120.4 130.1 120.7 131C121.1 132.4 121.6 133.9 121.1 135.4C120.3 138.1 119.1 140.7 117.3 142.9C116 145.1 114 146.8 111.6 148ZM129.9 132C129.9 134.2 130.5 135.6 131.5 136.2C132.1 136.6 132.8 136.8 133.5 136.8C134.3 136.8 135.1 136.6 136 136.3C138.4 135.3 140.5 133.2 140.9 131C140.9 130.7 141.2 130.5 141.5 130.5C141.8 130.5 142 130.8 142 131.1C141.6 133.7 139.1 136.2 136.4 137.3C135.8 137.5 135.3 137.7 134.7 137.8C134.7 138.6 134.8 139.3 135.1 139.8C135.5 140.5 136.2 141.1 137 141.4C137.8 141.7 138.9 141.8 139.9 141.6C141.3 141.3 142.7 140.7 144.1 139.5C144.9 138.8 145.7 137.9 146.3 136.9C146.9 136 147.3 134.9 147.6 133.8C147.8 132.9 148 131.2 148 129.7C148 128.7 147.8 127.8 147.4 127.4C147.3 127.2 147 127.2 146.8 127.1C146.3 126.9 145.8 126.8 145.4 126.1C145.1 125.6 145 124.8 145 124C145 123.3 144.9 122.6 144.7 122.3C144.2 121.6 143.7 121.7 143.2 121.8C142.6 121.9 142.1 121.9 141.6 121.6C140.9 121.2 140.7 120.5 140.5 119.8C140.4 119.3 140.2 118.7 139.8 118.2C139.3 117.5 138.4 117.3 137.4 117.3C135.9 117.3 134.2 117.8 133 118.3C132.1 118.7 131.2 119.2 130.5 119.8C129.8 120.4 129.2 121 128.7 121.6C126.9 123.7 126.5 126.4 127.2 128.4C127.5 129.2 127.9 129.8 128.4 130.3C128.9 130.7 129.6 131 130.3 130.9C132.1 130.8 134.5 129.1 137.2 124.9C137.4 124.6 137.7 124.6 138 124.7C138.3 124.9 138.3 125.2 138.2 125.5C135.3 130 132.6 131.8 130.4 132C130.2 132.1 130.1 132.1 129.9 132ZM134.9 143.2C135.1 142.9 135.4 142.9 135.7 143C136 143.2 136 143.5 135.9 143.8C135.7 144.1 135.3 144.5 134.7 145C131.9 147.7 125.1 154.1 130.5 164.9C130.6 165.2 130.5 165.5 130.2 165.7C129.9 165.8 129.6 165.7 129.4 165.4C123.6 153.8 130.8 147 133.8 144.2C134.4 143.8 134.8 143.4 134.9 143.2ZM125.2 158C125.2 157.7 125.5 157.5 125.8 157.5C126.1 157.5 126.3 157.8 126.3 158.1C126 161 126.3 163.6 127 165.8C127.4 167.1 128 168.3 128.7 169.4C128.4 169.6 128 169.7 127.7 169.9C127 168.8 126.4 167.5 125.9 166.2C125.2 163.8 124.9 161.1 125.2 158ZM81.3996 125.3C80.1996 127.4 79.7996 129.3 79.8996 130.8C79.9996 132.2 80.5996 133.3 81.3996 134.2C82.1996 135.1 83.2996 135.7 84.4996 136C85.9996 136.4 87.5996 136.4 88.9996 135.8C90.0996 135.3 90.9996 134.3 91.4996 133C91.9996 131.7 92.1996 130.1 91.7996 128.4C91.4996 126.7 90.4996 125.1 89.2996 123.9C88.4996 123.1 87.5996 122.5 86.5996 122.2C85.6996 121.9 84.6996 122 83.7996 122.5C83.0996 123 82.1996 123.9 81.3996 125.3ZM78.7996 130.9C78.5996 129.2 79.0996 127.1 80.3996 124.8C81.2996 123.2 82.3996 122.2 83.4996 121.6C84.6996 121 85.9996 120.9 87.1996 121.2C88.3996 121.5 89.3996 122.2 90.3996 123.2C91.7996 124.6 92.7996 126.4 93.1996 128.3C93.5996 130.2 93.3996 132 92.7996 133.5C92.1996 135.1 90.9996 136.3 89.5996 136.9C87.9996 137.5 86.0996 137.6 84.3996 137.1C82.9996 136.7 81.6996 136 80.7996 135C79.6996 133.9 78.9996 132.5 78.7996 130.9ZM67.3996 116.9C65.0996 118.2 63.6996 119.7 62.9996 121.2C62.3996 122.4 62.2996 123.6 62.4996 124.8C62.6996 125.9 63.2996 127 64.0996 127.8C65.0996 128.8 66.3996 129.5 67.7996 129.7C69.1996 129.9 70.8996 129.9 72.4996 129.4C73.7996 129 74.9996 128.3 75.9996 127.2C77.5996 125.6 77.9996 123.7 77.5996 122C77.3996 120.9 76.8996 119.9 76.0996 119C75.3996 118.1 74.3996 117.4 73.3996 116.8C71.5996 115.9 69.3996 115.8 67.3996 116.9ZM61.9996 120.7C62.7996 119 64.3996 117.3 66.8996 115.9C69.1996 114.6 71.7996 114.8 73.9996 115.8C75.1996 116.4 76.2996 117.2 77.0996 118.3C77.8996 119.3 78.4996 120.5 78.7996 121.8C79.1996 123.8 78.6996 126.1 76.8996 128C75.6996 129.3 74.2996 130 72.8996 130.5C71.1996 131 69.2996 131.1 67.7996 130.8C66.0996 130.5 64.5996 129.7 63.3996 128.6C62.3996 127.6 61.7996 126.4 61.4996 125C61.0996 123.6 61.2996 122.1 61.9996 120.7ZM84.2996 141.8C84.5996 141.7 84.8996 141.8 84.9996 142.1C85.0996 142.4 84.9996 142.7 84.6996 142.8C83.7996 143.2 82.8996 143.4 81.9996 143.4C80.3996 143.4 78.7996 142.9 77.3996 142C75.9996 141.1 74.7996 139.9 74.1996 138.4C73.9996 137.9 73.7996 137.3 73.6996 136.8C73.2996 137 72.9996 137.2 72.4996 137.3C70.7996 137.9 68.6996 138.1 66.6996 137.7C64.5996 137.3 62.6996 136.4 61.2996 134.6C60.7996 134 60.3996 133.3 60.1996 132.5C60.0996 132.2 60.2996 131.9 60.5996 131.8C60.8996 131.7 61.1996 131.9 61.2996 132.2C61.4996 132.9 61.8996 133.5 62.2996 134C63.3996 135.5 65.1996 136.3 66.9996 136.6C68.7996 136.9 70.7996 136.8 72.2996 136.2C72.9996 136 73.4996 135.7 73.9996 135.4C74.0996 135.3 74.1996 135.3 74.3996 135.3C74.6996 135.3 74.9996 135.6 74.9996 135.9C74.9996 136.7 75.1996 137.4 75.4996 138C76.0996 139.3 77.0996 140.3 78.2996 141.1C79.4996 141.9 80.8996 142.3 82.2996 142.3C82.7996 142.3 83.5996 142.2 84.2996 141.8ZM64.5996 138.4C64.4996 138.1 64.6996 137.8 64.9996 137.7C65.2996 137.6 65.5996 137.8 65.6996 138.1C67.9996 145.7 71.3996 144.8 74.8996 143.8C76.2996 143.4 77.7996 143 79.1996 143.1C79.4996 143.1 79.6996 143.4 79.6996 143.7C79.6996 144 79.3996 144.2 79.0996 144.2C77.7996 144.1 76.4996 144.5 75.0996 144.8C71.0996 146 67.1996 147 64.5996 138.4ZM87.8996 102.8C87.5996 102.9 87.2996 102.8 87.0996 102.6C86.9996 102.3 87.0996 102 87.2996 101.8C89.9996 100.4 92.5996 98.9 93.3996 97.7C93.9996 96.8 93.2996 95.9 89.8996 95.3C88.2996 95 87.7996 94.4 87.8996 93.6C88.0996 92.6 89.5996 91.6 91.2996 90.4C92.2996 89.7001 93.2996 89 94.0996 88.3C94.6996 87.8 94.9996 87.5 94.8996 87.5C94.8996 87.4 94.3996 87.4 93.6996 87.3C92.2996 87.1001 90.1996 86.8 89.0996 86.3C88.5996 86.1001 88.2996 85.8 88.0996 85.5C87.8996 85.1 87.8996 84.6 88.3996 84.1C88.7996 83.7 89.7996 83.2 91.3996 82.7C92.5996 82.3 93.2996 82.1001 93.6996 81.8C93.9996 81.6001 94.0996 81.5 94.0996 81.3C94.0996 81 93.8996 80.6001 93.6996 80C93.0996 78.4001 92.1996 75.9001 92.1996 71.3001C92.1996 67.5001 92.5996 65.5001 93.3996 64.8001C94.3996 63.9001 95.5996 64.5 97.3996 66C98.2996 66.8 101.2 69 103.6 70.2C104.9 70.9 105.9 71.2001 106.4 70.9001C107.7 69.9001 109.3 68.9001 111.2 68C113.1 67.1 115.5 66.4001 118.2 66C119.6 65.8 119.5 62.4001 119.4 59.5C119.4 58.3 119.3 57.1 119.4 56.3C119.7 53.5 120.3 52 121.5 51.9001C122.6 51.8001 123.9 52.9001 125.8 55.2001C127 56.6001 128.1 58.4001 129.3 60C131.5 63.2001 133.5 66.3001 135.1 66.3001C135.6 66.3001 136.3 66.3 137.1 66.2C139.6 66 142.9 65.8001 143.5 66.8001C143.9 67.4001 143.6 68.1 142.2 69C141.3 69.6 139.4 71.4001 138.5 72.8001C138.3 73.2001 138.1 73.5 138.1 73.6C138.5 73.7 139.3 73.5 140.7 73C143.3 72.1 144.4 72.3 144.7 73.2C145 74.1 144.3 75.6 143.5 77.1C143.3 77.6 143 78 142.8 78.5L142.7 78.7C142.2 79.9 141.7 80.9 142.7 81.6C144 82.4 146.6 83.5 149.7 83.9C152 84.2001 154.5 84.2 156.8 83.6C157.1 83.5 157.4 83.7 157.5 84C157.6 84.3 157.4 84.6 157.1 84.7C154.6 85.4 152 85.3 149.6 85C146.4 84.5 143.5 83.4 142.1 82.5C140.2 81.3 140.9 79.8 141.6 78.2L141.7 78C141.9 77.5 142.1 77.1 142.4 76.6C143.1 75.3 143.7 74 143.5 73.5C143.4 73.2001 142.7 73.3 140.9 74C139.3 74.6 138.3 74.7 137.7 74.6C137 74.4 136.8 74 136.8 73.4001C136.8 73 137 72.5 137.3 72C138.2 70.5 140.3 68.5001 141.3 67.8001C142 67.4001 142.3 67.2 142.3 67.2C142 66.8 139.1 67 136.9 67.2C136 67.3 135.3 67.3001 134.8 67.3001C132.6 67.3001 130.4 64 128.1 60.5C127 58.8 125.8 57.1001 124.7 55.7001C123.1 53.7001 122 52.8 121.4 52.8C120.9 52.9 120.5 54 120.3 56.2001C120.2 57 120.2 58.1 120.3 59.3C120.4 62.7001 120.5 66.6 118.1 67C115.4 67.4001 113.2 68.1001 111.4 68.9001C109.5 69.7001 108 70.7 106.8 71.7C106 72.3 104.5 71.9 102.9 71.1C100.4 69.8 97.4996 67.5 96.4996 66.7C95.1996 65.6 94.3996 65.1 93.9996 65.5C93.3996 66 93.1996 67.8 93.1996 71.2C93.1996 75.6 94.0996 78 94.6996 79.5C94.9996 80.2001 95.0996 80.7 95.1996 81.2C95.1996 81.8 94.9996 82.3 94.2996 82.7C93.7996 83 92.9996 83.3 91.6996 83.7C90.2996 84.1 89.4996 84.5 89.1996 84.8H89.0996C89.1996 84.9 89.2996 85 89.5996 85.1C90.5996 85.6 92.5996 85.9 93.8996 86C94.8996 86.1 95.6996 86.3 95.8996 86.8C96.1996 87.4 95.8996 88 94.7996 89C93.9996 90 92.9996 90.7001 91.9996 91.4C90.4996 92.4 89.1996 93.4 89.0996 93.9C89.0996 94 89.3996 94.1001 90.1996 94.3C94.7996 95.1001 95.5996 96.6 94.3996 98.4C93.3996 99.8 90.7996 101.3 87.8996 102.8ZM147.4 87.1C147.1 86.9 147 86.6001 147.2 86.3C147.4 86 147.7 85.9 148 86.1C150.9 87.8 154.4 87 157.3 86.4C159.5 85.9 161.4 85.5 162.6 86.3C162.9 86.5 162.9 86.8 162.8 87.1C162.6 87.4 162.3 87.4 162 87.3C161.2 86.8 159.5 87.2 157.5 87.6C154.4 88.2 150.7 89 147.4 87.1ZM159.3 88.8C159.6 88.7001 159.9 88.9 160 89.2C160.1 89.5 159.9 89.8 159.6 89.9C158.3 90.1 155.9 90.8 154.7 91.4C154.4 91.6 154.2 91.7 154.2 91.7C154.2 91.8 154.3 91.5 154.5 91.6C155.7 91.9 158.5 92.1 164.1 91.9C167.3 91.8 169.5 92.2001 170.6 92.8C171 93 171.3 93.3 171.4 93.6C171.6 94 171.5 94.4 171.1 94.7C170.7 95.1 169.8 95.4 168.4 95.5C167.5 95.6 164.4 96.1001 162.7 96.8C162.5 96.9 162.3 97 162.1 97.1C162.4 97.2 163 97.4 163.9 97.5C164.5 97.6 165.3 97.7001 166.3 97.8C167.3 97.9 168.4 98 169.6 98.1C173.1 98.4 174.3 98.9 174.2 99.7C174.1 100.4 172.8 101 171.1 101.6C169.3 102.3 167.1 103.1 166 104.2C165.8 104.4 165.4 104.4 165.2 104.2C165 104 165 103.6 165.2 103.4C166.4 102.2 168.8 101.3 170.7 100.6C172 100.1 173.1 99.7 173.1 99.6C173.1 99.6 172.1 99.5 169.5 99.2C168.2 99.1 167.1 99 166.2 98.9C165.3 98.8 164.5 98.7 163.8 98.6C162.4 98.4 161.6 98.2001 161.2 97.9C160.6 97.5 160.6 97 161.1 96.5C161.3 96.3 161.8 96 162.3 95.8C164.1 95.1001 167.3 94.5 168.3 94.4C169.3 94.3 170 94.1 170.2 93.9C170.1 93.9 170.1 93.8 170 93.7C169.1 93.2 167.1 92.8 164.1 92.9C158.4 93.1 155.4 92.9 154.1 92.5C153.2 92.2 152.9 91.8 153 91.3C153.1 90.9 153.5 90.5 154.1 90.2C155.5 89.7 158 89.1001 159.3 88.8ZM163.9 106.2C163.6 106.1 163.4 105.8 163.5 105.5C163.6 105.2 163.9 105 164.2 105.1C166.7 105.8 170 105 172.6 104.4C173.7 104.2 174.6 104 175.4 103.9C175.8 103.8 176.2 104.1 176.2 104.4C176.2 104.6 176 104.9 175.5 105C174.8 105.1 173.8 105.3 172.7 105.6C170.1 106.1 166.7 106.9 163.9 106.2ZM108.9 97.4C108.6 97.3 108.4 97 108.5 96.7C108.6 96.4 108.9 96.2001 109.2 96.3C113.5 97.7001 115.7 96.9 116.8 95.5C117.9 94.1 118 92 118 91C118 90.7 118.2 90.4 118.6 90.4C118.8 90.4 118.9 90.5 119 90.6C119.4 91 120 91.5 120.8 91.8C122 92.4 123.6 92.7 125.1 92.5C126.6 92.4 128.1 91.8 129.4 90.6C130 90 130.6 89.2001 131 88.3C131.1 88 131.5 87.9 131.7 88C132 88.1 132.1 88.5 132 88.7C131.5 89.8 130.9 90.7001 130.2 91.4C129.7 91.9 129.2 92.3 128.6 92.6C128.6 100 127.5 102.1 125.4 102.1C124.4 102.1 123.3 101.6 122 100.9C120.4 100.1 118.4 99.2 116.3 99.2C116 99.2 115.7 98.9 115.7 98.6C115.7 98.3 116 98 116.3 98C118.7 98 120.8 99 122.5 99.9C123.7 100.5 124.7 100.9 125.4 100.9C126.7 100.9 127.4 99.2 127.4 93.1C126.7 93.4 125.9 93.5 125.1 93.6C123.4 93.8 121.6 93.4 120.2 92.8C119.8 92.6001 119.4 92.4 119 92.2C118.9 93.4 118.6 95 117.6 96.3C116.4 98 113.8 99 108.9 97.4ZM120.5 87.6C122.3 88.2 124.4 88.3 126.1 87.7C127.5 87.2 128.8 86.1001 129.5 84.3C129.7 83.7001 129.9 83 129.9 82.3C130 80.8 129.6 79.1 128.8 77.7C128 76.3 126.8 75.1 125.1 74.5C124.4 74.2001 123.7 74.1 122.9 74C120.2 73.8 118.3 74.6001 117.3 75.9001C116.6 76.7001 116.2 77.7001 116.1 78.8001C115.9 79.9001 116 81.1001 116.4 82.3C117 84.7001 118.5 86.9 120.5 87.6ZM126.5 88.7C124.5 89.5 122.1 89.3 120.1 88.6C117.8 87.8 115.9 85.3 115.2 82.5C114.9 81.2 114.7 79.9 114.9 78.6C115.1 77.3 115.6 76.1 116.4 75.1C117.7 73.6 119.8 72.6001 123 72.8001C123.9 72.9001 124.8 73.0001 125.6 73.3001C127.5 74.0001 128.9 75.4001 129.8 77C130.7 78.6 131.1 80.5 131 82.2C131 83 130.8 83.8 130.5 84.5C129.7 86.8 128.3 88.1 126.5 88.7ZM106.3 80.6C105.2 81.3 104.3 83.5 103.9 85.7C103.8 86.6 103.7 87.6 103.8 88.4C103.9 89.2001 104.2 90 104.6 90.6C105.1 91.3 105.8 91.8 106.8 91.9C106.9 91.9 107.1 91.9 107.2 92C109.1 92.3 110.9 92.2 112.2 91.6C113.5 91 114.3 89.9 114.6 88.1V87.9C114.8 86 114.2 83.9 113.1 82.2C112.6 81.5 112.1 80.9 111.5 80.5C110.9 80.1 110.2 79.8 109.5 79.7C108.6 79.5 107.5 79.8 106.3 80.6ZM102.8 85.6C103.2 83.1 104.4 80.6 105.7 79.7C107.1 78.7 108.5 78.4 109.8 78.6C110.7 78.7 111.5 79.1 112.3 79.6C113 80.1 113.7 80.8 114.2 81.6C115.5 83.5 116.2 86 115.9 88.1V88.3C115.6 90.5 114.4 91.9 112.8 92.7C111.3 93.4 109.3 93.5 107.1 93.2C107 93.2 106.8 93.2 106.6 93.1C105.2 92.9 104.3 92.2001 103.6 91.3C103.1 90.5 102.8 89.6 102.6 88.6C102.6 87.6 102.7 86.6 102.8 85.6ZM33.2996 87.3C33.3996 87.6001 33.1996 87.9 32.8996 88C32.5996 88.1 32.2996 87.9 32.1996 87.6C31.2996 83 28.6996 78 25.1996 74.2C21.9996 70.8 18.0996 68.3001 13.7996 67.8001C12.4996 67.7001 11.5996 67.3001 10.8996 66.9001C10.1996 66.4001 9.69958 65.8 9.49958 65C9.09958 63.9001 9.19958 62.6 9.89958 61.3C10.3996 60.4 11.0996 59.5 12.0996 58.9001C11.4996 58.2001 11.1996 57.1 11.0996 56.1C10.9996 55 11.2996 53.8 12.0996 53C12.1996 52.9001 12.3996 52.7 12.4996 52.6C12.5996 52.5 12.7996 52.4 12.8996 52.3C13.7996 51.7001 14.8996 51.3001 16.0996 51.4001C17.0996 51.4001 18.0996 51.8 18.9996 52.6C19.1996 51.8 19.6996 51.1 20.1996 50.6C20.7996 50 21.5996 49.5 22.4996 49.3C23.3996 49.1 24.2996 49 25.0996 49.3C26.0996 49.6 27.0996 50.3001 27.6996 51.4001C28.6996 53.1001 28.5996 54.4 28.4996 55.8C28.3996 57.2001 28.2996 58.7001 29.5996 61C30.5996 62.8 33.0996 66.1 36.0996 68.5C38.0996 70.1 40.3996 71.3001 42.5996 71.4001C42.8996 71.4001 43.1996 71.7001 43.0996 72C43.0996 72.3 42.7996 72.6 42.4996 72.5C39.9996 72.4001 37.4996 71.1001 35.2996 69.4001C32.0996 66.9001 29.4996 63.4 28.4996 61.6C26.9996 59 27.0996 57.3 27.2996 55.7001C27.3996 54.5 27.4996 53.4001 26.6996 52C26.1996 51.1 25.4996 50.6001 24.6996 50.4001C24.0996 50.2001 23.3996 50.2001 22.6996 50.4001C21.9996 50.6001 21.3996 51 20.8996 51.4001C20.2996 52 19.7996 52.9001 19.7996 53.9001C19.7996 54.1001 19.6996 54.3001 19.5996 54.4001C19.2996 54.6001 18.9996 54.5 18.7996 54.3C18.6996 54.2001 18.5996 54 18.4996 53.9001C17.7996 53 16.7996 52.6 15.9996 52.6C15.0996 52.6 14.1996 52.9 13.4996 53.3C13.3996 53.4 13.2996 53.4001 13.1996 53.5C13.0996 53.6 12.9996 53.7001 12.8996 53.8C12.3996 54.4 12.1996 55.3 12.1996 56.1C12.1996 57 12.4996 57.8001 12.9996 58.4001C13.0996 58.5 13.1996 58.6001 13.2996 58.7001C13.3996 58.7001 13.3996 58.8001 13.3996 58.9001C13.4996 59.2001 13.3996 59.5 13.1996 59.7001C12.0996 60.3 11.2996 61.1 10.7996 62C10.2996 63 10.1996 64.0001 10.4996 64.8001C10.6996 65.3001 10.9996 65.7 11.4996 66.1C12.0996 66.5 12.7996 66.7001 13.8996 66.8001C18.3996 67.3001 22.5996 70 25.9996 73.5C29.6996 77.3 32.3996 82.4 33.2996 87.3ZM24.0996 59.8C24.1996 60.1 23.9996 60.4001 23.6996 60.5C23.3996 60.6 23.0996 60.4 22.9996 60.1C22.8996 59.7 22.6996 59.4 22.3996 59.1C22.2996 59 22.2996 59 22.1996 58.9001C21.9996 58.8001 21.7996 58.7 21.5996 58.6C21.3996 58.6 21.1996 58.5 20.9996 58.5H20.8996H20.7996H20.6996H20.5996H20.4996H20.3996H20.2996C20.1996 58.5 20.1996 58.5 20.0996 58.6L19.9996 58.7001V58.8V58.9001C19.9996 59 19.9996 59 19.8996 59.1C19.8996 59.3 19.8996 59.5 19.9996 59.7001C20.2996 60.1001 20.6996 60.3 21.1996 60.5H21.2996C21.5996 60.6 21.7996 60.9001 21.6996 61.2001C21.5996 61.5 21.2996 61.7 20.9996 61.6L19.9996 64C19.4996 63.9001 19.0996 63.7001 18.7996 63.4001C18.6996 63.8001 18.7996 64.2001 18.9996 64.5C19.1996 64.8 19.4996 65.1 19.8996 65.2C20.2996 65.3 20.6996 65.2001 20.9996 65C21.2996 64.8 21.5996 64.5 21.6996 64.1C21.6996 64 21.6996 63.8 21.6996 63.7001C21.6996 63.6001 21.6996 63.4 21.5996 63.3C21.4996 63 21.5996 62.8 21.8996 62.6C22.0996 62.5 22.3996 62.3 22.4996 62.1C22.6996 61.9 22.7996 61.7001 22.8996 61.4001C22.9996 61.1001 23.2996 61 23.5996 61.1C23.5996 61.1 23.5996 61.1 23.6996 61.1C24.0996 61.2 24.4996 61.1001 24.7996 60.9001C25.0996 60.7001 25.2996 60.4001 25.4996 60C25.5996 59.6 25.4996 59.2001 25.2996 58.9001C25.0996 58.6001 24.7996 58.3 24.3996 58.2001C24.0996 58.1001 23.8996 58.1001 23.5996 58.2001C23.4996 58.2001 23.4996 58.2001 23.3996 58.3C23.6996 58.9 23.9996 59.4 24.0996 59.8ZM17.9996 62.5C17.8996 62.3 17.7996 62.1001 17.6996 61.9001C17.5996 61.5 17.4996 61.1 17.4996 60.6V60.5V60.4001V60.3V60.2001V60.1V60V59.9001V59.8C17.4996 59.8 17.4996 59.7001 17.5996 59.7001V59.6V59.5H17.6996H17.7996H17.8996C17.9996 59.5 17.9996 59.5 18.0996 59.5H18.1996H18.2996H18.3996C18.4996 59.5 18.4996 59.5 18.5996 59.5C18.6996 59.5 18.6996 59.5 18.7996 59.5C19.0996 59.5 19.3996 59.5 19.5996 59.6H19.6996C19.9996 59.7 20.1996 59.8001 20.4996 59.9001C20.6996 59.7001 20.9996 59.6 21.2996 59.5C21.6996 59.4001 22.1996 59.4001 22.6996 59.5C23.3996 59.7001 23.8996 60.1001 24.2996 60.7001C24.5996 61.3 24.7996 62 24.5996 62.6C24.3996 63.3 23.9996 63.8 23.3996 64.2C22.8996 64.5 22.3996 64.6 21.7996 64.6C21.6996 64.8 21.4996 65 21.3996 65.2C21.1996 65.4 20.9996 65.6 20.7996 65.7C20.7996 65.8 20.7996 65.9001 20.7996 65.9001C20.7996 66.1001 20.7996 66.4 20.6996 66.6C20.4996 67.3 20.0996 67.8 19.4996 68.2C18.8996 68.5 18.1996 68.7001 17.5996 68.5C16.8996 68.3 16.3996 67.9001 15.9996 67.3001C15.6996 66.7001 15.4996 66 15.6996 65.4001C15.6996 65.2001 15.7996 65.0001 15.8996 64.8001C17.8996 62.6001 17.8996 62.6 17.9996 62.5ZM23.8996 51.9001C23.4996 51.8001 23.1996 51.9001 22.8996 52C22.5996 52.2001 22.3996 52.4 22.2996 52.8C22.1996 53.1 22.2996 53.5 22.3996 53.8C22.5996 54.1 22.7996 54.3001 23.1996 54.4001C23.4996 54.5 23.8996 54.4 24.1996 54.3C24.4996 54.1 24.6996 53.9001 24.7996 53.5C24.8996 53.2001 24.7996 52.8 24.6996 52.5C24.4996 52.2001 24.1996 52 23.8996 51.9001ZM22.2996 51.1C22.7996 50.8 23.4996 50.7001 24.0996 50.8C24.7996 51 25.2996 51.4001 25.5996 51.9001C25.8996 52.4001 25.9996 53.1001 25.8996 53.7001C25.6996 54.3 25.2996 54.9001 24.7996 55.2001C24.2996 55.5 23.5996 55.6 22.9996 55.5C22.2996 55.3 21.7996 54.9001 21.4996 54.4001C21.1996 53.9001 21.0996 53.2 21.1996 52.6C21.3996 51.9 21.7996 51.4 22.2996 51.1ZM15.6996 54.5C15.3996 54.4001 14.9996 54.5 14.6996 54.6C14.3996 54.8 14.1996 55 14.0996 55.4001C13.9996 55.7001 14.0996 56.1001 14.1996 56.4001C14.3996 56.7001 14.5996 56.9001 14.9996 57C15.2996 57.1 15.6996 57 15.9996 56.9001C16.2996 56.7001 16.4996 56.5 16.5996 56.1C16.6996 55.8 16.5996 55.4 16.4996 55.1C16.2996 54.8 16.0996 54.5 15.6996 54.5ZM14.0996 53.6C14.5996 53.3 15.2996 53.2001 15.8996 53.3C16.4996 53.5 17.0996 53.9001 17.3996 54.4001C17.6996 54.9001 17.7996 55.6001 17.6996 56.2001C17.4996 56.8 17.0996 57.4001 16.5996 57.7001C16.0996 58 15.3996 58.1 14.7996 58C14.0996 57.8 13.5996 57.4001 13.2996 56.9001C12.9996 56.4001 12.8996 55.7 12.9996 55.1C13.1996 54.5 13.5996 53.9 14.0996 53.6ZM13.6996 62.2001C13.3996 62.1001 12.9996 62.2001 12.6996 62.3C12.3996 62.5 12.1996 62.7 12.0996 63.1C11.9996 63.4 12.0996 63.8 12.1996 64.1C12.3996 64.4 12.5996 64.6 12.9996 64.7C13.2996 64.8 13.6996 64.7 13.9996 64.6C14.2996 64.4 14.4996 64.2001 14.5996 63.8C14.6996 63.5 14.5996 63.1 14.4996 62.8C14.2996 62.5 13.9996 62.3 13.6996 62.2001ZM12.0996 61.4001C12.5996 61.1001 13.2996 61 13.8996 61.1C14.5996 61.3 15.0996 61.7001 15.3996 62.2001C15.6996 62.7001 15.7996 63.4001 15.6996 64C15.4996 64.7001 15.0996 65.2001 14.5996 65.5C14.0996 65.8 13.3996 65.9001 12.7996 65.8001C12.0996 65.6001 11.5996 65.2 11.2996 64.7C10.9996 64.2 10.8996 63.5 10.9996 62.9001C11.1996 62.2001 11.5996 61.7001 12.0996 61.4001ZM27.8996 85.5C27.6996 85.3 27.6996 84.9 27.8996 84.7C28.0996 84.5 28.4996 84.5 28.6996 84.7C31.4996 87.6 33.0996 90.3 32.8996 92.8C32.7996 95.3 30.9996 97.5 27.1996 99.3C25.3996 100.1 24.3996 100.8 24.0996 101.2C23.9996 101.3 23.9996 101.2 23.9996 101.3C23.9996 101.3 24.0996 101.4 24.2996 101.4C25.0996 101.6 26.6996 101.6 28.5996 101.5C29.6996 101.4 30.3996 101.4 30.7996 101.6C31.4996 101.9 31.5996 102.4 31.1996 103C30.9996 103.3 30.5996 103.6 30.0996 104C28.3996 105.1 25.2996 106.6 24.5996 106.8C23.1996 107.3 21.4996 107.8 19.6996 108.2C18.2996 108.5 16.7996 108.7 15.2996 108.7C14.9996 108.7 14.6996 108.4 14.6996 108.1C14.6996 107.8 14.9996 107.5 15.2996 107.5C16.6996 107.5 18.0996 107.3 19.4996 107C21.1996 106.7 22.7996 106.2 24.1996 105.7C24.7996 105.5 27.7996 104.1 29.3996 103C29.5996 102.9 29.7996 102.7 29.8996 102.6C29.5996 102.6 29.1996 102.6 28.5996 102.7C26.5996 102.9 24.8996 102.9 23.8996 102.6C23.3996 102.5 23.0996 102.2 22.8996 101.9C22.6996 101.5 22.7996 101.1 23.0996 100.6C23.5996 100 24.6996 99.3 26.5996 98.4C29.9996 96.8 31.5996 94.9 31.6996 92.9C31.9996 90.5 30.5996 88.1 27.8996 85.5ZM13.1996 114.2C12.8996 114.1 12.7996 113.8 12.8996 113.5C12.9996 113.2 13.2996 113.1 13.5996 113.2C14.7996 113.6 16.1996 114 17.8996 114.2C19.4996 114.4 21.3996 114.3 23.4996 113.9C24.9996 113.6 25.9996 113.6 26.5996 113.7C27.0996 113.8 27.3996 114.1 27.4996 114.5C27.5996 114.8 27.4996 115.2 27.2996 115.6C26.8996 116.3 26.0996 117.1 24.9996 117.9C23.2996 119.2 21.4996 120.2 19.6996 120.8C17.8996 121.5 16.0996 121.8 14.3996 121.7C14.0996 121.7 13.7996 121.4 13.8996 121.1C13.8996 120.8 14.1996 120.5 14.4996 120.6C15.9996 120.6 17.6996 120.3 19.3996 119.7C21.0996 119.1 22.7996 118.1 24.3996 116.9C25.2996 116.2 26.0996 115.5 26.3996 115C26.4996 114.9 26.4996 114.8 26.4996 114.8C26.4996 114.8 26.4996 114.8 26.3996 114.8C25.9996 114.7 25.1996 114.7 23.8996 115C21.5996 115.5 19.6996 115.5 17.9996 115.3C15.8996 115.1 14.3996 114.7 13.1996 114.2ZM44.6996 69.5C44.9996 69.6 45.1996 69.9 45.0996 70.2C44.9996 70.5 44.6996 70.7 44.3996 70.6C42.6996 70.2 41.4996 69.8001 40.4996 69.4001C39.4996 69 38.6996 68.6001 37.6996 67.9001C36.7996 67.4001 36.2996 66.9001 36.0996 66.4001C35.8996 66 35.8996 65.7001 35.9996 65.4001C36.0996 65.1001 36.3996 64.9 36.6996 64.7C37.1996 64.4 38.0996 64.3001 39.1996 64.3001C40.8996 64.4001 43.1996 64.3 45.2996 63.8C46.7996 63.4 48.1996 62.9001 49.2996 61.9001C49.4996 61.7001 49.8996 61.7001 50.0996 62C50.2996 62.3 50.2996 62.6 49.9996 62.8C48.7996 63.8 47.1996 64.5 45.4996 64.9001C43.2996 65.4001 40.8996 65.5 39.0996 65.5C38.1996 65.5 37.4996 65.6 37.1996 65.7C37.0996 65.7 37.0996 65.8001 36.9996 65.8001C36.9996 65.8001 36.9996 65.8001 36.9996 65.9001C37.0996 66.2001 37.4996 66.5 38.1996 67C39.0996 67.6 39.8996 68 40.7996 68.4001C41.8996 68.8001 42.9996 69.1 44.6996 69.5ZM37.7996 62.4001C37.4996 62.4001 37.2996 62.1 37.2996 61.8C37.2996 61.5 37.5996 61.3 37.8996 61.3C39.5996 61.5 42.1996 61.6 44.5996 61.3C46.1996 61.1 47.5996 60.7 48.4996 60.1C48.8996 59.8 49.1996 59.5 49.2996 59.2001C49.2996 59.1001 49.2996 59.1 49.2996 59C49.1996 58.9001 49.0996 58.8 48.7996 58.7001C47.8996 58.4001 46.1996 58.3 43.2996 58.7001C41.8996 58.9001 41.0996 58.7001 40.5996 58.5C40.1996 58.3 39.9996 57.9001 39.9996 57.5C39.9996 57.2001 40.0996 56.9 40.3996 56.6C40.8996 55.9 42.0996 55.2001 43.2996 54.8C44.1996 54.5 45.1996 54.2001 46.0996 53.8C46.8996 53.4 47.5996 53 47.9996 52.5C48.1996 52.2001 48.4996 52.2001 48.7996 52.3C49.0996 52.5 49.0996 52.8 48.9996 53.1C48.4996 53.8 47.6996 54.4 46.6996 54.8C45.7996 55.2001 44.6996 55.6001 43.7996 55.9001C42.7996 56.2001 41.8996 56.8 41.4996 57.3C41.3996 57.4 41.3996 57.5 41.3996 57.5C41.6996 57.7001 42.2996 57.7 43.2996 57.6C46.2996 57.2 48.1996 57.4001 49.2996 57.7001C49.7996 57.9001 50.1996 58.2001 50.3996 58.5C50.5996 58.9001 50.5996 59.3 50.4996 59.7001C50.2996 60.2001 49.8996 60.6 49.2996 61.1C48.1996 61.9 46.5996 62.3 44.7996 62.5C42.2996 62.7001 39.4996 62.5 37.7996 62.4001ZM43.7996 52.2001C43.4996 52.1001 43.2996 51.8 43.3996 51.5C43.4996 51.2001 43.7996 51 44.0996 51.1C47.2996 51.8 48.4996 49.6 49.1996 48.1C49.2996 47.9 49.3996 47.7 49.4996 47.5L49.6996 47.1C54.1996 39.3 60.7996 28 66.0996 24.3C68.2996 22.7 69.3996 22.6 69.8996 23.4C70.2996 23.9 70.2996 24.8 70.1996 26C70.1996 26.2 70.1996 26.4 70.1996 26.6C70.1996 28.2 70.2996 30.3 70.6996 32.2C70.8996 33.5 71.2996 34.7 71.6996 35.6C72.0996 36.3 72.4996 36.8 72.8996 36.8H72.9996C75.1996 36.4 77.3996 36.2 79.2996 36.3C81.3996 36.4 83.1996 36.7 84.7996 37.3C85.0996 37.4 85.1996 37.7 85.0996 38C84.9996 38.3 84.6996 38.4 84.3996 38.3C82.8996 37.8 81.1996 37.5 79.2996 37.4C77.3996 37.3 75.3996 37.5 73.1996 37.9C73.0996 37.9 72.9996 37.9 72.7996 37.9C71.8996 37.9 71.1996 37.2 70.5996 36.1C70.0996 35.1 69.7996 33.8001 69.4996 32.4001C69.0996 30.4001 68.9996 28.3 68.9996 26.6C68.9996 26.4 68.9996 26.2 68.9996 26C68.9996 25.1 68.9996 24.3 68.8996 24.1C68.7996 23.9 68.1996 24.2 66.5996 25.3C61.6996 28.8 55.1996 40 50.6996 47.7L50.4996 48.1C50.3996 48.3 50.2996 48.5 50.1996 48.6C49.2996 50.3 47.7996 53.1001 43.7996 52.2001ZM84.5996 36.3C84.3996 36.6 84.0996 36.6 83.7996 36.4C83.4996 36.2 83.4996 35.9 83.6996 35.6C84.4996 34.4 85.0996 33.1 85.4996 31.9C85.8996 30.6 86.1996 29.4 86.2996 28.2C86.6996 25.8 87.2996 24.7 88.4996 24.9C89.3996 25.1 90.5996 26.4 92.1996 29C94.8996 33.4 95.2996 36.2 95.6996 39.5C95.7996 40.6 95.9996 41.7 96.1996 42.9C96.2996 43.6 96.3996 44.3 96.4996 44.9C97.1996 49.4 97.7996 52.7001 102.9 53.8C103.2 53.9 103.4 54.2001 103.3 54.5C103.2 54.8 102.9 55 102.6 54.9001C96.6996 53.6001 96.0996 50 95.2996 45.1C95.1996 44.4 95.0996 43.8 94.9996 43.1C94.7996 41.8 94.5996 40.7 94.4996 39.7C94.0996 36.5 93.7996 33.8 91.1996 29.6C89.7996 27.3 88.7996 26.1 88.2996 26C87.9996 25.9 87.6996 26.8 87.3996 28.4C87.1996 29.5 86.9996 30.9 86.4996 32.2C86.0996 33.6 85.4996 35 84.5996 36.3ZM96.6996 53.7001C96.4996 53.5 96.4996 53.1001 96.7996 52.9001C96.9996 52.7001 97.3996 52.7001 97.5996 53C98.4996 54.2001 99.6996 55.2001 100.8 56C102 56.9001 103.2 57.5 104.2 58.1C105.3 58.7 106.2 59.3 106.6 59.8C106.9 60.2001 107 60.5 106.9 60.9001C106.8 61.2001 106.5 61.4001 106 61.5C105.2 61.7001 103.7 61.6 101.2 61.3C99.8996 61 98.9996 60.9001 98.7996 61C98.7996 61 99.2996 61.4001 100.6 62.5C101.7 63.4001 103.1 64.4001 104.6 65.3001C106.1 66.1001 107.7 66.7 109.2 66.6C109.5 66.6 109.8 66.8 109.8 67.1C109.8 67.4 109.6 67.7 109.3 67.7C107.5 67.8 105.7 67.2001 104.1 66.3001C102.5 65.4001 101.1 64.3001 99.8996 63.4001C97.7996 61.7001 97.3996 60.7001 98.0996 60.2001C98.5996 59.8 99.8996 59.9 101.3 60.1C103.6 60.4 105 60.5 105.7 60.4001C105.4 60.1001 104.7 59.6 103.7 59.1C102.7 58.5 101.4 57.8001 100.2 56.9001C98.8996 56 97.6996 54.9001 96.6996 53.7001ZM105.8 60.4001C105.8 60.3001 105.8 60.3001 105.8 60.4001V60.4001ZM83.9996 60.3C84.9996 60.3 85.8996 60.1 86.6996 59.8C87.6996 59.4 88.5996 58.8 89.0996 58.1C89.5996 57.3 89.8996 56.4001 89.8996 55.2001C89.8996 54.4001 89.6996 53.6001 89.3996 52.7001C88.7996 51 87.3996 49.6 85.8996 48.6C84.1996 47.5 82.1996 46.9 80.5996 47.1C78.8996 47.3 77.6996 48.8 77.1996 50.8C76.9996 51.7001 76.8996 52.7001 76.9996 53.7001C77.0996 54.7001 77.2996 55.7 77.6996 56.6C78.5996 58.8 80.6996 60.5 83.9996 60.3ZM87.0996 60.9001C86.1996 61.2001 85.1996 61.4001 83.9996 61.5C80.1996 61.7001 77.7996 59.7 76.5996 57.1C76.0996 56.1 75.7996 54.9 75.7996 53.8C75.6996 52.7001 75.7996 51.5 76.0996 50.5C76.6996 48.1 78.1996 46.2 80.4996 46C82.2996 45.8 84.5996 46.5 86.4996 47.7C88.2996 48.8 89.7996 50.4001 90.4996 52.4001C90.8996 53.4001 91.0996 54.4 91.0996 55.3C91.1996 56.7001 90.7996 57.9001 90.0996 58.9001C89.2996 59.7001 88.2996 60.4001 87.0996 60.9001ZM61.6996 49.2001C60.5996 50.6001 59.9996 52.3 59.8996 54C59.8996 54.9001 59.9996 55.7001 60.2996 56.5C60.5996 57.3 61.0996 58 61.8996 58.6C62.9996 59.5 64.6996 60.1001 66.8996 60.2001C68.9996 60.3 70.4996 59.7001 71.4996 58.7001C72.0996 58.1001 72.4996 57.4001 72.7996 56.7001C73.0996 55.9001 73.2996 55.1001 73.2996 54.2001C73.3996 51.8 72.5996 49.4 71.1996 48C71.0996 47.9 70.8996 47.8 70.7996 47.7C69.5996 46.8 67.9996 46.6 66.3996 46.9C64.7996 47.2 63.1996 48 62.1996 49C61.8996 48.9001 61.7996 49 61.6996 49.2001ZM58.6996 53.9001C58.7996 52 59.4996 50 60.6996 48.5C60.8996 48.3 60.9996 48.1 61.1996 47.9C62.3996 46.7 64.1996 45.8 65.9996 45.5C67.8996 45.2 69.8996 45.4 71.2996 46.6C71.4996 46.7 71.5996 46.9 71.7996 47C73.3996 48.6 74.2996 51.4 74.1996 54.1C74.1996 55.1 73.9996 56.1 73.5996 57C73.2996 57.9001 72.6996 58.7001 71.9996 59.4001C70.7996 60.6001 68.9996 61.4 66.5996 61.3C64.0996 61.2001 62.1996 60.5 60.8996 59.5C59.9996 58.8 59.3996 57.9001 58.9996 57C58.7996 56 58.6996 55 58.6996 53.9001ZM85.5996 65.1C85.8996 64.9 86.1996 65.0001 86.3996 65.3001C86.5996 65.6001 86.4996 65.9 86.1996 66.1H85.9996C82.9996 67.8 80.4996 67.4001 78.5996 66.4001C77.0996 65.6001 75.9996 64.4001 75.2996 63.4001C74.3996 64.5 72.7996 65.5 71.0996 65.9001C70.2996 66.1001 69.3996 66.2 68.4996 66.1C69.1996 67.4 69.9996 68.7001 70.9996 69.8001C72.0996 71.1001 73.2996 72.2 74.6996 72.6C76.7996 73.3 78.0996 71.8 79.4996 70.2C80.2996 69.3 81.1996 68.3 82.2996 67.6C82.5996 67.4 82.8996 67.5 83.0996 67.7C83.2996 68 83.1996 68.3 82.9996 68.5C81.9996 69.2001 81.1996 70.1 80.3996 71C78.6996 72.9001 77.1996 74.6 74.3996 73.7C72.6996 73.2 71.2996 72 70.0996 70.5C68.8996 69.1 67.8996 67.4001 67.0996 65.9001C66.2996 65.7001 65.4996 65.3 64.5996 64.7C64.2996 64.5 64.0996 64.3 63.7996 64.1C63.5996 63.9 63.4996 63.5 63.6996 63.3C63.8996 63.1 64.2996 63 64.4996 63.2001C64.6996 63.4001 64.9996 63.5 65.1996 63.7001C67.1996 65 69.1996 65.2001 70.8996 64.8001C72.5996 64.4001 73.9996 63.4001 74.7996 62.4001C74.8996 62.3001 74.9996 62.2 74.9996 62.1C74.9996 62 75.0996 62 75.1996 61.9001C75.4996 61.7001 75.7996 61.8 75.9996 62.1V62.2001C76.4996 63 77.5996 64.5 79.1996 65.4001C80.7996 66.3001 82.8996 66.5 85.4996 65.1H85.5996ZM140.8 65C140.5 65.1 140.2 64.9 140.1 64.7C140 64.4 140.2 64.1 140.4 64C142 63.4001 142.8 61 143.7 58.4001C145 54.4001 146.5 49.9001 151.7 49.7001C153.4 49.6001 154.7 50 155.5 50.7001C156 51.1001 156.4 51.7001 156.5 52.2001C156.6 52.8 156.6 53.4001 156.3 54C155.9 55 154.9 56.1001 153.3 56.9001C153 57 152.7 56.9001 152.5 56.7001C152.4 56.4001 152.5 56.1001 152.7 55.9001C154 55.2001 154.9 54.4001 155.2 53.5C155.4 53.1 155.4 52.7001 155.3 52.3C155.2 52 155 51.6001 154.7 51.4001C154.1 50.9001 153.1 50.6001 151.7 50.7001C147.4 50.9001 146 54.9 144.8 58.6C143.8 61.6 142.9 64.3 140.8 65ZM150.8 57.4001C151.1 57.3001 151.4 57.4001 151.6 57.7001C151.7 58 151.6 58.3 151.3 58.5C149.6 59.3 148.7 60.3 148.3 61.2001C148.1 61.7001 148.1 62.1 148.2 62.5C148.3 62.9001 148.5 63.2001 148.8 63.5C149.2 63.9001 149.9 64.2 150.6 64.2C150.7 64.2 150.7 64.2 150.8 64.2C152 63 153.9 61.8 156.4 61.1C156.7 61 157 61.2001 157.1 61.5C157.2 61.8 157 62.1001 156.7 62.2001C153.8 63 151.9 64.4001 151 65.8001C150.6 66.4001 150.4 66.9001 150.5 67.4001C150.5 67.9001 150.7 68.3 151 68.7C151.6 69.4 152.9 69.9001 154.7 70C154.8 70 154.8 70 154.9 70C155.7 68.9001 157.4 68 159.9 68C160.2 68 160.5 68.3 160.5 68.6C160.5 68.9 160.2 69.2 159.9 69.2C157.6 69.2 156.2 70 155.6 71C155.2 71.6 155.2 72.3001 155.5 72.9001C155.8 73.5 156.3 74 157.1 74.1C158.6 74.4 160.9 73.8 163.8 71.1C164.2 70.7 164.7 70.1 165 69.5C165.2 69.1 165.3 68.6001 165.2 68.3001C165 67.3001 164.7 67.2 164.5 67.1C164 66.9 163.6 66.7001 163.3 65.5C163.2 64.9001 163.4 64.3 163.7 63.7001C164 63.1001 164.3 62.4001 163.6 61.7001C163.2 61.3 162.7 61.3 162.3 61.2001C161.4 61.1001 160.7 61 160.4 59.7001C160.3 59.3 160.2 58.9001 160.2 58.5C160.1 57.9001 160 57.4001 159.8 56.9001C159.2 55.8001 157.4 56.2001 156.3 56.4001C156.2 56.4001 156 56.5 155.9 56.5C155.6 56.6 155.3 56.4001 155.2 56C155.1 55.7001 155.3 55.4 155.7 55.3C155.8 55.3 155.9 55.3 156 55.2001C157.3 54.9001 159.6 54.4001 160.7 56.2001C161.1 56.8 161.2 57.5 161.3 58.2001C161.3 58.5 161.4 58.9001 161.5 59.2001C161.6 59.8 162 59.8001 162.5 59.9001C163.1 60 163.8 60 164.5 60.7001C165.8 61.9001 165.3 63 164.9 64C164.7 64.4001 164.5 64.8 164.6 65C164.8 65.7001 164.9 65.7001 165.1 65.8001C165.6 66.0001 166.1 66.2001 166.5 67.8001C166.7 68.5001 166.5 69.1001 166.2 69.8001C165.9 70.4001 165.4 71 165 71.5C165.1 71.5 165.3 71.6 165.4 71.7C166.9 73.7 171.4 81.5 173.3 86.1C173.8 87.4 174.1 88.4 174.2 89.1C174.3 90.3 173.8 90.8 172.6 90.3C171.8 89.9 170.4 88.7001 168.2 86.4C166.2 84.3 164.4 82.1 163 80.2C161.1 77.7 159.7 75.7001 159.4 74.9001C158.5 75.1001 157.8 75.1001 157.1 74.9001C155.9 74.6001 155.1 73.9001 154.7 73C154.4 72.3 154.4 71.5001 154.6 70.8001C152.6 70.6001 151.2 70 150.4 69.1C149.8 68.5 149.6 67.8 149.6 67C149.6 66.3 149.8 65.6001 150.2 64.9001C149.4 64.8001 148.7 64.4001 148.2 64C147.8 63.6 147.4 63 147.3 62.4001C147.2 61.8001 147.2 61.1001 147.5 60.4001C147.7 59.6001 148.8 58.4001 150.8 57.4001ZM164.1 72.4001C162.6 73.7001 161.3 74.5 160.1 74.9001C160.5 75.6001 161.7 77.5001 163.5 79.8001C164.9 81.7001 166.7 83.8 168.7 85.9C170.8 88.1 172 89.2 172.7 89.5C172.7 89.5 172.7 89.5 172.7 89.4C172.7 88.8 172.4 87.9 171.9 86.7C170 82.1 165.6 74.5 164.2 72.5C164.1 72.6 164.1 72.5 164.1 72.4001ZM155.1 75.5C155.4 75.3 155.7 75.4 155.9 75.7C156.1 76 156 76.3 155.7 76.5C155.6 76.6 155.4 76.7001 155.1 76.8001C153.8 77.4001 150.5 78.7 149.8 82.9C149.7 83.2001 149.5 83.4 149.1 83.4C148.8 83.3 148.6 83.1 148.6 82.7C149.5 77.9 153.1 76.3 154.6 75.7C154.9 75.6 155.1 75.5 155.1 75.5ZM151.2 48.8C151.4 49.1 151.3 49.4 151.1 49.6C150.8 49.8 150.5 49.7001 150.3 49.5C150.1 49.2001 149.9 48.9 149.7 48.6C147.5 45.5 142.5 38.4 139 36C137.8 35.2 137.4 34.9 137.4 34.9C137.3 35 137.8 36 138.3 37C138.4 37.2 138.5 37.4 138.6 37.6C139.6 39.9 141.1 43.1 142.6 45.9C144 48.7001 145.3 51 145.9 51.7001C146.1 51.9001 146.1 52.3 145.9 52.5C145.7 52.7001 145.3 52.7001 145.1 52.5C144.4 51.8 143 49.3 141.6 46.4C140.2 43.6 138.7 40.4 137.6 38C137.5 37.9 137.4 37.6 137.3 37.4C136.7 36.1 136.1 34.8 136.5 34.2C136.9 33.6 137.8 33.8 139.7 35.1C143.3 37.7 148.4 44.9 150.7 48C150.8 48.3 151 48.6 151.2 48.8ZM139.1 33.1C139.1 33.4 138.8 33.6 138.5 33.6C138.2 33.6 138 33.3 138 33C138 32.7 138.1 32.3 138.1 32C138.3 27.8 136.6 24.5 133.9 22.1C131.2 19.7 127.6 18.3 123.9 17.9C123.4 17.9 123 17.8 122.5 17.8C120 17.7 119.2 17.6 119.1 17.6C119.1 17.7 119.9 17.9 120.8 18.4C121.6 18.8 122.5 19.3 123.2 19.7C129.7 20.5 129.7 22.5 129.7 24.8C129.7 26.4 129.7 28.2 133.4 29.8C133.7 29.9 133.8 30.3 133.7 30.5C133.6 30.8 133.2 30.9 133 30.8C128.7 28.9 128.7 26.7 128.6 24.8C128.6 23.2 128.6 21.8 124.4 21C125.1 22.3 125.3 24 125.5 25.7C126 29.8 126.6 34.4 135.3 34C135.6 34 135.9 34.2 135.9 34.5C135.9 34.8 135.7 35.1 135.4 35.1C125.6 35.5 125 30.4 124.4 25.8C124.2 24 124 22.3 123.2 21.1C123.1 21 123 20.8 122.8 20.7C122.7 20.7 122.5 20.6 122.5 20.5C121.9 20.1 121.1 19.7 120.3 19.3C119 18.7 117.9 18.1 118 17.5C118 16.8 119.2 16.5 122.5 16.6C123 16.6 123.5 16.7 123.9 16.7C127.8 17.1 131.7 18.6 134.6 21.1C137.5 23.7 139.4 27.3 139.2 31.9C139.2 32.4 139.2 32.8 139.1 33.1ZM62.7996 74.1C63.0996 74.1 63.3996 74.3 63.3996 74.6C63.3996 74.9 63.1996 75.2 62.8996 75.2C60.6996 75.3 57.4996 75.9001 54.6996 76.8001C52.4996 77.5001 50.4996 78.5001 49.1996 79.8001C48.7996 80.2001 48.6996 80.4 48.6996 80.7C48.6996 80.9 48.7996 81 48.9996 81.1C49.2996 81.3 49.6996 81.5 50.1996 81.6C51.0996 81.8 52.0996 81.8 53.2996 81.7C54.3996 80.9 55.5996 80.2 56.5996 79.7C57.6996 79.1 58.4996 78.9001 58.8996 78.9001C59.2996 78.9001 59.5996 79.1001 59.6996 79.4001C59.7996 79.6001 59.6996 79.9 59.4996 80.2C59.1996 80.6 58.3996 81.2 57.3996 81.7C56.1996 82.2 54.9996 82.6 53.6996 82.7C53.0996 83.2 52.4996 83.6 51.9996 84.1C51.2996 84.7 50.7996 85.3 50.5996 85.9C50.3996 86.4 50.3996 86.8 50.5996 87.1C50.6996 87.2 50.8996 87.4 51.0996 87.5C51.5996 87.8 52.7996 87.8 54.0996 87.6C55.3996 85.7 56.8996 84 58.0996 83.4C59.1996 82.9 59.8996 82.7001 60.3996 82.8C60.7996 82.9 61.0996 83.1 61.1996 83.5C61.2996 83.8 61.2996 84.1 61.0996 84.4C60.7996 85.1 59.9996 86.2 58.7996 87C57.6996 87.8 56.1996 88.3 54.7996 88.6C54.1996 89.6 53.6996 90.6 53.2996 91.5C52.9996 92.2 52.8996 92.8 52.8996 93.3C52.8996 93.7001 52.9996 93.9 53.1996 94C53.4996 94.2 54.1996 94.1001 55.2996 93.8C56.7996 93.3 57.4996 93.2 57.7996 93.5C57.7996 93.5 57.7996 93.5 57.7996 93.6C58.1996 94.1 57.6996 94.6 57.0996 95.4L56.9996 95.5C56.0996 96.6 54.5996 98.3 55.4996 100.5C55.5996 100.8 55.4996 101.1 55.1996 101.2C54.8996 101.3 54.5996 101.2 54.4996 100.9C53.3996 98.1 55.1996 96 56.1996 94.7L56.2996 94.6C56.0996 94.7 55.9996 94.8 55.6996 94.8C54.2996 95.3 53.2996 95.3 52.6996 95C52.0996 94.7 51.7996 94.1001 51.7996 93.3C51.7996 92.7001 51.9996 91.9 52.2996 91.1C52.5996 90.4 52.8996 89.6 53.3996 88.9C52.1996 89 51.1996 88.9 50.5996 88.5C50.2996 88.3 49.9996 88.1001 49.7996 87.8C49.2996 87.1001 49.2996 86.3 49.6996 85.5C49.9996 84.8 50.5996 84 51.3996 83.3C51.5996 83.1001 51.7996 83 51.8996 82.8C51.2996 82.8 50.6996 82.7 50.0996 82.6C49.3996 82.5 48.8996 82.2001 48.4996 81.9C47.9996 81.5 47.6996 81.1001 47.6996 80.5C47.6996 80 47.9996 79.4001 48.5996 78.8001C49.9996 77.4001 52.1996 76.4 54.4996 75.6C57.1996 74.8 60.4996 74.3 62.7996 74.1ZM49.0996 79.9001C48.8996 80.1001 48.4996 80.1001 48.2996 79.9001H49.0996ZM55.5996 87.3C56.3996 87 57.2996 86.6 57.8996 86.2C58.8996 85.5 59.5996 84.7 59.7996 84.2V84.1C59.4996 84.1 59.0996 84.2 58.3996 84.6C57.4996 85 56.4996 86 55.5996 87.3ZM56.6996 94.4C56.6996 94.4 56.5996 94.4 56.3996 94.5C56.5996 94.5 56.7996 94.5 56.6996 94.4Z" fill="black"/>
</g>
<defs>
<clipPath id="clip0">
<rect width="178.5" height="178.5" fill="white"/>
</clipPath>
</defs>
</svg>
