<svg width="179" height="179" viewBox="0 0 179 179" fill="none" xmlns="http://www.w3.org/2000/svg">
<g clip-path="url(#clip0)">
<path fill-rule="evenodd" clip-rule="evenodd" d="M89.2996 0.0999756C138.6 0.0999756 178.5 40.1 178.5 89.3C178.5 138.5 138.5 178.5 89.2996 178.5C40.0996 178.5 0.0996094 138.5 0.0996094 89.3C0.0996094 40.1 39.9996 0.0999756 89.2996 0.0999756Z" fill="#F7F7F7"/>
<path fill-rule="evenodd" clip-rule="evenodd" d="M121.4 45.7C117.8 41.9 111.6 40.7 109.1 39.2C103.7 35.9 117.1 33.4 121.4 45.7ZM103.3 67.6C105.1 67.6 106.6 69.1 106.6 70.9C106.6 72.7 105.1 74.2 103.3 74.2C101.5 74.2 99.9998 72.7 99.9998 70.9C99.9998 69.1 101.5 67.6 103.3 67.6ZM70.7998 67.4C72.5998 67.4 74.0998 68.9 74.0998 70.7C74.0998 72.5 72.5998 74 70.7998 74C68.9998 74 67.4998 72.5 67.4998 70.7C67.4998 68.9 68.9998 67.4 70.7998 67.4ZM64.7998 45.7C68.3998 41.9 74.5998 40.7 77.0998 39.2C82.4998 35.9 69.0998 33.4 64.7998 45.7Z" fill="black"/>
<path fill-rule="evenodd" clip-rule="evenodd" d="M73.5999 77C67.2999 74.4 56.7999 75 52.1999 79.5C48.2999 83.3 55.9999 86.2 62.3999 86.7C68.1999 87.2 76.3999 87.4 77.0999 85.6C78.3999 82.4 76.6999 78.3 73.5999 77ZM106.5 86.5C107.7 87.1 110.3 87.7 112.9 87.5C117.3 87.1 123.9 87.1 126.3 85C128.2 83.3 126.9 79.3 123.5 76.9C117.5 72.6 90.8999 79.1 106.5 86.5Z" fill="#E49DAA"/>
<path d="M65.0996 27.2C64.7996 27.3 64.4996 27.2 64.3996 26.9C64.2996 26.6 64.3996 26.3 64.6996 26.2C72.0996 22.9 80.0996 20.9 88.2996 20.4C96.1996 20 104.1 20.9 111.7 23.5C115.5 24.8 118.4 26.5 121.5 28.3C127.1 31.5 133.4 35.1 147.2 37.8C149 38.1 150.6 38.6 151.5 39.4C152.6 40.3 152.7 41.6 151.4 43.6C149.9 45.9 147.8 47.8 145.4 49.2C143.3 50.4 140.9 51.2 138.5 51.5C139.1 52.5 139.5 53.6 139.9 54.7C141.1 57.9 142.5 61.6 148.2 64.9C149.3 65.6 150 66.1 150.3 66.7C150.6 67.2 150.6 67.7 150.3 68.1C150.1 68.4 149.7 68.7 149.1 68.9C147.8 69.4 145.6 69.5 143.3 69.4C142.8 69.4 142.5 69.4 142.3 69.4C142.5 69.6 142.7 69.8 143.1 70.1C144.3 70 145.5 69.9 146.8 69.8C155.5 69.1 164.6 68.9 172.4 69.6C172.7 69.6 172.9 69.9 172.9 70.2C172.9 70.5 172.6 70.7 172.3 70.7C164.6 70.1 155.5 70.2 146.9 70.9C146.2 71 145.5 71 144.8 71.1C146.8 72.1 149.4 72.9 151.4 72.9C151.7 72.9 152 73.2 152 73.5C152 73.8 151.7 74.1 151.4 74.1C148.7 74.1 145 72.7 142.9 71.3C135.7 72.1 129 73.2 124.2 74.6C123.9 74.7 123.6 74.5 123.5 74.2C123.4 73.9 123.6 73.6 123.9 73.5C128.5 72.1 134.8 71 141.6 70.2C141.5 70.1 141.5 70 141.4 70C141 69.5 141 69 141.5 68.6C141.8 68.3 142.4 68.2 143.4 68.2C145.6 68.3 147.6 68.2 148.8 67.7C149.1 67.6 149.4 67.4 149.5 67.3C149.5 67.2 149.5 67.2 149.5 67.1C149.3 66.8 148.8 66.3 147.8 65.8C141.8 62.3 140.3 58.4 139 55.1C138 52.6 137.2 50.4 134.4 49.1C134.1 49 134 48.6 134.1 48.4C134.1 48.4 134.1 48.3 134.2 48.3C133.9 48.3 133.6 48.3 133.2 48.2C132.9 48.2 132.7 47.9 132.7 47.6C132.7 47.3 133 47.1 133.3 47.1C135.7 47.3 137.8 47.2 139.7 46.7C141.5 46.2 143.1 45.2 144.4 43.8C144.6 43.6 145 43.6 145.2 43.8C145.4 44 145.4 44.4 145.2 44.6C143.7 46.2 142 47.3 140 47.8C138.6 48.2 137 48.4 135.3 48.4C136.5 49 137.3 49.7 137.9 50.5C140.4 50.3 142.8 49.5 144.9 48.3C147.2 47 149.1 45.2 150.5 43C151.4 41.6 151.4 40.8 150.8 40.3C150.1 39.7 148.6 39.3 147 39C133 36.3 126.7 32.7 121 29.4C117.9 27.6 115.1 26 111.4 24.7C104 22.1 96.1996 21.2 88.4996 21.6C80.2996 22 72.3996 24 65.0996 27.2ZM163.9 78.6C164.2 78.7 164.4 79 164.3 79.3C164.2 79.6 163.9 79.8 163.6 79.7C158.4 78.4 153.5 77.7 148.7 77.3C147.2 79.1 144.7 81.1 142.2 83C139.2 85.3 136.3 87.6 135.3 89.5C135.1 89.9 134.8 90 134.9 90C135 90.1 135.9 89.7 136.7 89.4C137.1 89.2 137.5 89.1 137.9 88.9C138.8 88.6 139.4 88.6 139.8 88.7C140.5 88.9 140.6 89.4 140.4 90C140.3 90.4 140 90.8 139.6 91.3C138.3 93 135.7 95.2 135.6 95.3C135.3 95.5 135 95.4 134.8 95.1C134.6 94.8 134.7 94.5 135 94.3C135.1 94.2 137.5 92.2 138.7 90.6C139 90.3 139.2 90 139.2 89.7C139 89.7 138.6 89.8 138.1 89.9C137.8 90 137.4 90.2 137 90.3C136 90.7 134.9 91.2 134.3 90.8C133.7 90.5 133.6 89.9 134.2 88.8C135.3 86.7 138.3 84.4 141.4 82C143.6 80.3 145.8 78.6 147.2 77.1C145.8 77 144.5 76.9 143.2 76.9C136.9 76.7 131.1 77.1 126 77.7C125.7 77.7 125.4 77.5 125.4 77.2C125.4 76.9 125.6 76.6 125.9 76.6C131.1 76 136.9 75.6 143.3 75.8C144.9 75.9 146.5 75.9 148.1 76.1C148.3 75.8 148.5 75.5 148.6 75.2C148.7 74.9 149.1 74.8 149.3 74.9C149.6 75 149.7 75.4 149.6 75.6C149.5 75.8 149.4 75.9 149.3 76.1C154.2 76.6 159 77.4 163.9 78.6ZM47.9996 44.3C46.1996 44.3 44.4996 44.1 43.0996 43.5C41.2996 42.9 39.7996 41.9 38.3996 40.4C38.1996 40.2 38.1996 39.8 38.3996 39.6C38.5996 39.4 38.9996 39.4 39.1996 39.6C40.3996 40.9 41.7996 41.8 43.3996 42.4C44.9996 42.9 46.7996 43.2 48.8996 43.1C50.7996 40.7 52.6996 38.7 54.4996 37.9C54.7996 37.8 55.0996 37.9 55.1996 38.2C55.2996 38.5 55.1996 38.8 54.8996 38.9C52.2996 40.1 49.2996 44.2 46.1996 48.6C42.2996 54.1 38.0996 59.9 33.6996 61.1C33.9996 62.3 37.1996 63.3 39.6996 64.1C41.3996 64.6 42.8996 65.1 43.2996 65.7C44.0996 66.7 43.6996 67.4 42.5996 67.7C41.9996 67.9 40.9996 68 39.8996 68C39.2996 68 38.6996 68 38.0996 68C35.1996 68 33.4996 68 33.1996 68.3C33.0996 68.5 33.4996 69 34.5996 70C42.4996 70.8 49.8996 72 55.1996 73.5C55.4996 73.6 55.6996 73.9 55.5996 74.2C55.4996 74.5 55.1996 74.7 54.8996 74.6C49.9996 73.2 43.2996 72 35.9996 71.2C36.7996 71.9 37.7996 72.8 38.9996 73.9C39.1996 74.1 39.2996 74.5 38.9996 74.7C38.7996 74.9 38.3996 75 38.1996 74.7C36.4996 73.2 35.1996 72 34.1996 71C33.4996 70.9 32.7996 70.9 32.0996 70.8C23.4996 70.1 14.3996 70 6.69961 70.6C6.39961 70.6 6.09961 70.4 6.09961 70.1C6.09961 69.8 6.29961 69.5 6.59961 69.5C14.3996 68.9 23.4996 69 32.1996 69.7L32.9996 69.8C32.0996 68.7 31.8996 68 32.3996 67.5C32.9996 66.8 34.8996 66.8 38.0996 66.8C38.5996 66.8 39.1996 66.8 39.8996 66.8C40.8996 66.8 41.7996 66.7 42.3996 66.5C42.5996 66.4 42.5996 66.4 42.4996 66.2C42.2996 65.9 40.9996 65.5 39.3996 65C36.1996 64 32.0996 62.7 32.5996 60.4C32.5996 60.2 32.7996 60 32.9996 60C37.1996 59.1 41.2996 53.4 45.1996 47.9C43.2996 47.5 41.3996 46.2 39.5996 44.5C37.3996 42.3 35.5996 39.4 34.7996 36.9C34.1996 35.1 33.9996 33.6 34.2996 32.6C34.6996 31.5 35.7996 30.9 37.7996 31C39.5996 31.1 41.8996 31.5 44.2996 32C45.8996 32.3 47.4996 32.6 49.0996 32.9C50.8996 32.6 53.4996 31.6 55.9996 30.5C58.7996 29.3 60.5996 28.5 61.9996 27.5C62.2996 27.3 62.5996 27.4 62.7996 27.6C62.9996 27.9 62.8996 28.2 62.6996 28.4C61.1996 29.4 59.3996 30.2 56.4996 31.5C54.9996 32.2 53.4996 32.8 52.0996 33.2C53.5996 33.3 54.8996 33.3 56.0996 33.1C56.3996 33 56.6996 33.2 56.7996 33.5C56.8996 33.8 56.6996 34.1 56.3996 34.2C52.9996 34.8 48.3996 33.9 44.1996 33.1C41.7996 32.6 39.4996 32.2 37.8996 32.1C36.4996 32 35.7996 32.3 35.4996 33C35.1996 33.7 35.4996 35 35.9996 36.6C36.6996 38.9 38.4996 41.7 40.5996 43.7C42.3996 45.5 44.2996 46.8 46.0996 46.9C46.6996 46.1 47.2996 45.2 47.9996 44.3ZM66.8996 78.7C66.6996 78.5 66.6996 78.1 66.8996 77.9C67.0996 77.7 67.4996 77.7 67.6996 77.9C68.5996 78.7 70.2996 80.8 71.6996 82.5C72.2996 83.2 72.8996 83.9 73.2996 84.4C73.4996 84.6 73.4996 85 73.1996 85.2C72.8996 85.4 72.5996 85.4 72.3996 85.1C71.8996 84.6 71.3996 83.9 70.7996 83.2C69.3996 81.5 67.6996 79.5 66.8996 78.7ZM61.4996 78.6C61.2996 78.4 61.2996 78 61.4996 77.8C61.6996 77.6 62.0996 77.6 62.2996 77.8C63.2996 78.8 65.2996 81.1 66.9996 83.1C67.6996 84 68.3996 84.7 68.8996 85.3C69.0996 85.5 69.0996 85.9 68.7996 86.1C68.5996 86.3 68.1996 86.3 67.9996 86C67.4996 85.4 66.7996 84.6 66.0996 83.8C64.3996 81.9 62.3996 79.5 61.4996 78.6ZM56.7996 79.4C56.5996 79.2 56.5996 78.8 56.7996 78.6C56.9996 78.4 57.3996 78.4 57.5996 78.6C58.4996 79.4 60.1996 81.5 61.5996 83.2C62.1996 83.9 62.7996 84.6 63.1996 85.1C63.3996 85.3 63.3996 85.7 63.0996 85.9C62.8996 86.1 62.4996 86.1 62.2996 85.8C61.7996 85.3 61.2996 84.6 60.6996 83.9C59.2996 82.2 57.5996 80.2 56.7996 79.4ZM115.7 78.7C115.5 78.5 115.5 78.1 115.7 77.9C115.9 77.7 116.3 77.7 116.5 77.9C117.4 78.7 119.1 80.8 120.5 82.5C121.1 83.2 121.7 83.9 122.1 84.4C122.3 84.6 122.3 85 122 85.2C121.7 85.4 121.4 85.4 121.2 85.1C120.7 84.6 120.2 83.9 119.6 83.2C118.2 81.5 116.5 79.5 115.7 78.7ZM110.3 78.6C110.1 78.4 110.1 78 110.3 77.8C110.5 77.6 110.9 77.6 111.1 77.8C112.1 78.8 114.1 81.1 115.8 83.1C116.5 84 117.2 84.7 117.7 85.3C117.9 85.5 117.9 85.9 117.6 86.1C117.4 86.3 117 86.3 116.8 86C116.3 85.4 115.6 84.6 114.9 83.8C113.2 81.9 111.3 79.5 110.3 78.6ZM105.6 79.4C105.4 79.2 105.4 78.8 105.6 78.6C105.8 78.4 106.2 78.4 106.4 78.6C107.3 79.4 109 81.5 110.4 83.2C111 83.9 111.6 84.6 112 85.1C112.2 85.3 112.2 85.7 111.9 85.9C111.7 86.1 111.3 86.1 111.1 85.8C110.6 85.3 110.1 84.6 109.5 83.9C108.1 82.2 106.4 80.2 105.6 79.4ZM15.1996 79.7C14.8996 79.8 14.5996 79.6 14.4996 79.3C14.3996 79 14.5996 78.7 14.8996 78.6C21.8996 76.9 28.5996 76.1 34.8996 75.9C34.3996 75.6 33.9996 75.3 33.4996 75C33.1996 74.8 33.0996 74.5 33.2996 74.2C33.4996 73.9 33.7996 73.8 34.0996 74C35.0996 74.6 35.9996 75.2 36.8996 75.8C42.6996 75.7 48.0996 76.1 52.7996 76.6C53.0996 76.6 53.2996 76.9 53.2996 77.2C53.2996 77.5 52.9996 77.7 52.6996 77.7C48.3996 77.2 43.5996 76.8 38.4996 76.9C40.0996 78.1 41.5996 79.4 42.7996 80.7C45.0996 83.1 46.5996 85.5 46.7996 87.4C46.9996 88.6 46.6996 89.1 46.0996 89.2C45.7996 89.2 45.4996 89.1 45.0996 88.9C44.8996 88.8 44.5996 88.7 44.3996 88.6C43.9996 88.4 43.5996 87.9 43.5996 88.1C43.6996 88.5 44.3996 89.5 45.9996 91.2C47.4996 92.9 49.3996 95.2 50.6996 97.6C51.6996 99.4 52.2996 101.2 52.2996 103C52.2996 103.3 51.9996 103.6 51.6996 103.6C51.3996 103.6 51.0996 103.3 51.0996 103C51.0996 101.5 50.4996 99.8 49.5996 98.2C48.2996 95.9 46.4996 93.7 45.0996 92.1C43.2996 90.2 42.4996 89 42.3996 88.4C42.1996 87.2 43.0996 87.1 44.5996 87.6C44.8996 87.7 45.1996 87.8 45.3996 87.9C45.5996 88 45.7996 88.1 45.7996 88.1C45.8996 88.1 45.5996 88 45.4996 87.6C45.2996 86 43.8996 83.8 41.7996 81.6C40.3996 80.1 38.4996 78.5 36.4996 77.1C36.0996 77.1 35.7996 77.1 35.3996 77.1C29.1996 77.2 22.3996 78 15.1996 79.7ZM139.5 146.5C142 145 143.8 143 145.1 140.9C146.8 138.1 147.7 134.9 147.6 131.7C147.6 128.5 146.7 125.4 145.1 122.7C143.8 120.6 142 118.7 139.9 117.3C139.6 117.1 139.6 116.8 139.7 116.5C139.9 116.2 140.2 116.2 140.5 116.3C142.8 117.7 144.7 119.7 146.1 122C147.8 124.8 148.7 128.2 148.8 131.5C148.8 134.9 148 138.3 146.1 141.3C144.7 143.7 142.6 145.8 139.9 147.4C141.7 152 142.9 156.6 143.3 160.3C143 160.5 142.7 160.8 142.4 161C142.3 160.9 142.2 160.8 142.2 160.6C141.5 154.5 138.7 146.1 134.7 138.7C131.3 132.3 127.1 126.6 122.5 123.4C122.2 123.2 122.2 122.9 122.4 122.6C122.6 122.3 122.9 122.3 123.2 122.5C127.9 125.7 132.3 131.6 135.7 138.2C137.1 140.9 138.4 143.7 139.5 146.5ZM135.2 112.9C134.9 112.9 134.6 112.6 134.6 112.3C134.6 112 134.9 111.7 135.2 111.7C137.6 111.7 142.2 114.3 146 117.4C149.6 120.4 152.6 123.8 152.6 126C152.6 126.3 152.3 126.6 152 126.6C151.7 126.6 151.4 126.3 151.4 126C151.4 124.2 148.6 121 145.2 118.3C141.7 115.5 137.4 112.9 135.2 112.9ZM130.8 106.8C130.7 106.5 130.8 106.2 131 106C131.3 105.9 131.6 106 131.8 106.2C132.5 107.5 136 109.1 139.9 110.8C144.4 112.8 149.2 114.9 150.6 117.2C150.8 117.5 150.7 117.8 150.4 118C150.1 118.2 149.8 118.1 149.6 117.8C148.4 115.8 143.7 113.7 139.4 111.8C135.4 110.1 131.7 108.4 130.8 106.8ZM87.5996 146.7C87.4996 146.4 87.6996 146.1 87.9996 146C88.2996 145.9 88.5996 146.1 88.6996 146.4C88.8996 147.2 89.0996 148 89.2996 148.9C90.4996 154.3 91.9996 160.7 100.1 160.7C100.4 160.7 100.7 161 100.7 161.3C100.7 161.6 100.4 161.9 100.1 161.9C94.8996 161.9 92.1996 159.6 90.4996 156.6C89.7996 157.2 89.0996 157.5 88.3996 157.6C87.1996 157.7 86.0996 157.1 85.0996 156C84.1996 155 83.4996 153.6 82.8996 152C81.1996 147.6 80.3996 141.7 80.6996 140.2C80.7996 139.9 81.0996 139.7 81.3996 139.8C81.6996 139.9 81.8996 140.2 81.7996 140.5C81.4996 141.8 82.2996 147.3 83.8996 151.6C84.4996 153.1 85.1996 154.4 85.8996 155.3C86.5996 156.1 87.3996 156.6 88.1996 156.5C88.6996 156.4 89.2996 156.2 89.8996 155.6C88.9996 153.6 88.4996 151.4 87.9996 149.3C87.9996 148.4 87.7996 147.5 87.5996 146.7ZM78.3996 116.8C78.6996 116.8 78.9996 117 78.9996 117.4C78.9996 117.7 78.7996 118 78.3996 118C75.7996 118 70.4996 120.8 67.6996 123.3C66.8996 124 66.3996 124.6 66.0996 125.2C65.9996 125.5 65.9996 125.7 66.2996 125.9C67.1996 126.3 69.0996 126.3 72.6996 125.7C72.9996 125.6 73.2996 125.9 73.3996 126.2C73.3996 126.4 73.2996 126.7 73.0996 126.8C71.3996 128 69.1996 130.4 67.8996 132.7C67.3996 133.6 66.9996 134.5 66.8996 135.2C66.7996 135.8 66.8996 136.3 67.1996 136.6C67.3996 136.7 67.5996 136.8 67.8996 136.9C68.4996 137 69.3996 136.7 70.3996 136.2C70.4996 136.1 70.6996 136.1 70.7996 136C71.0996 135.4 71.3996 134.9 71.7996 134.4C73.2996 132.2 74.2996 131.1 74.6996 130.7C75.1996 130.3 75.5996 130.3 75.7996 130.6C75.9996 130.8 75.9996 131.2 75.7996 131.6C75.5996 132.3 74.8996 133.5 73.8996 134.7C73.2996 135.5 72.3996 136.3 71.4996 136.9C69.8996 140.1 69.6996 143.4 70.3996 145.6C70.6996 146.6 71.0996 147.3 71.5996 147.6C71.9996 147.9 72.5996 147.9 73.1996 147.5C74.4996 146.7 75.9996 144.1 77.2996 139.1C77.3996 138.8 77.6996 138.6 77.9996 138.7C78.2996 138.8 78.4996 139.1 78.3996 139.4C76.9996 144.8 75.3996 147.5 73.7996 148.5C72.7996 149.1 71.7996 149.1 70.9996 148.5C70.2996 148 69.6996 147.1 69.2996 145.9C68.6996 143.8 68.6996 140.8 69.8996 137.7C68.9996 138.1 68.1996 138.2 67.5996 138.1C67.0996 138 66.6996 137.8 66.3996 137.5C65.6996 136.9 65.5996 136.1 65.6996 135.1C65.7996 134.2 66.2996 133.2 66.7996 132.2C67.7996 130.5 69.2996 128.6 70.6996 127.3C68.0996 127.6 66.3996 127.5 65.5996 127.1C64.5996 126.6 64.3996 125.9 64.7996 125C65.0996 124.3 65.6996 123.5 66.6996 122.7C69.8996 119.7 75.5996 116.8 78.3996 116.8ZM59.6996 157.9C59.9996 158 60.0996 158.4 59.9996 158.6C59.8996 158.9 59.4996 159 59.2996 158.9C57.9996 158.4 57.1996 156.3 56.8996 153.8C56.7996 152.7 56.7996 151.5 56.8996 150.3C56.9996 149.1 57.2996 148 57.6996 147C58.4996 145.2 59.6996 143.9 61.4996 143.7C61.7996 143.7 62.0996 143.9 62.0996 144.2C62.0996 144.5 61.8996 144.8 61.5996 144.8C60.1996 144.9 59.2996 146 58.6996 147.4C58.2996 148.3 58.0996 149.3 57.9996 150.4C57.8996 151.5 57.8996 152.6 57.9996 153.6C58.1996 155.8 58.7996 157.5 59.6996 157.9ZM51.8996 155.3C51.9996 155.6 51.6996 155.9 51.3996 156C51.0996 156.1 50.7996 155.8 50.6996 155.5C50.5996 154.8 50.5996 154 50.5996 153.2C50.7996 151 51.4996 148.4 52.8996 146.2C54.2996 143.9 56.2996 142.1 58.8996 141.6C59.4996 141.5 60.1996 141.5 60.7996 141.5C61.0996 141.5 61.2996 141.8 61.2996 142.1C61.2996 142.4 60.9996 142.6 60.6996 142.6C60.0996 142.6 59.5996 142.6 58.9996 142.7C56.6996 143.1 54.9996 144.7 53.6996 146.8C52.3996 148.9 51.6996 151.4 51.5996 153.4C51.7996 154.1 51.7996 154.8 51.8996 155.3ZM59.3996 126.1C59.6996 126.1 59.9996 126.3 59.9996 126.6C59.9996 126.9 59.7996 127.2 59.4996 127.2C51.9996 128 46.9996 133.4 43.6996 140.2C40.2996 147 38.5996 155.3 37.3996 161.5C37.3996 161.6 37.2996 161.8 37.1996 161.9C36.8996 161.7 36.5996 161.5 36.2996 161.3C36.9996 157.7 37.7996 153.3 39.0996 149C36.7996 147.6 34.7996 145.5 33.1996 143.1C31.4996 140.5 30.1996 137.4 29.6996 134.6C28.9996 130.8 29.8996 127.5 31.7996 124.3C33.6996 121.1 36.6996 117.9 40.2996 114.2C40.4996 114 40.8996 114 41.0996 114.2C41.2996 114.4 41.2996 114.8 41.0996 115C37.4996 118.7 34.5996 121.8 32.6996 124.9C30.8996 127.9 30.0996 131 30.6996 134.5C31.1996 137.2 32.3996 140 33.9996 142.6C35.4996 144.8 37.2996 146.7 39.2996 148C40.1996 145.2 41.1996 142.5 42.4996 139.9C44.1996 136.6 46.1996 133.5 48.6996 131.2C48.6996 131.1 48.6996 131 48.7996 130.9L48.9996 130.6C49.3996 130 49.8996 129.1 50.4996 128C52.4996 124.3 54.8996 118.9 51.7996 117.2C51.4996 117 51.3996 116.7 51.5996 116.4C51.7996 116.1 52.0996 116 52.3996 116.2C56.3996 118.4 53.7996 124.4 51.5996 128.5C51.3996 128.8 51.2996 129.1 51.0996 129.3C53.5996 127.5 56.2996 126.4 59.3996 126.1ZM34.6996 116.6C34.5996 116.9 34.2996 117 33.9996 116.9C33.6996 116.8 33.5996 116.5 33.6996 116.2C34.1996 114.9 35.9996 113.8 38.0996 112.9C41.3996 111.5 45.7996 110.6 47.0996 110.4C47.3996 110.4 47.6996 110.6 47.6996 110.9C47.6996 111.2 47.4996 111.5 47.1996 111.5C45.8996 111.7 41.6996 112.6 38.4996 113.9C36.5996 114.7 34.9996 115.6 34.6996 116.6ZM44.4996 97.5C44.1996 97.4 43.9996 97.1 44.0996 96.8C44.1996 96.5 44.4996 96.3 44.7996 96.4C45.4996 96.6 46.0996 97 46.6996 97.5C47.9996 98.7 49.0996 100.5 49.7996 102.3C50.4996 104.2 50.7996 106.1 50.3996 107.4C50.2996 107.8 50.0996 108.1 49.7996 108.4C48.9996 109.3 46.9996 109 44.5996 108.6C43.1996 108.4 41.6996 108.1 40.2996 108.1C38.2996 108.1 36.5996 108.6 36.5996 110.7C36.5996 111 36.2996 111.3 35.9996 111.3C35.6996 111.3 35.3996 111 35.3996 110.7C35.3996 107.7 37.5996 107 40.1996 107C41.5996 107 43.1996 107.3 44.5996 107.5C46.5996 107.8 48.3996 108.1 48.6996 107.7C48.7996 107.5 48.9996 107.3 48.9996 107.1C49.2996 106 49.0996 104.4 48.4996 102.7C47.8996 101 46.8996 99.4 45.6996 98.3C45.4996 98 44.9996 97.7 44.4996 97.5ZM134.5 106.3C134.6 106.6 134.5 106.9 134.3 107.1C134 107.2 133.7 107.1 133.5 106.9C133.4 106.7 133.3 106.5 133.2 106.3C132 103.6 132.6 101 134 98.8C135.4 96.6 137.6 94.9 139.5 93.8C139.9 93.6 140.2 93.4 140.5 93.3C140.8 93.2 141.1 93.3 141.2 93.6C141.3 93.9 141.2 94.2 140.9 94.3C140.6 94.4 140.3 94.6 140 94.8C138.2 95.8 136.2 97.4 134.9 99.4C133.7 101.3 133.1 103.6 134.1 105.9C134.3 105.9 134.4 106.1 134.5 106.3ZM142.1 69.5C142 69.5 142.1 69.5 142.1 69.5V69.5ZM79.9996 81.9C79.8996 81.6 79.9996 81.3 80.2996 81.2C80.5996 81.1 80.8996 81.2 80.9996 81.5C81.4996 82.9 82.2996 83.8 83.0996 84.2C83.8996 84.6 84.7996 84.7 85.6996 84.6C86.5996 84.4 87.4996 84 88.2996 83.5C89.4996 82.7 90.3996 81.5 90.5996 80.4C90.6996 80.1 90.9996 79.9 91.2996 80C91.4996 80 91.6996 80.2 91.6996 80.4C92.1996 81.9 92.8996 82.9 93.6996 83.5C94.3996 84 95.1996 84.3 95.9996 84.3C96.7996 84.3 97.4996 84.1 98.1996 83.7C98.8996 83.2 99.4996 82.6 99.8996 81.7C99.9996 81.4 100.3 81.3 100.6 81.4C100.9 81.5 101 81.8 100.9 82.1C100.5 83.2 99.6996 84.1 98.7996 84.7C97.9996 85.2 96.9996 85.4 95.9996 85.4C94.9996 85.4 93.9996 85.1 93.0996 84.4C92.3996 83.9 91.6996 83.1 91.1996 82.1C90.6996 83 89.9996 83.8 88.9996 84.5C88.0996 85.1 86.9996 85.6 85.8996 85.8C84.7996 86 83.5996 85.9 82.5996 85.3C81.5996 84.7 80.6996 83.6 79.9996 81.9ZM116 65.1C115.9 65.1 115.8 65 115.8 64.9C115.6 64.9 115.3 65 115.1 65C108.6 66 101.3 65.6 94.9996 63.1C95.4996 65.6 96.5996 68.2 98.3996 70.2C100.4 72.6 103.3 74.4 106.8 74.6C109.5 74.8 112.4 74.2 114.9 73C117.2 71.8 119.2 70.1 120.4 67.9C120.5 67.6 120.7 67.4 120.8 67.2C120.9 67 121 66.8 121.1 66.6C119.5 66.4 117.8 65.8 116 65.1ZM117.7 64.5C119.1 65 120.4 65.4 121.6 65.7C121.9 65 122.1 64.2 122.2 63.2C120.8 63.7 119.3 64.2 117.7 64.5ZM122.7 66C128.5 67.1 132.3 66.1 134.1 65.6L134.3 65.5C134.6 65.4 134.9 65.6 135 65.9C135.1 66.2 134.9 66.5 134.6 66.6L134.4 66.7C132.5 67.2 128.5 68.3 122.2 67.1C122 67.4 121.9 67.7 121.7 68C121.6 68.2 121.4 68.5 121.3 68.7C120 71.1 117.9 73 115.3 74.3C112.6 75.6 109.5 76.2 106.6 76C102.7 75.7 99.5996 73.8 97.3996 71.2C94.8996 68.2 93.4996 64.3 93.4996 60.7C93.4996 56.7 96.3996 53.1 100.4 50.9C102.4 49.8 104.7 49 107.1 48.8C109.5 48.5 111.9 48.7 114.1 49.6C118.2 51.1 121.6 54.7 123 61.1C123 61.3 123.1 61.5 123.1 61.7C126.2 60.4 128.7 58.6 130.2 56.5C130.4 56.2 130.7 56.2 131 56.4C131.3 56.6 131.3 56.9 131.1 57.2C129.4 59.5 126.6 61.4 123.2 62.9C123.3 64 123.1 65 122.7 66ZM134.1 65.6C134.2 65.6 134.3 65.6 134.3 65.6H134.1ZM94.7996 61.9C101 64.5 108.4 64.9 114.9 63.9C117.5 63.5 119.9 62.8 122.1 62C122.1 61.7 122 61.5 122 61.2C120.7 55.2 117.6 51.9 113.8 50.5C111.7 49.7 109.5 49.5 107.3 49.8C105.1 50.1 102.9 50.8 101 51.8C97.2996 53.8 94.6996 57 94.6996 60.6C94.6996 61 94.6996 61.4 94.7996 61.9ZM51.0996 63.5C50.7996 63.3 50.6996 63 50.8996 62.7C51.0996 62.4 51.3996 62.3 51.6996 62.5C55.3996 64.6 58.9996 65.3 62.1996 65.5C62.0996 65.1 61.9996 64.8 61.9996 64.4C61.8996 63.7 61.7996 63 61.7996 62.3C59.3996 60.8 57.2996 58.6 55.5996 55.6C55.3996 55.3 55.4996 55 55.7996 54.8C56.0996 54.6 56.3996 54.7 56.5996 55C58.0996 57.6 59.8996 59.5 61.8996 60.9C61.9996 60.2 62.1996 59.6 62.3996 58.9C62.9996 57.3 64.1996 55.8 65.8996 54.7C66.1996 54.5 66.4996 54.6 66.6996 54.9C66.8996 55.2 66.7996 55.5 66.4996 55.7C64.9996 56.7 63.9996 58 63.3996 59.4C63.0996 60.1 62.8996 60.9 62.8996 61.6C65.1996 62.9 67.6996 63.6 70.3996 63.9C75.9996 64.6 82.2996 63.5 88.0996 62.4C88.3996 62.3 88.6996 62.5 88.7996 62.9C88.8996 63.2 88.6996 63.5 88.2996 63.6C83.5996 64.5 78.5996 65.4 73.7996 65.3C73.6996 65.3 73.6996 65.4 73.5996 65.4C72.9996 65.5 72.2996 65.6 71.5996 65.8C69.4996 66.2 66.7996 66.7 63.6996 66.7C63.9996 67.5 64.3996 68.3 64.8996 69C66.1996 71 68.0996 72.6 70.1996 73.5C72.1996 74.3 74.9996 74.6 77.7996 74.2C80.0996 73.9 82.2996 73 84.0996 71.4C86.8996 68.9 88.3996 66.2 88.7996 63.5C89.1996 60.8 88.2996 58.1 86.2996 55.7C83.9996 53 81.1996 51.6 78.1996 51.3C74.8996 50.9 71.4996 51.8 68.4996 53.7C68.1996 53.9 67.8996 53.8 67.6996 53.5C67.4996 53.2 67.5996 52.9 67.8996 52.7C71.0996 50.7 74.7996 49.7 78.2996 50.1C81.4996 50.5 84.5996 52 87.0996 54.9C89.2996 57.5 90.2996 60.5 89.8996 63.5C89.4996 66.4 87.8996 69.3 84.8996 72.1C82.9996 73.8 80.4996 74.8 77.9996 75.1C74.9996 75.5 71.9996 75.1 69.8996 74.3C67.4996 73.4 65.4996 71.6 63.9996 69.4C63.3996 68.5 62.8996 67.5 62.4996 66.4C58.9996 66.5 55.0996 65.8 51.0996 63.5ZM63.3996 65.5C65.6996 65.5 67.6996 65.2 69.4996 64.9C67.1996 64.5 64.9996 63.9 62.9996 62.8C62.9996 63.2 63.0996 63.7 63.0996 64.1C63.0996 64.6 63.1996 65.1 63.3996 65.5Z" fill="black"/>
</g>
<defs>
<clipPath id="clip0">
<rect width="178.5" height="178.5" fill="white"/>
</clipPath>
</defs>
</svg>
