<svg xmlns="http://www.w3.org/2000/svg" width="51" height="50" viewBox="0 0 51 50"><path fill="#3c4a54" d="M48.5 0c-.98 0-2.02.87-2.18 1.01-.1.08-10.99 8.48-20.91 18.4a112.83 112.83 0 0 0-9.88 11.08c-.27.36-.2.88.16 1.16.37.28.89.21 1.17-.15.62-.82 1.43-1.83 2.43-3.02a6.6 6.6 0 0 1 1.95 1.28 6.09 6.09 0 0 1 1.28 1.97 62.04 62.04 0 0 1-5.2 4.04h-.01l-.05.04-.03.02-.02.02a.81.81 0 0 0-.19.18l-.07.13-.06.14c-.02.08-.02.16-.02.24l-.01.05a.8.8 0 0 0 .12.39L17 37a6.71 6.71 0 0 1-4.56 9.51c-.33.07-5.55.96-9.59 1.64.68-4.04 1.57-9.26 1.64-9.6a6.66 6.66 0 0 1 10.87-3.59c.35.3.87.26 1.17-.09a.82.82 0 0 0-.08-1.17 8.32 8.32 0 0 0-13.59 4.49c-.11.53-1.67 9.79-1.85 10.84-.04.26.04.53.23.73.16.15.37.24.59.24l.14-.01c1.06-.18 10.31-1.74 10.83-1.85a8.38 8.38 0 0 0 5.94-11.32c1.57-1.1 6.1-4.48 12.85-11.23 9.92-9.92 18.32-20.81 18.37-20.87C50.13 4.52 51 3.5 51 2.5A2.5 2.5 0 0 0 48.5 0zm.17 3.66c-.08.11-8.41 10.9-18.26 20.75a132.28 132.28 0 0 1-6.58 6.18 7.4 7.4 0 0 0-1.41-2.01 8.1 8.1 0 0 0-2-1.41c1.62-1.86 3.66-4.07 6.17-6.58 9.84-9.84 20.64-18.18 20.79-18.3.33-.29.89-.62 1.12-.62.46 0 .83.37.83.83 0 .23-.33.78-.66 1.16z"/></svg>