<svg fill="#3c4a54" xmlns="http://www.w3.org/2000/svg" xmlns:xlink="http://www.w3.org/1999/xlink" version="1.1" x="0px" y="0px" viewBox="0 0 50 50" enable-background="new 0 0 50 50" xml:space="preserve"><path d="M25,43.5C12.686,43.5,2.667,35.201,2.667,25c0-8.286,10.68-9.519,19.983-9.667c0.239-0.004,0.361-0.05,0.385-0.081  c0.273-0.354-0.115-1.951-0.348-2.906c-0.442-1.816-0.899-3.694,0.052-4.905C23.23,6.816,23.99,6.5,25,6.5  c12.314,0,22.333,8.299,22.333,18.5S37.314,43.5,25,43.5z M25,8.5c-0.165,0-0.563,0.017-0.688,0.177  c-0.351,0.446,0.052,2.101,0.318,3.196c0.437,1.793,0.849,3.487-0.014,4.603c-0.295,0.382-0.87,0.841-1.935,0.857  C6.715,17.588,4.667,21.564,4.667,25c0,9.098,9.121,16.5,20.333,16.5S45.333,34.098,45.333,25C45.333,15.901,36.212,8.5,25,8.5z"></path><path d="M38.084,22.5c-1.884,0-3.417-1.533-3.417-3.417s1.533-3.416,3.417-3.416s3.416,1.532,3.416,3.416S39.968,22.5,38.084,22.5z   M38.084,17.667c-0.781,0-1.417,0.635-1.417,1.416s0.636,1.417,1.417,1.417s1.416-0.636,1.416-1.417S38.865,17.667,38.084,17.667z"></path><path d="M13.454,35.217c-2.732,0-4.956-2.223-4.956-4.955s2.224-4.956,4.956-4.956s4.955,2.224,4.955,4.956  S16.187,35.217,13.454,35.217z M13.454,27.306c-1.63,0-2.956,1.326-2.956,2.956s1.326,2.955,2.956,2.955s2.955-1.325,2.955-2.955  S15.084,27.306,13.454,27.306z"></path><path d="M38.584,31.261c-2.16,0-3.917-1.757-3.917-3.917s1.757-3.917,3.917-3.917s3.917,1.757,3.917,3.917  S40.744,31.261,38.584,31.261z M38.584,25.427c-1.057,0-1.917,0.86-1.917,1.917s0.86,1.917,1.917,1.917s1.917-0.86,1.917-1.917  S39.641,25.427,38.584,25.427z"></path><path d="M32.25,38.134c-2.16,0-3.917-1.757-3.917-3.917S30.09,30.3,32.25,30.3s3.917,1.757,3.917,3.917S34.41,38.134,32.25,38.134z   M32.25,32.3c-1.057,0-1.917,0.86-1.917,1.917s0.86,1.917,1.917,1.917s1.917-0.86,1.917-1.917S33.307,32.3,32.25,32.3z"></path><path d="M22.916,39.021c-2.159,0-3.917-1.757-3.917-3.917s1.758-3.917,3.917-3.917c2.16,0,3.917,1.757,3.917,3.917  S25.076,39.021,22.916,39.021z M22.916,33.187c-1.057,0-1.917,0.86-1.917,1.917s0.86,1.917,1.917,1.917  c1.058,0,1.917-0.86,1.917-1.917S23.974,33.187,22.916,33.187z"></path></svg>