<svg width="172" height="374" viewBox="0 0 172 374" fill="none" xmlns="http://www.w3.org/2000/svg">
<g clip-path="url(#clip0)">
<path d="M129.361 183.52C128.699 183.194 127.968 183.036 127.231 183.06C124.071 183.06 119.851 185.06 116.671 186.91C121.841 189.349 126.599 192.581 130.771 196.49C131.311 190.78 131.201 184.51 129.361 183.52Z" fill="#FBE5AA"/>
<path d="M141.541 212.34L141.791 212.45C144.371 207.57 146.191 202.45 145.101 201.18C144.011 199.91 140.911 199.06 136.631 199.06C135.501 199.06 134.391 199.11 133.391 199.19C136.693 202.848 139.353 207.036 141.261 211.58C141.351 211.83 141.441 212.09 141.541 212.34Z" fill="#FBE5AA"/>
<path d="M142.45 214.95L142.53 215.22C143.732 219.276 144.358 223.48 144.39 227.71C147.75 225.21 150.46 222.56 150.26 221.42C149.88 219.23 146.07 216.71 142.63 215.03L142.45 214.95Z" fill="#FBE5AA"/>
<path d="M108.09 176C104.43 176 99.7204 179.73 96.9404 182.27C100.506 182.228 104.062 182.645 107.52 183.51C109.51 184.043 111.462 184.711 113.36 185.51C112.98 182.19 112.22 178.51 110.84 177.13C110.485 176.762 110.057 176.472 109.584 176.277C109.11 176.083 108.602 175.989 108.09 176Z" fill="#FBE5AA"/>
<path d="M147.51 255.17C147.39 253.24 144.83 250.56 142.09 248.33C141.6 250.84 141.09 253.38 140.54 255.94C140.2 257.573 139.867 259.213 139.54 260.86C143.73 258.95 147.58 256.47 147.51 255.17Z" fill="#FBE5AA"/>
<path d="M136.771 277.19C140.771 275.63 144.32 273.63 144.34 272.42C144.34 270.33 141.6 267.13 138.79 264.58C138 268.7 137.291 272.9 136.771 277.19Z" fill="#FBE5AA"/>
<path d="M142.55 286.53C142.36 284.53 139.42 282.08 136.43 280.2C136.18 282.81 136 285.45 135.94 288.14C135.94 289.6 135.94 291.05 136.01 292.48C139.65 290.21 142.66 287.71 142.55 286.53Z" fill="#FBE5AA"/>
<path d="M143.501 301C142.931 299.11 139.501 297.29 136.261 296.06C136.655 300.037 137.381 303.974 138.431 307.83C141.441 305 143.821 302 143.501 301Z" fill="#FBE5AA"/>
<path d="M146.84 314.41C145.98 312.81 142.65 311.79 139.46 311.26C140.592 314.776 141.955 318.214 143.54 321.55C145.74 318.41 147.34 315.33 146.84 314.41Z" fill="#FBE5AA"/>
<path d="M152.191 326.91C151.601 325.76 148.861 324.91 145.091 324.65C146.511 327.36 147.991 329.87 149.501 332.18C151.321 329.65 152.461 327.51 152.191 326.91Z" fill="#FBE5AA"/>
<path d="M157.82 335.44C157.34 334.9 156.17 334.6 154.53 334.6C153.458 334.614 152.388 334.707 151.33 334.88C152.925 337.152 154.634 339.341 156.45 341.44C157.64 338.44 158.24 336 157.82 335.44Z" fill="#FBE5AA"/>
<path d="M144.351 231C144.107 235.889 143.519 240.754 142.591 245.56C145.591 244.51 150.001 242.66 151.051 240.81C151.269 240.428 151.404 240.004 151.447 239.567C151.491 239.129 151.441 238.687 151.301 238.27C150.551 235.72 147.181 232.94 144.351 231Z" fill="#FBE5AA"/>
<path d="M73.0003 267.78C72.4251 267.699 71.8935 267.428 71.4903 267.01C71.0441 266.514 70.7103 265.928 70.5118 265.291C70.3134 264.654 70.2548 263.982 70.3403 263.32V263.17C70.3394 262.517 70.5518 261.881 70.9453 261.359C71.3388 260.837 71.8918 260.459 72.5203 260.28C70.5577 257.358 68.0768 254.819 65.2003 252.79C64.0003 254.36 62.8003 256.1 61.5503 258L61.0003 258.84L60.4603 259.68C58.537 262.715 56.7811 265.853 55.2003 269.08L54.7603 269.98L54.3403 270.89C52.9646 273.853 51.7658 276.895 50.7503 280C50.0203 282.26 49.4103 284.41 48.9203 286.48V286.55L48.8303 286.95C48.8303 287.15 48.7503 287.34 48.7003 287.54L48.6003 288.01L48.4803 288.6C46.4803 298.51 47.5603 306.31 51.9403 313.31C52.1203 313.6 52.3103 313.9 52.5103 314.19C52.7103 314.48 52.9203 314.79 53.1403 315.09C55.0779 317.721 57.3015 320.129 59.7703 322.27H59.8603C60.5503 322.34 61.2503 322.37 61.9403 322.37C66.2903 322.37 73.0703 321.04 79.4903 314.37C78.8903 300.59 77.8903 285.7 76.3903 274.96C75.438 272.487 74.305 270.087 73.0003 267.78Z" fill="#FAC9B7"/>
<path d="M90.6402 250.22L89.9902 250.06C84.93 248.893 79.9709 247.325 75.1602 245.37C74.2202 244.99 73.3002 244.61 72.4102 244.22C70.2907 246.448 68.288 248.785 66.4102 251.22C69.7938 253.581 72.6507 256.618 74.8002 260.14V260.23C77.8002 261.15 81.7201 267.72 83.3401 270.65C84.2501 272.3 85.5802 274.27 87.7502 274.96C89.615 275.447 91.5136 275.795 93.4302 276C93.7368 267.317 92.7972 258.636 90.6402 250.22Z" fill="#FAC9B7"/>
<path d="M79.46 284.29C80.32 293 80.93 302.89 81.36 312.24C84.6682 308.013 87.2842 303.288 89.11 298.24C89.9627 296.001 90.684 293.713 91.27 291.39C88.8141 291.366 86.3712 291.03 84 290.39C82.25 289.92 80.68 287.19 79.46 284.29Z" fill="#FAC9B7"/>
<path d="M88.2909 19.37C83.9022 14.2534 78.5243 10.0771 72.4804 7.09212C66.4364 4.1071 59.8513 2.37502 53.1209 2C52.4409 2 51.7609 2 51.1209 2C29.1109 2 3.08089 16.14 2.00089 56C1.20089 86.22 21.1509 104.3 32.3409 112C34.9609 112.33 38.5409 115.12 39.8709 116.22L41.3309 115.93C43.2074 115.017 45.2471 114.486 47.3309 114.37H47.6309C63.6309 109.96 96.7509 96.97 100.311 64.66C102.321 46.53 98.1709 30.85 88.2909 19.37ZM20.9009 15.86C21.5209 14.2 24.2209 13.36 28.9009 13.36H29.3409C30.4409 11.27 32.6609 7.58 34.6409 7.36H34.7909C36.8609 7.36 38.6909 11.36 39.7109 14.12C41.7709 14.37 46.8409 15.26 47.1309 18.12C47.4009 20.76 43.2209 23.46 41.3109 24.54C42.0509 27.27 42.9809 32.12 40.6609 33.04C40.3705 33.1508 40.0616 33.2051 39.7509 33.2C37.6609 33.2 34.5909 30.82 33.2109 29.64C31.8409 30.54 28.7409 32.39 26.5909 32.39C26.184 32.4103 25.7784 32.3295 25.4103 32.1551C25.0421 31.9806 24.7228 31.7178 24.4809 31.39C22.9209 29.28 24.5709 25.29 25.4809 23.53C23.6109 21.92 20.0009 18.18 20.9009 15.86ZM23.4609 67.31C23.1705 67.4208 22.8616 67.4751 22.5509 67.47C20.4609 67.47 17.3909 65.09 16.0109 63.92C14.6409 64.82 11.5409 66.67 9.39089 66.67C8.98399 66.6903 8.57841 66.6096 8.21026 66.4351C7.84212 66.2606 7.52284 65.9978 7.28089 65.67C5.72089 63.56 7.37089 59.57 8.28089 57.81C6.46089 56.11 2.87089 52.38 3.75089 50.05C4.37089 48.39 7.07089 47.55 11.7509 47.55H12.1909C13.2909 45.46 15.5109 41.77 17.4909 41.55H17.6409C19.7109 41.55 21.5409 45.55 22.5609 48.31C24.6209 48.56 29.6909 49.45 29.9809 52.31C30.1909 55 26.0009 57.73 24.1009 58.81C24.8409 61.53 25.7809 66.38 23.4609 67.31ZM46.5909 94.31C47.3309 97.04 48.2609 101.89 45.9409 102.81C45.6432 102.935 45.3237 102.999 45.0009 103C42.9109 103 39.8409 100.62 38.4609 99.44C37.0909 100.34 33.9809 102.19 31.8409 102.19C31.4341 102.209 31.0288 102.128 30.6608 101.954C30.2928 101.779 29.9735 101.517 29.7309 101.19C28.1709 99.08 29.8209 95.09 30.7309 93.33C28.9109 91.63 25.3309 87.9 26.2009 85.57C26.8209 83.91 29.5209 83.06 34.2009 83.06H34.6409C35.7409 80.97 37.9609 77.28 39.9409 77.06H40.0909C42.1609 77.06 43.9909 81.06 45.0109 83.82C47.0709 84.07 52.1409 84.96 52.4309 87.82C52.6709 90.54 48.4909 93.24 46.5909 94.32V94.31ZM59.3509 56.64C60.0909 59.37 61.0209 64.22 58.7009 65.14C58.4104 65.2506 58.1016 65.3049 57.7909 65.3C55.7009 65.3 52.6309 62.92 51.2509 61.75C49.8809 62.65 46.7809 64.5 44.6309 64.5C44.224 64.5203 43.8184 64.4395 43.4503 64.2651C43.0821 64.0906 42.7628 63.8278 42.5209 63.5C40.9609 61.39 42.6109 57.4 43.5209 55.64C41.7009 53.94 38.1109 50.21 38.9909 47.88C39.6109 46.22 42.3109 45.38 46.9909 45.38H47.4309C48.5309 43.29 50.7509 39.6 52.7309 39.38H52.8809C54.9509 39.38 56.7809 43.38 57.8009 46.14C59.8609 46.39 64.9309 47.28 65.2209 50.14C65.4309 52.86 61.2509 55.55 59.3509 56.64ZM62.5409 22.64C63.1609 20.98 65.8609 20.14 70.5409 20.14H71.0009C72.1009 18.05 74.3209 14.36 76.3009 14.14H76.4509C78.5209 14.14 80.3509 18.14 81.3709 20.9C83.4309 21.15 88.5009 22.04 88.7909 24.9C89.0609 27.54 84.8809 30.24 82.9809 31.32C83.7209 34.05 84.6509 38.9 82.3309 39.82C82.0405 39.9308 81.7316 39.9851 81.4209 39.98C79.3309 39.98 76.2609 37.6 74.8809 36.43C73.5109 37.33 70.4109 39.18 68.2609 39.18C67.854 39.2003 67.4484 39.1195 67.0803 38.9451C66.7121 38.7706 66.3928 38.5078 66.1509 38.18C64.5909 36.07 66.2409 32.08 67.1509 30.32C65.2609 28.71 61.6709 25 62.5409 22.65V22.64ZM86.3409 83.3C87.0809 86.03 88.0109 90.88 85.6909 91.8C85.4012 91.9142 85.0923 91.9719 84.7809 91.97C82.6909 91.97 79.6209 89.59 78.2409 88.42C76.8709 89.32 73.7709 91.17 71.6209 91.17C71.214 91.1903 70.8084 91.1096 70.4403 90.9351C70.0721 90.7606 69.7528 90.4978 69.5109 90.17C67.9509 88.06 69.6009 84.07 70.5109 82.31C68.6909 80.61 65.1009 76.88 65.9809 74.55C66.6009 72.89 69.3009 72.05 73.9809 72.05H74.4209C75.5209 69.96 77.7409 66.27 79.7209 66.05H79.8709C81.9409 66.05 83.7709 70.05 84.7909 72.81C86.8509 73.06 91.9209 73.95 92.2109 76.81C92.4309 79.52 88.2509 82.22 86.3409 83.3Z" fill="#C2E6FA"/>
<path d="M39.8 118.5C38.4385 119.676 36.9762 120.73 35.43 121.65C34.73 122.09 34.06 122.51 33.71 122.8C33.81 123.43 35.07 125.12 38.03 125.68H38.37C38.7414 125.727 39.1155 125.751 39.49 125.75C39.79 125.75 40.08 125.75 40.37 125.75C42.2 125.61 43.75 125.08 44.04 124.59C44.04 124.59 44.04 124.53 44.04 124.41C41.94 120.49 40.39 118.76 39.8 118.5Z" fill="#C2E6FA"/>
<path d="M49.7405 251.22C47.7405 248.98 47.5805 246.13 47.6605 243.9C47.6605 242.63 47.6605 241.4 47.6605 240.24C46.3817 239.034 45.2106 237.719 44.1605 236.31C44.0953 239.879 43.6222 243.429 42.7505 246.89C41.0005 252.95 40.4305 258.57 41.4605 259.69C43.9605 262.42 50.0305 266.12 53.4605 268.1C55.0727 264.807 56.8654 261.605 58.8305 258.51C55.8205 256.32 51.1505 252.82 49.7405 251.22Z" fill="#DEE8AD"/>
<path d="M47.4901 237.2C47.2301 234.4 46.7401 232.4 46.1101 231.99C44.7801 231.14 44.5101 231.37 43.8701 232.1V232.16C44.8569 233.988 46.0735 235.681 47.4901 237.2Z" fill="#DEE8AD"/>
<path d="M46.3508 288.92C42.3508 289.5 37.9208 290.02 35.7608 289.8C34.0868 289.502 32.4595 288.984 30.9208 288.26C28.4708 287.26 25.6908 286.12 24.3608 286.88C24.0526 287.115 23.8022 287.417 23.6289 287.764C23.4556 288.111 23.3639 288.492 23.3608 288.88C22.4608 295 32.6308 309.88 36.3108 313.94C37.8608 315.65 43.9508 315.03 49.8508 313.8C45.4908 306.52 44.5308 298.55 46.3508 288.92Z" fill="#DEE8AD"/>
<path d="M168.69 353.07C168.39 352.91 168.079 352.77 167.76 352.65C167.25 352.44 166.56 352.16 165.59 351.65C164.226 350.96 162.933 350.136 161.73 349.19C160.046 347.965 158.491 346.571 157.09 345.03L156.34 344.23L155.61 343.43C153.4 340.924 151.339 338.29 149.44 335.54L149.23 335.24L148.83 334.66L148.62 334.35L148.25 333.79L148.03 333.45C146.78 331.54 145.53 329.45 144.33 327.31C143.964 326.643 143.6 325.977 143.24 325.31L142.74 324.31L142.36 323.54C142.2 323.21 142.03 322.88 141.87 322.54C140.22 319.095 138.8 315.544 137.62 311.91L137.43 311.33L137.31 310.96L137.1 310.29L137 310C136.9 309.66 136.8 309.31 136.71 309C135.5 304.723 134.68 300.345 134.26 295.92C134.26 295.55 134.19 295.19 134.16 294.82C134.16 294.65 134.16 294.49 134.16 294.33C134.16 293.98 134.16 293.62 134.1 293.26C134.01 291.58 133.97 289.89 134 288.18C134.03 286.47 134.11 285.01 134.22 283.44C134.29 282.36 134.38 281.28 134.48 280.21C134.48 279.86 134.55 279.51 134.58 279.21C134.58 278.87 134.66 278.53 134.7 278.21C134.74 277.89 134.78 277.49 134.82 277.14C135.39 272.45 136.17 267.88 137.05 263.41C137.13 263 137.22 262.59 137.3 262.18L137.52 261.08C137.707 260.147 137.897 259.217 138.09 258.29L138.62 255.73L139.38 252.07C139.647 250.737 139.907 249.44 140.16 248.18L140.36 247.18L140.56 246.11L140.76 245.02C140.83 244.62 140.91 244.22 140.98 243.82C141.704 239.853 142.181 235.846 142.41 231.82C142.41 231.41 142.41 230.99 142.47 230.58C142.53 230.17 142.47 229.78 142.47 229.38C142.47 229.24 142.47 229.09 142.47 228.95C142.47 228.57 142.47 228.18 142.47 227.8C142.428 225.524 142.217 223.255 141.84 221.01C141.589 219.552 141.255 218.11 140.84 216.69C140.71 216.25 140.59 215.81 140.44 215.37C140.29 214.93 140.11 214.43 139.93 213.97C139.75 213.51 139.62 213.1 139.44 212.67V212.62C138.98 211.52 138.44 210.46 137.93 209.44C136.374 206.482 134.466 203.722 132.25 201.22C131.96 200.9 131.68 200.58 131.38 200.27L131.27 200.15L130.51 199.35L129.96 198.81L129.04 197.94C125.063 194.292 120.564 191.259 115.69 188.94L114.69 188.45H114.63L113.63 188.02L113.5 187.96L112.38 187.49C110.661 186.777 108.897 186.176 107.1 185.69C104.27 184.997 101.374 184.609 98.4605 184.53H97.6705C96.8905 184.53 96.1305 184.53 95.3605 184.61C94.5905 184.69 93.9005 184.72 93.1705 184.82C92.6905 184.88 92.1705 184.95 91.7205 185.04C86.1772 186.037 80.8776 188.091 76.1105 191.09C72.2288 193.664 68.5814 196.576 65.2105 199.79C62.7305 202.02 60.2105 204.32 57.5105 206.31C49.5105 212.31 47.2505 217.68 50.2305 223.7C53.7005 230.7 61.0405 236.8 72.6905 242.37C72.7621 242.405 72.8292 242.449 72.8905 242.5L73.3605 242.7H73.4505C74.1171 242.993 74.7838 243.283 75.4505 243.57C80.7196 245.713 86.1585 247.412 91.7105 248.65C91.7805 248.65 98.9505 250.23 104.21 249.58C104.476 249.548 104.743 249.623 104.953 249.788C105.163 249.953 105.299 250.195 105.33 250.46C105.362 250.725 105.287 250.992 105.122 251.202C104.957 251.412 104.716 251.548 104.45 251.58C103.428 251.698 102.4 251.755 101.37 251.75C98.519 251.711 95.6757 251.433 92.8705 250.92C94.9023 259.291 95.7738 267.902 95.4605 276.51L97.3105 276.7C97.5757 276.712 97.8253 276.829 98.0044 277.025C98.1835 277.221 98.2774 277.48 98.2655 277.745C98.2535 278.01 98.1367 278.26 97.9408 278.439C97.7448 278.618 97.4857 278.712 97.2205 278.7H97.1305L95.3605 278.52L94.3605 278.41L93.3605 278.28C91.2942 278.048 89.2484 277.66 87.2405 277.12C84.4005 276.22 82.7705 273.84 81.6805 271.87C80.1506 268.991 78.3096 266.288 76.1905 263.81C75.3505 262.91 74.6605 262.37 74.1905 262.36C73.9806 262.349 73.7703 262.349 73.5605 262.36C72.5605 262.43 72.4805 262.83 72.3405 263.74V263.89C72.3008 264.246 72.3325 264.606 72.4338 264.95C72.5351 265.293 72.704 265.613 72.9305 265.89C72.9919 265.966 73.0727 266.023 73.1643 266.057C73.2558 266.09 73.3547 266.098 73.4505 266.08C73.6459 266.052 73.8452 266.083 74.0231 266.169C74.2011 266.254 74.3498 266.39 74.4505 266.56C74.4505 266.62 74.7405 267.05 75.1005 267.72C76.3412 269.973 77.4173 272.312 78.3205 274.72C78.6005 275.49 78.8605 276.27 79.0605 277.04C80.7105 283.2 83.1405 288.37 84.5905 288.81C86.9306 289.425 89.341 289.731 91.7605 289.72H92.7605H93.7605C95.6705 289.72 97.0105 289.53 97.0405 289.53H97.1505C97.4157 289.515 97.6758 289.607 97.8737 289.784C98.0715 289.961 98.1909 290.21 98.2055 290.475C98.2201 290.74 98.1287 291 97.9515 291.198C97.7743 291.396 97.5257 291.515 97.2605 291.53C97.1205 291.53 95.5105 291.71 93.2605 291.75C92.6528 294.21 91.8981 296.631 91.0005 299C88.8791 304.934 85.6598 310.417 81.5105 315.16C81.7405 320.62 81.9005 325.82 82.0105 330.42C82.0605 332.67 82.1005 334.76 82.1305 336.68C82.1305 337.067 82.1305 337.447 82.1305 337.82C82.1305 338.193 82.1305 338.57 82.1305 338.95C82.1305 341.25 82.1305 343.2 82.1305 344.7C82.1305 346.61 82.0705 348.59 82.0205 350.6C81.9505 353.26 81.8905 355.95 81.9005 358.6C86.8305 359.06 91.3705 359.02 93.4105 358.37C95.6405 357.66 97.9805 352.37 99.6905 347.02L99.9905 346.02L100.28 345.02C100.78 343.3 101.21 341.62 101.53 340.16C101.555 340.083 101.588 340.009 101.63 339.94C101.728 339.741 101.889 339.58 102.088 339.482C102.287 339.384 102.513 339.355 102.73 339.4C102.989 339.457 103.214 339.615 103.356 339.838C103.499 340.061 103.547 340.331 103.49 340.59C103.36 341.17 102.9 343.21 102.15 345.77C119.96 352.77 137.79 356.77 152.44 356.77C157.374 356.817 162.297 356.293 167.11 355.21C168.46 354.89 169.02 354.27 169.11 353.79C169.122 353.642 169.088 353.493 169.013 353.364C168.938 353.235 168.826 353.133 168.69 353.07ZM74.3005 204.45C73.6905 206.02 72.4505 206.99 71.5205 206.63C70.5905 206.27 70.3305 204.71 70.9305 203.15C71.5305 201.59 72.7805 200.61 73.7105 200.97C74.6405 201.33 74.9005 202.89 74.3005 204.45ZM104.22 222.91C103.62 224.48 102.37 225.45 101.44 225.09C100.51 224.73 100.25 223.17 100.85 221.61C101.45 220.05 102.7 219.07 103.63 219.43C104.56 219.79 104.82 221.35 104.22 222.91Z" fill="#DEE8AD"/>
<path d="M80.1204 336.77C80.1204 336.397 80.1204 336.017 80.1204 335.63C80.1204 333.68 80.0504 331.63 80.0004 329.43C79.9104 325.57 79.7703 321.43 79.6003 317.08C74.9766 321.594 68.8199 324.197 62.3604 324.37C66.1603 327.325 70.171 329.999 74.3604 332.37C75.3604 329.72 76.0204 327.63 76.0404 327.58C76.0824 327.455 76.1486 327.34 76.2351 327.241C76.3217 327.142 76.4269 327.06 76.5449 327.002C76.6628 326.943 76.7911 326.909 76.9224 326.9C77.0538 326.891 77.1856 326.908 77.3103 326.95C77.4351 326.992 77.5504 327.058 77.6495 327.145C77.7487 327.231 77.8299 327.337 77.8884 327.454C77.9469 327.572 77.9816 327.701 77.9905 327.832C77.9994 327.963 77.9824 328.095 77.9404 328.22V328.35C77.7604 328.88 77.0703 330.91 76.1703 333.35L75.8204 334.35L75.4704 335.3C74.4593 338.172 73.2531 340.972 71.8604 343.68C70.8909 345.078 69.741 346.343 68.4404 347.44C66.5104 349.25 64.3204 351.3 64.4404 352.83C64.4904 353.44 64.9404 354.01 65.8204 354.58C68.6104 356.4 74.3804 357.71 80.0303 358.38C80.0303 355.77 80.0904 353.14 80.1504 350.53C80.1504 348.53 80.2504 346.53 80.2604 344.66C80.2704 342.79 80.2604 340.44 80.2604 337.89C80.1737 337.523 80.127 337.15 80.1204 336.77Z" fill="#DEE8AD"/>
<path d="M74.3504 34.39C74.5356 34.2576 74.7604 34.1924 74.9877 34.2052C75.215 34.2179 75.4311 34.3078 75.6004 34.46C77.2404 35.94 80.1304 38 81.4004 38C81.4566 38.0103 81.5142 38.0103 81.5704 38C82.0804 37.53 81.7204 34.19 80.8204 31.15C80.7549 30.9272 80.769 30.6887 80.8603 30.4752C80.9515 30.2617 81.1142 30.0866 81.3204 29.98C84.0504 28.55 86.9004 26.26 86.7904 25.14C86.6804 24.02 83.4204 23.14 80.5504 22.88C80.3587 22.8643 80.1757 22.7937 80.0232 22.6766C79.8706 22.5596 79.7551 22.401 79.6904 22.22C78.6904 19.22 77.0804 16.39 76.4004 16.22C75.7704 16.32 73.8704 18.91 72.4904 21.65C72.4036 21.8227 72.2686 21.9666 72.1018 22.0642C71.935 22.1618 71.7434 22.2089 71.5504 22.2C71.5504 22.2 71.1504 22.2 70.5504 22.2C66.4204 22.2 64.5504 22.94 64.4204 23.41C64.1204 24.21 66.2904 27.11 68.9804 29.5C69.1496 29.6508 69.2626 29.8547 69.3007 30.0782C69.3389 30.3017 69.3 30.5315 69.1904 30.73C68.1304 32.68 66.9304 36.07 67.7204 37.14C67.8104 37.26 68.0404 37.28 68.2204 37.28C69.7704 37.22 72.8004 35.49 74.3504 34.39Z" fill="white"/>
<path d="M56.9301 48.15C56.7385 48.1343 56.5555 48.0637 56.4029 47.9466C56.2504 47.8296 56.1349 47.671 56.0701 47.49C55.0701 44.49 53.4601 41.66 52.7801 41.49C52.1501 41.59 50.2501 44.18 48.8701 46.92C48.7834 47.0927 48.6484 47.2366 48.4816 47.3342C48.3147 47.4318 48.1232 47.479 47.9301 47.47C47.9301 47.47 47.5301 47.47 46.9301 47.47C42.7901 47.47 40.9301 48.21 40.8001 48.68C40.5001 49.48 42.6801 52.38 45.3701 54.77C45.5394 54.9208 45.6524 55.1247 45.6905 55.3482C45.7287 55.5717 45.6897 55.8015 45.5801 56C44.5201 57.95 43.3201 61.34 44.1101 62.41C44.2001 62.53 44.4301 62.55 44.6101 62.55C46.1501 62.55 49.1801 60.81 50.7301 59.72C50.9153 59.5876 51.1402 59.5224 51.3674 59.5352C51.5947 59.5479 51.8109 59.6378 51.9801 59.79C53.6201 61.27 56.5101 63.35 57.7801 63.35C57.8363 63.3605 57.894 63.3605 57.9501 63.35C58.4601 62.88 58.1001 59.54 57.2001 56.5C57.1347 56.2772 57.1488 56.0387 57.2401 55.8252C57.3313 55.6117 57.4939 55.4367 57.7001 55.33C60.4301 53.9 63.2801 51.61 63.1701 50.49C63.0601 49.37 59.8001 48.4 56.9301 48.15Z" fill="white"/>
<path d="M27.33 22.65C27.4992 22.8009 27.6122 23.0048 27.6503 23.2282C27.6885 23.4517 27.6496 23.6815 27.54 23.88C26.48 25.83 25.28 29.22 26.07 30.29C26.16 30.41 26.39 30.43 26.57 30.43C28.11 30.43 31.14 28.69 32.69 27.6C32.8752 27.4677 33.1 27.4025 33.3273 27.4152C33.5545 27.4279 33.7707 27.5178 33.94 27.67C35.58 29.15 38.47 31.23 39.74 31.23C39.7962 31.2403 39.8538 31.2403 39.91 31.23C40.42 30.76 40.06 27.42 39.16 24.38C39.0945 24.1573 39.1087 23.9187 39.1999 23.7052C39.2911 23.4918 39.4538 23.3167 39.66 23.21C42.39 21.78 45.24 19.49 45.13 18.37C45.02 17.25 41.76 16.37 38.88 16.11C38.6883 16.0943 38.5053 16.0237 38.3528 15.9067C38.2002 15.7896 38.0847 15.6311 38.02 15.45C37.02 12.45 35.41 9.62001 34.73 9.45001C34.1 9.55001 32.2 12.14 30.82 14.88C30.7332 15.0527 30.5982 15.1966 30.4314 15.2942C30.2646 15.3918 30.073 15.439 29.88 15.43C29.88 15.43 29.48 15.43 28.88 15.43C24.75 15.43 22.88 16.17 22.75 16.64C22.47 17.36 24.64 20.26 27.33 22.65Z" fill="white"/>
<path d="M21.6802 50.33C21.4886 50.3143 21.3056 50.2437 21.153 50.1266C21.0005 50.0096 20.885 49.851 20.8202 49.67C19.8202 46.67 18.2102 43.84 17.5302 43.67C16.9002 43.77 15.0002 46.36 13.6202 49.1C13.5335 49.2727 13.3985 49.4166 13.2317 49.5142C13.0649 49.6118 12.8733 49.659 12.6802 49.65C12.6802 49.65 12.2802 49.65 11.6802 49.65C7.55024 49.65 5.68024 50.39 5.55024 50.86C5.25024 51.66 7.42024 54.56 10.1102 56.95C10.2795 57.1008 10.3925 57.3047 10.4306 57.5282C10.4688 57.7517 10.4299 57.9815 10.3202 58.18C9.26024 60.13 8.06024 63.52 8.85024 64.59C8.94024 64.71 9.17024 64.73 9.35024 64.73C10.8902 64.73 13.9202 62.99 15.4702 61.9C15.6555 61.7676 15.8803 61.7024 16.1076 61.7152C16.3348 61.7279 16.551 61.8178 16.7202 61.97C18.3602 63.45 21.2502 65.53 22.5202 65.53C22.5764 65.5403 22.634 65.5403 22.6902 65.53C23.2002 65.06 22.8402 61.72 21.9402 58.68C21.8748 58.4572 21.8889 58.2187 21.9802 58.0052C22.0714 57.7917 22.234 57.6166 22.4402 57.51C25.1902 56 28.0002 53.71 27.9302 52.59C27.8602 51.47 24.5602 50.58 21.6802 50.33Z" fill="white"/>
<path d="M84.7005 81.92C87.4305 80.49 90.2805 78.2 90.1705 77.08C90.0605 75.96 86.8005 75.08 83.9205 74.82C83.7288 74.8043 83.5458 74.7337 83.3933 74.6167C83.2408 74.4996 83.1252 74.3411 83.0605 74.16C82.0605 71.16 80.4505 68.33 79.7705 68.16C79.1405 68.26 77.2405 70.85 75.8605 73.59C75.7737 73.7627 75.6387 73.9066 75.4719 74.0042C75.3051 74.1018 75.1135 74.149 74.9205 74.14C74.9205 74.14 74.5205 74.14 73.9205 74.14C69.7805 74.14 67.9205 74.88 67.7905 75.35C67.4905 76.15 69.6605 79.05 72.3505 81.44C72.5197 81.5909 72.6327 81.7948 72.6709 82.0183C72.709 82.2417 72.6701 82.4716 72.5605 82.67C71.5005 84.62 70.3005 88.01 71.0905 89.08C71.1805 89.2 71.4105 89.22 71.5905 89.22C73.1305 89.22 76.1605 87.48 77.7105 86.39C77.8957 86.2577 78.1205 86.1925 78.3478 86.2052C78.5751 86.2179 78.7912 86.3078 78.9605 86.46C80.6005 87.94 83.4905 90.02 84.7605 90.02C84.8167 90.0304 84.8743 90.0304 84.9305 90.02C85.4305 89.55 85.0805 86.21 84.1805 83.17C84.0946 82.9344 84.1005 82.6752 84.1968 82.4436C84.2931 82.2121 84.4729 82.0252 84.7005 81.92Z" fill="white"/>
<path d="M44.1704 85.84C43.9787 85.8243 43.7957 85.7537 43.6432 85.6366C43.4906 85.5196 43.3751 85.361 43.3104 85.18C42.3104 82.18 40.7004 79.35 40.0204 79.18C39.3904 79.28 37.4904 81.87 36.1104 84.61C36.0236 84.7827 35.8886 84.9266 35.7218 85.0242C35.555 85.1218 35.3634 85.169 35.1704 85.16C35.1704 85.16 34.7704 85.16 34.1704 85.16C30.0304 85.16 28.1704 85.9 28.0404 86.37C27.7404 87.17 29.9204 90.07 32.6004 92.46C32.7696 92.6108 32.8826 92.8147 32.9207 93.0382C32.9589 93.2617 32.92 93.4915 32.8104 93.69C31.7704 95.58 30.5704 99 31.3604 100C31.4504 100.12 31.6804 100.14 31.8604 100.14C33.5904 100.14 36.8604 98.14 37.9804 97.31C38.1656 97.1776 38.3904 97.1124 38.6177 97.1252C38.845 97.1379 39.0611 97.2278 39.2304 97.38C40.8804 98.91 43.7604 101 45.0004 101C45.0565 101.011 45.1142 101.011 45.1704 101C45.6804 100.53 45.3204 97.19 44.4204 94.15C44.3549 93.9273 44.3691 93.6887 44.4603 93.4752C44.5515 93.2617 44.7142 93.0867 44.9204 92.98C47.6504 91.55 50.5004 89.26 50.3904 88.14C50.2804 87.02 47.0004 86.09 44.1704 85.84Z" fill="white"/>
<path d="M169.69 351.34C169.31 351.133 168.916 350.953 168.51 350.8C168.01 350.6 167.38 350.34 166.51 349.89C165.263 349.258 164.08 348.504 162.98 347.64L162.89 347.58C161.097 346.275 159.451 344.78 157.98 343.12C159.43 339.7 160.69 335.62 159.34 334.12C158.43 333.12 156.87 332.62 154.56 332.62C153.556 332.63 152.554 332.707 151.56 332.85C153.36 330.27 154.79 327.51 154.02 326.01C152.83 323.7 148.76 322.91 145.28 322.67C147.42 319.62 149.75 315.54 148.65 313.48C147.3 310.98 143.09 309.83 139.82 309.3C142.72 306.62 146.18 302.8 145.46 300.4C144.6 297.52 140.4 295.4 137.14 294.2C140.6 292.06 144.83 288.9 144.59 286.36C144.31 283.5 141.01 280.76 138.09 278.87C141.74 277.42 146.34 275.09 146.38 272.47C146.38 269.27 142.74 265.39 139.94 262.91C143.52 261.34 149.73 258.17 149.54 255.07C149.38 252.42 146.62 249.49 143.98 247.28C146.98 246.18 151.49 244.23 152.83 241.88C153.184 241.264 153.405 240.582 153.479 239.875C153.553 239.169 153.479 238.456 153.26 237.78C152.26 234.48 148.44 231.38 145.53 229.43C148.8 227.04 152.71 223.61 152.27 221.11C151.69 217.77 146.9 214.9 143.63 213.31C145.76 209.31 148.83 202.43 146.63 199.89C145.02 198.03 141.63 197.09 136.63 197.09C135.23 197.09 133.89 197.16 132.72 197.26C133.28 192.05 133.63 183.58 130.32 181.79C129.368 181.304 128.309 181.064 127.24 181.09C123.54 181.09 118.8 183.39 115.39 185.38C114.99 181.86 114.13 177.55 112.27 175.69C111.727 175.143 111.078 174.711 110.363 174.423C109.648 174.134 108.882 173.993 108.11 174.01C102.71 174.01 96.0204 180.29 93.8504 182.48C93.0204 182.57 92.1904 182.67 91.3404 182.82C85.5404 183.848 79.9926 185.983 75.0004 189.11C71.0188 191.738 67.2775 194.713 63.8204 198C61.3704 200.2 58.8204 202.47 56.2604 204.41C50.7104 208.57 43.8604 215.15 48.3904 224.29C51.9304 231.44 59.1804 237.66 70.5304 243.29C69.3504 244.53 67.2704 246.82 64.7804 250.01C63.1204 248.85 61.4104 247.74 59.7104 246.64C56.1611 244.484 52.7933 242.043 49.6404 239.34C49.4904 235.62 48.9304 231.41 47.1804 230.34C45.1804 229.06 43.9404 229.43 43.1204 230.08C41.1204 222.9 38.8204 199.73 40.3304 127.8C42.2204 127.68 44.8704 127.14 45.7604 125.66C45.9531 125.335 46.0548 124.963 46.0548 124.585C46.0548 124.207 45.9531 123.835 45.7604 123.51C45.1304 122.32 44.5604 121.35 44.0404 120.51C45.2742 120.997 46.5845 121.261 47.9104 121.29C49.9104 121.29 51.3804 120.54 51.9104 119.29C52.1296 118.708 52.1686 118.073 52.0224 117.469C51.8762 116.864 51.5514 116.318 51.0904 115.9C51.0004 115.81 50.9004 115.74 50.8004 115.65C57.0398 113.804 63.0981 111.394 68.9004 108.45C88.7604 98.24 100.3 83.21 102.31 65C104.38 46.23 100.05 30 89.8104 18.11C85.2442 12.7792 79.6471 8.42694 73.3556 5.31474C67.0642 2.20254 60.2084 0.394731 53.2004 0C52.5004 0 51.7904 0 51.0704 0C28.2104 0 1.11043 14.65 0.000434462 56C-0.789566 86 18.2104 104.36 29.9204 112.82C29.7792 112.962 29.655 113.119 29.5504 113.29C29.232 113.749 29.0482 114.289 29.02 114.847C28.9917 115.406 29.12 115.961 29.3904 116.45C30.2604 117.98 32.6004 118.87 35.8104 118.87H36.1204C35.5104 119.28 34.8904 119.68 34.3404 120.03C33.5714 120.473 32.842 120.982 32.1604 121.55C31.9145 121.813 31.749 122.142 31.6835 122.496C31.6179 122.85 31.655 123.216 31.7904 123.55C32.2804 125.18 34.2704 127.11 37.6304 127.75C37.8404 127.75 38.0704 127.81 38.3004 127.84C37.4204 169.66 37.3004 220.24 41.5904 232.01C41.1634 232.881 41.0335 233.868 41.2204 234.82C41.348 235.399 41.6689 235.918 42.1304 236.29C42.0654 239.713 41.616 243.118 40.7904 246.44C40.0004 249.12 37.5704 258.42 40.0004 261C42.7404 264 49.1204 267.87 52.6004 269.87L52.4004 270.31C51.0525 273.24 49.8738 276.245 48.8704 279.31C48.0304 281.91 47.3404 284.39 46.8004 286.78C42.8004 287.38 38.0804 287.97 35.9804 287.78C34.4982 287.492 33.0572 287.022 31.6904 286.38C28.6904 285.15 25.5604 283.88 23.3804 285.12C22.8021 285.496 22.3199 286.001 21.9726 286.597C21.6252 287.193 21.4224 287.862 21.3804 288.55C20.2604 296.13 31.7804 311.9 34.8304 315.24C35.9504 316.48 38.1804 316.93 40.8304 316.93C44.2573 316.832 47.6652 316.383 51.0004 315.59C55.5004 322.12 62.8704 328.13 73.5904 334.31C72.5841 337.181 71.3847 339.981 70.0004 342.69C69.1393 343.912 68.1318 345.023 67.0004 346C64.6204 348.23 62.1704 350.53 62.3904 353C62.49 353.682 62.7481 354.332 63.144 354.896C63.54 355.46 64.0628 355.924 64.6704 356.25C67.7404 358.25 73.9504 359.66 79.9804 360.36C79.9605 364.603 80.3659 368.838 81.1904 373C81.2412 373.226 81.3686 373.427 81.551 373.569C81.7333 373.711 81.9593 373.786 82.1904 373.78H82.4104C82.6688 373.723 82.8939 373.565 83.0363 373.342C83.1788 373.119 83.227 372.849 83.1704 372.59C82.3744 368.64 81.9724 364.62 81.9704 360.59C84.1204 360.78 86.1904 360.89 88.0504 360.89C90.0684 360.963 92.087 360.761 94.0504 360.29C97.3004 359.29 99.9204 352.99 101.58 347.79C119.58 354.87 137.58 358.79 152.46 358.79C157.549 358.835 162.626 358.292 167.59 357.17C169.59 356.7 170.88 355.55 171.09 354.1C171.167 353.552 171.073 352.994 170.823 352.5C170.573 352.007 170.178 351.602 169.69 351.34ZM35.4304 121.65C36.9766 120.73 38.4389 119.676 39.8004 118.5C40.3904 118.76 41.9404 120.5 44.0104 124.41C44.0804 124.54 44.0604 124.56 44.0104 124.59C43.7204 125.08 42.1704 125.59 40.3404 125.75C40.0504 125.75 39.7604 125.75 39.4604 125.75C39.086 125.751 38.7119 125.727 38.3404 125.68H38.0004C35.0004 125.12 33.7804 123.43 33.6804 122.8C34.0604 122.51 34.7204 122.09 35.4304 121.65ZM2.00043 56C3.08043 16.14 29.1104 2 51.0704 2C51.7604 2 52.4404 2 53.0704 2C59.8095 2.36839 66.4041 4.0973 72.4571 7.08254C78.5101 10.0678 83.896 14.2476 88.2904 19.37C98.1604 30.85 102.29 46.53 100.29 64.73C96.7604 97 63.6104 110 47.6404 114.44H47.3404C45.2567 114.556 43.217 115.087 41.3404 116L39.8804 116.29C38.5504 115.18 34.9704 112.4 32.3504 112.07C21.1704 104.31 1.23043 86.22 2.00043 56ZM49.6404 117.23C49.8404 117.45 50.3004 118.02 50.1004 118.46C49.9004 118.9 49.1804 119.27 47.9104 119.27C46.0979 119.181 44.3356 118.645 42.7804 117.71C44.1504 117.41 45.9004 117 47.9204 116.45C48.5785 116.488 49.1989 116.769 49.6604 117.24L49.6404 117.23ZM35.8104 116.81C32.9404 116.81 31.4904 116.05 31.1304 115.41C31.0704 115.3 30.8704 114.95 31.2804 114.26C31.3248 114.185 31.3876 114.123 31.4629 114.079C31.5382 114.035 31.6234 114.012 31.7104 114.01C33.4304 115.18 34.9304 116.11 36.1004 116.79L35.8104 116.81ZM152.43 356.81C137.78 356.81 119.95 352.88 102.14 345.81C102.89 343.25 103.35 341.21 103.48 340.63C103.537 340.371 103.489 340.101 103.346 339.878C103.204 339.655 102.979 339.497 102.72 339.44C102.503 339.395 102.277 339.424 102.078 339.522C101.879 339.62 101.718 339.781 101.62 339.98C101.578 340.049 101.545 340.123 101.52 340.2C101.2 341.66 100.77 343.33 100.27 345.06L99.9804 346.06L99.6804 347.06C97.9804 352.4 95.6804 357.7 93.4004 358.41C91.4004 359.06 86.8204 359.11 81.8904 358.64C81.8904 355.98 81.9504 353.29 82.0104 350.64C82.0104 348.64 82.1104 346.64 82.1204 344.74C82.1204 343.24 82.1204 341.29 82.1204 338.99C82.1204 338.623 82.1204 338.247 82.1204 337.86C82.1204 337.473 82.1204 337.093 82.1204 336.72C82.1204 334.81 82.0504 332.72 82.0004 330.46C81.8904 325.86 81.7304 320.66 81.5004 315.2C85.6576 310.445 88.8806 304.949 91.0004 299C91.9406 296.531 92.7255 294.007 93.3504 291.44C95.5604 291.44 97.1704 291.24 97.3504 291.22C97.6156 291.205 97.8642 291.086 98.0414 290.888C98.2187 290.69 98.31 290.43 98.2954 290.165C98.2808 289.9 98.1615 289.651 97.9637 289.474C97.7658 289.297 97.5056 289.205 97.2404 289.22H97.1304C97.1304 289.22 95.7604 289.36 93.8504 289.41H92.8504H91.8504C89.431 289.421 87.0205 289.115 84.6804 288.5C83.2304 288.07 80.8004 282.9 79.1504 276.73C78.9504 275.96 78.6904 275.19 78.4104 274.41C77.5073 272.002 76.4311 269.663 75.1904 267.41C74.8204 266.74 74.5704 266.31 74.5404 266.25C74.4397 266.08 74.291 265.944 74.1131 265.859C73.9351 265.773 73.7359 265.742 73.5404 265.77C73.4447 265.788 73.3458 265.78 73.2542 265.747C73.1627 265.713 73.0819 265.656 73.0204 265.58C72.7939 265.303 72.6251 264.983 72.5238 264.639C72.4224 264.296 72.3907 263.936 72.4304 263.58V263.43C72.5804 262.52 72.6404 262.12 73.6504 262.05C73.8603 262.039 74.0706 262.039 74.2804 262.05C74.7204 262.05 75.4104 262.59 76.2804 263.5C78.3995 265.978 80.2405 268.681 81.7704 271.56C82.8604 273.56 84.4804 275.91 87.3304 276.81C89.2983 277.354 91.3038 277.752 93.3304 278L94.3304 278.13L95.3304 278.24L97.1004 278.42H97.1904C97.4557 278.432 97.7147 278.338 97.9107 278.159C98.1067 277.98 98.2235 277.73 98.2354 277.465C98.2474 277.2 98.1535 276.941 97.9744 276.745C97.7953 276.549 97.5456 276.432 97.2804 276.42L95.4304 276.23C95.7437 267.622 94.8722 259.011 92.8404 250.64C95.6457 251.153 98.4889 251.431 101.34 251.47C102.37 251.475 103.398 251.418 104.42 251.3C104.686 251.268 104.927 251.132 105.092 250.922C105.257 250.712 105.332 250.445 105.3 250.18C105.269 249.915 105.133 249.673 104.923 249.508C104.713 249.343 104.446 249.268 104.18 249.3C98.9204 249.94 91.7504 248.38 91.6804 248.37C86.1285 247.132 80.6896 245.433 75.4204 243.29C74.7538 243.003 74.0871 242.713 73.4204 242.42H73.3304L72.8604 242.22C72.7992 242.169 72.7321 242.125 72.6604 242.09C61.0104 236.52 53.6604 230.41 50.2004 223.42C47.2004 217.42 49.4604 212.03 57.4804 206.03C60.1304 204.03 62.7004 201.74 65.1804 199.51C68.5513 196.296 72.1987 193.384 76.0804 190.81C80.8475 187.811 86.1472 185.757 91.6904 184.76C92.1804 184.68 92.6904 184.61 93.1404 184.54C93.8704 184.44 94.6004 184.38 95.3304 184.33C96.0604 184.28 96.8704 184.25 97.6404 184.25H98.4304C101.343 184.329 104.24 184.717 107.07 185.41C108.867 185.896 110.631 186.497 112.35 187.21L113.47 187.68L113.6 187.74L114.6 188.17H114.66L115.66 188.66C120.534 190.979 125.033 194.012 129.01 197.66L129.93 198.54L130.48 199.08L131.24 199.88L131.35 200C131.64 200.31 131.93 200.63 132.22 200.95C134.436 203.452 136.343 206.212 137.9 209.17C138.44 210.17 138.9 211.24 139.41 212.35V212.4C139.59 212.83 139.74 213.27 139.9 213.7C140.06 214.13 140.25 214.63 140.41 215.1C140.57 215.57 140.68 215.98 140.81 216.42C141.225 217.84 141.559 219.282 141.81 220.74C142.187 222.985 142.398 225.254 142.44 227.53C142.44 227.91 142.44 228.29 142.44 228.68C142.44 228.82 142.44 228.97 142.44 229.11C142.44 229.51 142.44 229.91 142.44 230.31C142.44 230.71 142.44 231.13 142.38 231.55C142.151 235.576 141.674 239.583 140.95 243.55C140.88 243.95 140.81 244.35 140.73 244.75L140.53 245.84L140.33 246.91L140.13 247.91C139.884 249.19 139.624 250.487 139.35 251.8L138.59 255.46L138.06 258.02C137.867 258.947 137.677 259.877 137.49 260.81L137.27 261.91C137.19 262.32 137.1 262.73 137.02 263.14C136.14 267.61 135.36 272.14 134.79 276.87C134.79 277.23 134.71 277.58 134.67 277.94C134.63 278.3 134.59 278.62 134.55 278.94C134.55 279.29 134.48 279.64 134.45 279.94C134.35 281.01 134.26 282.09 134.19 283.17C134.08 284.73 134.01 286.31 133.97 287.91C133.93 289.51 133.97 291.32 134.07 292.99C134.07 293.35 134.07 293.7 134.13 294.06C134.13 294.22 134.13 294.39 134.13 294.55C134.13 294.92 134.19 295.28 134.23 295.65C134.65 300.075 135.47 304.453 136.68 308.73C136.78 309.07 136.87 309.42 136.97 309.73L137.07 310.09L137.28 310.76L137.4 311.13L137.59 311.71C138.77 315.344 140.19 318.895 141.84 322.34C142 322.68 142.17 323 142.33 323.34L142.71 324.11L143.21 325.11C143.57 325.777 143.934 326.443 144.3 327.11C145.51 329.29 146.75 331.34 148 333.25L148.22 333.59L148.59 334.15L148.8 334.46L149.2 335.04L149.41 335.34C151.309 338.09 153.37 340.724 155.58 343.23L156.31 344.03L157.06 344.83C158.461 346.371 160.016 347.765 161.7 348.99C162.903 349.936 164.196 350.76 165.56 351.45C166.56 351.94 167.23 352.22 167.73 352.45C168.049 352.57 168.36 352.71 168.66 352.87C168.799 352.936 168.913 353.044 168.987 353.179C169.06 353.313 169.09 353.468 169.07 353.62C169 354.1 168.44 354.72 167.07 355.04C162.278 356.191 157.369 356.785 152.44 356.81H152.43ZM65.7004 354.59C64.8304 354.02 64.3704 353.45 64.3204 352.84C64.1904 351.32 66.3804 349.26 68.3204 347.45C69.621 346.353 70.771 345.088 71.7404 343.69C73.1332 340.982 74.3393 338.182 75.3504 335.31L75.7004 334.36L76.0504 333.36C76.9504 330.89 77.6404 328.86 77.8204 328.36V328.24C77.8625 328.115 77.8795 327.983 77.8706 327.852C77.8617 327.721 77.827 327.592 77.7685 327.475C77.71 327.357 77.6288 327.251 77.5296 327.165C77.4305 327.078 77.3152 327.012 77.1904 326.97C77.0657 326.928 76.9339 326.911 76.8025 326.92C76.6712 326.929 76.5429 326.963 76.425 327.022C76.307 327.08 76.2018 327.162 76.1152 327.261C76.0286 327.36 75.9625 327.475 75.9204 327.6C75.9204 327.6 75.2004 329.74 74.2404 332.39C70.051 330.019 66.0404 327.345 62.2404 324.39C68.7 324.217 74.8567 321.614 79.4804 317.1C79.6504 321.42 79.7904 325.59 79.8804 329.45C79.9304 331.63 79.9704 333.7 80.0004 335.65C80.0004 336.037 80.0004 336.417 80.0004 336.79C80.0004 337.163 80.0004 337.54 80.0004 337.92C80.0004 340.48 80.0004 342.77 80.0004 344.69C80.0004 346.61 79.9404 348.56 79.8904 350.56C79.8304 353.16 79.7704 355.79 79.7704 358.41C74.2704 357.71 68.5004 356.4 65.7104 354.59H65.7004ZM36.2904 313.92C32.6104 309.92 22.4404 294.98 23.3404 288.86C23.3435 288.472 23.4352 288.091 23.6085 287.744C23.7818 287.397 24.0322 287.095 24.3404 286.86C25.6704 286.1 28.4504 287.24 30.9004 288.24C32.4391 288.964 34.0664 289.482 35.7404 289.78C37.9004 290 42.3604 289.48 46.3304 288.9C44.5104 298.53 45.4704 306.51 49.8104 313.76C43.9304 315 37.8404 315.62 36.2904 313.92ZM46.1104 232C46.7404 232.4 47.2304 234.4 47.4904 237.21C46.0871 235.702 44.8808 234.022 43.9004 232.21V232.15C44.5104 231.37 44.7804 231.15 46.1104 232ZM44.1604 236.31C45.2105 237.719 46.3816 239.034 47.6604 240.24C47.6604 241.4 47.6604 242.63 47.6604 243.9C47.5804 246.13 47.7504 248.98 49.7404 251.22C51.1604 252.81 55.8304 256.31 58.8104 258.49C56.8453 261.585 55.0526 264.787 53.4404 268.08C50.0204 266.08 43.9504 262.4 41.4404 259.67C40.4404 258.55 40.9804 252.93 42.7304 246.87C43.6073 243.416 44.0871 239.873 44.1604 236.31ZM90.0004 250.06L90.6504 250.22C92.8041 258.636 93.7403 267.318 93.4304 276C91.5351 275.805 89.6567 275.471 87.8104 275C85.6404 274.31 84.3104 272.33 83.4004 270.69C81.7804 267.76 77.8504 261.19 74.8604 260.27V260.18C72.711 256.658 69.8541 253.621 66.4704 251.26C68.3483 248.825 70.3509 246.488 72.4704 244.26C73.3604 244.65 74.2804 245.04 75.2204 245.41C80.0162 247.349 84.9584 248.904 90.0004 250.06ZM53.1304 315.06C52.9104 314.76 52.7004 314.46 52.5004 314.16C52.3004 313.86 52.1104 313.58 51.9304 313.28C47.5404 306.28 46.4804 298.48 48.4704 288.57L48.5904 287.98L48.6904 287.51C48.6904 287.31 48.7704 287.12 48.8204 286.92L48.9104 286.52V286.45C49.4004 284.38 50.0004 282.23 50.7404 279.97C51.756 276.865 52.9547 273.823 54.3304 270.86L54.7504 269.95L55.1904 269.05C56.7712 265.823 58.5272 262.685 60.4504 259.65L60.9904 258.81L61.5404 257.97C62.8004 256.06 64.0404 254.32 65.2004 252.76C68.077 254.789 70.5578 257.328 72.5204 260.25C71.8919 260.429 71.3389 260.807 70.9454 261.329C70.5519 261.851 70.3395 262.487 70.3404 263.14V263.29C70.2507 263.954 70.3061 264.63 70.5029 265.27C70.6997 265.911 71.0333 266.501 71.4804 267C71.8836 267.418 72.4152 267.689 72.9904 267.77C74.2939 270.093 75.4237 272.51 76.3704 275C77.8704 285.74 78.8704 300.63 79.4704 314.41C73.0504 321.09 66.2804 322.41 61.9204 322.41C61.2304 322.41 60.5304 322.41 59.8404 322.31H59.7504C57.2794 320.157 55.0557 317.735 53.1204 315.09L53.1304 315.06ZM79.4704 284.25C80.6904 287.16 82.2604 289.88 84.0104 290.41C86.3816 291.05 88.8245 291.386 91.2804 291.41C90.6944 293.733 89.9732 296.021 89.1204 298.26C87.2946 303.308 84.6787 308.033 81.3704 312.26C80.9304 302.88 80.3204 293 79.4604 284.29L79.4704 284.25ZM108.09 176C108.599 175.983 109.106 176.072 109.579 176.259C110.052 176.447 110.481 176.729 110.84 177.09C112.22 178.47 112.98 182.15 113.36 185.47C111.462 184.671 109.51 184.003 107.52 183.47C104.062 182.605 100.506 182.188 96.9404 182.23C99.7204 179.72 104.43 176 108.09 176ZM127.23 183.08C127.967 183.056 128.699 183.214 129.36 183.54C131.2 184.54 131.36 190.8 130.76 196.54C126.588 192.631 121.831 189.399 116.66 186.96C119.85 185.09 124.07 183.06 127.23 183.06V183.08ZM136.62 199.08C140.9 199.08 143.91 199.83 145.09 201.2C146.27 202.57 144.36 207.59 141.78 212.47L141.53 212.36C141.43 212.11 141.35 211.85 141.24 211.59C139.333 207.046 136.672 202.858 133.37 199.2C134.38 199.11 135.48 199.06 136.62 199.06V199.08ZM144.4 227.73C144.368 223.5 143.742 219.296 142.54 215.24L142.46 214.97L142.65 215.06C146.09 216.74 149.9 219.25 150.28 221.45C150.47 222.57 147.76 225.21 144.4 227.71V227.73ZM151.06 240.88C150.06 242.72 145.63 244.57 142.6 245.63C143.528 240.801 144.113 235.912 144.35 231C147.18 232.9 150.55 235.68 151.35 238.27C151.492 238.697 151.539 239.15 151.489 239.597C151.439 240.044 151.293 240.475 151.06 240.86V240.88ZM136.77 277.21C137.29 272.92 137.99 268.72 138.77 264.6C141.58 267.14 144.35 270.34 144.32 272.44C144.32 273.64 140.79 275.63 136.77 277.19V277.21ZM138.43 307.81C137.378 303.941 136.652 299.99 136.26 296C139.52 297.23 142.93 299 143.5 300.94C143.82 302 141.44 305 138.43 307.79V307.81ZM157.82 335.47C158.24 336 157.63 338.47 156.45 341.47C154.634 339.371 152.925 337.182 151.33 334.91C152.389 334.737 153.458 334.644 154.53 334.63C156.17 334.61 157.34 334.91 157.82 335.44V335.47ZM149.5 332.2C148 329.89 146.5 327.37 145.09 324.67C148.86 324.94 151.6 325.78 152.19 326.93C152.46 327.51 151.32 329.65 149.5 332.18V332.2ZM143.5 321.58C141.915 318.244 140.552 314.806 139.42 311.29C142.6 311.82 145.94 312.84 146.8 314.44C147.34 315.33 145.74 318.41 143.54 321.55L143.5 321.58ZM136 292.48C135.94 291.05 135.9 289.6 135.93 288.14C135.99 285.45 136.16 282.81 136.42 280.2C139.42 282.08 142.34 284.54 142.54 286.53C142.66 287.71 139.65 290.21 136 292.48ZM139.51 260.86C139.844 259.207 140.177 257.567 140.51 255.94C141.04 253.38 141.57 250.84 142.06 248.33C144.8 250.56 147.37 253.25 147.48 255.17C147.58 256.47 143.73 258.95 139.52 260.86H139.51ZM58.6104 248.33C60.3004 249.42 61.9604 250.5 63.5404 251.61C62.3704 253.17 61.1304 254.91 59.8804 256.82C56.9504 254.68 52.4904 251.34 51.2104 249.9C49.6904 248.19 49.5704 245.83 49.6304 243.97C49.6304 243.43 49.6304 242.77 49.6304 242.04C52.502 244.315 55.5074 246.415 58.6304 248.33H58.6104Z" fill="#4D4D4D"/>
<path d="M74.291 204.436C74.8965 202.87 74.6357 201.31 73.7085 200.951C72.7813 200.593 71.5388 201.571 70.9333 203.137C70.3278 204.703 70.5886 206.263 71.5158 206.622C72.443 206.981 73.6855 206.002 74.291 204.436Z" fill="#4D4D4D"/>
<path d="M104.209 222.927C104.814 221.361 104.554 219.801 103.626 219.442C102.699 219.084 101.457 220.063 100.851 221.629C100.246 223.195 100.507 224.755 101.434 225.113C102.361 225.472 103.603 224.493 104.209 222.927Z" fill="#4D4D4D"/>
<path d="M67.07 30.41C66.21 32.17 64.55 36.16 66.07 38.27C66.312 38.5977 66.6312 38.8606 66.9994 39.035C67.3675 39.2095 67.7731 39.2902 68.18 39.27C70.33 39.27 73.43 37.41 74.8 36.52C76.24 37.64 79.31 40 81.4 40C81.7108 40.0051 82.0196 39.9508 82.31 39.84C84.63 38.92 83.69 34.07 82.96 31.34C84.86 30.26 89.04 27.56 88.77 24.92C88.48 22.08 83.42 21.18 81.35 20.92C80.35 18.15 78.49 14.16 76.43 14.16H76.28C74.28 14.33 72.09 18.02 70.98 20.16H70.54C65.86 20.16 63.16 21 62.54 22.66C61.67 25 65.26 28.71 67.07 30.41ZM64.41 23.35C64.58 22.88 66.41 22.14 70.54 22.14C71.14 22.14 71.54 22.14 71.54 22.14C71.7331 22.1489 71.9246 22.1018 72.0914 22.0042C72.2583 21.9066 72.3932 21.7627 72.48 21.59C73.86 18.85 75.76 16.26 76.39 16.16C77.07 16.36 78.64 19.23 79.68 22.16C79.7447 22.341 79.8603 22.4996 80.0128 22.6166C80.1653 22.7337 80.3484 22.8043 80.54 22.82C83.41 23.07 86.68 24.06 86.78 25.08C86.88 26.1 84 28.55 81.31 30C81.1038 30.1066 80.9412 30.2817 80.8499 30.4952C80.7587 30.7087 80.7446 30.9472 80.81 31.17C81.71 34.17 82.07 37.55 81.56 38.02C81.5038 38.0303 81.4462 38.0303 81.39 38.02C80.12 38.02 77.23 35.94 75.59 34.46C75.4207 34.3078 75.2046 34.2179 74.9773 34.2052C74.75 34.1924 74.5252 34.2576 74.34 34.39C72.79 35.48 69.75 37.22 68.22 37.22C68.04 37.22 67.8 37.22 67.72 37.08C66.93 36 68.13 32.62 69.19 30.67C69.302 30.4737 69.3442 30.2452 69.3097 30.0218C69.2752 29.7984 69.166 29.5934 69 29.44C66.29 27.05 64.11 24.15 64.41 23.35Z" fill="#4D4D4D"/>
<path d="M38.9306 47.93C38.0606 50.26 41.6506 54 43.4606 55.69C42.6006 57.45 40.9406 61.44 42.4606 63.55C42.7026 63.8778 43.0219 64.1406 43.39 64.3151C43.7582 64.4896 44.1637 64.5703 44.5706 64.55C46.7206 64.55 49.8206 62.69 51.1906 61.8C52.5706 62.97 55.6506 65.35 57.7306 65.35C58.0414 65.3549 58.3502 65.3006 58.6406 65.19C60.9606 64.27 60.0206 59.42 59.2906 56.69C61.1906 55.61 65.3706 52.91 65.1106 50.27C64.8206 47.43 59.7606 46.53 57.6906 46.27C56.6906 43.5 54.8306 39.51 52.7706 39.51H52.6206C50.6206 39.68 48.4306 43.37 47.3206 45.51H46.8806C42.2506 45.42 39.5606 46.26 38.9306 47.93ZM48.8706 46.93C50.2506 44.19 52.1506 41.6 52.7806 41.5C53.4606 41.7 55.0306 44.57 56.0706 47.5C56.1354 47.6811 56.2509 47.8396 56.4034 47.9567C56.556 48.0737 56.739 48.1443 56.9306 48.16C59.8006 48.41 63.0706 49.4 63.1706 50.42C63.2706 51.44 60.4306 53.83 57.7006 55.26C57.4944 55.3667 57.3318 55.5418 57.2406 55.7552C57.1493 55.9687 57.1352 56.2073 57.2006 56.43C58.1006 59.43 58.4506 62.81 57.9506 63.28C57.8945 63.2906 57.8368 63.2906 57.7806 63.28C56.5106 63.28 53.6206 61.2 51.9806 59.72C51.8114 59.5678 51.5952 59.4779 51.3679 59.4652C51.1407 59.4525 50.9158 59.5177 50.7306 59.65C49.1806 60.74 46.1406 62.48 44.6106 62.48C44.4306 62.48 44.1906 62.48 44.1106 62.34C43.3206 61.26 44.5206 57.88 45.5806 55.93C45.6903 55.7315 45.7292 55.5017 45.691 55.2782C45.6529 55.0548 45.5399 54.8509 45.3706 54.7C42.6806 52.31 40.5106 49.41 40.8006 48.61C40.9806 48.14 42.8006 47.4 46.9306 47.4C47.5306 47.4 47.9306 47.4 47.9306 47.4C48.1195 47.4127 48.3081 47.3715 48.4745 47.2812C48.6409 47.1909 48.7783 47.0553 48.8706 46.89V46.93Z" fill="#4D4D4D"/>
<path d="M25.4305 23.62C24.5705 25.38 22.9105 29.37 24.4305 31.48C24.6725 31.8078 24.9917 32.0706 25.3599 32.2451C25.728 32.4196 26.1336 32.5003 26.5405 32.48C28.6905 32.48 31.7905 30.62 33.1605 29.73C34.5405 30.9 37.6205 33.29 39.7005 33.29C40.0113 33.2951 40.3201 33.2408 40.6105 33.13C42.9305 32.21 41.9905 27.36 41.2605 24.63C43.1605 23.55 47.3405 20.85 47.0805 18.21C46.7905 15.37 41.7205 14.47 39.6605 14.21C38.6605 11.44 36.8005 7.45001 34.7405 7.45001H34.5905C32.5905 7.62001 30.4005 11.31 29.2905 13.45H28.9005C24.2205 13.45 21.5205 14.29 20.9005 15.95C20.0005 18.18 23.6105 21.92 25.4305 23.62ZM22.7705 16.56C22.9405 16.09 24.7705 15.35 28.9005 15.35C29.5005 15.35 29.9005 15.35 29.9005 15.35C30.0936 15.359 30.2851 15.3118 30.452 15.2142C30.6188 15.1166 30.7537 14.9727 30.8405 14.8C32.2205 12.06 34.1205 9.47001 34.7505 9.37001C35.4305 9.57001 37.0005 12.44 38.0405 15.37C38.1052 15.5511 38.2208 15.7096 38.3733 15.8267C38.5258 15.9437 38.7089 16.0143 38.9005 16.03C41.7705 16.28 45.0405 17.27 45.1505 18.29C45.2605 19.31 42.4105 21.7 39.6805 23.13C39.4743 23.2367 39.3117 23.4118 39.2204 23.6252C39.1292 23.8387 39.1151 24.0773 39.1805 24.3C40.0805 27.3 40.4305 30.68 39.9305 31.15C39.8743 31.1603 39.8167 31.1603 39.7605 31.15C38.4905 31.15 35.6005 29.07 33.9605 27.59C33.7912 27.4378 33.5751 27.3479 33.3478 27.3352C33.1205 27.3225 32.8957 27.3877 32.7105 27.52C31.1605 28.61 28.1205 30.35 26.5905 30.35C26.4105 30.35 26.1705 30.35 26.0905 30.21C25.3005 29.13 26.5005 25.75 27.5605 23.8C27.6701 23.6015 27.709 23.3717 27.6709 23.1482C27.6327 22.9248 27.5198 22.7209 27.3505 22.57C24.6405 20.26 22.4705 17.36 22.7705 16.56Z" fill="#4D4D4D"/>
<path d="M23.4602 67.31C25.7802 66.39 24.8402 61.54 24.1102 58.81C26.0102 57.73 30.1902 55.03 29.9302 52.39C29.6402 49.55 24.5702 48.65 22.5102 48.39C21.5102 45.62 19.6502 41.63 17.5902 41.63H17.4402C15.4402 41.8 13.2502 45.49 12.1402 47.63H11.7002C7.02017 47.63 4.32017 48.47 3.70017 50.13C2.83017 52.46 6.42017 56.19 8.23017 57.89C7.37017 59.65 5.71017 63.64 7.23017 65.75C7.47212 66.0778 7.79139 66.3406 8.15954 66.5151C8.52769 66.6895 8.93327 66.7703 9.34017 66.75C11.4902 66.75 14.5902 64.89 15.9602 64C17.3402 65.17 20.4202 67.55 22.5002 67.55C22.8332 67.5364 23.1599 67.4547 23.4602 67.31ZM8.87017 64.53C8.08017 63.45 9.28017 60.07 10.3402 58.12C10.4498 57.9215 10.4887 57.6917 10.4505 57.4682C10.4124 57.2447 10.2994 57.0409 10.1302 56.89C7.44017 54.5 5.26017 51.6 5.56017 50.8C5.73017 50.33 7.56017 49.59 11.6902 49.59C12.2902 49.59 12.6902 49.59 12.6902 49.59C12.8832 49.599 13.0748 49.5518 13.2416 49.4542C13.4084 49.3566 13.5434 49.2127 13.6302 49.04C15.0102 46.3 16.9102 43.71 17.5402 43.61C18.2202 43.81 19.7902 46.68 20.8302 49.61C20.8949 49.791 21.0104 49.9496 21.163 50.0667C21.3155 50.1837 21.4985 50.2543 21.6902 50.27C24.5602 50.52 27.8302 51.51 27.9402 52.53C28.0502 53.55 25.1902 56 22.4602 57.43C22.2612 57.543 22.107 57.7208 22.0233 57.9337C21.9396 58.1466 21.9314 58.3818 22.0002 58.6C22.9002 61.6 23.2602 64.98 22.7502 65.45C22.694 65.4603 22.6364 65.4603 22.5802 65.45C21.3102 65.45 18.4202 63.37 16.7802 61.89C16.6109 61.7378 16.3948 61.6479 16.1675 61.6352C15.9402 61.6225 15.7154 61.6877 15.5302 61.82C13.9802 62.91 10.9402 64.65 9.41017 64.65C9.20017 64.67 9.00017 64.65 8.87017 64.53Z" fill="#4D4D4D"/>
<path d="M79.8206 66.13H79.6706C77.6706 66.3 75.4806 69.99 74.3706 72.13H73.9306C69.2406 72.13 66.5506 72.97 65.9306 74.63C65.0606 76.96 68.6506 80.69 70.4606 82.39C69.6006 84.15 67.9406 88.14 69.4606 90.25C69.7026 90.5778 70.0219 90.8406 70.39 91.0151C70.7582 91.1896 71.1637 91.2703 71.5706 91.25C73.7206 91.25 76.8206 89.39 78.1906 88.5C79.6306 89.58 82.7006 92 84.7906 92C85.102 92.0019 85.4109 91.9442 85.7006 91.83C88.0206 90.91 87.0806 86.06 86.3506 83.33C88.2506 82.25 92.4306 79.55 92.1706 76.91C91.8806 74.07 86.8106 73.17 84.7506 72.91C83.7206 70.12 81.8806 66.13 79.8206 66.13ZM84.7006 81.92C84.4944 82.0267 84.3318 82.2018 84.2406 82.4152C84.1493 82.6287 84.1352 82.8673 84.2006 83.09C85.1006 86.09 85.4506 89.47 84.9506 89.94C84.8944 89.9503 84.8368 89.9503 84.7806 89.94C83.5106 89.94 80.6206 87.86 78.9806 86.38C78.8114 86.2278 78.5952 86.1379 78.3679 86.1252C78.1407 86.1125 77.9158 86.1777 77.7306 86.31C76.1806 87.4 73.1406 89.14 71.6106 89.14C71.4306 89.14 71.1906 89.14 71.1106 89C70.3106 87.92 71.5106 84.54 72.5806 82.59C72.6903 82.3915 72.7292 82.1617 72.691 81.9382C72.6529 81.7147 72.5399 81.5109 72.3706 81.36C69.6806 79 67.5006 76.09 67.8006 75.29C67.9706 74.82 69.8006 74.08 73.9306 74.08C74.5306 74.08 74.9306 74.08 74.9306 74.08C75.1237 74.089 75.3152 74.0418 75.4821 73.9442C75.6489 73.8466 75.7839 73.7027 75.8706 73.53C77.2506 70.79 79.1506 68.2 79.7806 68.1C80.4606 68.3 82.0306 71.17 83.0706 74.1C83.1354 74.2811 83.2509 74.4396 83.4034 74.5567C83.556 74.6737 83.739 74.7443 83.9306 74.76C86.8006 75.01 90.0706 76 90.1806 77.02C90.2906 78.04 87.4306 80.49 84.7006 81.92Z" fill="#4D4D4D"/>
<path d="M45.0004 83.91C44.0004 81.14 42.1404 77.15 40.0804 77.15H39.9304C37.9304 77.32 35.7404 81.01 34.6304 83.15H34.1904C29.5004 83.15 26.8104 83.99 26.1904 85.66C25.3204 87.99 28.9104 91.72 30.7204 93.42C29.8604 95.18 28.2104 99.17 29.7204 101.28C29.963 101.607 30.2824 101.869 30.6503 102.044C31.0183 102.218 31.4236 102.299 31.8304 102.28C33.9804 102.28 37.0804 100.42 38.4504 99.53C39.8704 100.6 42.9504 103 45.0004 103C45.3118 103.002 45.6207 102.944 45.9104 102.83C48.2304 101.91 47.2904 97.06 46.5604 94.33C48.4604 93.25 52.6404 90.55 52.3804 87.91C52.1204 85.06 47.0504 84.16 45.0004 83.91ZM45.0004 92.91C44.7942 93.0167 44.6315 93.1918 44.5403 93.4052C44.4491 93.6187 44.435 93.8573 44.5004 94.08C45.4004 97.08 45.7504 100.46 45.2504 100.93C45.1942 100.941 45.1366 100.941 45.0804 100.93C43.8104 100.93 40.9204 98.85 39.2804 97.37C39.1019 97.219 38.8761 97.1352 38.6422 97.1334C38.4084 97.1316 38.1813 97.2118 38.0004 97.36C36.8804 98.15 33.6004 100.19 31.8804 100.19C31.7004 100.19 31.4604 100.19 31.3804 100.05C30.5904 98.97 31.7804 95.59 32.8504 93.64C32.96 93.4416 32.9989 93.2117 32.9608 92.9883C32.9226 92.7648 32.8097 92.5609 32.6404 92.41C29.9504 90.02 27.7804 87.12 28.0804 86.32C28.2504 85.85 30.0804 85.11 34.2104 85.11C34.8104 85.11 35.2104 85.11 35.2104 85.11C35.4035 85.119 35.595 85.0718 35.7618 84.9742C35.9287 84.8766 36.0636 84.7327 36.1504 84.56C37.5304 81.82 39.4304 79.23 40.0604 79.13C40.7404 79.33 42.3104 82.2 43.3504 85.13C43.4151 85.3111 43.5307 85.4696 43.6832 85.5867C43.8357 85.7037 44.0188 85.7743 44.2104 85.79C47.0804 86.04 50.3504 87.03 50.4504 88.05C50.5504 89.07 47.6804 91.51 44.9504 92.94L45.0004 92.91Z" fill="#4D4D4D"/>
</g>
<defs>
<clipPath id="clip0">
<rect width="171.1" height="373.77" fill="white"/>
</clipPath>
</defs>
</svg>
