<svg width="238" height="220" viewBox="0 0 238 220" fill="none" xmlns="http://www.w3.org/2000/svg">
<g clip-path="url(#clip0)">
<path d="M139.67 187.13C138.177 189.106 136.55 190.977 134.8 192.73C135.756 192.928 136.701 193.179 137.63 193.48C139.74 194.406 141.785 195.475 143.75 196.68C143.75 196.68 143.75 196.68 143.89 196.68C144.4 196.68 146.36 196.31 149.69 191.17C150.218 190.366 150.686 189.523 151.09 188.65C149.71 188.11 147.99 187.47 147.09 187.26C144.622 187.05 142.143 187.007 139.67 187.13Z" fill="#FAC9B7"/>
<path d="M34.7605 204.46C34.902 203.976 35.1574 203.532 35.5054 203.167C35.8533 202.802 36.2837 202.525 36.7605 202.36C37.9405 201.83 39.0905 201.22 40.1705 200.61C35.9601 198.905 31.8471 196.969 27.8505 194.81C26.4917 195.346 25.1066 195.814 23.7005 196.21H23.5605C23.3841 196.244 23.2181 196.318 23.0757 196.428C22.9333 196.537 22.8185 196.678 22.7405 196.84C22.5505 197.29 22.3605 198.69 24.6705 202.04C29.9905 209.72 36.0905 211.64 38.4605 212.1C38.5836 212.111 38.7074 212.111 38.8305 212.1C38.5305 211.8 38.2205 211.51 37.9205 211.19C35.3005 208.45 34.2705 206.24 34.7605 204.46Z" fill="#FAC9B7"/>
<path d="M90.2201 158.23C89.8301 153.03 89.5101 147.69 89.3301 142.36C89.3301 147.53 89.5001 152.94 89.8301 158.36L90.2201 158.23Z" fill="#FAC9B7"/>
<path d="M81.2597 129.44C81.9497 129.65 83.0497 129.14 83.9797 128.21C84.9097 127.28 85.8797 126.21 86.8297 125.21C84.9431 125.377 83.0864 125.63 81.2597 125.97C80.9279 126.174 80.6472 126.451 80.4391 126.781C80.2311 127.11 80.1013 127.483 80.0597 127.87C80.0266 128.234 80.1315 128.598 80.3537 128.889C80.576 129.18 80.8993 129.376 81.2597 129.44Z" fill="#FAC9B7"/>
<path d="M88.17 171.21C88.0377 171.287 87.8895 171.332 87.737 171.342C87.5844 171.353 87.4315 171.328 87.29 171.27C86.99 171.15 80.03 168.27 78.52 164.15C78.2861 163.545 78.1864 162.896 78.2278 162.249C78.2693 161.601 78.4508 160.97 78.76 160.4C79.0818 159.689 79.6044 159.088 80.2636 158.67C80.9229 158.253 81.6898 158.037 82.47 158.05C84.1318 158.176 85.7269 158.757 87.08 159.73C87.3 159.58 87.58 159.4 87.89 159.22C87.2358 150.19 87.169 141.128 87.69 132.09C87.38 132.53 87.05 132.98 86.69 133.45C83.88 136.99 84.99 140.67 85.43 141.15C85.5894 141.348 85.6676 141.599 85.6486 141.852C85.6297 142.106 85.515 142.342 85.3278 142.514C85.1407 142.686 84.8952 142.78 84.6411 142.777C84.3871 142.775 84.1435 142.676 83.96 142.5C82.65 141.07 81.9 136.28 85.13 132.2C86.3463 130.702 87.3554 129.047 88.13 127.28C88.13 127.04 88.16 126.803 88.22 126.57C87.27 127.57 86.22 128.78 85.38 129.57C84.4085 130.665 83.0494 131.339 81.59 131.45C81.2715 131.45 80.9547 131.403 80.65 131.31C79.8744 131.12 79.1894 130.666 78.7129 130.025C78.2365 129.384 77.9985 128.597 78.04 127.8C78.0461 127.365 78.1308 126.935 78.29 126.53C63 130.28 49.74 140.23 38.69 156.3C31.33 167 23.47 172 13.94 172C11.5937 171.959 9.25369 171.742 6.94 171.35C5.31294 171.035 3.65691 170.894 2 170.93C2.12 171.46 2.75 172.8 4.81 175.16C8.35 179.21 16.36 186.16 27.94 192.61L29.06 193.23L30.19 193.83C34.105 195.891 38.1312 197.734 42.25 199.35C43.37 198.64 44.33 197.98 45.03 197.48C45.73 196.98 46.22 196.6 46.24 196.59C46.4485 196.428 46.7127 196.354 46.9751 196.386C47.2374 196.418 47.4765 196.552 47.64 196.76C47.8024 196.968 47.8757 197.233 47.8438 197.495C47.812 197.757 47.6776 197.996 47.47 198.16L46.9 198.59C46.4 198.96 45.59 199.59 44.58 200.22L43.58 200.89L42.58 201.53C40.9704 202.523 39.3005 203.415 37.58 204.2H37.44C37.2729 204.261 37.1219 204.359 36.9988 204.487C36.8757 204.615 36.7837 204.77 36.73 204.94C36.61 205.41 36.63 206.83 39.43 209.78C40.02 210.41 40.61 210.97 41.2 211.5C41.48 211.75 41.76 212 42.04 212.24C42.32 212.48 42.62 212.72 42.91 212.95C46.2249 215.678 50.2996 217.319 54.58 217.65H54.64C56.96 217.65 63.42 212.4 68.06 208.12L68.98 207.26L69.7 206.58L68.89 206.25L69.89 206.39L70.01 206.28C70.1974 206.094 70.4508 205.989 70.715 205.989C70.9792 205.989 71.2326 206.094 71.42 206.28C71.4997 206.365 71.564 206.463 71.61 206.57C75.9254 207.07 80.2657 207.324 84.61 207.33C87.61 207.33 90.61 207.21 93.61 206.97C92.71 201.6 90.4 187.1 88.86 170.75L88.17 171.21ZM45 162.73C44.7661 162.125 44.6664 161.476 44.7078 160.829C44.7493 160.181 44.9308 159.55 45.24 158.98C45.5666 158.263 46.0977 157.658 46.7666 157.242C47.4355 156.826 48.2125 156.616 49 156.64C50.6618 156.766 52.2569 157.347 53.61 158.32C55.0067 157.303 56.6578 156.694 58.38 156.56C59.2324 156.548 60.068 156.797 60.7742 157.275C61.4805 157.752 62.0234 158.434 62.33 159.23C64.54 163.98 55.71 169.23 54.69 169.79C54.5577 169.867 54.4095 169.912 54.257 169.922C54.1044 169.933 53.9515 169.908 53.81 169.85C53.49 169.73 46.52 166.83 45 162.73ZM70.76 149.59C70.6277 149.667 70.4795 149.712 70.327 149.722C70.1744 149.733 70.0215 149.708 69.88 149.65C69.58 149.53 62.61 146.65 61.11 142.53C60.8761 141.925 60.7764 141.276 60.8178 140.629C60.8593 139.981 61.0408 139.35 61.35 138.78C61.6718 138.069 62.1945 137.468 62.8537 137.05C63.5129 136.633 64.2798 136.417 65.06 136.43C66.7218 136.556 68.3169 137.137 69.67 138.11C71.0667 137.093 72.7178 136.484 74.44 136.35C75.2951 136.33 76.1356 136.574 76.8475 137.048C77.5595 137.522 78.1085 138.203 78.42 139C80.63 143.78 71.8 149 70.78 149.59H70.76Z" fill="#FAC9B7"/>
<path d="M231.08 106.53C230.084 104.26 229.256 101.92 228.6 99.5299C228.14 97.8699 227.79 96.1699 227.44 94.5299C226.937 91.7542 226.194 89.0273 225.22 86.3799C223.079 81.0866 219.791 76.334 215.592 72.4641C211.394 68.5942 206.389 65.7034 200.94 63.9999C196.91 62.6659 192.732 61.8265 188.5 61.4999C187.55 61.4399 186.61 61.4099 185.68 61.4099C168.42 61.4099 154.98 71.7199 147.84 90.4099C145.77 95.8299 144.69 102.02 143.84 107.41C143.74 108.41 141.16 133.29 136.84 142.05C136.771 142.189 136.671 142.31 136.548 142.403C136.425 142.497 136.282 142.561 136.13 142.59C135.977 142.618 135.819 142.61 135.67 142.567C135.521 142.523 135.384 142.446 135.27 142.34C135.11 142.19 118.57 127.16 99.2696 125.22L98.1796 125.13C98.9295 125.606 99.5524 126.257 99.9949 127.027C100.437 127.797 100.686 128.662 100.72 129.55C100.727 130.228 100.599 130.902 100.344 131.53C100.088 132.159 99.709 132.73 99.2297 133.21C98.5386 133.808 97.6537 134.135 96.7396 134.13C95.998 134.139 95.2715 133.919 94.6597 133.5C93.6428 132.668 92.9551 131.502 92.7197 130.21C92.6597 130 92.5896 129.78 92.5296 129.58V129.48C92.3696 128.99 92.1996 128.48 92.0296 128.01C92.2796 129.23 92.5596 130.46 92.9196 131.74C93.3893 133.179 94.0628 134.542 94.9196 135.79C95.1596 136.17 95.3897 136.54 95.6197 136.92C95.9897 137.54 96.2796 138.06 96.5196 138.56C96.838 139.191 97.0636 139.864 97.1897 140.56C97.23 140.821 97.1653 141.088 97.0098 141.301C96.8543 141.515 96.6205 141.658 96.3596 141.7H96.1996C95.9585 141.703 95.7245 141.618 95.5407 141.462C95.3569 141.306 95.2358 141.088 95.1996 140.85C95.1016 140.349 94.9333 139.864 94.6996 139.41C94.4896 138.97 94.2297 138.5 93.8997 137.94C93.6797 137.57 93.4497 137.21 93.2197 136.85C92.3758 135.6 91.6779 134.258 91.1396 132.85C91.1396 141.18 91.5796 149.74 92.1996 157.96C92.9887 158.017 93.7453 158.298 94.381 158.769C95.0167 159.24 95.5052 159.882 95.7896 160.62C96.9197 163.05 95.1596 165.62 93.0296 167.62C94.8296 186.37 97.3897 201.91 98.1897 206.57C99.8097 206.38 101.43 206.15 103.04 205.89C115.18 203.89 124.04 199.55 130.67 193.89C130.99 193.62 131.32 193.35 131.67 193.06C132.02 192.77 132.27 192.5 132.57 192.22C134.241 190.639 135.801 188.945 137.24 187.15C137.009 187.118 136.798 187.006 136.641 186.835C136.484 186.663 136.391 186.442 136.38 186.21C136.38 185.945 136.485 185.69 136.673 185.503C136.86 185.315 137.114 185.21 137.38 185.21H137.58H138.83H140.04H141.21C143.362 185.113 145.519 185.187 147.66 185.43C149.08 185.846 150.478 186.333 151.85 186.89L152.79 187.26L153.72 187.63H153.8C154.21 187.63 156.8 187.49 159.01 182.17C162.35 174.25 159.89 172.43 159.87 172.42C156.781 170.533 153.464 169.048 150 168L149 167.74L148 167.51L147 167.31C145.277 167.105 143.538 167.079 141.81 167.23L140.58 167.28C140.513 167.288 140.446 167.288 140.38 167.28C140.155 167.244 139.949 167.132 139.796 166.963C139.643 166.794 139.553 166.577 139.54 166.35C139.54 166.085 139.645 165.83 139.833 165.643C140.02 165.455 140.274 165.35 140.54 165.35L141.76 165.3C143.632 165.137 145.516 165.174 147.38 165.41C147.85 165.49 148.32 165.59 148.79 165.69C149.86 162.86 150.79 160.06 151.79 157.35C154.703 148.888 156.949 140.212 158.51 131.4C156.576 130.141 154.713 128.775 152.93 127.31C152.828 127.227 152.744 127.124 152.681 127.008C152.619 126.892 152.581 126.765 152.568 126.634C152.555 126.503 152.568 126.371 152.606 126.245C152.644 126.119 152.706 126.002 152.79 125.9C152.873 125.798 152.976 125.714 153.092 125.652C153.208 125.59 153.335 125.551 153.466 125.538C153.597 125.525 153.729 125.538 153.855 125.576C153.981 125.614 154.098 125.677 154.2 125.76C156.056 127.301 158.017 128.712 160.07 129.98H160.15C160.32 130.1 177.72 141.81 200.53 141.81C207.115 141.804 213.66 140.793 219.94 138.81C220.03 138.81 230.73 135.04 234.18 125.92C236.27 120.37 235.24 113.82 231.08 106.53ZM98.7997 140.1C98.5657 139.495 98.466 138.846 98.5075 138.199C98.5489 137.551 98.7305 136.92 99.0396 136.35C99.3614 135.639 99.8841 135.038 100.543 134.62C101.202 134.203 101.969 133.987 102.75 134C104.412 134.125 106.007 134.707 107.36 135.68C108.757 134.664 110.408 134.055 112.13 133.92C112.982 133.908 113.818 134.157 114.524 134.635C115.23 135.112 115.773 135.794 116.08 136.59C118.29 141.34 109.46 146.59 108.44 147.15C108.307 147.227 108.159 147.272 108.007 147.282C107.854 147.293 107.701 147.268 107.56 147.21C107.27 147.1 100.3 144.21 98.7997 140.1ZM117.49 166C117.357 166.077 117.209 166.122 117.057 166.132C116.904 166.143 116.751 166.118 116.61 166.06C116.31 165.94 109.35 163.06 107.84 158.94C107.606 158.335 107.506 157.686 107.547 157.039C107.589 156.391 107.77 155.76 108.08 155.19C108.401 154.479 108.924 153.878 109.583 153.46C110.242 153.043 111.009 152.827 111.79 152.84C113.451 152.966 115.047 153.547 116.4 154.52C117.796 153.503 119.447 152.894 121.17 152.76C122.022 152.748 122.858 152.997 123.564 153.475C124.27 153.952 124.813 154.634 125.12 155.43C127.34 160.17 118.5 165.4 117.49 166ZM189 103.27C188 103.27 187.16 102.08 187.16 100.61C187.16 99.1399 187.97 97.9399 188.99 97.9399C190.01 97.9399 190.83 99.1299 190.83 100.6C190.83 102.07 190 103.27 189 103.27ZM213.82 98.2099C212.82 98.2099 211.98 97.0199 211.98 95.5499C211.98 94.0799 212.79 92.8799 213.81 92.8799C214.83 92.8799 215.65 94.0699 215.65 95.5399C215.65 97.0099 214.85 98.2099 213.83 98.2099H213.82Z" fill="#FAC9B7"/>
<path d="M94.4202 129C94.4902 129.23 94.5601 129.46 94.6301 129.69C94.7586 130.539 95.1668 131.32 95.7902 131.91C96.111 132.103 96.4834 132.194 96.8572 132.169C97.2309 132.144 97.588 132.004 97.8801 131.77C98.4235 131.172 98.7169 130.388 98.7001 129.58C98.7001 128.06 97.3102 126.78 95.9102 126.19C94.9369 125.781 93.934 125.447 92.9102 125.19C93.5015 126.383 93.9899 127.624 94.3702 128.9L94.4202 129Z" fill="#FAC9B7"/>
<path d="M90.7002 169.56C92.2402 186.42 94.7002 201.56 95.5602 206.86L96.2102 206.79C95.4002 202.06 92.9702 187.22 91.2102 169.2L90.7002 169.56Z" fill="#FAC9B7"/>
<path d="M74.4696 138.36C72.9509 138.55 71.5163 139.163 70.3296 140.13C70.1522 140.272 69.9318 140.349 69.7046 140.349C69.4774 140.349 69.2569 140.272 69.0796 140.13C67.9317 139.2 66.5458 138.611 65.0796 138.43C64.6658 138.421 64.259 138.538 63.9128 138.764C63.5665 138.991 63.2969 139.317 63.1396 139.7C62.9625 140.025 62.8592 140.386 62.8367 140.756C62.8142 141.125 62.8732 141.495 63.0096 141.84C63.9296 144.36 68.1596 146.69 70.2096 147.6C72.6196 146.13 77.7496 142.34 76.5996 139.87C76.4483 139.426 76.161 139.042 75.7787 138.771C75.3963 138.5 74.9383 138.356 74.4696 138.36Z" fill="#FBE5AA"/>
<path d="M114.27 137.45C114.12 137.003 113.832 136.615 113.448 136.342C113.063 136.069 112.602 135.924 112.13 135.93C110.614 136.119 109.183 136.732 108 137.7C107.823 137.842 107.603 137.919 107.375 137.919C107.148 137.919 106.928 137.842 106.75 137.7C105.603 136.77 104.217 136.181 102.75 136C102.335 135.984 101.925 136.098 101.578 136.325C101.23 136.553 100.962 136.883 100.81 137.27C100.632 137.595 100.527 137.955 100.502 138.324C100.478 138.694 100.536 139.065 100.67 139.41C101.59 141.93 105.82 144.26 107.87 145.17C110.29 143.71 115.42 139.92 114.27 137.45Z" fill="#FBE5AA"/>
<path d="M58.3498 158.56C56.8302 158.747 55.3948 159.361 54.2098 160.33C54.0324 160.472 53.812 160.549 53.5848 160.549C53.3576 160.549 53.1371 160.472 52.9598 160.33C51.8119 159.4 50.426 158.811 48.9598 158.63C48.5415 158.618 48.1295 158.734 47.7791 158.963C47.4287 159.191 47.1568 159.522 46.9998 159.91C46.835 160.231 46.7408 160.584 46.7236 160.944C46.7063 161.305 46.7664 161.665 46.8998 162C47.8198 164.52 52.0498 166.85 54.0998 167.76C56.5098 166.29 61.6398 162.5 60.4898 160.04C60.3329 159.6 60.0419 159.221 59.658 158.955C59.2741 158.69 58.8165 158.552 58.3498 158.56Z" fill="#FBE5AA"/>
<path d="M87.7105 161.75C87.5331 161.892 87.3127 161.969 87.0855 161.969C86.8583 161.969 86.6378 161.892 86.4605 161.75C85.3126 160.82 83.9267 160.231 82.4605 160.05C82.0467 160.041 81.6399 160.158 81.2937 160.384C80.9474 160.611 80.6779 160.937 80.5205 161.32C80.3428 161.645 80.239 162.006 80.2166 162.375C80.1941 162.745 80.2535 163.116 80.3905 163.46C81.3105 165.98 85.5405 168.31 87.5905 169.22C87.8905 169.04 88.2305 168.82 88.5905 168.57C88.3805 166.24 88.1905 163.87 88.0305 161.5L87.7105 161.75Z" fill="#FBE5AA"/>
<path d="M92.3701 160.05C92.5035 161.723 92.6434 163.39 92.7901 165.05C93.8401 163.82 94.4601 162.57 93.9901 161.54C93.8654 161.176 93.6519 160.85 93.369 160.59C93.0861 160.329 92.7428 160.144 92.3701 160.05Z" fill="#FBE5AA"/>
<path d="M90 160.43C90.15 162.7 90.33 164.95 90.52 167.19L90.99 166.81C90.79 164.67 90.6 162.493 90.42 160.28L90 160.43Z" fill="#FBE5AA"/>
<path d="M123.31 156.27C123.16 155.823 122.872 155.435 122.487 155.162C122.103 154.889 121.641 154.744 121.17 154.75C119.65 154.937 118.215 155.551 117.03 156.52C116.852 156.662 116.632 156.739 116.405 156.739C116.178 156.739 115.957 156.662 115.78 156.52C114.632 155.59 113.246 155.001 111.78 154.82C111.366 154.811 110.959 154.928 110.613 155.154C110.267 155.381 109.997 155.707 109.84 156.09C109.663 156.415 109.559 156.776 109.537 157.145C109.514 157.515 109.573 157.885 109.71 158.23C110.63 160.75 114.86 163.08 116.91 163.99C119.33 162.52 124.46 158.73 123.31 156.27Z" fill="#FBE5AA"/>
<path d="M89.2301 2.16C54.5901 4.87 48.5601 43.39 47.6201 52.6C52.6201 49.6 57.4201 48.08 61.9401 48.08C64.6002 48.083 67.2312 48.6322 69.6704 49.6935C72.1095 50.7548 74.3048 52.3057 76.1201 54.25C76.1201 54.17 76.1201 54.09 76.1201 54.01C76.1201 53.93 76.1201 53.75 76.1201 53.62C76.1201 53.49 76.1201 53.14 76.1201 52.88V52.49C76.1201 52.1 76.1201 51.69 76.1201 51.26V51.17C76.1201 50.77 76.1201 50.35 76.1201 49.92C76.1201 49.78 76.1201 49.63 76.1201 49.48C76.1201 49.14 76.1201 48.79 76.1201 48.48C76.1201 48.31 76.1201 48.14 76.1201 47.97C76.1201 47.6 76.1201 47.21 76.1201 46.82C76.1201 46.67 76.1201 46.52 76.1201 46.37C76.1201 45.82 76.1801 45.25 76.2201 44.67C76.2201 44.11 76.3001 43.53 76.3501 42.94V42.43C76.3901 41.9833 76.4335 41.53 76.4801 41.07L76.5401 40.48C76.5901 40 76.6501 39.48 76.7201 39.02L76.7801 38.54C76.8701 37.87 76.9701 37.2 77.0701 36.54C77.1701 35.88 77.2901 35.21 77.4101 34.54L77.5201 33.98C77.6201 33.47 77.7201 32.98 77.8301 32.43L77.9701 31.79C78.0901 31.25 78.2134 30.7033 78.3401 30.15L78.4601 29.64C78.6401 28.9133 78.8301 28.18 79.0301 27.44V27.37C79.2201 26.68 79.4301 25.98 79.6501 25.28L79.8401 24.68C80.0134 24.1467 80.1934 23.61 80.3801 23.07L80.6201 22.4C80.8201 21.84 81.0301 21.28 81.2501 20.72L81.4501 20.2C81.7501 19.46 82.0601 18.72 82.3801 17.99L82.4501 17.84C82.7501 17.17 83.0701 16.51 83.3901 15.84L83.7001 15.22C83.9668 14.7 84.2401 14.1833 84.5201 13.67L84.8901 13C85.1901 12.46 85.5101 11.93 85.8301 11.4L86.1401 10.88C86.5801 10.18 87.0368 9.48667 87.5101 8.8L87.6701 8.58C88.0901 7.98 88.5268 7.38333 88.9801 6.79L89.4501 6.19C89.8201 5.72 90.2001 5.26 90.5901 4.8L91.1301 4.18C91.5501 3.7 91.9901 3.18 92.4401 2.76L93.0001 2.18L93.1901 2C91.9001 2 90.5701 2.05 89.2301 2.16Z" fill="#D4C0DE"/>
<path d="M97.9199 2.26001C108.16 22.26 108.58 42.26 106.81 56.45C111.6 52.36 116.57 50.28 121.61 50.28C129.32 50.28 135.2 55.07 138.11 58.06C137 46.65 130.92 5.79001 97.9199 2.26001Z" fill="#C2E6FA"/>
<path d="M95.7403 2.37C95.4403 2.65 95.1603 2.94 94.8703 3.23L94.2203 3.87C93.7003 4.41 93.197 4.95666 92.7103 5.51L92.5203 5.72C91.9703 6.35 91.4403 7 90.9303 7.65L90.5003 8.22C90.1403 8.69 89.7903 9.22 89.5003 9.64999L89.0303 10.34C88.7203 10.8 88.4203 11.25 88.1303 11.72L87.6903 12.43C87.4036 12.91 87.1236 13.39 86.8503 13.87L86.4803 14.53C86.187 15.07 85.9036 15.61 85.6303 16.15L85.3803 16.65C84.313 18.8229 83.3747 21.0567 82.5703 23.34L82.5203 23.49C82.2736 24.1567 82.0436 24.85 81.8303 25.57L81.7403 25.85C81.5336 26.5167 81.337 27.1833 81.1503 27.85L81.0803 28.1C80.887 28.8 80.707 29.5 80.5403 30.2V30.28C78.5803 38.5651 77.8226 47.0891 78.2903 55.59C82.1039 52.9993 86.5815 51.5588 91.1903 51.44C96.2475 51.4978 101.101 53.4414 104.8 56.89C106.6 42.83 106.33 22.56 95.7403 2.37Z" fill="#B4D9B9"/>
<path d="M81.6498 111.45C76.0798 101.67 68.6498 89.9099 62.0098 79.6799L81.6498 111.45Z" fill="white"/>
<path d="M232.86 105.62C231.935 103.469 231.156 101.257 230.53 99C230.09 97.4 229.74 95.73 229.4 94.12C228.875 91.2311 228.099 88.3936 227.08 85.64C224.825 80.0787 221.367 75.0861 216.952 71.0211C212.538 66.9561 207.278 63.9196 201.55 62.13C197.362 60.7573 193.024 59.8912 188.63 59.55C169.06 58.37 153.84 69.19 145.99 89.78C143.86 95.3699 142.75 101.69 141.87 107.23C141.87 107.47 139.44 130.63 135.59 140.05C131.59 136.66 116.86 125.05 99.47 123.32C97.1167 123.087 94.7834 122.967 92.47 122.96C102.54 107.96 137.47 64.77 140.02 61.69L140.14 61.54C140.262 61.3887 140.338 61.205 140.358 61.0114C140.377 60.8177 140.34 60.6226 140.25 60.45C139.607 50.6389 137.549 40.9723 134.14 31.75C126.69 12.14 113.58 1.21996 96.28 0.109956H96.06H95.67C93.4735 0.00301526 91.2723 0.0364165 89.08 0.209956C48.14 3.36996 45.48 54 45.45 54.47C45.444 54.5331 45.444 54.5968 45.45 54.66C45.45 54.66 45.45 54.66 45.45 54.72C45.4776 54.834 45.525 54.9423 45.59 55.04C45.75 55.27 53.2 66.14 61.97 79.64C68.62 89.88 76.04 101.64 81.61 111.41C83.96 115.54 85.98 119.31 87.49 122.48C85.7819 122.459 84.079 122.674 82.43 123.12C81.746 123.323 81.0932 123.619 80.49 124C63.6 127.31 49 137.74 37 155.17C27.91 168.46 19.48 170 13.94 170C11.6942 169.957 9.45462 169.746 7.24004 169.37C5.37866 169.018 3.48141 168.894 1.59004 169C1.36162 169.015 1.13854 169.076 0.934026 169.179C0.729511 169.281 0.547725 169.424 0.399443 169.599C0.251162 169.773 0.139405 169.975 0.070797 170.194C0.00218934 170.412 -0.021872 170.642 3.9462e-05 170.87C0.200039 174.3 9.66004 184.48 25.54 193.52C24.78 193.79 24 194.04 23.22 194.26C22.7231 194.35 22.255 194.557 21.8548 194.865C21.4547 195.173 21.1341 195.573 20.92 196.03C20.17 197.72 20.86 200.03 23.03 203.2C28.77 211.49 35.47 213.57 38.03 214.09C38.2343 214.13 38.4419 214.15 38.65 214.15C39.3286 214.132 40.0015 214.021 40.65 213.82C46.59 218.82 52.12 219.63 54.43 219.72H54.54C58.42 219.72 67.36 211.57 70.54 208.54C75.1846 209.115 79.86 209.406 84.54 209.41C87.63 209.41 90.73 209.28 93.83 209.03V209.26C93.8726 209.493 93.9965 209.703 94.1796 209.853C94.3628 210.004 94.5933 210.084 94.83 210.08H95.01C95.1394 210.057 95.263 210.009 95.3737 209.938C95.4845 209.867 95.5802 209.776 95.6554 209.668C95.7307 209.56 95.7839 209.439 95.8121 209.31C95.8404 209.182 95.8431 209.049 95.82 208.92V208.85L96.57 208.77C96.6599 208.903 96.7803 209.012 96.9213 209.089C97.0623 209.165 97.2196 209.207 97.38 209.21H97.56C97.7189 209.177 97.8674 209.107 97.9929 209.004C98.1183 208.901 98.2169 208.769 98.28 208.62C99.95 208.42 101.62 208.19 103.28 207.92C116.46 205.77 125.93 200.8 132.95 194.43C134.256 194.698 135.548 195.031 136.82 195.43C138.803 196.304 140.727 197.307 142.58 198.43C142.953 198.646 143.379 198.753 143.81 198.74C144.046 198.738 144.28 198.711 144.51 198.66C146.51 198.23 148.8 196.1 151.25 192.32C151.847 191.405 152.372 190.446 152.82 189.45L152.98 189.51L153.16 189.57C153.316 189.584 153.474 189.584 153.63 189.57C154.84 189.57 158.11 188.96 160.63 182.89C164.68 173.28 161.09 170.89 160.71 170.67C157.523 168.742 154.102 167.229 150.53 166.17C151.59 163.35 152.53 160.6 153.45 157.98C156.305 149.665 158.531 141.148 160.11 132.5C164.64 135.24 180.49 143.86 200.32 143.86C207.103 143.867 213.847 142.838 220.32 140.81C220.8 140.65 232.01 136.74 235.81 126.74C238.36 120.5 237.29 113.38 232.86 105.62ZM160.09 130H160.01C157.958 128.732 155.996 127.322 154.14 125.78C154.038 125.697 153.921 125.634 153.795 125.596C153.669 125.558 153.537 125.545 153.406 125.558C153.275 125.571 153.148 125.61 153.032 125.672C152.916 125.734 152.813 125.818 152.73 125.92C152.647 126.022 152.584 126.139 152.546 126.265C152.508 126.391 152.495 126.523 152.508 126.654C152.521 126.785 152.56 126.912 152.622 127.028C152.684 127.144 152.768 127.247 152.87 127.33C154.653 128.795 156.516 130.161 158.45 131.42C156.89 140.232 154.643 148.908 151.73 157.37C150.79 160.08 149.82 162.88 148.73 165.71C148.26 165.61 147.8 165.51 147.32 165.43C145.456 165.194 143.572 165.157 141.7 165.32L140.48 165.37C140.215 165.37 139.96 165.475 139.773 165.663C139.585 165.85 139.48 166.105 139.48 166.37C139.493 166.597 139.584 166.814 139.736 166.983C139.889 167.152 140.095 167.264 140.32 167.3C140.386 167.308 140.454 167.308 140.52 167.3L141.75 167.25C143.478 167.099 145.217 167.125 146.94 167.33L147.94 167.53L148.94 167.76L149.94 168.02C153.389 169.039 156.696 170.49 159.78 172.34C159.78 172.34 162.26 174.17 158.92 182.09C156.68 187.41 154.12 187.54 153.71 187.55H153.63L152.7 187.18L151.76 186.81C150.389 186.253 148.99 185.766 147.57 185.35C145.429 185.107 143.272 185.033 141.12 185.13H139.95H138.74H137.49H137.29C137.025 185.13 136.77 185.235 136.583 185.423C136.395 185.61 136.29 185.865 136.29 186.13C136.302 186.362 136.394 186.583 136.551 186.755C136.708 186.926 136.92 187.038 137.15 187.07C135.712 188.865 134.151 190.559 132.48 192.14C132.18 192.42 131.89 192.7 131.58 192.98C131.27 193.26 130.94 193.53 130.58 193.81C123.92 199.47 115.09 203.81 102.95 205.81C101.34 206.07 99.72 206.3 98.1 206.49C97.3 201.84 94.74 186.29 92.94 167.54C95.07 165.54 96.84 162.99 95.7 160.54C95.4054 159.838 94.9244 159.231 94.3093 158.783C93.6941 158.336 92.9681 158.065 92.21 158C91.59 149.78 91.21 141.21 91.15 132.89C91.6883 134.298 92.3862 135.64 93.23 136.89C93.46 137.25 93.69 137.62 93.91 137.98C94.25 138.54 94.5 138.98 94.71 139.45C94.9437 139.904 95.112 140.389 95.21 140.89C95.2462 141.128 95.3673 141.346 95.5511 141.502C95.7348 141.658 95.9689 141.743 96.21 141.74H96.37C96.6309 141.698 96.8647 141.555 97.0202 141.341C97.1757 141.128 97.2404 140.861 97.2 140.6C97.074 139.905 96.8484 139.231 96.53 138.6C96.29 138.1 96.01 137.6 95.63 136.96C95.4 136.58 95.17 136.21 94.93 135.83C94.0732 134.583 93.3997 133.219 92.93 131.78C92.57 130.5 92.29 129.27 92.04 128.05C92.22 128.54 92.38 129.05 92.54 129.52V129.62C92.61 129.83 92.67 130.04 92.73 130.25C92.9655 131.542 93.6532 132.708 94.67 133.54C95.2819 133.959 96.0084 134.179 96.75 134.17C97.6641 134.175 98.549 133.848 99.24 133.25C99.7194 132.77 100.098 132.199 100.354 131.57C100.61 130.942 100.738 130.268 100.73 129.59C100.696 128.703 100.448 127.837 100.005 127.067C99.5628 126.297 98.9399 125.646 98.19 125.17L99.28 125.26C118.58 127.2 135.12 142.26 135.28 142.38C135.394 142.486 135.531 142.563 135.68 142.607C135.83 142.65 135.987 142.658 136.14 142.63C136.292 142.601 136.435 142.537 136.559 142.444C136.682 142.35 136.782 142.229 136.85 142.09C141.18 133.32 143.75 108.44 143.85 107.45C144.71 102.07 145.79 95.8699 147.85 90.45C154.99 71.7299 168.43 61.45 185.69 61.45C186.61 61.45 187.56 61.45 188.51 61.54C192.738 61.8543 196.911 62.6804 200.94 64C206.389 65.699 211.393 68.5846 215.593 72.4492C219.793 76.3138 223.084 81.0612 225.23 86.35C226.204 88.9973 226.947 91.7242 227.45 94.5C227.8 96.14 228.16 97.84 228.61 99.5C229.266 101.89 230.095 104.23 231.09 106.5C235.25 113.79 236.27 120.34 234.14 125.97C230.69 135.09 219.98 138.83 219.9 138.86C213.621 140.843 207.075 141.854 200.49 141.86C177.67 141.84 160.27 130.12 160.09 130ZM143.75 196.67C141.785 195.465 139.74 194.396 137.63 193.47C136.701 193.169 135.756 192.918 134.8 192.72C136.55 190.967 138.177 189.096 139.67 187.12C142.153 186.995 144.642 187.039 147.12 187.25C147.98 187.46 149.71 188.11 151.12 188.64C150.716 189.513 150.248 190.356 149.72 191.16C146.39 196.3 144.43 196.67 143.92 196.67C143.79 196.68 143.75 196.66 143.75 196.67ZM84.6 207.41C80.2558 207.404 75.9154 207.15 71.6 206.65C71.5541 206.543 71.4898 206.445 71.41 206.36C71.2227 206.174 70.9692 206.069 70.705 206.069C70.4409 206.069 70.1874 206.174 70 206.36L69.88 206.47L68.88 206.33L69.69 206.66L68.97 207.34L68.05 208.2C63.41 212.48 56.95 217.73 54.63 217.73H54.57C50.2723 217.399 46.1822 215.746 42.86 213C42.57 212.78 42.28 212.54 41.99 212.29C41.7 212.04 41.43 211.81 41.15 211.55C40.56 211.02 39.97 210.46 39.38 209.83C36.58 206.83 36.56 205.46 36.68 204.99C36.7337 204.82 36.8257 204.666 36.9488 204.537C37.0719 204.409 37.2229 204.311 37.39 204.25H37.53C39.2505 203.465 40.9204 202.573 42.53 201.58L43.53 200.94L44.53 200.27C45.53 199.59 46.35 199.01 46.85 198.64L47.42 198.21C47.6276 198.046 47.762 197.807 47.7938 197.545C47.8257 197.283 47.7524 197.018 47.59 196.81C47.4265 196.602 47.1874 196.468 46.9251 196.436C46.6628 196.404 46.3985 196.478 46.19 196.64C46.19 196.64 45.73 197 44.98 197.53C44.23 198.06 43.33 198.68 42.2 199.4C38.0812 197.784 34.0551 195.941 30.14 193.88L29.01 193.28L28 192.6C16.41 186.17 8.41004 179.21 4.87004 175.15C2.81004 172.79 2.18004 171.46 2.06004 170.92C3.71028 170.885 5.35953 171.026 6.98004 171.34C9.29373 171.732 11.6337 171.949 13.98 171.99C23.51 171.99 31.38 166.99 38.73 156.3C49.73 140.23 63.05 130.3 78.35 126.57C78.1909 126.975 78.1062 127.405 78.1 127.84C78.0585 128.637 78.2965 129.424 78.773 130.065C79.2494 130.706 79.9345 131.16 80.71 131.35C81.0147 131.443 81.3315 131.49 81.65 131.49C83.1095 131.379 84.4685 130.705 85.44 129.61C86.24 128.8 87.33 127.61 88.28 126.61C88.28 126.843 88.25 127.08 88.19 127.32C87.4155 129.087 86.4064 130.742 85.19 132.24C81.96 136.32 82.71 141.11 84.02 142.54C84.2036 142.716 84.4471 142.815 84.7012 142.817C84.9552 142.82 85.2007 142.726 85.3879 142.554C85.575 142.382 85.6897 142.146 85.7087 141.892C85.7276 141.639 85.6495 141.388 85.49 141.19C85.05 140.71 83.94 137.03 86.75 133.49C87.12 133.02 87.45 132.57 87.75 132.13C87.229 141.168 87.2959 150.23 87.95 159.26C87.64 159.44 87.36 159.62 87.14 159.77C85.7869 158.797 84.1919 158.216 82.53 158.09C81.7498 158.077 80.9829 158.293 80.3237 158.71C79.6645 159.128 79.1418 159.729 78.82 160.44C78.5109 161.01 78.3293 161.641 78.2879 162.289C78.2464 162.936 78.3461 163.585 78.58 164.19C80.08 168.29 87.05 171.19 87.35 171.31C87.4915 171.368 87.6445 171.393 87.797 171.382C87.9496 171.372 88.0977 171.327 88.23 171.25L88.88 170.86C90.42 187.21 92.73 201.71 93.63 207.08C90.63 207.32 87.63 207.44 84.63 207.44L84.6 207.41ZM38.46 212.12C36.09 211.66 29.99 209.74 24.67 202.06C22.35 198.71 22.55 197.31 22.74 196.86C22.818 196.698 22.9328 196.557 23.0752 196.448C23.2176 196.338 23.3837 196.264 23.56 196.23H23.7C25.1061 195.834 26.4913 195.366 27.85 194.83C31.8467 196.989 35.9596 198.925 40.17 200.63C39.09 201.25 37.94 201.85 36.76 202.38C36.2832 202.545 35.8529 202.822 35.5049 203.187C35.157 203.552 34.9016 203.996 34.76 204.48C34.27 206.26 35.31 208.48 37.93 211.25C38.23 211.57 38.54 211.86 38.84 212.16C38.7124 212.158 38.5852 212.145 38.46 212.12ZM98.71 129.58C98.7268 130.388 98.4334 131.172 97.89 131.77C97.5979 132.004 97.2408 132.144 96.8671 132.169C96.4933 132.194 96.1209 132.103 95.8 131.91C95.1767 131.32 94.7684 130.539 94.64 129.69C94.57 129.46 94.5 129.22 94.43 129V128.9C94.0498 127.624 93.5614 126.383 92.97 125.19C93.9939 125.447 94.9967 125.781 95.97 126.19C97.31 126.78 98.72 128.06 98.71 129.57V129.58ZM95.7 2.34996C106.29 22.55 106.57 42.81 104.7 56.88C101.001 53.4313 96.1472 51.4878 91.09 51.43C86.4812 51.5488 82.0036 52.9893 78.19 55.58C77.7223 47.079 78.4801 38.5551 80.44 30.27V30.19C80.6067 29.5233 80.7867 28.8233 80.98 28.09L81.05 27.84C81.2367 27.1733 81.4334 26.5066 81.64 25.84L81.73 25.56C81.95 24.8933 82.18 24.2 82.42 23.48L82.47 23.33C83.2747 21.0468 84.213 18.8129 85.28 16.64L85.53 16.14C85.8034 15.6 86.0867 15.06 86.38 14.52L86.75 13.86C87.0234 13.38 87.3034 12.9 87.59 12.42L88.03 11.71C88.32 11.25 88.62 10.79 88.93 10.33L89.4 9.63996C89.74 9.15996 90.09 8.63996 90.4 8.20996L90.83 7.63996C91.34 6.98996 91.83 6.33996 92.42 5.70996L92.61 5.49996C93.0967 4.94662 93.6 4.39996 94.12 3.85996L94.77 3.21996C95.12 2.91996 95.4 2.62996 95.7 2.34996ZM90.21 121L78.42 57.8C82.71 54.89 86.97 53.4 91.08 53.4C93.5758 53.4578 96.0349 54.013 98.3135 55.033C100.592 56.0529 102.644 57.5171 104.35 59.34C103.14 64.63 92.72 110.18 90.21 121ZM106.35 59.56C111.35 54.72 116.46 52.26 121.62 52.26C130.07 52.26 136.32 58.9 138.04 60.94C133.46 66.59 104.17 102.87 92.7 119.1C96 105 105.46 63.45 106.35 59.58V59.56ZM61.94 50.06C70.82 50.06 75.68 56.67 76.38 57.7L87.67 118.3C77.22 98.06 52 60.91 47.87 54.81C52.83 51.68 57.56 50.08 61.94 50.08V50.06ZM92.37 160.06C92.7391 160.148 93.0808 160.325 93.3651 160.576C93.6494 160.827 93.8675 161.145 94 161.5C94.48 162.5 93.86 163.79 92.8 165.01C92.6467 163.377 92.5034 161.723 92.37 160.05V160.06ZM91 166.81L90.53 167.19C90.34 164.95 90.16 162.69 90.01 160.43L90.42 160.28C90.5734 162.487 90.7667 164.663 91 166.81ZM88.65 168.58C88.28 168.83 87.94 169.05 87.65 169.23C85.65 168.31 81.38 165.99 80.45 163.47C80.313 163.126 80.2536 162.755 80.2761 162.385C80.2986 162.016 80.4024 161.655 80.58 161.33C80.7374 160.947 81.007 160.621 81.3532 160.394C81.6995 160.168 82.1063 160.051 82.52 160.06C83.9862 160.241 85.3721 160.83 86.52 161.76C86.6974 161.902 86.9178 161.979 87.145 161.979C87.3722 161.979 87.5927 161.902 87.77 161.76L88.11 161.51C88.21 163.88 88.4 166.24 88.61 168.58H88.65ZM89.88 158.35C89.55 152.94 89.36 147.53 89.38 142.35C89.56 147.68 89.88 153.02 90.27 158.22L89.88 158.35ZM121.61 50.28C116.61 50.28 111.61 52.35 106.81 56.45C108.59 42.31 108.16 22.3 97.92 2.25996C130.92 5.78996 137.04 46.65 138.11 58.06C135.2 55.07 129.32 50.28 121.61 50.28ZM93 2.17996L92.55 2.64996C92.1 3.11996 91.67 3.58996 91.24 4.06996L90.7 4.68996C90.31 5.14996 89.93 5.60996 89.56 6.07996L89.09 6.67996C88.6367 7.26662 88.2 7.86329 87.78 8.46996L87.62 8.68996C87.1467 9.35662 86.69 10.05 86.25 10.77L85.94 11.29C85.62 11.82 85.3 12.35 85 12.89L84.63 13.56C84.35 14.0733 84.0767 14.59 83.81 15.11L83.5 15.73C83.17 16.39 82.86 17.06 82.56 17.73L82.49 17.88C82.16 18.62 81.85 19.35 81.56 20.09L81.36 20.61C81.14 21.17 80.93 21.73 80.73 22.29L80.49 22.96C80.3034 23.4933 80.1234 24.03 79.95 24.57L79.76 25.17C79.54 25.87 79.33 26.56 79.14 27.26V27.33C78.9334 28.0633 78.7434 28.7966 78.57 29.53L78.45 30.04C78.3167 30.5866 78.1934 31.1333 78.08 31.68L77.94 32.32C77.83 32.84 77.73 33.32 77.63 33.87L77.52 34.43C77.4 35.1 77.28 35.77 77.18 36.43C77.07 37.12 76.97 37.79 76.89 38.43L76.83 38.91C76.77 39.4 76.71 39.91 76.65 40.37L76.59 40.96C76.5434 41.42 76.5 41.8733 76.46 42.32V42.83C76.46 43.42 76.37 44 76.33 44.56C76.33 45.14 76.26 45.71 76.23 46.26C76.23 46.41 76.23 46.56 76.23 46.71C76.23 47.1 76.23 47.49 76.23 47.86C76.23 48.03 76.23 48.2 76.23 48.37C76.23 48.73 76.23 49.07 76.23 49.37C76.23 49.52 76.23 49.67 76.23 49.81C76.23 50.24 76.23 50.66 76.23 51.06C76.23 51.06 76.23 51.12 76.23 51.15C76.23 51.58 76.23 51.99 76.23 52.38V52.77C76.23 53.02 76.23 53.27 76.23 53.51C76.23 53.75 76.23 53.77 76.23 53.9C76.23 54.03 76.23 54.07 76.23 54.14C74.4147 52.1956 72.2195 50.6448 69.7803 49.5835C67.3412 48.5222 64.7101 47.973 62.05 47.97C57.53 47.97 52.72 49.49 47.73 52.49C48.68 43.29 54.73 4.75996 89.35 2.04996C90.69 1.94996 92.02 1.88996 93.35 1.88996L93 2.17996ZM86.81 125.18C85.81 126.18 84.75 127.41 83.96 128.18C83.17 128.95 81.96 129.63 81.24 129.41C80.872 129.346 80.5425 129.143 80.3193 128.844C80.0961 128.545 79.9962 128.171 80.04 127.8C80.0816 127.413 80.2114 127.04 80.4195 126.711C80.6275 126.381 80.9082 126.104 81.24 125.9C83.08 125.58 84.9434 125.337 86.83 125.17L86.81 125.18ZM90.68 169.57L91.17 169.21C92.95 187.21 95.38 202.07 96.17 206.8L95.52 206.87C94.66 201.52 92.24 186.42 90.7 169.56L90.68 169.57Z" fill="#4D4D4D"/>
<path d="M78.4202 139C78.1136 138.205 77.5707 137.522 76.8644 137.045C76.1582 136.567 75.3226 136.318 74.4702 136.33C72.748 136.464 71.0968 137.074 69.7002 138.09C68.347 137.117 66.752 136.536 65.0902 136.41C64.31 136.397 63.543 136.613 62.8838 137.03C62.2246 137.448 61.702 138.049 61.3802 138.76C61.071 139.33 60.8895 139.961 60.848 140.609C60.8066 141.256 60.9063 141.905 61.1402 142.51C62.6402 146.61 69.6102 149.51 69.9102 149.63C70.0517 149.688 70.2046 149.713 70.3572 149.702C70.5097 149.692 70.6579 149.647 70.7902 149.57C71.8002 149 80.6302 143.78 78.4202 139ZM63.0002 141.84C62.8639 141.496 62.8048 141.125 62.8273 140.756C62.8498 140.386 62.9532 140.025 63.1302 139.7C63.2876 139.317 63.5571 138.991 63.9034 138.764C64.2496 138.538 64.6564 138.421 65.0702 138.43C66.5364 138.611 67.9223 139.2 69.0702 140.13C69.2475 140.272 69.468 140.349 69.6952 140.349C69.9224 140.349 70.1428 140.272 70.3202 140.13C71.5069 139.163 72.9415 138.55 74.4602 138.36C74.9318 138.355 75.393 138.499 75.7775 138.772C76.162 139.045 76.4501 139.433 76.6002 139.88C77.7502 142.35 72.6002 146.14 70.2102 147.61C68.1702 146.69 63.9402 144.36 63.0002 141.84Z" fill="#4D4D4D"/>
<path d="M107.95 147.3C108.125 147.301 108.298 147.256 108.45 147.17C109.45 146.59 118.3 141.36 116.09 136.61C115.784 135.815 115.241 135.132 114.535 134.655C113.828 134.177 112.993 133.928 112.14 133.94C110.418 134.075 108.767 134.684 107.37 135.7C106.017 134.727 104.422 134.145 102.76 134.02C101.973 133.996 101.196 134.206 100.527 134.622C99.858 135.038 99.3269 135.643 99.0003 136.36C98.6911 136.93 98.5096 137.561 98.4681 138.209C98.4267 138.856 98.5264 139.505 98.7603 140.11C100.26 144.21 107.23 147.11 107.53 147.23C107.664 147.283 107.807 147.307 107.95 147.3ZM100.81 137.3C100.962 136.913 101.23 136.583 101.577 136.355C101.925 136.128 102.335 136.014 102.75 136.03C104.216 136.211 105.602 136.8 106.75 137.73C106.928 137.872 107.148 137.949 107.375 137.949C107.603 137.949 107.823 137.872 108 137.73C109.185 136.761 110.621 136.147 112.14 135.96C112.612 135.954 113.073 136.099 113.458 136.372C113.842 136.645 114.13 137.033 114.28 137.48C115.43 139.95 110.28 143.73 107.89 145.21C105.89 144.3 101.62 141.97 100.69 139.45C100.548 139.102 100.485 138.727 100.505 138.351C100.526 137.976 100.63 137.61 100.81 137.28V137.3Z" fill="#4D4D4D"/>
<path d="M58.3501 156.56C56.6279 156.694 54.9767 157.303 53.5801 158.32C52.2355 157.352 50.6515 156.771 49.0001 156.64C48.2137 156.622 47.4395 156.836 46.7743 157.256C46.1091 157.676 45.5824 158.282 45.2601 159C44.9509 159.57 44.7693 160.201 44.7279 160.849C44.6865 161.496 44.7861 162.145 45.0201 162.75C46.5201 166.85 53.4901 169.75 53.7901 169.87C53.9316 169.928 54.0845 169.953 54.237 169.942C54.3896 169.932 54.5377 169.887 54.6701 169.81C55.6701 169.23 64.5201 164 62.3101 159.25C62.0062 158.449 61.463 157.761 60.7545 157.28C60.046 156.799 59.2065 156.547 58.3501 156.56ZM46.9001 162C46.7637 161.655 46.7047 161.285 46.7272 160.915C46.7496 160.546 46.853 160.185 47.0301 159.86C47.1971 159.482 47.4746 159.163 47.8262 158.945C48.1777 158.727 48.587 158.621 49.0001 158.64C50.4663 158.821 51.8522 159.41 53.0001 160.34C53.1774 160.482 53.3979 160.559 53.6251 160.559C53.8523 160.559 54.0727 160.482 54.2501 160.34C55.4351 159.371 56.8705 158.757 58.3901 158.57C58.8617 158.564 59.3229 158.709 59.7074 158.982C60.0919 159.255 60.3799 159.643 60.5301 160.09C61.6801 162.56 56.5301 166.34 54.1401 167.81C52.0001 166.89 47.8201 164.56 46.9001 162Z" fill="#4D4D4D"/>
<path d="M121.18 152.75C119.458 152.884 117.807 153.494 116.41 154.51C115.057 153.537 113.462 152.956 111.8 152.83C111.02 152.817 110.253 153.033 109.594 153.45C108.935 153.868 108.412 154.469 108.09 155.18C107.781 155.75 107.599 156.381 107.558 157.029C107.517 157.676 107.616 158.325 107.85 158.93C109.35 163.03 116.32 165.93 116.62 166.05C116.762 166.108 116.915 166.133 117.067 166.122C117.22 166.112 117.368 166.067 117.5 165.99C118.5 165.41 127.35 160.18 125.14 155.43C124.835 154.631 124.291 153.945 123.582 153.466C122.874 152.987 122.035 152.737 121.18 152.75ZM109.73 158.23C109.594 157.886 109.535 157.515 109.557 157.146C109.58 156.776 109.683 156.415 109.86 156.09C110.018 155.707 110.287 155.381 110.633 155.154C110.98 154.928 111.386 154.811 111.8 154.82C113.266 155.001 114.652 155.59 115.8 156.52C115.978 156.662 116.198 156.739 116.425 156.739C116.652 156.739 116.873 156.662 117.05 156.52C118.235 155.551 119.671 154.937 121.19 154.75C121.662 154.745 122.123 154.889 122.507 155.162C122.892 155.435 123.18 155.823 123.33 156.27C124.48 158.74 119.33 162.52 116.94 164C114.87 163.08 110.64 160.75 109.72 158.23H109.73Z" fill="#4D4D4D"/>
<path d="M213.839 98.2072C214.85 98.2048 215.666 97.0074 215.663 95.5328C215.659 94.0582 214.837 92.8648 213.826 92.8672C212.815 92.8697 211.999 94.0671 212.003 95.5417C212.006 97.0163 212.828 98.2097 213.839 98.2072Z" fill="#4D4D4D"/>
<path d="M189.024 103.261C190.034 103.259 190.851 102.061 190.848 100.587C190.844 99.1121 190.022 97.9186 189.012 97.9209C188.001 97.9232 187.184 99.1204 187.188 100.595C187.191 102.07 188.013 103.263 189.024 103.261Z" fill="#4D4D4D"/>
</g>
<defs>
<clipPath id="clip0">
<rect width="237.22" height="219.72" fill="white"/>
</clipPath>
</defs>
</svg>
