<svg width="170" height="199" viewBox="0 0 170 199" fill="none" xmlns="http://www.w3.org/2000/svg">
<g clip-path="url(#clip0)">
<path d="M90.6401 81.06C90.9003 81.4423 91.2022 81.7945 91.5401 82.11C92.0197 82.5767 92.5382 83.0016 93.0901 83.38C94.1169 84.12 95.2687 84.6688 96.4901 85C96.4901 84 96.4901 82.43 96.6401 80.4C95.8135 80.02 95.0168 79.61 94.2501 79.17C93.0001 79.76 91.5401 80.51 90.6401 81.06Z" fill="#D4C0DE"/>
<path d="M137.42 38.4299C129.15 29.2999 117.93 28.0899 115.57 27.9399C115.57 28.0599 115.57 28.1699 115.52 28.2899C113.42 39.6299 104.15 54.8499 84.96 62.9599C85.154 63.991 85.4214 65.0069 85.76 65.9999C87.3042 70.4873 90.344 74.3074 94.37 76.8199C94.7033 77.0333 95.0366 77.2399 95.37 77.4399C96.1391 77.8799 96.9301 78.2804 97.74 78.6399L98.74 79.0499L99.61 79.3899C103.346 80.7533 107.293 81.4505 111.27 81.4499C123.63 81.4499 134.6 74.8499 139.05 68.3199C144.33 60.5999 146.69 48.6499 137.42 38.4299Z" fill="#D4C0DE"/>
<path d="M47.5003 84.17H47.3803H47.1903L46.0003 85.51C45.1219 86.4965 44.3037 87.5351 43.5503 88.62C44.4851 88.8527 45.4473 88.957 46.4103 88.93H46.7803C47.47 88.9189 48.1581 88.8621 48.8403 88.76C49.178 88.7129 49.5121 88.6428 49.8403 88.55C49.9293 88.5313 50.0119 88.49 50.0803 88.43C50.1703 88.26 50.2103 87.52 47.8903 84.66L47.5003 84.17Z" fill="#DEE8AD"/>
<path d="M40.9202 33.9999L40.8502 33.8199C36.1864 35.2224 31.9568 37.7898 28.5602 41.2799C26.4644 43.4757 24.8527 46.0868 23.8295 48.9445C22.8063 51.8023 22.3943 54.843 22.6202 57.8699C23.5502 72.7399 42.0502 80.3299 46.5202 81.9499L47.2502 82.2099L48.2502 81.9899C61.8602 78.9899 70.5702 72.4199 73.1202 63.3999C64.6102 60.1499 48.3202 51.8699 40.9202 33.9999Z" fill="#DEE8AD"/>
<path d="M163.48 145.61C158.56 139.61 150.97 138.36 145.48 138.36C143.577 138.346 141.676 138.504 139.8 138.83C139.553 138.88 139.296 138.834 139.081 138.703C138.866 138.571 138.708 138.363 138.64 138.12C137.02 132.3 133.29 129.35 127.57 129.35C125.695 129.355 123.832 129.655 122.05 130.24C121.89 130.299 121.718 130.316 121.549 130.29C121.381 130.263 121.222 130.194 121.087 130.089C120.953 129.984 120.848 129.846 120.782 129.688C120.716 129.531 120.691 129.36 120.71 129.19C120.77 128.66 122.04 116.09 109.95 112.64C108.696 112.275 107.397 112.087 106.09 112.08C96.4503 112.08 91.1503 123.21 91.0903 123.32C90.9877 123.538 90.8098 123.712 90.5893 123.809C90.3689 123.907 90.1206 123.921 89.8903 123.85C87.9769 123.227 85.9821 122.89 83.9703 122.85C81.0965 122.802 78.2863 123.698 75.9703 125.4C75.1939 125.971 74.4977 126.644 73.9003 127.4L73.7103 127.66C73.6349 127.779 73.5354 127.88 73.4183 127.957C73.3011 128.035 73.1689 128.087 73.0303 128.11C72.9771 128.115 72.9235 128.115 72.8703 128.11C72.751 128.111 72.6324 128.091 72.5203 128.05C72.4237 128.017 72.3326 127.97 72.2503 127.91L71.9403 127.67L71.7003 127.49L71.0303 127.01C70.5103 126.65 69.8403 126.21 69.0303 125.71C65.6203 123.64 59.8803 120.86 53.6703 120.86C51.484 120.868 49.3155 121.254 47.2603 122C35.3403 126.2 37.0003 140.8 37.0003 140.94C37.019 141.107 36.9954 141.276 36.9316 141.431C36.8679 141.586 36.7661 141.723 36.6355 141.829C36.505 141.934 36.35 142.005 36.1848 142.035C36.0196 142.065 35.8496 142.053 35.6903 142C32.9419 141.305 30.1151 140.969 27.2803 141C19.6903 141 9.4403 143.55 3.7703 155.67C-0.389703 164.52 2.6303 178 13.7503 184C17.4847 186.063 21.6742 187.162 25.9403 187.2C28.4982 187.247 31.0402 186.788 33.4203 185.85C33.6351 185.749 33.8788 185.728 34.1078 185.79C34.3368 185.852 34.5362 185.994 34.6703 186.19C38.3782 190.867 43.7913 193.881 49.7203 194.57C50.7454 194.697 51.7774 194.761 52.8103 194.76C58.4473 194.625 63.9558 193.048 68.8103 190.18C68.9681 190.083 69.1499 190.031 69.3353 190.031C69.5207 190.031 69.7025 190.083 69.8603 190.18C75.4503 193.49 82.7103 197.03 98.1003 197.03C99.8603 197.03 101.74 197.03 103.66 196.89C122.11 196.03 130.51 187.74 130.59 187.66C130.731 187.518 130.91 187.42 131.107 187.381C131.303 187.342 131.506 187.362 131.69 187.44C135.604 188.959 139.831 189.494 144 189C156.12 187.85 155.47 177.34 155.44 176.89C155.429 176.723 155.46 176.556 155.529 176.404C155.599 176.252 155.706 176.12 155.84 176.02C161.97 171.43 166.26 164.51 167.05 158.02C167.36 155.817 167.201 153.573 166.586 151.435C165.971 149.297 164.913 147.312 163.48 145.61ZM74.4803 154.16C72.2954 156.16 69.4425 157.273 66.4803 157.28C63.2894 157.173 60.2079 156.091 57.6503 154.18C57.4448 154.001 57.3187 153.748 57.3 153.476C57.2812 153.204 57.3713 152.935 57.5503 152.73C57.7293 152.524 57.9827 152.398 58.2546 152.38C58.5265 152.361 58.7948 152.451 59.0003 152.63C59.3003 152.87 66.4603 158.51 73.2203 152.63C73.4218 152.466 73.6792 152.386 73.9381 152.409C74.197 152.431 74.4371 152.554 74.6074 152.75C74.7777 152.946 74.8649 153.201 74.8505 153.461C74.8361 153.72 74.7213 153.964 74.5303 154.14L74.4803 154.16ZM84.3603 179.57H84.1703C79.1703 179.57 77.7403 173.06 77.6803 172.78C77.6246 172.515 77.6765 172.238 77.8247 172.011C77.9729 171.784 78.2051 171.626 78.4703 171.57C78.7355 171.514 79.012 171.566 79.2389 171.714C79.4658 171.863 79.6246 172.095 79.6803 172.36C79.6803 172.41 80.8803 177.68 84.3403 177.57C88.6403 177.43 89.6803 172.57 89.7303 172.37C89.782 172.105 89.937 171.871 90.1611 171.72C90.3852 171.569 90.6601 171.513 90.9253 171.565C91.1905 171.617 91.4243 171.772 91.5753 171.996C91.7263 172.22 91.782 172.495 91.7303 172.76C91.2303 175.06 89.1203 179.43 84.4103 179.58L84.3603 179.57ZM114 154.19C111.443 156.101 108.361 157.183 105.17 157.29C102.208 157.283 99.3552 156.17 97.1703 154.17C96.9793 153.994 96.8645 153.75 96.8501 153.491C96.8357 153.231 96.9229 152.976 97.0932 152.78C97.2635 152.584 97.5036 152.461 97.7625 152.439C98.0214 152.416 98.2788 152.496 98.4803 152.66C105.27 158.54 112.39 152.88 112.69 152.66C112.897 152.508 113.155 152.442 113.409 152.474C113.664 152.507 113.896 152.636 114.058 152.836C114.22 153.035 114.299 153.288 114.279 153.544C114.259 153.8 114.141 154.038 113.95 154.21L114 154.19Z" fill="white"/>
<path d="M78.1804 65.45C76.7199 66.3374 75.4269 67.4747 74.3604 68.81C75.2966 69.1657 76.2888 69.3519 77.2904 69.36H78.2204H79.2904C79.8353 69.3546 80.3796 69.3179 80.9203 69.25C80.4797 67.7018 79.5101 66.3571 78.1804 65.45Z" fill="#C2E6FA"/>
<path d="M106.83 6C104.133 3.71863 100.732 2.43663 97.2001 2.37C87.3101 2.37 79.3201 13.02 79.2001 13.12C79.111 13.2421 78.9955 13.3424 78.8621 13.4134C78.7288 13.4844 78.581 13.5243 78.4301 13.53C78.2814 13.5357 78.1333 13.5081 77.9966 13.4493C77.86 13.3904 77.7382 13.3019 77.6401 13.19C77.5901 13.07 67.8401 2 57.2901 2C53.9529 2.01185 50.7203 3.16583 48.1301 5.27C38.2201 13.02 40.7901 26.41 42.1301 31.34C42.2301 31.7 42.3301 32.02 42.4101 32.28C42.5901 32.87 42.7201 33.21 42.7301 33.28C49.7901 50.28 65.2701 58.28 73.5201 61.46L74.4701 61.81L75.4001 62.14C77.0301 62.7 78.2001 63.02 78.6901 63.14C80.0701 62.7 81.4034 62.2267 82.6901 61.72L83.6301 61.33L84.6301 60.93C102.77 53.08 111.53 38.69 113.52 27.93V27.87C113.58 27.53 113.63 27.2 113.68 26.87C113.73 26.54 113.78 26.2 113.82 25.87C114.85 17.53 112.35 10.37 106.83 6Z" fill="#C2E6FA"/>
<path d="M165 144.35C159.59 137.75 151.38 136.35 145.45 136.35C143.717 136.346 141.986 136.466 140.27 136.71C137.75 129 132 127.34 127.54 127.34C125.919 127.347 124.304 127.548 122.73 127.94C122.73 124.11 121.62 113.89 110.47 110.7C109.037 110.283 107.553 110.067 106.06 110.06C96.6101 110.06 91.0601 118.96 89.6501 121.69C87.7974 121.171 85.8842 120.898 83.9601 120.88C81.4769 120.849 79.0222 121.411 76.8001 122.52C79.4801 113.91 85.8001 94.89 91.9501 85.04C93.5612 86.1716 95.4261 86.8893 97.3801 87.13H97.4801C97.7453 87.13 97.9997 87.0246 98.1872 86.8371C98.3747 86.6496 98.4801 86.3952 98.4801 86.13C98.4801 86.13 98.4301 84.25 98.5801 81.19L98.8901 81.31C102.847 82.7548 107.027 83.4927 111.24 83.49C124.29 83.49 135.92 76.49 140.67 69.49C146.4 61.09 148.93 48.17 138.89 37.08C132.882 30.6268 124.678 26.6533 115.89 25.94C116.89 16.94 114.16 9.22 108.1 4.43C105.044 1.85991 101.193 0.425556 97.2001 0.37C88.0001 0.37 80.6901 8.22 78.3901 11C75.7301 8.22 67.0001 0 57.2901 0C53.5071 0.00788999 49.8407 1.31002 46.9001 3.69C36.0601 12.16 38.7701 26.54 40.2601 31.89C35.265 33.3952 30.7358 36.1485 27.1001 39.89C24.8134 42.2871 23.0558 45.1379 21.9412 48.2577C20.8267 51.3774 20.38 54.6966 20.6301 58C21.6301 73.52 39.2501 81.38 45.0701 83.56C43.5801 85.25 41.7101 87.56 41.4301 88.5C41.3677 88.7124 41.3569 88.9367 41.3986 89.1541C41.4404 89.3715 41.5334 89.5758 41.6701 89.75C42.2701 90.55 43.8701 90.95 46.4301 90.95H47.3701C50.3041 100.488 55.3606 109.237 62.1601 116.54C63.8287 118.342 65.3628 120.264 66.7501 122.29C62.6761 120.206 58.1847 119.068 53.6101 118.96C51.2267 118.953 48.8596 119.352 46.6101 120.14C35.5301 124 34.8101 135.7 34.9001 139.77C32.3951 139.237 29.8411 138.969 27.2801 138.97C19.1101 138.97 8.08011 141.72 1.95011 154.79C-2.59989 164.5 0.680107 179.25 12.8001 185.74C16.824 187.956 21.3365 189.135 25.9301 189.17C28.5051 189.194 31.0653 188.778 33.5001 187.94C37.5362 192.747 43.2633 195.822 49.5001 196.53C50.608 196.669 51.7235 196.739 52.8401 196.74C58.6566 196.634 64.3524 195.062 69.4001 192.17C75.1601 195.53 82.7201 199 98.1401 199C99.9401 199 101.84 199 103.8 198.86C120.71 198.07 129.46 191.35 131.56 189.5C135.616 190.993 139.966 191.514 144.26 191.02C156.55 189.86 157.43 179.84 157.46 177.34C163.79 172.43 168.21 165.16 169.05 158.25C169.374 155.779 169.181 153.268 168.484 150.875C167.787 148.482 166.601 146.26 165 144.35ZM167 158C166.21 164.53 161.92 171.45 155.79 176C155.656 176.1 155.549 176.232 155.479 176.384C155.409 176.536 155.379 176.703 155.39 176.87C155.39 177.32 156.07 187.87 143.95 188.98C139.785 189.447 135.569 188.888 131.67 187.35C131.486 187.272 131.282 187.252 131.086 187.291C130.89 187.33 130.71 187.428 130.57 187.57C130.49 187.65 122.09 195.94 103.64 196.8C101.71 196.89 99.8401 196.94 98.0801 196.94C82.6901 196.94 75.4401 193.4 69.8401 190.09C69.6823 189.993 69.5005 189.941 69.3151 189.941C69.1297 189.941 68.9479 189.993 68.7901 190.09C63.9356 192.959 58.4271 194.535 52.7901 194.67C51.7572 194.671 50.7252 194.607 49.7001 194.48C43.7711 193.792 38.358 190.777 34.6501 186.1C34.516 185.904 34.3166 185.763 34.0876 185.7C33.8586 185.638 33.6149 185.659 33.4001 185.76C31.02 186.698 28.478 187.157 25.9201 187.11C21.6685 187.097 17.4868 186.028 13.7501 184C2.63011 178 -0.389893 164.52 3.77011 155.64C9.45011 143.51 19.6901 141 27.2801 141C30.1149 140.969 32.9417 141.305 35.6901 142C35.8494 142.053 36.0195 142.065 36.1846 142.035C36.3498 142.005 36.5048 141.934 36.6353 141.829C36.7659 141.723 36.8677 141.586 36.9314 141.431C36.9952 141.276 37.0188 141.107 37.0001 140.94C37.0001 140.79 35.3701 126.2 47.2901 121.94C49.3336 121.224 51.4846 120.862 53.6501 120.87C59.8601 120.87 65.6001 123.65 69.0101 125.72C69.8201 126.21 70.4901 126.65 71.0101 127.02L71.6801 127.5L71.9201 127.68L72.2301 127.92C72.3124 127.98 72.4035 128.027 72.5001 128.06C72.6123 128.101 72.7308 128.121 72.8501 128.12C72.9033 128.125 72.9569 128.125 73.0101 128.12C73.1487 128.097 73.2809 128.045 73.3981 127.967C73.5152 127.89 73.6147 127.789 73.6901 127.67L73.8801 127.41C74.4775 126.654 75.1737 125.981 75.9501 125.41C78.2661 123.708 81.0763 122.812 83.9501 122.86C85.9619 122.9 87.9567 123.237 89.8701 123.86C90.1004 123.931 90.3487 123.917 90.5692 123.819C90.7896 123.722 90.9675 123.548 91.0701 123.33C91.1201 123.22 96.4201 112.09 106.07 112.09C107.377 112.097 108.676 112.285 109.93 112.65C122.02 116.11 120.75 128.65 120.69 129.2C120.671 129.37 120.696 129.541 120.762 129.699C120.828 129.856 120.933 129.994 121.067 130.099C121.201 130.204 121.36 130.273 121.529 130.3C121.698 130.326 121.87 130.309 122.03 130.25C123.812 129.665 125.675 129.365 127.55 129.36C133.27 129.36 136.99 132.31 138.62 138.13C138.688 138.373 138.846 138.581 139.061 138.713C139.276 138.844 139.533 138.89 139.78 138.84C141.656 138.514 143.557 138.356 145.46 138.37C150.96 138.37 158.55 139.63 163.46 145.62C164.884 147.321 165.934 149.302 166.544 151.434C167.154 153.567 167.309 155.804 167 158ZM43.5601 88.62C44.3103 87.5353 45.1251 86.4968 46.0001 85.51L47.1401 84.21H47.3301H47.4501L47.8401 84.69C50.1601 87.55 50.1101 88.29 50.0301 88.46C49.9617 88.5199 49.8791 88.5612 49.7901 88.58C49.462 88.6727 49.1278 88.7429 48.7901 88.79C48.1079 88.8921 47.4198 88.9489 46.7301 88.96H46.3601C45.4158 88.9718 44.4742 88.8574 43.5601 88.62ZM28.5601 41.26C31.9567 37.7699 36.1863 35.2025 40.8501 33.8L40.9201 33.98C48.3201 51.87 64.6101 60.16 73.1201 63.39C70.5701 72.4 61.8701 79 48.2501 82L47.2501 82.22L46.5201 81.96C42.0601 80.34 23.5201 72.75 22.6201 57.88C22.39 54.8481 22.7999 51.8017 23.8232 48.9385C24.8465 46.0753 26.4604 43.4592 28.5601 41.26ZM77.6901 13.19C77.7882 13.3019 77.91 13.3904 78.0467 13.4493C78.1833 13.5081 78.3314 13.5357 78.4801 13.53C78.6311 13.5243 78.7788 13.4844 78.9122 13.4134C79.0455 13.3424 79.1611 13.2421 79.2501 13.12C79.3301 13.01 87.3101 2.37 97.2501 2.37C100.765 2.44804 104.146 3.72934 106.83 6C112.35 10.37 114.83 17.53 113.83 25.85C113.83 26.18 113.74 26.51 113.69 26.85C113.64 27.19 113.59 27.51 113.53 27.85V27.91C111.53 38.66 102.78 53.05 84.6401 60.91L83.6401 61.31L82.7001 61.7C81.4134 62.2067 80.0801 62.68 78.7001 63.12C78.2101 63 77.0401 62.67 75.4101 62.12L74.4801 61.79L73.5301 61.44C65.2801 58.28 49.8001 50.31 42.7401 33.26C42.7401 33.26 42.6001 32.89 42.4201 32.26C42.3401 31.99 42.2401 31.68 42.1401 31.32C40.7601 26.39 38.1401 12.99 48.1401 5.25C50.7304 3.15517 53.9588 2.00847 57.2901 2C67.8401 2 77.5901 13.07 77.6901 13.19ZM111.26 81.5C107.283 81.5006 103.336 80.8034 99.6001 79.44L98.7301 79.1L97.7301 78.69C96.9203 78.3304 96.1293 77.9299 95.3601 77.49C95.0134 77.29 94.6801 77.0833 94.3601 76.87C90.3289 74.3432 87.2917 70.5043 85.7601 66C85.4158 64.9909 85.1451 63.9582 84.9501 62.91C104.14 54.8 113.41 39.59 115.51 28.24C115.51 28.12 115.51 28.01 115.56 27.89C117.92 28.04 129.14 29.25 137.41 38.38C146.68 48.61 144.32 60.55 139.02 68.32C134.58 74.89 123.61 81.5 111.26 81.5ZM96.4901 85C95.2707 84.6779 94.1191 84.1393 93.0901 83.41C92.5382 83.0316 92.0197 82.6067 91.5401 82.14C91.2021 81.8244 90.9003 81.4723 90.6401 81.09C91.5401 80.53 92.9901 79.79 94.2501 79.17C95.0101 79.61 95.8068 80.02 96.6401 80.4C96.5201 82.4 96.4901 84 96.4901 85ZM78.1801 65.45C79.5155 66.3646 80.4857 67.7208 80.9201 69.28C80.3793 69.3479 79.8351 69.3847 79.2901 69.39H78.2101H77.2801C76.2785 69.382 75.2864 69.1957 74.3501 68.84C75.417 67.4931 76.7137 66.3455 78.1801 65.45ZM75.0001 64L76.1601 64.38C75.5534 64.8131 74.9693 65.2771 74.4101 65.77C74.6001 65.22 74.8001 64.63 75.0001 64ZM74.2301 124.21C73.8901 124.49 73.5901 124.77 73.3301 125.03C76.7801 101.88 78.5701 79.65 79.1701 71.35C80.0223 71.3568 80.873 71.2797 81.7101 71.12C82.0541 71.0324 82.3598 70.8343 82.5802 70.5561C82.8006 70.2778 82.9236 69.9349 82.9301 69.58C83.0401 68.23 81.9301 66.09 80.4001 64.58C81.3101 64.27 82.2001 63.96 83.0801 63.58C83.2846 64.5966 83.5551 65.5987 83.8901 66.58C85.413 71.149 88.3606 75.1095 92.3001 77.88C91.1625 78.4234 90.0604 79.0379 89.0001 79.72C88.7679 79.8955 88.5966 80.1396 88.5105 80.4177C88.4243 80.6958 88.4277 80.9939 88.5201 81.27C88.9089 82.2559 89.538 83.129 90.3501 83.81C83.3201 95 76.3201 117.21 74.2001 124.26L74.2301 124.21ZM63.6601 115.08C57.1733 108.097 52.3136 99.7643 49.4301 90.68C49.7676 90.6227 50.1015 90.5459 50.4301 90.45C50.7951 90.3652 51.1317 90.187 51.407 89.9328C51.6823 89.6786 51.8867 89.3571 52.0001 89C52.3801 87.66 51.4501 85.94 49.6901 83.74C62.4201 80.74 69.0701 75.21 72.4801 69.68C72.9701 70.68 74.4801 71.23 77.1301 71.39C76.5301 79.74 74.7401 101.86 71.3001 124.89L70.4401 124.34C68.5079 121.034 66.2247 117.946 63.6301 115.13L63.6601 115.08Z" fill="#4D4D4D"/>
<path d="M73.2201 152.66C66.4601 158.52 59.3101 152.88 59.0001 152.66C58.7932 152.508 58.5358 152.442 58.2813 152.475C58.0268 152.507 57.7946 152.636 57.6327 152.836C57.4709 153.035 57.3917 153.288 57.4117 153.544C57.4317 153.8 57.5493 154.038 57.7401 154.21C60.2977 156.121 63.3792 157.203 66.5701 157.31C69.5323 157.303 72.3852 156.19 74.5701 154.19C74.761 154.014 74.8759 153.77 74.8903 153.511C74.9047 153.251 74.8175 152.996 74.6472 152.8C74.4769 152.604 74.2368 152.481 73.9779 152.459C73.719 152.437 73.4616 152.516 73.2601 152.68L73.2201 152.66Z" fill="#4D4D4D"/>
<path d="M112.75 152.64C112.45 152.88 105.32 158.54 98.5399 152.64C98.3385 152.476 98.081 152.396 97.8221 152.419C97.5632 152.441 97.3232 152.564 97.1528 152.76C96.9825 152.956 96.8954 153.211 96.9097 153.471C96.9241 153.73 97.039 153.974 97.2299 154.15C99.4148 156.15 102.268 157.263 105.23 157.27C108.421 157.163 111.502 156.081 114.06 154.17C114.251 153.998 114.368 153.76 114.388 153.504C114.408 153.248 114.329 152.995 114.167 152.796C114.005 152.596 113.773 152.467 113.519 152.434C113.264 152.402 113.007 152.468 112.8 152.62L112.75 152.64Z" fill="#4D4D4D"/>
<path d="M90.91 171.6C90.7813 171.574 90.6487 171.573 90.5197 171.598C90.3908 171.623 90.268 171.673 90.1584 171.746C90.0488 171.818 89.9546 171.911 89.8811 172.02C89.8076 172.129 89.7563 172.251 89.73 172.38C89.73 172.59 88.64 177.44 84.34 177.58C80.89 177.68 79.7 172.42 79.68 172.37C79.6243 172.105 79.4656 171.873 79.2386 171.724C79.0117 171.576 78.7352 171.524 78.47 171.58C78.2048 171.636 77.9726 171.795 77.8244 172.021C77.6763 172.248 77.6243 172.525 77.68 172.79C77.74 173.07 79.2 179.58 84.17 179.58H84.36C89.07 179.43 91.18 175.06 91.64 172.78C91.6946 172.527 91.6491 172.263 91.513 172.043C91.3768 171.823 91.1607 171.664 90.91 171.6Z" fill="#4D4D4D"/>
</g>
<defs>
<clipPath id="clip0">
<rect width="169.16" height="198.99" fill="white"/>
</clipPath>
</defs>
</svg>
