<svg xmlns="http://www.w3.org/2000/svg" width="50" height="52" viewBox="0 0 50 52"><path fill="#3c4a54" d="M15.5 49h-1.67a.84.84 0 0 0 0 1.67h1.67a.84.84 0 0 0 0-1.67zM8.51 47.83a.83.83 0 0 0-.83-.83c-.51 0-1.2.23-1.52.87-.56 1.12.5 2.51.85 2.97.17.21.42.33.67.33a.83.83 0 0 0 .66-1.34 3.3 3.3 0 0 1-.66-1.16h.01a.84.84 0 0 0 .82-.84zM2.25 48.23a.82.82 0 0 0 0 1.18c.15.15.37.25.58.25.23 0 .45-.1.6-.25a.85.85 0 0 0 0-1.18.86.86 0 0 0-1.18 0zM22.25 49.23a.83.83 0 0 0-.25.59.86.86 0 0 0 .84.84.83.83 0 0 0 .83-.84.87.87 0 0 0-.24-.59.86.86 0 0 0-1.18 0zM48.78 16.24L34.75 2.22a4.17 4.17 0 0 0-5.9 0L.99 30.63c-1.32 1.32-1.32 4.13 0 5.46l10.98 11.32c.16.17.38.25.6.25a.82.82 0 0 0 .59-1.41L2.18 34.92c-.68-.69-.69-2.43 0-3.12l14.41-14.69 1.08 1.08L3.75 32.16a1.64 1.64 0 0 0 0 2.34l9.62 9.62c.16.16.37.25.59.25.21 0 .42-.09.58-.25a.83.83 0 0 0 0-1.18l-9.61-9.6 13.92-13.97L34 34.52 22.5 46h-6.67a.83.83 0 1 0 0 1.66h7.01c.22 0 .43-.08.59-.24l12.34-12.31.01-.01 13-12.97a4.15 4.15 0 0 0 0-5.89zm-29.93.77l-1.09-1.09L30.04 3.4a2.5 2.5 0 0 1 2.84-.48zm28.75 3.95L35.18 33.34 20.02 18.19l14.15-14.2L47.6 17.42a2.5 2.5 0 0 1 0 3.54zM27.83 48.17c-.65.49-1 .63-1.16.66v-.01a.84.84 0 0 0-.84-.82.83.83 0 0 0-.83.83c0 .51.23 1.2.87 1.52.23.11.46.16.7.16.94 0 1.9-.73 2.27-1.01.36-.28.44-.8.16-1.17a.83.83 0 0 0-1.17-.16zM34.29 47.16c-1.11-.56-2.5.5-2.96.85a.83.83 0 0 0-.16 1.17c.16.22.41.33.66.33.18 0 .36-.06.51-.17.64-.49 1-.63 1.16-.66v.01a.84.84 0 0 0 1.67-.01c0-.51-.23-1.2-.88-1.52z"/></svg>