<svg xmlns="http://www.w3.org/2000/svg" width="40" height="50" viewBox="0 0 40 50"><path fill="#3c4a54" d="M26.85 39.67h1.98c.46 0 .84-.38.84-.84a.84.84 0 0 0-.84-.83H10.5a.84.84 0 0 0 0 1.67h1.99l-4.4 8.79a.83.83 0 1 0 1.49.75l4.77-9.54h4.48v9.16c0 .46.38.84.84.84.46 0 .83-.38.83-.84v-9.16h4.49l4.77 9.54a.83.83 0 0 0 1.11.37.85.85 0 0 0 .38-1.12zM13.83 5H25.5a.84.84 0 0 0 0-1.67h-5V.83a.84.84 0 0 0-1.67 0v2.5h-5a.84.84 0 0 0 0 1.67zM35.83 7H4.17A4.17 4.17 0 0 0 0 11.17v17.5a.84.84 0 0 0 1.67 0v-17.5a2.5 2.5 0 0 1 2.5-2.5h31.66a2.5 2.5 0 0 1 2.5 2.5v21.66a2.5 2.5 0 0 1-2.5 2.5H4.17a2.5 2.5 0 0 1-2.48-2.16c5.44-5 15.41-1.27 15.51-1.22.35.13.74.01.97-.28.02-.03 2.31-3 7.66-3 5.46 0 9.44 3.12 9.48 3.15.36.28.89.23 1.17-.13a.83.83 0 0 0-.13-1.17 18.1 18.1 0 0 0-9.68-3.49v-1.8a3.2 3.2 0 0 0 2.5-3.23c0-1.95-.24-8.33-3.34-8.33-3.17 0-3.33 6.94-3.33 8.33a3.2 3.2 0 0 0 2.5 3.23v1.79c-4.36.23-6.83 2.24-7.75 3.18-2.35-.8-11.56-3.4-17.01 2.04a.87.87 0 0 0-.24.59C0 35.13 1.87 37 4.17 37h31.66c2.3 0 4.17-1.87 4.17-4.17V11.17C40 8.87 38.13 7 35.83 7zM24.17 22c0-4.13.97-6.67 1.66-6.67.68 0 1.67 2.38 1.67 6.67 0 1.03-.64 1.67-1.67 1.67-1.01 0-1.66-.66-1.66-1.67z"></path><path fill="#3c4a54" d="M7 16.17c0 .46.37.83.83.83h.99l.1.24-.7.7a.82.82 0 0 0 0 1.17c.16.17.38.25.59.25.21 0 .43-.08.59-.25l.7-.69.23.09v.99a.84.84 0 0 0 1.67 0v-.99l.24-.09.69.69a.83.83 0 0 0 1.18 0 .82.82 0 0 0 0-1.17l-.69-.7.09-.24h.99a.84.84 0 0 0 0-1.67h-.99l-.09-.23.69-.7a.83.83 0 0 0 0-1.18.82.82 0 0 0-1.17 0l-.7.7-.24-.1v-.99a.84.84 0 0 0-1.67 0v.99a1.6 1.6 0 0 0-.23.1l-.7-.7a.84.84 0 0 0-1.18 1.18l.7.7a1.6 1.6 0 0 0-.1.23h-.99a.84.84 0 0 0-.83.84zm4.17-.84a.84.84 0 0 1 0 1.67.84.84 0 0 1-.84-.83c0-.46.38-.84.84-.84z"></path></svg>