<svg xmlns="http://www.w3.org/2000/svg" width="51" height="51" viewBox="0 0 51 51"><path fill="#3c4a54" d="M7.83 43.67H9.5a.84.84 0 0 0 0-1.67H7.83a.84.84 0 0 0 0 1.67zM31.17 35.83a.84.84 0 0 0-.84-.83h-2.5a.84.84 0 0 0 0 1.67h2.5c.46 0 .84-.38.84-.84zM12.83 16.67h8.34a.84.84 0 0 0 0-1.67h-8.34a.84.84 0 0 0 0 1.67zM25.83 39.67h1.67a.84.84 0 0 0 0-1.67h-1.67a.84.84 0 0 0 0 1.67zM28 18.83c0 .46.37.84.83.84h8.34a.84.84 0 0 0 0-1.67h-8.34a.83.83 0 0 0-.83.83zM20 42.83c0 .46.37.84.83.84h8.34a.84.84 0 0 0 0-1.67h-8.34a.83.83 0 0 0-.83.83zM36.17 16.67a.84.84 0 0 0 0-1.67h-3.34a.84.84 0 0 0 0 1.67zM23.83 35h-5a.84.84 0 0 0 0 1.67h5c.46 0 .84-.38.84-.84a.84.84 0 0 0-.84-.83zM12.83 19.67h13.34a.84.84 0 0 0 0-1.67H12.83a.84.84 0 0 0 0 1.67zM7.83 19.67H9.5a.84.84 0 0 0 0-1.67H7.83a.84.84 0 0 0 0 1.67zM7.83 16.67H9.5a.84.84 0 0 0 0-1.67H7.83a.84.84 0 0 0 0 1.67zM7.83 23.67H9.5a.84.84 0 0 0 0-1.67H7.83a.84.84 0 0 0 0 1.67z"/><path fill="#3c4a54" d="M32.5 48.67H4.17a2.5 2.5 0 0 1-2.5-2.5V12.83a.84.84 0 0 0-1.67 0v33.34a4.17 4.17 0 0 0 4.17 4.16H32.5a.83.83 0 1 0 0-1.66z"/><path fill="#3c4a54" d="M7.83 39.67H9.5a.84.84 0 0 0 0-1.67H7.83a.84.84 0 0 0 0 1.67zM7.83 26.67H9.5a.84.84 0 0 0 0-1.67H7.83a.84.84 0 0 0 0 1.67zM7.83 33.67H9.5a.84.84 0 0 0 0-1.67H7.83a.84.84 0 0 0 0 1.67zM7.83 36.67H9.5a.84.84 0 0 0 0-1.67H7.83a.84.84 0 0 0 0 1.67zM7.83 29.67H9.5a.84.84 0 0 0 0-1.67H7.83a.84.84 0 0 0 0 1.67zM12.83 23.67h3.34a.84.84 0 0 0 0-1.67h-3.34a.84.84 0 0 0 0 1.67zM32.5 32.83a.83.83 0 0 0-.83-.83h-5.84a.84.84 0 0 0 0 1.67h5.84c.46 0 .83-.38.83-.84zM12.83 36.67h3.34a.84.84 0 0 0 0-1.67h-3.34a.84.84 0 0 0 0 1.67zM49.5 38.67h-1.27a9.32 9.32 0 0 0-.3-.73l.9-.9a.85.85 0 0 0 0-1.18l-2.36-2.35a.83.83 0 0 0-1.18 0l-.9.89a9.1 9.1 0 0 0-.72-.3v-1.27a.84.84 0 0 0-.84-.83H39.5a.83.83 0 0 0-.83.83v1.27c-.25.09-.49.19-.73.3l-.9-.89a.85.85 0 0 0-1.18 0l-2.35 2.35a.83.83 0 0 0 0 1.18l.89.9c-.11.23-.21.48-.3.73h-1.27a.83.83 0 0 0-.83.83v3.33c0 .46.37.84.83.84h1.27c.09.24.19.49.3.72l-.89.9a.83.83 0 0 0 0 1.18l2.35 2.36c.32.31.87.31 1.18 0l.9-.9c.24.11.48.21.73.3v1.27c0 .46.37.83.83.83h3.33c.46 0 .84-.37.84-.83v-1.27c.24-.09.49-.19.72-.3l.9.9c.16.15.37.24.59.24.22 0 .43-.09.59-.24l2.36-2.36a.85.85 0 0 0 0-1.18l-.9-.89c.11-.24.21-.49.3-.73h1.27c.46 0 .83-.38.83-.84V39.5a.83.83 0 0 0-.83-.83zM47.61 42a.82.82 0 0 0-.8.63 6.1 6.1 0 0 1-.62 1.49c-.2.33-.15.75.12 1.02l.75.74-1.18 1.18-.74-.74a.83.83 0 0 0-1.02-.13 6 6 0 0 1-1.5.62.83.83 0 0 0-.62.8v1.06h-1.67v-1.06a.83.83 0 0 0-.62-.8 6.16 6.16 0 0 1-1.5-.62.82.82 0 0 0-1.01.13l-.75.74-1.18-1.18.75-.74a.85.85 0 0 0 .13-1.02 5.4 5.4 0 0 1-.62-1.49.84.84 0 0 0-.81-.63h-1.05v-1.67h1.05c.38 0 .71-.25.81-.62.13-.53.34-1.04.62-1.5a.85.85 0 0 0-.13-1.02l-.75-.74 1.18-1.18.75.75c.27.27.68.32 1.01.13.46-.28.97-.49 1.5-.62.37-.1.62-.43.62-.81v-1.05H42v1.05c0 .38.26.71.62.81.53.13 1.04.34 1.5.62.33.19.75.14 1.02-.13l.74-.75 1.18 1.18-.74.75a.82.82 0 0 0-.13 1.01c.27.47.48.97.62 1.5.09.37.42.62.8.62h1.06V42zM12.83 39.67h10c.46 0 .84-.38.84-.84a.84.84 0 0 0-.84-.83h-10a.84.84 0 0 0 0 1.67z"/><path fill="#3c4a54" d="M40.5 38a2.5 2.5 0 1 0 0 5 2.5 2.5 0 0 0 0-5zm0 3.33a.83.83 0 1 1 0-1.66.83.83 0 1 1 0 1.66zM45.83 0H4.17A4.17 4.17 0 0 0 0 4.17v5c0 .46.37.83.83.83h45c.46 0 .84-.37.84-.83a.85.85 0 0 0-.84-.84H1.67V4.17a2.5 2.5 0 0 1 2.5-2.5h41.66a2.5 2.5 0 0 1 2.5 2.5V32.5a.84.84 0 0 0 1.67 0V4.17C50 1.87 48.13 0 45.83 0z"/><path fill="#3c4a54" d="M5 4.67a1.66 1.66 0 1 0 3.33 0 1.66 1.66 0 0 0-3.33 0zM10 4.67a1.66 1.66 0 1 0 3.33 0 1.66 1.66 0 0 0-3.33 0zM15 4.67a1.66 1.66 0 1 0 3.33 0 1.66 1.66 0 0 0-3.33 0zM12.83 43.67h5c.46 0 .84-.38.84-.84a.84.84 0 0 0-.84-.83h-5a.84.84 0 0 0 0 1.67zM35.5 26.67a.84.84 0 0 0 0-1.67h-6.67a.84.84 0 0 0 0 1.67zM42 22.83a.83.83 0 0 0-.83-.83H27.83a.84.84 0 0 0 0 1.67h13.34c.46 0 .83-.38.83-.84zM28.83 15h-5a.84.84 0 0 0 0 1.67h5c.46 0 .84-.38.84-.84a.84.84 0 0 0-.84-.83zM38 28.83a.83.83 0 0 0-.83-.83H23.83a.84.84 0 0 0 0 1.67h13.34c.46 0 .83-.38.83-.84zM12.83 33.67h10c.46 0 .84-.38.84-.84a.84.84 0 0 0-.84-.83h-10a.84.84 0 0 0 0 1.67zM18.83 22a.84.84 0 0 0 0 1.67h5c.46 0 .84-.38.84-.84a.84.84 0 0 0-.84-.83zM12.83 29.67h8.34a.84.84 0 0 0 0-1.67h-8.34a.84.84 0 0 0 0 1.67zM12.83 26.67h13.34a.84.84 0 0 0 0-1.67H12.83a.84.84 0 0 0 0 1.67z"/></svg>