<svg fill="#3c4a54" xmlns="http://www.w3.org/2000/svg" xmlns:xlink="http://www.w3.org/1999/xlink" version="1.1" x="0px" y="0px" viewBox="0 0 64 64" enable-background="new 0 0 64 64" xml:space="preserve"><path fill="#3c4a54" d="M21.5,48c0-1.71-2.149-3-5-3s-5,1.29-5,3s2.149,3,5,3S21.5,49.71,21.5,48z M13.5,48c0-0.249,1.064-1,3-1  s3,0.751,3,1s-1.064,1-3,1S13.5,48.249,13.5,48z"></path><path fill="#3c4a54" d="M58.422,31.615c-0.051-0.122-0.124-0.231-0.216-0.323L42.208,15.294c-0.092-0.092-0.201-0.166-0.323-0.216  C41.764,15.027,41.633,15,41.5,15H27.38c-0.743-3.433-5.248-6-10.88-6c-6.169,0-11,3.075-11,7v32c0,3.925,4.831,7,11,7h41  c0.552,0,1-0.447,1-1V32C58.5,31.866,58.473,31.736,58.422,31.615z M42.5,18.414L55.086,31H42.5V18.414z M16.5,11  c4.878,0,9,2.29,9,5v27.935C23.526,42.15,20.266,41,16.5,41s-7.026,1.15-9,2.935V16C7.5,13.29,11.622,11,16.5,11z M7.5,48  c0-2.71,4.122-5,9-5s9,2.29,9,5s-4.122,5-9,5S7.5,50.71,7.5,48z M24.264,53c2.007-1.261,3.236-3.022,3.236-5V17h13v15  c0,0.553,0.448,1,1,1h15v20H24.264z"></path></svg>