<svg xmlns="http://www.w3.org/2000/svg" width="45" height="50" viewBox="0 0 45 50"><path fill="#3c4a54" d="M24.29 0C14.69 0 4.5 2.29 4.3 6.54 3.14 12.9-.44 33.71 1.63 36.2c.26.3.6.47.97.47 1.18 0 2.59-.93 4.38-11.95.9-5.59 1.47-11.25 1.47-11.3a.83.83 0 0 0-.74-.92.83.83 0 0 0-.91.75c-.92 9.2-2.67 19.53-4.04 21.49-.65-2.57.8-14.29 2.77-25.62 2.06 1.88 6.22 2.9 8.76 3.37v5.01a2.5 2.5 0 0 0 3.33 2.36V20a3.34 3.34 0 0 0 6.67 0v-1.81a2.5 2.5 0 0 0 3.33-2.36v-2.59c2.35-.12 4.62-.38 6.67-.75v1.68a2.5 2.5 0 0 0 2.5 2.5 2.5 2.5 0 0 0 2.5-2.5v-2.98c1.41-.52 2.51-1.1 3.33-1.74v8.05c0 1.31-2.87 3.11-9.3 4.18-.4.07-.7.41-.7.82v16.67c0 .24.11.47.3.63.15.13.34.2.54.2l.13-.01c2.76-.46 6.79-1.38 9.03-3.06v6.4c0 2.09-6.97 5-18.33 5s-18.33-2.91-18.33-5V37.5a.83.83 0 0 0-.84-.83.83.83 0 0 0-.83.83v5.83c0 4.33 10.31 6.67 20 6.67 9.7 0 20-2.34 20-6.67V6.67c0-4.33-10.3-6.67-20-6.67zm10 38.17V23.2c2.7-.49 6.27-1.4 8.33-2.94v13.91c0 1.24-2.58 2.92-8.33 4zm3.9-28.37a.85.85 0 0 0-.57.8v3.57a.83.83 0 1 1-1.66 0v-2.69a.83.83 0 0 0-1.01-.82c-2.42.51-5.26.84-8.19.96a.82.82 0 0 0-.8.83v3.38c0 .46-.38.84-.84.84a.84.84 0 0 1-.83-.84.84.84 0 0 0-1.67 0V20a1.66 1.66 0 1 1-3.33 0v-2.5a.84.84 0 0 0-1.67 0 .83.83 0 1 1-1.66 0v-4.75c2.35.34 4.86.54 7.49.58h.01a.84.84 0 0 0 .01-1.67 55.26 55.26 0 0 1-8.21-.69c-6.39-1.06-9.3-2.98-9.3-4.3 0-2.09 6.97-5 18.33-5s18.33 2.91 18.33 5c0 1.02-1.69 2.22-4.43 3.13z"/><path fill="#3c4a54" d="M24.67 29.99c0-1.62-2.26-4.22-2.72-4.73a.86.86 0 0 0-1.24 0c-.45.51-2.71 3.11-2.71 4.73a3.34 3.34 0 0 0 6.67 0zm-5 0c0-.53.78-1.77 1.66-2.88.89 1.11 1.67 2.35 1.67 2.88a1.66 1.66 0 0 1-3.33 0z"/></svg>